<?xml version="1.0" encoding="utf-8"?>
<!-- Generator: Adobe Illustrator 21.0.0, SVG Export Plug-In . SVG Version: 6.00 Build 0)  -->
<svg version="1.1" id="Capa_1" xmlns="http://www.w3.org/2000/svg" xmlns:xlink="http://www.w3.org/1999/xlink" x="0px" y="0px"
	 viewBox="0 0 65 46.3" style="enable-background:new 0 0 65 46.3;" xml:space="preserve">
<style type="text/css">
	.st0{fill:none;stroke:#FFFFFF;stroke-width:4.1274;stroke-linecap:round;stroke-miterlimit:10;}
	.st1{fill:none;stroke:#FFFFFF;stroke-width:4.1274;stroke-linecap:round;stroke-linejoin:round;stroke-miterlimit:10;}
	.st2{fill:#FFFFFF;}
	.st3{fill:#FFFFFF;stroke:#FFFFFF;stroke-width:2.0238;stroke-miterlimit:10;}
</style>
<g>
	<path class="st2" d="M32,0c12.6,0,20.5,12.8,15,23.6c-1,1.9-2.2,3.8-3.3,5.6c-3.2,5.3-6.3,10.6-9.5,15.9c-0.9,1.6-2,1.6-3,0
		c-4.1-6.6-8.2-13.3-12.3-19.9c-4.1-6.7-3.5-14.4,1.8-20.1C23.9,1.7,27.9,0.1,32,0z M32.7,42.3c0.1-0.2,0.2-0.3,0.3-0.4
		c3.7-6.2,7.4-12.4,11.1-18.5c1.7-2.8,2.4-5.8,1.8-9C45,8.8,41.8,5,36.6,3.4c-5.3-1.7-10-0.4-13.8,3.6c-4.5,4.7-5,11.2-1.5,16.9
		c3.6,5.9,7.3,11.8,11,17.7C32.3,41.8,32.5,42,32.7,42.3z"/>
	<path class="st2" d="M40.6,16.4c-0.1,4.5-3.9,8.1-8.3,8c-4.5-0.1-8.1-3.8-8-8.2c0.1-4.5,3.9-8.2,8.3-8C37.2,8.3,40.8,12,40.6,16.4z
		 M32.5,21.7c3,0,5.5-2.5,5.4-5.5c0-3-2.5-5.4-5.4-5.4c-3,0-5.5,2.5-5.4,5.5C27.1,19.3,29.5,21.7,32.5,21.7z"/>
</g>
</svg>
