<?xml version="1.0" encoding="iso-8859-1"?>
<!-- Generator: Adobe Illustrator 21.1.0, SVG Export Plug-In . SVG Version: 6.00 Build 0)  -->
<svg version="1.1" id="Capa_1" xmlns="http://www.w3.org/2000/svg" xmlns:xlink="http://www.w3.org/1999/xlink" x="0px" y="0px"
	 viewBox="133.413 -327.554 243.169 243.169" style="enable-background:new 133.413 -327.554 243.169 243.169;"
	 xml:space="preserve">
<path style="fill:#2B4575;" d="M254.998-327.554c-67.149,0-121.584,54.435-121.584,121.584S187.848-84.385,254.998-84.385
	s121.584-54.435,121.584-121.584S322.147-327.554,254.998-327.554z M312.915-199.517l-86.846,78.161
	c-3.627,3.138-9.112,2.742-12.25-0.885c-3.051-3.526-2.773-8.833,0.63-12.021l79.672-71.709l-79.672-71.709
	c-3.5-3.279-3.68-8.775-0.401-12.275c3.188-3.403,8.494-3.681,12.021-0.63l86.846,78.161c3.564,3.21,3.85,8.701,0.64,12.265
	C313.353-199.933,313.14-199.719,312.915-199.517z"/>
</svg>
