<?xml version="1.0" encoding="iso-8859-1"?>
<!-- Generator: Adobe Illustrator 21.1.0, SVG Export Plug-In . SVG Version: 6.00 Build 0)  -->
<svg version="1.1" id="Capa_1" xmlns="http://www.w3.org/2000/svg" xmlns:xlink="http://www.w3.org/1999/xlink" x="0px" y="0px"
	 viewBox="-219.069 -327.554 243.169 243.169" style="enable-background:new -219.069 -327.554 243.169 243.169;"
	 xml:space="preserve">
<path style="fill:#2B4575;" d="M-219.069-205.97c0,67.149,54.435,121.584,121.584,121.584S24.1-138.821,24.1-205.97
	S-30.336-327.554-97.485-327.554S-219.069-273.119-219.069-205.97z M-156.042-200.157c-3.21-3.564-2.924-9.055,0.64-12.265
	l86.846-78.161c3.526-3.051,8.833-2.773,12.021,0.63c3.279,3.5,3.1,8.996-0.401,12.275l-79.672,71.709l79.672,71.709
	c3.403,3.188,3.681,8.494,0.63,12.021c-3.138,3.627-8.623,4.023-12.25,0.885l-86.846-78.161
	C-155.627-199.719-155.84-199.933-156.042-200.157z"/>
</svg>
