<?xml version="1.0" encoding="utf-8"?>
<!-- Generator: Adobe Illustrator 21.1.0, SVG Export Plug-In . SVG Version: 6.00 Build 0)  -->
<svg version="1.1" id="Layer_1" xmlns="http://www.w3.org/2000/svg" xmlns:xlink="http://www.w3.org/1999/xlink" x="0px" y="0px"
	 viewBox="0 0 349.3 85.4" style="enable-background:new 0 0 349.3 85.4;" xml:space="preserve">
<style type="text/css">
	.st0{fill:#0A4E8D;}
	.st1{fill:#DC7D32;}
	.st2{fill-rule:evenodd;clip-rule:evenodd;fill:#2D3776;}
	.st3{fill:#2D3776;}
	.st4{fill:#DB1F26;}
</style>
<g>
	<path class="st2" d="M203,72.5c-0.4,0.7-0.4,0.9-1.2,1.2c-0.3,0.1-0.6,0.1-0.9,0c-0.8-0.3-0.9-0.8-1.2-1.4l-27-50.8
		c-0.2-0.4-0.5-0.8-0.5-1.3c0,0-0.2-1.3,1.1-1.3c2.9,0,5.3,0.1,8,0.1c0.9,0,1.4,0.2,1.8,0.9l17.3,33.3c0.3,0.5,0.4,0.6,0.7,0.9
		c0.6,0.2,1.1,0.1,1.4-0.6l16.9-32.2c0,0,1-2.3,2.1-2.3c2.7,0,5.3,0.2,8.1,0.2c1.2,0,1.2,0.9,1.1,1.2c-0.8,1.4-1.2,2.2-1.5,2.9
		L203,72.5z"/>
	<path class="st2" d="M247.8,12.5c0.4-0.7,0.4-0.9,1.2-1.2c0.3-0.1,0.6-0.1,0.9,0c0.8,0.3,0.9,0.8,1.2,1.4l27,50.8
		c0.2,0.4,0.5,0.8,0.5,1.3c0,0,0.2,1.3-1.1,1.3c-2.9,0-5.3-0.1-8-0.1c-0.9,0-1.4-0.2-1.8-0.9l-17.3-33.3c-0.3-0.5-0.4-0.6-0.7-0.9
		c-0.6-0.2-1.1-0.1-1.4,0.6l-16.9,32.2c0,0-1,2.3-2.1,2.3c-2.7,0-5.3-0.2-8.1-0.2c-1.2,0-1.2-0.9-1.1-1.2c0.8-1.4,1.2-2.2,1.5-2.9
		L247.8,12.5z"/>
	<path class="st3" d="M170.5,51.3c-0.7-1.5-2-3.1-2.8-4.1c-1.2-1.2-2.2-2-3.9-2.6c0.1-0.3,0.3-0.3,0.4-0.4c1.3-0.8,2.4-2,3.2-3.3
		c1.3-2.1,1.9-4.4,1.9-6.9c-0.2-0.6,0.1-1.2,0-1.9c-0.3-2.6-1.2-4.9-2.7-7c-0.1-0.2-0.2-0.3-0.4-0.4c-0.8-0.7-1.5-1.5-2.3-2.2
		c-0.3-0.2-0.7-0.4-1-0.7c-1.3-0.9-2.8-1.4-4.3-1.9c-0.2-0.1-0.5-0.2-0.7-0.2c-1.8-0.4-3.6-0.4-5.5-0.4c-8.2,0.1-16.3,0-24.5,0
		c-0.3,0-0.6,0-0.9-0.1c-1-0.3-2.1,0.6-1.8,1.7c0.2,0.4,0.2,0.9,0.2,1.4c0,15.6,0,31.1,0,46.7c0,1.3,0.1,2.7-0.1,4
		c0.1,0.5,0.4,0.8,0.9,0.9c8.3,0,25.7,0.1,26.7,0.1c2,0,6.5-0.6,7.7-1c4.8-1.7,11.1-5.9,11.1-12.6C171.7,59.9,172.2,54.7,170.5,51.3
		z M134.4,28.8c0-1,0.4-1.4,1.4-1.4c5.4,0,10.8,0,16.2,0c1,0,8,0.7,8.1,7c0,4.4-2.1,7.2-5.9,7.2c-1.8,0-15.6,0-18.4,0
		c-1.1,0-1.4-0.3-1.4-1.3C134.4,36.5,134.4,32.7,134.4,28.8z M157,65.5c-0.8,0.2-7.8,0.5-10.3,0.5c-5.4,0-5.3,0-10.7,0
		c-1.3,0-1.6-0.3-1.6-1.6c0-4.4,0-8.9,0-13.3c0-1.3,0.3-1.6,1.6-1.6c3,0,7,0,10.5,0c2.5,0.1,8.4-0.2,11.4,0.9
		c2.7,0.9,4.8,3.1,4.8,7.3C162.7,61.8,159.9,64.8,157,65.5z"/>
	<path class="st3" d="M116,50.9c-1.6-3-5-6-6.7-6.6c0.1-0.3,0.3-0.3,0.4-0.4c1.3-0.8,2.4-2,3.2-3.3c1.3-2.1,1.9-4.4,1.9-6.9
		c-0.2-0.6,0.1-1.2,0-1.9c-0.3-2.6-1.2-4.9-2.7-7c-0.1-0.2-0.2-0.3-0.4-0.4c-0.8-0.7-1.5-1.5-2.3-2.2c-0.3-0.2-0.7-0.4-1-0.7
		c-1.3-0.9-2.8-1.4-4.3-1.9c-0.2-0.1-0.5-0.2-0.7-0.2c-1.8-0.4-3.6-0.4-5.5-0.4c-8.2,0.1-16.3,0-24.5,0c-0.3,0-0.6,0-0.9-0.1
		c-1-0.3-2.1,0.6-1.8,1.7c0.2,0.4,0.2,0.9,0.2,1.4c0,15.6,0,31.1,0,46.7c0,1.3,0.1,2.7-0.1,4c0.1,0.5,0.4,0.8,0.9,0.9
		c8.3,0,25.7,0.1,26.7,0.1c2,0,6.5-0.6,7.7-1c4.8-1.7,10.2-6,11.1-12.6C117.4,58,117.7,54.2,116,50.9z M79.9,28.4
		c0-1,0.4-1.4,1.4-1.4c5.4,0,10.8,0,16.2,0c1,0,8,0.7,8.1,7c0,4.4-2.4,6.5-6.1,7c-1.6,0.2-15.4,0.2-18.2,0.2c-1.1,0-1.4-0.3-1.4-1.3
		C79.9,36.1,79.9,32.3,79.9,28.4z M102.5,65.2c-0.8,0.2-7.8,0.5-10.3,0.5c-5.4,0-5.3,0-10.7,0c-1.3,0-1.6-0.3-1.6-1.6
		c0-4.4,0-8.9,0-13.3c0-1.3,0.3-1.6,1.6-1.6c3,0,7,0,10.5,0c2.5,0.1,8.4-0.2,11.4,0.9c2.7,0.9,4.8,3.1,4.8,7.3
		C108.1,61.4,105.4,64.4,102.5,65.2z"/>
</g>
</svg>
