<?xml version="1.0" encoding="utf-8"?>
<!-- Generator: Adobe Illustrator 21.1.0, SVG Export Plug-In . SVG Version: 6.00 Build 0)  -->
<svg version="1.1" id="Layer_1" xmlns="http://www.w3.org/2000/svg" xmlns:xlink="http://www.w3.org/1999/xlink" x="0px" y="0px"
	 viewBox="0 0 349.3 85.4" style="enable-background:new 0 0 349.3 85.4;" xml:space="preserve">
<style type="text/css">
	.st0{fill:#0A4E8D;}
	.st1{fill:#DC7D32;}
	.st2{fill-rule:evenodd;clip-rule:evenodd;fill:#2D3776;}
	.st3{fill:#2D3776;}
	.st4{fill:#DB1F26;}
</style>
<g>
	<path class="st0" d="M167.3,17.8c7.7-6.2,19.3-8,29.1-5.3c3.7,0.9,7.9,2.7,8.8,6.3c0.1,3-1.3,5.9-1.9,8.8c-4.7-3.8-11.5-5-17.7-4.2
		c-6.7,1.2-11.4,6.2-13.9,11.4c-2.9,6.2-4.2,13.3-1.6,19.7c1.4,3.5,4.5,6.4,8.6,7.5c6.4,1.7,13.4-0.4,18.2-4.3
		c-1,3.7-1.4,7.6-2.6,11.3c-1.2,3.1-5.1,4.1-8.4,4.7c-8.7,1.4-18.8-0.2-25-6.1c-6.1-5.7-7.4-13.9-7.1-21.4
		C154.1,35.8,158.2,25,167.3,17.8z"/>
	<g>
		<path class="st0" d="M108.9,13.7c6.4-1,13-1.6,19.5-1.5c6,0.3,12.4,1.4,16.9,5.2c5.3,4.4,5.4,12.2,1.2,17.2
			c-2.6,3-6.4,5.3-10.6,6.1c3.3,1.2,6.6,2.9,8.2,5.9c3.8,6.9,1.8,15.9-4.8,20.9c-5.2,4.2-12.4,5.6-19.3,6.1
			c-5.1,0.2-10.3,0-15.2-1.4c-2.6-0.7-4.7-2.6-5.5-4.8c-1.3-3.3-0.8-6.8,0-10.2C102.5,42.7,105.6,28.2,108.9,13.7z M120.9,22.6
			c-0.9,4.2-1.9,8.3-2.6,12.5c-0.2,1.2,1.4,1.7,2.5,1.5c4.3,0.1,9.3-0.3,12.5-3.2c2.9-2.7,3.3-8-0.8-10
			C129,21.7,124.8,22.5,120.9,22.6z M115.9,46c-1.1,4-1.8,8-2.8,12.1c-0.3,1.7-1.3,3.6,0.2,5.1c4.6,0,9.6,0.3,13.7-2.1
			c4.9-2.5,6.5-9.1,2.4-12.7C125.7,45.5,120.4,46.2,115.9,46z"/>
	</g>
	<g>
		<path class="st0" d="M214.9,14c4.5-1.2,9.4-1.3,14.1-1.5c6.5-0.1,13.5,0.1,19.2,3.1c4.4,2.2,7.1,6.4,7.6,10.7
			c1.5,9.5-3.9,19.8-13.8,24.3c-6.5,3.2-14.2,3.4-21.5,3c-1.2,4.7-2,9.5-3.2,14.2c-0.6,2.5-2.5,4.9-5.4,5.7c-3.3,0.3-6.7,0-10.1,0.1
			C206.3,53.8,210.3,33.8,214.9,14z M228,23c-1.3,5.8-2.6,11.5-3.8,17.3c-0.4,1.2,0.6,2.2,1.7,2.8c3.5,0.6,7.3,0,10.4-1.5
			c5.9-3,8.3-10,5.6-15.4C239.2,21.9,232.7,22.6,228,23z"/>
	</g>
	<path class="st0" d="M262.4,27.3c2.1-4.2,4.8-8.8,9.9-10.6c2.6-0.9,5.3,0.3,6.8,2.2c3,6.6,2.3,14-0.1,20.6
		C274.4,34.5,268.8,30.3,262.4,27.3z"/>
	<path class="st1" d="M279.1,18.9c5.8,2.6,10,7.3,13.9,11.8c3,3.3,5,7.5,4.5,11.9c-0.3,3.7-2.5,7-5,9.8c-5,5.7-11.1,10.6-17.8,14.6
		c-2.8,1.6-6.1,2.9-9.4,2c-4.5-1-7.5-4.6-9.4-8.2c9.8-4.8,19-11.8,23.1-21.4C281.4,32.8,282.2,25.4,279.1,18.9z"/>
	<path class="st0" d="M58,27.3c2.1-4.2,4.8-8.8,9.9-10.6c2.6-0.9,5.3,0.3,6.8,2.2c3,6.6,2.3,14-0.1,20.6
		C70.1,34.5,64.5,30.3,58,27.3z"/>
	<path class="st1" d="M74.8,18.9c5.8,2.6,10,7.3,13.9,11.8c3,3.3,5,7.5,4.5,11.9c-0.3,3.7-2.5,7-5,9.8c-5,5.7-11.1,10.6-17.8,14.6
		c-2.8,1.6-6.1,2.9-9.4,2c-4.5-1-7.5-4.6-9.4-8.2c9.8-4.8,19-11.8,23.1-21.4C77.1,32.8,77.8,25.4,74.8,18.9z"/>
</g>
</svg>
