<?xml version="1.0" encoding="utf-8"?>
<!-- Generator: Adobe Illustrator 21.1.0, SVG Export Plug-In . SVG Version: 6.00 Build 0)  -->
<svg version="1.1" id="Layer_1" xmlns="http://www.w3.org/2000/svg" xmlns:xlink="http://www.w3.org/1999/xlink" x="0px" y="0px"
	 viewBox="0 0 349.3 49.7" style="enable-background:new 0 0 349.3 49.7;" xml:space="preserve">
<style type="text/css">
	.st0{fill:#0A4E8D;}
	.st1{fill:#DC7D32;}
	.st2{fill-rule:evenodd;clip-rule:evenodd;fill:#2D3776;}
	.st3{fill:#2D3776;}
	.st4{fill:#DB1F26;}
</style>
<g>
	<path class="st4" d="M84.9,15.1c-9.5,0-17.3,7.8-17.3,17.3s7.8,17.3,17.3,17.3c9.5,0,17.3-7.7,17.3-17.3S94.4,15.1,84.9,15.1
		 M84.9,40c-4.2,0-7.6-3.4-7.6-7.6c0-4.2,3.4-7.6,7.6-7.6c4.2,0,7.6,3.4,7.6,7.6C92.5,36.6,89.1,40,84.9,40"/>
	<polygon class="st4" points="124.2,15.9 119.4,15.9 119.4,5.8 109.1,5.8 109.1,15.9 104.4,15.9 104.4,25.3 109.1,25.3 109.1,48.9 
		119.4,48.9 119.4,25.3 124.2,25.3 	"/>
	<rect x="128.9" y="15.9" class="st4" width="10.3" height="32.9"/>
	<path class="st4" d="M134.1,0c-3.2,0-5.8,2.6-5.8,5.8c0,3.2,2.6,5.8,5.8,5.8c3.2,0,5.8-2.6,5.8-5.8C139.8,2.6,137.2,0,134.1,0"/>
	<path class="st4" d="M282.1,24.8c3.4,0,6.2,2.8,6.2,6.2v17.9h10.3V29.5c0-8.8-5.1-14.4-13-14.4c-3.3,0-6.7,1.4-9.6,6v-5.2h-10.3
		v32.9H276V31C276,27.6,278.7,24.8,282.1,24.8"/>
	<polygon class="st4" points="336.3,48.9 323.6,32.4 335.4,15.9 323.3,15.9 313.8,29.3 313.8,0.8 303.5,0.8 303.5,48.9 313.8,48.9 
		313.8,35.3 324.2,48.9 	"/>
	<path class="st4" d="M32,40c0.7-1.8,1.1-3.6,1.1-6.1c0-3.3-1-6.3-2.9-8.4c-2.2-2.4-6-4.4-11.2-6c-1.1-0.3-2.1-0.7-2.9-1.1
		c-0.9-0.4-1.6-1-2.2-1.6c-0.7-0.7-0.9-1.6-0.9-2.7c0-1.5,0.8-2.6,2.1-3.4c1.7-1.1,4.9-1.2,8.2,0.1c1.1,0.4,2.2,0.9,3.3,1.6l4.4-8.7
		c-1.6-1-4-2.2-6.3-2.8C22.3,0.3,20,0,17.6,0c-2.4,0-4.6,0.4-6.6,1.1c-1.7,0.6-3.5,1.8-5,3.3c-1.4,1.3-2.6,3.2-3.3,5
		c-0.7,1.8-1.1,3.8-1.1,6.1c0,2.3,1.1,6.1,3.9,8.7c3,2.8,6.4,3.8,7.8,4.4c1.4,0.5,2.9,1,3.8,1.4c1,0.4,2.2,0.9,2.8,1.4
		c0.7,0.5,1.2,1,1.5,1.7c0.3,0.7,0.4,1.2,0.3,2.1c-0.1,1.1-0.6,2-1.5,2.8c-0.9,0.8-2.5,1.3-4.7,1.3c-1.9,0-3.8-0.5-5.8-1.4
		c-1.7-0.7-2.9-1.4-4.7-2.5l-5.2,9c3.6,3.2,9.4,5.3,14.6,5.3c2.7,0,5.4-0.4,7.8-1.2c2.2-0.8,4.4-2,5.9-3.3
		C29.9,43.7,31.3,41.8,32,40"/>
	<path class="st4" d="M343.5,37.4c-3.2,0-5.8,2.6-5.8,5.8c0,3.2,2.6,5.8,5.8,5.8c3.2,0,5.8-2.6,5.8-5.8
		C349.3,39.9,346.7,37.4,343.5,37.4 M343.5,47.7c-2.5,0-4.6-2.1-4.6-4.6c0-2.5,2.1-4.6,4.6-4.6c2.5,0,4.6,2.1,4.6,4.6
		C348.1,45.6,346.1,47.7,343.5,47.7"/>
	<path class="st4" d="M343.5,44.1h-0.9v2.2h-1.1V40h2.4c1.2,0,2.1,0.9,2.1,2.1c0,0.8-0.5,1.5-1.2,1.8l1.3,2.4h-1.4L343.5,44.1z
		 M342.6,43h1.3c0.5,0,0.9-0.4,0.9-1c0-0.5-0.4-1-0.9-1h-1.3V43z"/>
	<path class="st4" d="M60.3,37.2c-1.4,1.7-3.5,2.8-5.9,2.8c-4.2,0-7.6-3.4-7.6-7.6c0-4.2,3.4-7.6,7.6-7.6c2.4,0,4.5,1.1,5.9,2.8
		l6.8-6.8c-3.2-3.5-7.7-5.7-12.8-5.7c-9.5,0-17.8,6.8-17.8,17.3c0,10.5,8.3,17.3,17.8,17.3c5.1,0,9.6-2.2,12.8-5.7L60.3,37.2z"/>
	<path class="st4" d="M179.6,48.9V15.9h-10.1v3.5l-0.9-0.8c-2.5-2.3-5.3-3.4-8.7-3.4c-8.9,0-16.4,7.9-16.4,17.3
		c0,9.4,7.5,17.3,16.4,17.3c3.3,0,6.1-1.2,8.7-3.4l0.9-0.8v3.5H179.6z M161.5,40.2c-4.3,0-7.8-3.5-7.8-7.8c0-4.3,3.5-7.8,7.8-7.8
		c4.3,0,7.8,3.5,7.8,7.8C169.3,36.7,165.8,40.2,161.5,40.2"/>
	<path class="st4" d="M260.7,48.9V15.9h-10.1v3.5l-0.9-0.8c-2.5-2.3-5.3-3.4-8.7-3.4c-8.9,0-16.4,7.9-16.4,17.3
		c0,9.4,7.5,17.3,16.4,17.3c3.3,0,6.1-1.2,8.7-3.4l0.9-0.8v3.5H260.7z M242.7,40.2c-4.3,0-7.8-3.5-7.8-7.8c0-4.3,3.5-7.8,7.8-7.8
		c4.3,0,7.8,3.5,7.8,7.8C250.4,36.7,246.9,40.2,242.7,40.2"/>
	<path class="st4" d="M195,48.9v-3.5l0.9,0.8c2.5,2.3,5.3,3.4,8.7,3.4c8.9,0,16.4-7.9,16.4-17.3c0-9.4-7.5-17.3-16.4-17.3
		c-3.3,0-6.1,1.2-8.7,3.4l-0.9,0.8V0.8H185v48H195z M195.2,32.4c0-4.3,3.5-7.8,7.8-7.8c4.3,0,7.8,3.5,7.8,7.8c0,4.3-3.5,7.8-7.8,7.8
		C198.7,40.2,195.2,36.7,195.2,32.4"/>
</g>
</svg>
