<?xml version="1.0" encoding="utf-8"?>
<!-- Generator: Adobe Illustrator 21.1.0, SVG Export Plug-In . SVG Version: 6.00 Build 0)  -->
<svg version="1.1" id="Layer_1" xmlns="http://www.w3.org/2000/svg" xmlns:xlink="http://www.w3.org/1999/xlink" x="0px" y="0px"
	 viewBox="0 0 226.5 58" style="enable-background:new 0 0 226.5 58;" xml:space="preserve">
<style type="text/css">
	.st0{fill:#0A4E8D;}
	.st1{fill:#DC7D32;}
	.st2{fill-rule:evenodd;clip-rule:evenodd;fill:#2D3776;}
	.st3{fill:#2D3776;}
	.st4{fill:#DB1F26;}
</style>
<g>
	<path class="st0" d="M106.5,6c7.1-5.7,17.7-7.4,26.8-4.9c3.4,0.9,7.3,2.5,8.1,5.8c0.1,2.7-1.2,5.4-1.7,8.1
		c-4.3-3.5-10.6-4.6-16.3-3.8c-6.2,1.1-10.5,5.7-12.8,10.5c-2.6,5.7-3.9,12.2-1.5,18.2c1.3,3.2,4.2,5.9,7.9,6.9
		c5.9,1.6,12.3-0.4,16.7-4c-0.9,3.4-1.3,7-2.4,10.4c-1.1,2.8-4.7,3.8-7.8,4.3c-8,1.3-17.3-0.2-23-5.6C95,46.6,93.7,39.1,94,32.2
		C94.4,22.6,98.1,12.6,106.5,6z"/>
	<g>
		<path class="st0" d="M52.8,2.2c5.9-1,12-1.5,18-1.4c5.5,0.3,11.4,1.3,15.5,4.8c4.9,4.1,5,11.3,1.1,15.9c-2.4,2.8-5.9,4.8-9.8,5.6
			c3.1,1.1,6.1,2.7,7.6,5.4c3.5,6.3,1.6,14.6-4.4,19.3C76,55.6,69.3,57,63,57.4c-4.7,0.1-9.5,0-14-1.3c-2.4-0.6-4.3-2.4-5.1-4.4
			c-1.2-3-0.7-6.3,0-9.4C46.9,29,49.7,15.6,52.8,2.2z M63.8,10.4c-0.8,3.8-1.8,7.7-2.4,11.5c-0.2,1.1,1.3,1.5,2.3,1.4
			c4,0.1,8.5-0.3,11.5-2.9c2.7-2.5,3-7.4-0.7-9.2C71.2,9.6,67.4,10.4,63.8,10.4z M59.2,32c-1,3.7-1.6,7.4-2.5,11.1
			c-0.3,1.6-1.2,3.3,0.2,4.7c4.3,0,8.9,0.3,12.6-1.9c4.5-2.3,5.9-8.4,2.2-11.7C68.2,31.5,63.3,32.1,59.2,32z"/>
	</g>
	<g>
		<path class="st0" d="M150.3,2.5c4.2-1.1,8.6-1.2,13-1.4c6-0.1,12.4,0.1,17.7,2.9c4.1,2,6.5,5.9,7,9.8c1.4,8.8-3.6,18.2-12.7,22.4
			c-6,3-13.1,3.1-19.8,2.7c-1.1,4.3-1.8,8.7-3,13.1c-0.6,2.3-2.3,4.5-5,5.2c-3.1,0.3-6.2,0-9.3,0.1C142.4,39.2,146.1,20.8,150.3,2.5
			z M162.4,10.8c-1.2,5.3-2.4,10.6-3.5,15.9c-0.4,1.1,0.5,2.1,1.6,2.5c3.3,0.5,6.7,0,9.6-1.4c5.4-2.8,7.7-9.2,5.2-14.2
			C172.7,9.8,166.7,10.5,162.4,10.8z"/>
	</g>
	<path class="st0" d="M194.1,14.8c1.9-3.9,4.5-8.1,9.1-9.8c2.4-0.8,4.9,0.3,6.3,2c2.8,6.1,2.1,12.9-0.1,19
		C205.2,21.4,200,17.5,194.1,14.8z"/>
	<path class="st1" d="M209.5,7c5.3,2.4,9.2,6.8,12.8,10.9c2.8,3,4.6,6.9,4.2,10.9c-0.3,3.4-2.3,6.4-4.6,9
		c-4.6,5.3-10.2,9.7-16.4,13.5c-2.5,1.4-5.6,2.7-8.7,1.9c-4.2-0.9-6.9-4.2-8.6-7.5c9.1-4.5,17.5-10.9,21.3-19.7
		C211.6,19.9,212.3,13.1,209.5,7z"/>
	<path class="st0" d="M5.9,14.8c1.9-3.9,4.5-8.1,9.1-9.8c2.4-0.8,4.9,0.3,6.3,2c2.8,6.1,2.1,12.9-0.1,19C17,21.4,11.8,17.5,5.9,14.8
		z"/>
	<path class="st1" d="M21.3,7c5.3,2.4,9.2,6.8,12.8,10.9c2.8,3,4.6,6.9,4.2,10.9c-0.3,3.4-2.3,6.4-4.6,9
		c-4.6,5.3-10.2,9.7-16.4,13.5c-2.5,1.4-5.6,2.7-8.7,1.9C4.5,52.3,1.7,49,0,45.7C9.1,41.2,17.5,34.8,21.3,26
		C23.5,19.9,24.1,13.1,21.3,7z"/>
</g>
</svg>
