<?xml version="1.0" encoding="utf-8"?>
<!-- Generator: Adobe Illustrator 21.1.0, SVG Export Plug-In . SVG Version: 6.00 Build 0)  -->
<svg version="1.1" id="Layer_1" xmlns="http://www.w3.org/2000/svg" xmlns:xlink="http://www.w3.org/1999/xlink" x="0px" y="0px"
	 viewBox="0 0 185.4 56.1" style="enable-background:new 0 0 185.4 56.1;" xml:space="preserve">
<style type="text/css">
	.st0{fill:#0A4E8D;}
	.st1{fill:#DC7D32;}
	.st2{fill-rule:evenodd;clip-rule:evenodd;fill:#2D3776;}
	.st3{fill:#2D3776;}
	.st4{fill:#DB1F26;}
</style>
<g>
	<path class="st2" d="M118,54.5c-0.3,0.6-0.4,0.8-1.1,1.1c-0.3,0.1-0.6,0.1-0.8,0c-0.7-0.3-0.8-0.7-1.1-1.2L90.9,9.2
		c-0.2-0.4-0.4-0.7-0.4-1.1c0,0-0.2-1.2,1-1.2C94,6.9,96.2,7,98.5,7c0.8,0,1.2,0.2,1.6,0.8l15.4,29.7c0.3,0.4,0.4,0.5,0.6,0.8
		c0.5,0.2,0.9,0.1,1.3-0.6L132.5,9c0,0,0.9-2,1.8-2c2.4,0,4.8,0.1,7.2,0.1c1.1,0,1.1,0.8,1,1.1c-0.7,1.3-1,2-1.3,2.6L118,54.5z"/>
	<path class="st2" d="M157.9,1.1c0.3-0.6,0.4-0.8,1.1-1.1c0.3-0.1,0.6-0.1,0.8,0c0.7,0.3,0.8,0.7,1.1,1.2L185,46.5
		c0.2,0.4,0.4,0.7,0.4,1.1c0,0,0.2,1.2-1,1.2c-2.6,0-4.7-0.1-7.1-0.1c-0.8,0-1.2-0.2-1.6-0.8l-15.4-29.7c-0.3-0.4-0.4-0.5-0.6-0.8
		c-0.5-0.2-0.9-0.1-1.3,0.6l-15.1,28.7c0,0-0.9,2-1.8,2c-2.4,0-4.8-0.1-7.2-0.1c-1.1,0-1.1-0.8-1-1.1c0.7-1.3,1-2,1.3-2.6L157.9,1.1
		z"/>
	<path class="st3" d="M89.1,35.7c-0.6-1.3-1.8-2.8-2.5-3.6c-1.1-1.1-1.9-1.8-3.4-2.3c0.1-0.2,0.2-0.3,0.4-0.4c1.2-0.8,2.1-1.8,2.8-3
		c1.1-1.9,1.7-3.9,1.7-6.1c-0.1-0.6,0.1-1.1,0-1.7c-0.3-2.3-1.1-4.4-2.4-6.2c-0.1-0.1-0.2-0.3-0.3-0.4c-0.7-0.6-1.3-1.4-2.1-1.9
		c-0.3-0.2-0.6-0.4-0.9-0.6c-1.2-0.8-2.5-1.3-3.8-1.7c-0.2-0.1-0.4-0.1-0.7-0.2c-1.6-0.3-3.2-0.4-4.9-0.4c-7.3,0.1-14.6,0-21.8,0
		c-0.3,0-0.5,0-0.8-0.1c-0.9-0.3-1.9,0.5-1.6,1.5c0.2,0.4,0.2,0.8,0.2,1.3c0,13.9,0,27.7,0,41.6c0,1.2,0.1,2.4-0.1,3.6
		c0.1,0.5,0.3,0.7,0.8,0.8c7.4,0,22.9,0.1,23.8,0.1c1.8,0,5.8-0.5,6.8-0.9c4.3-1.6,9.9-5.3,9.9-11.2C90.1,43.4,90.5,38.8,89.1,35.7z
		 M56.9,15.7c0-0.9,0.3-1.2,1.2-1.2c4.8,0,9.6,0,14.4,0c0.9,0,7.1,0.6,7.2,6.2c0,3.9-1.9,6.4-5.2,6.4c-1.6,0-13.9,0-16.4,0
		c-1,0-1.2-0.3-1.2-1.2C56.9,22.5,56.9,19.1,56.9,15.7z M77,48.4c-0.7,0.2-6.9,0.5-9.2,0.5c-4.8,0-4.8,0-9.5,0
		c-1.2,0-1.4-0.2-1.4-1.4c0-4,0-7.9,0-11.9c0-1.2,0.3-1.4,1.4-1.4c2.7,0,6.3,0,9.4,0c2.3,0,7.5-0.1,10.1,0.8
		c2.4,0.8,4.2,2.8,4.2,6.5C82.1,45,79.6,47.7,77,48.4z"/>
	<path class="st3" d="M40.5,35.4c-1.4-2.7-4.5-5.4-6-5.9c0.1-0.2,0.2-0.3,0.4-0.4c1.2-0.8,2.1-1.8,2.8-3c1.1-1.9,1.7-3.9,1.7-6.1
		c-0.1-0.6,0.1-1.1,0-1.7c-0.3-2.3-1.1-4.4-2.4-6.2c-0.1-0.1-0.2-0.3-0.3-0.4c-0.7-0.6-1.3-1.4-2.1-1.9c-0.3-0.2-0.6-0.4-0.9-0.6
		c-1.2-0.8-2.5-1.3-3.8-1.7c-0.2-0.1-0.4-0.1-0.7-0.2C27.6,7,26,6.9,24.3,7C17.1,7,9.8,7,2.5,7C2.2,7,1.9,7,1.7,6.9
		C0.8,6.6-0.2,7.5,0,8.5c0.2,0.4,0.2,0.8,0.2,1.3c0,13.9,0,27.7,0,41.6c0,1.2,0.1,2.4-0.1,3.6c0.1,0.5,0.3,0.7,0.8,0.8
		c7.4,0,22.9,0.1,23.8,0.1c1.8,0,5.8-0.5,6.8-0.9c4.3-1.6,9.1-5.3,9.9-11.2C41.7,41.6,42,38.3,40.5,35.4z M8.3,15.3
		c0-0.9,0.3-1.2,1.2-1.2c4.8,0,9.6,0,14.4,0c0.9,0,7.1,0.6,7.2,6.2c0,3.9-2.2,5.8-5.4,6.3c-1.4,0.2-13.7,0.2-16.2,0.2
		c-1,0-1.2-0.3-1.2-1.2C8.3,22.2,8.3,18.7,8.3,15.3z M28.4,48c-0.7,0.2-6.9,0.5-9.2,0.5c-4.8,0-4.8,0-9.5,0c-1.2,0-1.4-0.2-1.4-1.4
		c0-4,0-7.9,0-11.9c0-1.2,0.3-1.4,1.4-1.4c2.7,0,6.3,0,9.4,0c2.3,0,7.5-0.1,10.1,0.8c2.4,0.8,4.2,2.8,4.2,6.5
		C33.5,44.7,31,47.4,28.4,48z"/>
</g>
</svg>
