<?xml version="1.0" encoding="utf-8"?>
<!-- Generator: Adobe Illustrator 21.1.0, SVG Export Plug-In . SVG Version: 6.00 Build 0)  -->
<svg version="1.1" id="Layer_1" xmlns="http://www.w3.org/2000/svg" xmlns:xlink="http://www.w3.org/1999/xlink" x="0px" y="0px"
	 viewBox="0 0 338.6 102.4" style="enable-background:new 0 0 338.6 102.4;" xml:space="preserve">
<style type="text/css">
	.st0{fill:#1B4688;}
</style>
<g>
	<g>
		<g>
			<path class="st0" d="M215.4,99.6c-0.6,1.1-0.7,1.5-2,2c-0.5,0.1-1,0.1-1.5,0c-1.3-0.5-1.5-1.2-2-2.2l-44-82.6
				c-0.4-0.6-0.7-1.3-0.8-2.1c0,0-0.4-2.1,1.8-2.1c4.7,0,8.6,0.1,13,0.1c1.4,0,2.3,0.4,2.9,1.5L211,68.4c0.6,0.8,0.7,1,1.1,1.4
				c1,0.4,1.7,0.1,2.3-1l27.5-52.5c0,0,1.7-3.7,3.3-3.7c4.4,0,8.7,0.3,13.1,0.3c2,0,2,1.5,1.8,1.9c-1.3,2.4-1.9,3.6-2.4,4.8
				L215.4,99.6z"/>
		</g>
		<g>
			<path class="st0" d="M288.3,2.1c0.6-1.1,0.7-1.5,2-2c0.5-0.1,1-0.1,1.5,0c1.3,0.5,1.5,1.2,2,2.2l44,82.6c0.4,0.6,0.7,1.3,0.8,2.1
				c0,0,0.4,2.1-1.8,2.1c-4.7,0-8.6-0.1-13-0.1c-1.4,0-2.3-0.4-2.9-1.5l-28.1-54.2c-0.6-0.8-0.7-1-1.1-1.4c-1-0.4-1.7-0.1-2.3,1
				l-27.5,52.5c0,0-1.7,3.7-3.3,3.7c-4.4,0-8.7-0.3-13.1-0.3c-2,0-2-1.5-1.8-1.9c1.3-2.4,1.9-3.6,2.4-4.8L288.3,2.1z"/>
		</g>
		<g>
			<g>
				<path class="st0" d="M162.6,65.2c-1.1-2.5-3.2-5.1-4.6-6.6c-2-1.9-3.5-3.2-6.3-4.2c0.2-0.4,0.5-0.6,0.7-0.7
					c2.2-1.4,3.9-3.2,5.2-5.4c2.1-3.4,3.1-7.1,3-11.2c-0.3-1,0.1-2,0-3c-0.5-4.2-2-7.9-4.4-11.3c-0.2-0.3-0.4-0.5-0.6-0.7
					c-1.3-1.2-2.4-2.5-3.8-3.5c-0.5-0.4-1.1-0.7-1.6-1.1c-2.1-1.5-4.5-2.3-7-3c-0.4-0.1-0.8-0.2-1.2-0.4c-3-0.6-5.9-0.7-9-0.7
					c-13.3,0.1-26.6,0.1-39.9,0.1c-0.5,0-1,0.1-1.5-0.1c-1.7-0.6-3.5,1-3,2.8c0.3,0.7,0.4,1.5,0.4,2.3c0,25.3,0,50.6,0,76
					c0,2.2,0.1,4.4-0.2,6.5c0.1,0.9,0.6,1.4,1.5,1.5c13.6,0.1,41.7,0.1,43.5,0.1c3.3,0,10.5-1,12.4-1.7c7.9-2.8,18.1-9.6,18.1-20.4
					C164.5,79.2,165.3,70.8,162.6,65.2z M103.9,28.6c0-1.6,0.6-2.2,2.2-2.2c8.8,0,17.6,0,26.4,0c1.7,0,13,1.1,13.1,11.3
					c0.1,7.1-3.5,11.7-9.6,11.7c-2.9,0-25.4,0-30,0c-1.7,0-2.2-0.5-2.2-2.2C103.9,41.1,103.9,34.9,103.9,28.6z M140.6,88.3
					c-1.4,0.3-12.7,0.9-16.8,0.9c-8.7,0-8.7,0-17.4,0c-2.1,0-2.5-0.4-2.5-2.5c0-7.2,0-14.4,0-21.7c0-2.1,0.5-2.6,2.6-2.6
					c4.9,0,11.4,0,17.1,0c4.1,0.1,13.7-0.3,18.5,1.4c4.3,1.5,7.7,5,7.7,11.9C149.8,82.2,145.4,87.2,140.6,88.3z"/>
			</g>
		</g>
		<g>
			<g>
				<path class="st0" d="M73.9,64.6c-2.6-5-8.1-9.8-10.9-10.8c0.2-0.4,0.5-0.6,0.7-0.7c2.2-1.4,3.9-3.2,5.2-5.4
					c2.1-3.4,3.1-7.1,3-11.2c-0.3-1,0.1-2,0-3c-0.5-4.2-2-7.9-4.4-11.3c-0.2-0.3-0.4-0.5-0.6-0.7c-1.3-1.2-2.4-2.5-3.8-3.5
					c-0.5-0.4-1.1-0.7-1.6-1.1c-2.1-1.5-4.5-2.3-7-3c-0.4-0.1-0.8-0.2-1.2-0.4c-3-0.6-5.9-0.7-9-0.7C31,12.9,17.7,12.9,4.4,12.9
					c-0.5,0-1,0.1-1.5-0.1c-1.7-0.6-3.5,1-3,2.8c0.3,0.7,0.4,1.5,0.4,2.3c0,25.3,0,50.6,0,76c0,2.2,0.1,4.4-0.2,6.5
					c0.1,0.9,0.6,1.4,1.5,1.5c13.6,0.1,41.7,0.1,43.5,0.1c3.3,0,10.5-1,12.4-1.7c7.9-2.8,16.6-9.7,18.1-20.4
					C76.2,76,76.7,70,73.9,64.6z M15.2,28c0-1.6,0.6-2.2,2.2-2.2c8.8,0,17.6,0,26.4,0c1.7,0,13,1.1,13.1,11.3
					C57,44.3,53,47.7,47,48.6c-2.6,0.4-25,0.3-29.6,0.3c-1.7,0-2.2-0.5-2.2-2.2C15.2,40.5,15.2,34.2,15.2,28z M51.9,87.7
					c-1.4,0.3-12.7,0.9-16.8,0.9c-8.7,0-8.7,0-17.4,0c-2.1,0-2.5-0.4-2.5-2.5c0-7.2,0-14.4,0-21.7c0-2.1,0.5-2.6,2.6-2.6
					c4.9,0,11.4,0,17.1,0c4.1,0.1,13.7-0.3,18.5,1.4c4.3,1.5,7.7,5,7.7,11.9C61.1,81.6,56.6,86.5,51.9,87.7z"/>
			</g>
		</g>
	</g>
</g>
</svg>
