<?xml version="1.0" encoding="utf-8"?>
<!-- Generator: Adobe Illustrator 21.1.0, SVG Export Plug-In . SVG Version: 6.00 Build 0)  -->
<svg version="1.1" id="Capa_1" xmlns="http://www.w3.org/2000/svg" xmlns:xlink="http://www.w3.org/1999/xlink" x="0px" y="0px"
	 viewBox="0 0 48.2 69.9" style="enable-background:new 0 0 48.2 69.9;" xml:space="preserve">
<style type="text/css">
	.st0{fill:#FFFFFF;}
	.st1{fill:#DD7D32;}
	.st2{fill-rule:evenodd;clip-rule:evenodd;fill:#FFFFFF;}
	.st3{font-family:'UniviaPro-Medium';}
	.st4{font-size:9.3318px;}
</style>
<g>
	<defs>
		<rect id="SVGID_1_" x="-654.5" y="-296.1" width="562.5" height="419.8"/>
	</defs>
	<clipPath id="SVGID_2_">
		<use xlink:href="#SVGID_1_"  style="overflow:visible;"/>
	</clipPath>
	<g transform="matrix(1 0 0 1 0 3.051758e-05)" style="clip-path:url(#SVGID_2_);">
		
			<image style="overflow:visible;" width="1920" height="1080" xlink:href="E55131C0.jpg"  transform="matrix(0.7548 0 0 0.7548 -739.0379 -505.8475)">
		</image>
	</g>
</g>
<g>
	<g>
		<path class="st2" d="M39.9,0H8.3C3.7,0,0,3.2,0,7.1v55.6c0,4,3.7,7.2,8.3,7.2h31.7c4.5,0,8.3-3.2,8.3-7.2V7.1
			C48.2,3.2,44.5,0,39.9,0L39.9,0z M19.3,22.4v-1.6c1.2-0.1,1.8-0.8,1.8-1.8v-0.7c0-1-0.6-1.6-1.6-1.7l-1.2-0.2
			c-0.7-0.1-0.8-0.4-0.8-0.9v-0.3c0-0.7,0.4-0.9,1.4-0.9c0.4,0,1,0,1.9,0.1v-1c-0.5,0-1-0.1-1.4-0.1v-1.5h-1v1.5
			c-1.3,0.1-2,0.7-2,1.8v0.6c0,1,0.7,1.7,1.6,1.8l1.2,0.2c0.7,0.1,0.8,0.3,0.8,0.9v0.3c0,0.7-0.5,1-1.5,1c-0.6,0-1.3,0-2.1-0.1v1
			l2,0.1v1.6H19.3z M39.9,44.9L39.9,44.9h-4.5v-4.5h4.5V44.9z M39.9,53.3L39.9,53.3h-4.5v-4.5h4.5V53.3z M39.9,61.7L39.9,61.7h-4.5
			v-4.5h4.5V61.7z M30.9,44.9L30.9,44.9h-4.5v-4.5h4.5V44.9z M30.9,53.3L30.9,53.3h-4.5v-4.5h4.5V53.3z M30.9,61.7L30.9,61.7h-4.5
			v-4.5h4.5V61.7z M21.9,44.9L21.9,44.9h-4.5v-4.5h4.5V44.9z M21.9,53.3L21.9,53.3h-4.5v-4.5h4.5V53.3z M21.9,61.7L21.9,61.7h-4.5
			v-4.5h4.5V61.7z M12.9,44.9L12.9,44.9H8.4v-4.5h4.5V44.9z M12.9,53.3L12.9,53.3H8.4v-4.5h4.5V53.3z M12.9,61.7L12.9,61.7H8.4v-4.5
			h4.5V61.7z M39.8,36.5L39.8,36.5h-4.5v-4.5h4.5V36.5z M30.8,36.5L30.8,36.5h-4.5v-4.5h4.5V36.5z M21.8,36.5L21.8,36.5h-4.5v-4.5
			h4.5V36.5z M12.8,36.5L12.8,36.5H8.3v-4.5h4.5V36.5z M39.8,24L39.8,24H8.3V10.5h31.5V24z"/>
	</g>
	<text transform="matrix(1 0 0 1 24.1078 20.7828)" class="st0 st3 st4">S/</text>
</g>
</svg>
