<?xml version="1.0" encoding="utf-8"?>
<!-- Generator: Adobe Illustrator 21.1.0, SVG Export Plug-In . SVG Version: 6.00 Build 0)  -->
<svg version="1.1" id="Layer_1" xmlns="http://www.w3.org/2000/svg" xmlns:xlink="http://www.w3.org/1999/xlink" x="0px" y="0px"
	 viewBox="0 0 226.5 58" style="enable-background:new 0 0 226.5 58;" xml:space="preserve">
<style type="text/css">
	.st0{fill:#FFFFFF;}
	.st1{fill:#DD7D32;}
</style>
<g>
	<path class="st0" d="M107.2,8.7c6.2-5.1,15.7-6.5,23.8-4.4c3,0.8,6.5,2.2,7.2,5.2c0.1,2.4-1.1,4.8-1.5,7.2
		c-3.8-3.1-9.4-4.1-14.4-3.4c-5.4,1-9.3,5-11.3,9.3c-2.3,5-3.4,10.8-1.3,16.1c1.1,2.8,3.7,5.2,7,6.1c5.3,1.4,10.9-0.3,14.8-3.5
		c-0.8,3.1-1.2,6.2-2.1,9.2c-1,2.5-4.2,3.4-6.9,3.8c-7.1,1.1-15.3-0.1-20.4-5c-4.9-4.7-6.1-11.3-5.8-17.4
		C96.5,23.4,99.8,14.5,107.2,8.7z"/>
	<g>
		<path class="st0" d="M59.7,5.3C64.9,4.5,70.3,4,75.6,4.1c4.9,0.2,10.1,1.1,13.8,4.2c4.3,3.6,4.4,10,1,14c-2.1,2.5-5.2,4.3-8.6,5
			c2.7,1,5.4,2.4,6.7,4.8c3.1,5.6,1.4,12.9-3.9,17.1c-4.2,3.4-10.1,4.6-15.7,4.9c-4.2,0.1-8.4,0-12.4-1.1c-2.1-0.6-3.8-2.1-4.5-3.9
			c-1-2.7-0.6-5.6,0-8.3C54.5,29,57,17.1,59.7,5.3z M69.5,12.6c-0.7,3.4-1.6,6.8-2.1,10.2c-0.2,1,1.1,1.4,2,1.2
			c3.5,0.1,7.5-0.3,10.2-2.6c2.4-2.2,2.7-6.5-0.6-8.1C76,11.9,72.6,12.5,69.5,12.6z M65.4,31.7c-0.9,3.2-1.5,6.6-2.2,9.8
			c-0.3,1.4-1.1,3,0.1,4.2c3.8,0,7.8,0.2,11.1-1.7c4-2,5.3-7.4,2-10.4C73.4,31.2,69.1,31.8,65.4,31.7z"/>
	</g>
	<g>
		<path class="st0" d="M146,5.6c3.7-1,7.6-1.1,11.5-1.2c5.3-0.1,11,0.1,15.6,2.5c3.6,1.8,5.7,5.2,6.2,8.7
			c1.2,7.7-3.2,16.1-11.3,19.8c-5.3,2.6-11.6,2.8-17.5,2.4c-1,3.8-1.6,7.7-2.6,11.6c-0.5,2-2,4-4.4,4.6c-2.7,0.2-5.5,0-8.2,0.1
			C139,38,142.3,21.8,146,5.6z M156.7,12.9c-1,4.7-2.1,9.4-3.1,14.1c-0.3,1,0.5,1.8,1.4,2.3c2.9,0.5,6,0,8.5-1.2
			c4.8-2.4,6.8-8.2,4.6-12.5C165.8,12,160.6,12.6,156.7,12.9z"/>
	</g>
	<path class="st0" d="M184.8,16.4c1.7-3.5,4-7.2,8.1-8.6c2.1-0.7,4.3,0.3,5.6,1.8c2.5,5.4,1.9,11.4-0.1,16.8
		C194.6,22.3,190,18.9,184.8,16.4z"/>
	<path class="st1" d="M198.4,9.6c4.7,2.1,8.1,6,11.3,9.6c2.5,2.7,4.1,6.2,3.7,9.7c-0.3,3-2.1,5.7-4.1,8c-4.1,4.6-9.1,8.6-14.5,11.9
		c-2.2,1.3-5,2.4-7.7,1.7c-3.7-0.8-6.1-3.7-7.6-6.7c8-3.9,15.5-9.6,18.8-17.4C200.3,20.9,200.9,14.9,198.4,9.6z"/>
	<path class="st0" d="M18.2,16.4c1.7-3.5,4-7.2,8.1-8.6c2.1-0.7,4.3,0.3,5.6,1.8c2.5,5.4,1.9,11.4-0.1,16.8
		C28.1,22.3,23.5,18.9,18.2,16.4z"/>
	<path class="st1" d="M31.9,9.6c4.7,2.1,8.1,6,11.3,9.6c2.5,2.7,4.1,6.2,3.7,9.7c-0.3,3-2.1,5.7-4.1,8c-4.1,4.6-9.1,8.6-14.5,11.9
		c-2.2,1.3-5,2.4-7.7,1.7c-3.7-0.8-6.1-3.7-7.6-6.7c8-3.9,15.5-9.6,18.8-17.4C33.8,20.9,34.4,14.9,31.9,9.6z"/>
</g>
</svg>
