<?xml version="1.0" encoding="utf-8"?>
<!-- Generator: Adobe Illustrator 21.1.0, SVG Export Plug-In . SVG Version: 6.00 Build 0)  -->
<svg version="1.1" id="Capa_1" xmlns="http://www.w3.org/2000/svg" xmlns:xlink="http://www.w3.org/1999/xlink" x="0px" y="0px"
	 viewBox="0 0 111 28.4" style="enable-background:new 0 0 111 28.4;" xml:space="preserve">
<style type="text/css">
	.st0{fill:#FFFFFF;}
	.st1{fill:#DD7D32;}
	.st2{fill-rule:evenodd;clip-rule:evenodd;fill:#FFFFFF;}
</style>
<g>
	<defs>
		<rect id="SVGID_1_" x="-738.4" y="-357" width="562.5" height="419.8"/>
	</defs>
	<clipPath id="SVGID_2_">
		<use xlink:href="#SVGID_1_"  style="overflow:visible;"/>
	</clipPath>
	<g transform="matrix(1 0 0 1 6.103516e-05 0)" style="clip-path:url(#SVGID_2_);">
		
			<image style="overflow:visible;" width="1920" height="1080" xlink:href="9F5F860B.jpg"  transform="matrix(0.7548 0 0 0.7548 -822.9697 -566.7512)">
		</image>
	</g>
</g>
<g>
	<path class="st0" d="M52.2,3c3.5-2.8,8.7-3.6,13.2-2.4c1.7,0.4,3.6,1.2,4,2.9c0,1.3-0.6,2.6-0.9,4c-2.1-1.7-5.2-2.3-8-1.9
		c-3,0.5-5.2,2.8-6.3,5.2c-1.3,2.8-1.9,6-0.7,8.9c0.6,1.6,2,2.9,3.9,3.4c2.9,0.8,6-0.2,8.2-1.9c-0.4,1.7-0.6,3.4-1.2,5.1
		c-0.5,1.4-2.3,1.9-3.8,2.1c-3.9,0.6-8.5-0.1-11.3-2.7c-2.7-2.6-3.4-6.3-3.2-9.7C46.3,11.1,48.1,6.2,52.2,3z"/>
	<g>
		<path class="st0" d="M25.9,1.1c2.9-0.5,5.9-0.7,8.8-0.7c2.7,0.1,5.6,0.6,7.6,2.3c2.4,2,2.5,5.5,0.5,7.8c-1.2,1.4-2.9,2.4-4.8,2.7
			c1.5,0.5,3,1.3,3.7,2.6c1.7,3.1,0.8,7.2-2.2,9.4c-2.3,1.9-5.6,2.5-8.7,2.7c-2.3,0.1-4.7,0-6.9-0.6c-1.2-0.3-2.1-1.2-2.5-2.2
			c-0.6-1.5-0.4-3.1,0-4.6C23,14.2,24.3,7.6,25.9,1.1z M31.3,5.1c-0.4,1.9-0.9,3.8-1.2,5.6c-0.1,0.5,0.6,0.8,1.1,0.7
			c2,0.1,4.2-0.1,5.6-1.4c1.3-1.2,1.5-3.6-0.3-4.5C34.9,4.7,33,5.1,31.3,5.1z M29,15.7c-0.5,1.8-0.8,3.6-1.2,5.4
			c-0.1,0.8-0.6,1.6,0.1,2.3c2.1,0,4.3,0.1,6.2-0.9c2.2-1.1,2.9-4.1,1.1-5.8C33.4,15.4,31,15.8,29,15.7z"/>
	</g>
	<g>
		<path class="st0" d="M73.7,1.2c2-0.6,4.2-0.6,6.3-0.7c2.9,0,6.1,0,8.7,1.4c2,1,3.2,2.9,3.4,4.8c0.7,4.3-1.8,8.9-6.2,11
			c-2.9,1.5-6.4,1.5-9.7,1.3c-0.5,2.1-0.9,4.3-1.5,6.4c-0.3,1.1-1.1,2.2-2.4,2.6c-1.5,0.1-3,0-4.5,0C69.8,19.2,71.6,10.2,73.7,1.2z
			 M79.6,5.3c-0.6,2.6-1.2,5.2-1.7,7.8c-0.2,0.5,0.3,1,0.8,1.2c1.6,0.3,3.3,0,4.7-0.7c2.7-1.4,3.8-4.5,2.5-6.9
			C84.6,4.8,81.7,5.1,79.6,5.3z"/>
	</g>
	<path class="st0" d="M95.1,7.2c0.9-1.9,2.2-4,4.5-4.8c1.2-0.4,2.4,0.1,3.1,1c1.4,3,1,6.3,0,9.3C100.6,10.5,98,8.6,95.1,7.2z"/>
	<path class="st1" d="M102.7,3.4c2.6,1.2,4.5,3.3,6.3,5.3c1.4,1.5,2.3,3.4,2.1,5.4c-0.1,1.7-1.1,3.1-2.3,4.4c-2.2,2.6-5,4.8-8,6.6
		c-1.2,0.7-2.8,1.3-4.3,0.9c-2-0.5-3.4-2.1-4.2-3.7c4.4-2.2,8.6-5.3,10.4-9.6C103.7,9.7,104,6.4,102.7,3.4z"/>
	<path class="st0" d="M2.9,7.2c0.9-1.9,2.2-4,4.5-4.8c1.2-0.4,2.4,0.1,3.1,1c1.4,3,1,6.3,0,9.3C8.3,10.5,5.8,8.6,2.9,7.2z"/>
	<path class="st1" d="M10.5,3.4c2.6,1.2,4.5,3.3,6.3,5.3c1.4,1.5,2.3,3.4,2.1,5.4c-0.1,1.7-1.1,3.1-2.3,4.4c-2.2,2.6-5,4.8-8,6.6
		c-1.2,0.7-2.8,1.3-4.3,0.9c-2-0.5-3.4-2.1-4.2-3.7c4.4-2.2,8.6-5.3,10.4-9.6C11.5,9.7,11.8,6.4,10.5,3.4z"/>
</g>
</svg>
