<?xml version="1.0" encoding="utf-8"?>
<!-- Generator: Adobe Illustrator 21.0.0, SVG Export Plug-In . SVG Version: 6.00 Build 0)  -->
<svg version="1.1" id="Capa_1" xmlns="http://www.w3.org/2000/svg" xmlns:xlink="http://www.w3.org/1999/xlink" x="0px" y="0px"
	 viewBox="0 0 384 384" style="enable-background:new 0 0 384 384;" xml:space="preserve">
<style type="text/css">
	.st0{fill:#62549F;}
	.st1{fill:#FFFFFF;}
</style>
<g>
	<circle class="st0" cx="192" cy="192" r="185.2"/>
	<g>
		<path class="st1" d="M219.3,234.2c-39.4,30.1-92.6,22.7-122.7-12c-30.4-35.1-29.3-87.7,2.5-120.8c32.9-34.1,84.8-37.6,121.7-8
			c36.4,29.2,45.6,84.2,14.1,125.4c0.7,0.5,1.7,0.8,2.4,1.5c19.2,19.1,38.4,38.2,57.5,57.5c1.8,1.8,3.4,4.4,4,6.9
			c1.3,5-1.3,9.8-5.8,12.1c-4.4,2.3-9.5,1.5-13.3-2.2c-8.7-8.7-17.4-17.4-26-26.1c-10.9-10.9-21.8-21.9-32.7-32.8
			C220.4,235.3,219.9,234.8,219.3,234.2z M96.9,163.2c0.1,37.5,30.3,67.6,67.7,67.4c37.2-0.1,67.1-30.3,67-67.5
			c-0.1-37.3-30.4-67.4-67.6-67.2C127.1,96,96.8,126.4,96.9,163.2z"/>
	</g>
</g>
</svg>
