<?xml version="1.0" encoding="utf-8"?>
<!-- Generator: Adobe Illustrator 21.1.0, SVG Export Plug-In . SVG Version: 6.00 Build 0)  -->
<svg version="1.1" id="Layer_1" xmlns="http://www.w3.org/2000/svg" xmlns:xlink="http://www.w3.org/1999/xlink" x="0px" y="0px"
	 viewBox="0 0 113.9 165.1" style="enable-background:new 0 0 113.9 165.1;" xml:space="preserve">
<style type="text/css">
	.st0{fill-rule:evenodd;clip-rule:evenodd;fill:#FFFFFF;}
	.st1{fill:#FFFFFF;}
</style>
<g>
	<g>
		<path class="st0" d="M94.3,0H19.5C8.7,0,0,7.5,0,16.8v131.3c0,9.4,8.7,16.9,19.5,16.9h74.8c10.7,0,19.5-7.5,19.5-16.9V16.8
			C113.9,7.5,105,0,94.3,0L94.3,0z M45.5,53v-3.8c2.7-0.3,4.2-1.8,4.2-4.4v-1.5c0-2.3-1.5-3.7-3.7-4l-2.9-0.4c-1.5-0.2-2-0.9-2-2.1
			v-0.7c0-1.6,1-2.2,3.4-2.2c1,0,2.5,0.1,4.4,0.3v-2.4c-1.3-0.1-2.4-0.3-3.3-0.3V28h-2.3v3.5c-3.1,0.2-4.8,1.6-4.8,4.3v1.4
			c0,2.3,1.5,3.9,3.8,4.2l2.8,0.4c1.6,0.2,2,0.8,2,2.1v0.7c0,1.5-1.1,2.3-3.5,2.3c-1.4,0-3.1-0.1-5-0.3V49l4.7,0.3V53H45.5z
			 M94.3,106L94.3,106H83.6V95.3h10.7V106z M94.3,125.9L94.3,125.9H83.6v-10.7h10.7V125.9z M94.3,145.8L94.3,145.8H83.6v-10.7h10.7
			V145.8z M73,106L73,106H62.3V95.3H73V106z M73,125.9L73,125.9H62.3v-10.7H73V125.9z M73,145.8L73,145.8H62.3v-10.7H73V145.8z
			 M51.8,106L51.8,106H41.1V95.3h10.7V106z M51.8,125.9L51.8,125.9H41.1v-10.7h10.7V125.9z M51.8,145.8L51.8,145.8H41.1v-10.7h10.7
			V145.8z M30.4,106L30.4,106H19.8V95.3h10.6V106z M30.4,125.9L30.4,125.9H19.8v-10.7h10.6V125.9z M30.4,145.8L30.4,145.8H19.8
			v-10.7h10.6V145.8z M94,86.1L94,86.1H83.2V75.4H94V86.1z M72.7,86.1L72.7,86.1H62.1V75.4h10.6V86.1z M51.4,86.1L51.4,86.1H40.7
			V75.4h10.7V86.1z M30.2,86.1L30.2,86.1H19.5V75.4h10.6V86.1z M94.1,56.8L94.1,56.8H19.7v-32h74.4V56.8z"/>
	</g>
	<g>
		<path class="st1" d="M64.1,32.1c1.2,0,2.7,0.1,4.4,0.4c0.2,0,0.4,0.2,0.4,0.4v1.4c0,0.3-0.1,0.4-0.3,0.4h-5.1
			c-1.6,0-2.5,0.6-2.5,1.7v0.4c0,0.5,0.1,0.9,0.3,1.2c0.2,0.3,0.6,0.5,1.2,0.8l4.5,1.8c1,0.4,1.7,0.9,2.1,1.5s0.6,1.5,0.6,2.6v0.7
			c0,1.6-0.6,2.7-1.8,3.3c-1,0.5-2.5,0.7-4.3,0.7c-1.8,0-3.6-0.1-5.4-0.4c-0.2,0-0.3-0.2-0.3-0.4v-1.3c0-0.2,0.1-0.4,0.4-0.4h6.2
			c1.6,0,2.4-0.6,2.4-1.7v-0.4c0-0.5-0.1-1-0.4-1.3c-0.2-0.3-0.7-0.6-1.3-0.8l-4.8-1.9c-0.9-0.3-1.5-0.8-1.8-1.4
			c-0.4-0.6-0.5-1.5-0.5-2.7v-0.5c0-1.5,0.5-2.6,1.5-3.2S62.1,32.1,64.1,32.1z"/>
		<path class="st1" d="M79.3,31.4h1.1c0.2,0,0.2,0.1,0.2,0.4l-7.8,17.7c-0.1,0.2-0.3,0.4-0.5,0.4h-1.1c-0.2,0-0.3-0.1-0.2-0.4
			l7.8-17.7C78.9,31.6,79.1,31.4,79.3,31.4z"/>
	</g>
</g>
</svg>
