<?xml version="1.0" encoding="utf-8"?>
<!-- Generator: Adobe Illustrator 21.1.0, SVG Export Plug-In . SVG Version: 6.00 Build 0)  -->
<svg version="1.1" id="Layer_1" focusable="false" xmlns="http://www.w3.org/2000/svg" xmlns:xlink="http://www.w3.org/1999/xlink"
	 x="0px" y="0px" viewBox="0 0 512 512" style="enable-background:new 0 0 512 512;" xml:space="preserve">
<style type="text/css">
	.st0{fill:#FFFFFF;}
	.st1{fill:#2A68B5;}
</style>
<g>
	<ellipse class="st0" cx="256" cy="256.9" rx="253.5" ry="249.9"/>
</g>
<path class="st1" d="M373.8,141.2l-51.6-11.9c-5.6-1.3-11.4,1.6-13.6,6.9l-23.8,55.6c-2.1,4.9-0.7,10.6,3.4,13.9l30.1,24.6
	c-17.9,38.1-49.1,69.7-87.9,87.9l-24.6-30.1c-3.4-4.1-9-5.5-13.9-3.4l-55.6,23.8c-5.3,2.3-8.2,8.1-6.9,13.7l11.9,51.6
	c1.2,5.4,6,9.2,11.6,9.2C279.9,383,383,280.1,383,152.8C383,147.3,379.2,142.4,373.8,141.2z"/>
</svg>
