<svg id="Capa_1" data-name="Capa 1" xmlns="http://www.w3.org/2000/svg" viewBox="0 0 15.16 17.88"><defs><style>.cls-1{fill:#565ea9;}</style></defs><title>ICONOS DE REGISTRO</title><path class="cls-1" d="M10.6,17.88A44.93,44.93,0,0,1,6.2,15.2,15.87,15.87,0,0,1,0,4.53,4.07,4.07,0,0,1,3.27,0C4.22-.07,4.86.19,5,1.24a11.09,11.09,0,0,0,.42,2.13A1.94,1.94,0,0,1,4.49,6c-.76.42-.73,1-.43,1.73a12,12,0,0,0,4,5.1,1.38,1.38,0,0,0,2-.06c1.54-1.28,1.57-1.24,3.23,0l.87.66c1.36,1,1.43,2.43-.06,3.31a15.72,15.72,0,0,1-3.45,1.13"/></svg>