<?xml version="1.0" encoding="utf-8"?>
<!-- Generator: Adobe Illustrator 21.1.0, SVG Export Plug-In . SVG Version: 6.00 Build 0)  -->
<svg version="1.1" id="Layer_1" xmlns="http://www.w3.org/2000/svg" xmlns:xlink="http://www.w3.org/1999/xlink" x="0px" y="0px"
	 viewBox="0 0 86.2 67.4" style="enable-background:new 0 0 86.2 67.4;" xml:space="preserve">
<style type="text/css">
	.st0{fill-rule:evenodd;clip-rule:evenodd;fill:#565FAA;}
</style>
<g>
	<path class="st0" d="M58.2,42.3c16.1-10.4,27-24.7,27.2-35.2c4.1,10.7-8.6,28.8-28.5,40.7c0.1-0.3,0.2-0.6,0.3-0.9L58.2,42.3
		L58.2,42.3z"/>
	<path class="st0" d="M14.9,67.4h37.7c8.2,0,14.9-6.7,14.9-14.8V14.8c0-0.9-0.1-1.7-0.2-2.5c7.2-5.8,13.9-9,18.7-7.9
		C64.4-4.5,37.8,42.8,32.7,52.1l-18.8-28l17.5,10.3C42,20.9,53.5,10.5,63.3,4.6C60.6,1.8,56.8,0,52.6,0H14.9C6.7,0,0,6.7,0,14.8
		v37.7C0,60.7,6.7,67.4,14.9,67.4L14.9,67.4z"/>
</g>
</svg>
