<?xml version="1.0" encoding="utf-8"?>
<!-- Generator: Adobe Illustrator 21.1.0, SVG Export Plug-In . SVG Version: 6.00 Build 0)  -->
<svg version="1.1" xmlns="http://www.w3.org/2000/svg" xmlns:xlink="http://www.w3.org/1999/xlink" x="0px" y="0px"
	 viewBox="0 0 520.3 494.7" style="enable-background:new 0 0 520.3 494.7;" xml:space="preserve">
<style type="text/css">
	.st0{fill:#00AF4D;}
</style>
<g id="Background">
</g>
<g id="Objects">
	<g>
		<path class="st0" d="M429.5,414.1c-17.3,17.8-36,33.7-57.5,46.2c-44,25.4-91.4,36.5-142.1,33c-38.9-2.7-75.4-13.7-108.7-34.1
			C59.2,421,19.8,366.3,5.8,294.5C-8,223.4,7.1,158,50,100c37.9-51.3,89.2-83.1,152.2-94.9C261-5.8,316.6,3.9,369,32.7
			c9.8,5.4,19.2,11.7,28,18.6c3.2,2.5,4.5,4.2,0.3,7.2C386.1,66.6,375,75,364,83.4c-3.1,2.4-5.5,2.1-8.8,0
			c-48-30.7-100.1-39.4-155.2-25.8c-41.1,10.2-75.4,32.2-102.5,65.1C63.2,164.2,48.3,212,53.1,265.2c5.5,60.4,34,108.5,83.7,143.5
			c39.2,27.7,83.3,39,130.8,34c63.7-6.8,113.6-37.7,147.3-92.3c33.3-54,38-111.6,17-171.3c-1.7-4.7-1.6-7.9,2.1-11.7
			c9.1-9.5,17.7-19.6,26.6-29.4c4.6-5,5.6-4.8,8.7,1.5c18.2,37.2,25.9,76.5,24.4,117.9c-2.1,56.2-22,105.5-57.4,148.8
			C434.4,409.2,431.6,411.3,429.5,414.1z"/>
		<path class="st0" d="M323.6,276.4c-19.7,32.2-38.5,64.9-56.1,98.4c-5.4,10.3-14.3,15.5-25.8,15.6c-11.1,0-20.1-4.6-25.6-14.7
			c-19.6-36.4-39.2-72.9-58.7-109.4c-12.7-23.7-25.3-47.4-37.8-71.1c-6-11.4-3.4-21.4,7.2-28.7c3.1-2.1,6.1-4.3,9.2-6.4
			c10.1-6.8,19.5-6.1,28,2.6c23.6,24.1,47.1,48.3,70.6,72.5c7,7.1,6.8,7,13.3-1.1c51.7-64.5,111.1-120.8,180.1-166.7
			c22.6-15,46-28.4,70.4-40.2c5.9-2.8,11.1-2.5,15.9,1.9c5.1,4.7,6,10.6,4,17c-1,3-3.3,5.2-5.6,7.2
			c-36.3,32.3-70.9,66.1-102.3,103.3c-29.8,35.4-57.1,72.5-81.5,111.9C327.7,271.4,325.9,274.1,323.6,276.4z"/>
	</g>
</g>
</svg>
