<?xml version="1.0" encoding="utf-8"?>
<!-- Generator: Adobe Illustrator 21.1.0, SVG Export Plug-In . SVG Version: 6.00 Build 0)  -->
<svg version="1.1" id="Layer_1" xmlns="http://www.w3.org/2000/svg" xmlns:xlink="http://www.w3.org/1999/xlink" x="0px" y="0px"
	 viewBox="0 0 39.1 25.9" style="enable-background:new 0 0 39.1 25.9;" xml:space="preserve">
<style type="text/css">
	.st0{fill:#4E585F;stroke:#989898;stroke-miterlimit:10;}
	.st1{fill:#4E585F;}
	.st2{fill-rule:evenodd;clip-rule:evenodd;fill:#FFFFFF;stroke:#4E585F;stroke-width:2;stroke-miterlimit:10;}
</style>
<g>
	<path class="st2" d="M12.1,13.6v0.6c2.4,1.4,3.6,0.7,3.6,3.8h-4.8h-0.1H5.9c0-3.2,1.2-2.4,3.6-3.8v-0.5c-0.4-0.3-0.5-0.8-0.7-1.4
		l0,0c-0.1,0-0.1-0.1-0.1-0.2c0,0,0,0,0-0.1c0-0.1-0.1-0.1-0.1-0.3c-0.1-0.2-0.2-0.5-0.1-0.7c0.1-0.1,0.2,0,0.2,0
		c-0.2-0.9-0.4-2.1,0.9-2.5c0-0.8,3-0.4,3.3,0.8c0.1,0.5-0.1,1.7-0.1,1.7C12.9,11,13,11,13,11c0.1,0.1,0,0.6-0.1,0.7
		c0,0.1-0.1,0.2-0.1,0.3v0c0,0.1-0.1,0.2-0.1,0.2C12.6,12.8,12.5,13.3,12.1,13.6L12.1,13.6z M20.6,8.6h10.3c0.2,0,0.4,0.2,0.4,0.4
		v2.1c0,0.2-0.2,0.4-0.4,0.4H20.6c-0.2,0-0.4-0.2-0.4-0.4V9C20.2,8.7,20.4,8.6,20.6,8.6L20.6,8.6z M20.6,13h10.3
		c0.2,0,0.4,0.2,0.4,0.4v2.1c0,0.2-0.2,0.4-0.4,0.4H20.6c-0.2,0-0.4-0.2-0.4-0.4v-2.1C20.2,13.2,20.4,13,20.6,13L20.6,13z M34.6,1
		H12.8H4.5C2.6,1,1,2.6,1,4.5v16.9c0,1.9,1.6,3.5,3.5,3.5h30.1c1.9,0,3.5-1.6,3.5-3.5V4.5C38.1,2.6,36.5,1,34.6,1L34.6,1z
		 M35.5,21.4c0,0.5-0.4,0.9-0.9,0.9H4.5c-0.5,0-0.9-0.4-0.9-0.9V4.5C3.6,4,4,3.6,4.5,3.6h21.7h8.4c0.5,0,0.9,0.4,0.9,0.9V21.4
		L35.5,21.4z"/>
</g>
</svg>
