<?xml version="1.0" encoding="utf-8"?>
<!-- Generator: Adobe Illustrator 21.1.0, SVG Export Plug-In . SVG Version: 6.00 Build 0)  -->
<svg version="1.1" id="Layer_1" xmlns="http://www.w3.org/2000/svg" xmlns:xlink="http://www.w3.org/1999/xlink" x="0px" y="0px"
	 viewBox="0 0 29.5 23" style="enable-background:new 0 0 29.5 23;" xml:space="preserve">
<style type="text/css">
	.st0{fill:#4E585F;stroke:#989898;stroke-miterlimit:10;}
	.st1{fill:#4E585F;}
	.st2{fill-rule:evenodd;clip-rule:evenodd;fill:#FFFFFF;stroke:#4E585F;stroke-width:2;stroke-miterlimit:10;}
</style>
<g>
	<path class="st0" d="M2.6,0.8l9.9,11.2c0.6,0.6,1.4,1,2.2,1c0.9,0,1.7-0.4,2.2-1L26.7,1c0.1-0.1,0.2-0.2,0.3-0.2
		c-0.4-0.2-0.9-0.3-1.3-0.3H3.9C3.4,0.5,3,0.6,2.6,0.8C2.6,0.8,2.6,0.8,2.6,0.8z"/>
	<path class="st0" d="M28.5,2.1c0,0.1-0.1,0.2-0.2,0.3l-9.7,11.1c-1,1.1-2.4,1.7-3.8,1.7c-1.5,0-2.8-0.6-3.8-1.7L1,2.2
		c0,0,0,0-0.1-0.1C0.7,2.6,0.5,3.2,0.5,3.9v15.2c0,1.9,1.5,3.4,3.4,3.4h21.8c1.9,0,3.4-1.5,3.4-3.4V3.9C29,3.2,28.8,2.6,28.5,2.1z"
		/>
</g>
</svg>
