<?xml version="1.0" encoding="utf-8"?>
<!-- Generator: Adobe Illustrator 21.1.0, SVG Export Plug-In . SVG Version: 6.00 Build 0)  -->
<svg version="1.1" id="Layer_1" xmlns="http://www.w3.org/2000/svg" xmlns:xlink="http://www.w3.org/1999/xlink" x="0px" y="0px"
	 viewBox="0 0 20.1 23.7" style="enable-background:new 0 0 20.1 23.7;" xml:space="preserve">
<style type="text/css">
	.st0{fill:#4E585F;stroke:#989898;stroke-miterlimit:10;}
	.st1{fill:#4E585F;}
	.st2{fill-rule:evenodd;clip-rule:evenodd;fill:#FFFFFF;stroke:#4E585F;stroke-width:2;stroke-miterlimit:10;}
</style>
<path class="st1" d="M14.1,23.7c-2.2-1.3-4.2-2.2-5.8-3.6C3.6,16.6,0.8,11.8,0,6c-0.4-2.9,1.9-5.8,4.3-6c1.3-0.1,2.1,0.2,2.3,1.6
	c0.1,1,0.2,1.9,0.6,2.8C7.7,6,7.4,7.2,5.9,8c-1,0.6-1,1.3-0.6,2.3c1.1,2.7,2.9,5,5.2,6.8c1,0.8,1.7,0.7,2.7-0.1c2-1.7,2.1-1.6,4.3,0
	c0.4,0.3,0.8,0.6,1.1,0.9c1.8,1.4,1.9,3.2-0.1,4.4C17.3,23,15.6,23.3,14.1,23.7"/>
</svg>
