<?xml version="1.0" encoding="utf-8"?>
<!-- Generator: Adobe Illustrator 21.1.0, SVG Export Plug-In . SVG Version: 6.00 Build 0)  -->
<svg version="1.1" id="Layer_1" xmlns="http://www.w3.org/2000/svg" xmlns:xlink="http://www.w3.org/1999/xlink" x="0px" y="0px"
	 viewBox="0 0 36.6 31.7" style="enable-background:new 0 0 36.6 31.7;" xml:space="preserve">
<style type="text/css">
	.st0{fill-rule:evenodd;clip-rule:evenodd;fill:#989898;}
</style>
<g>
	<path class="st0" d="M6.8,5.9h1.9c0.5,0,1-0.4,1-1V1c0-0.5-0.4-1-1-1H6.8c-0.5,0-1,0.4-1,1v3.9C5.9,5.4,6.3,5.9,6.8,5.9L6.8,5.9z
		 M36.6,25.3c0,3.5-2.9,6.4-6.4,6.4c-3.5,0-6.4-2.9-6.4-6.4c0-3.6,2.9-6.4,6.4-6.4C33.8,18.9,36.6,21.8,36.6,25.3L36.6,25.3z
		 M35,25.3c0-2.7-2.2-4.8-4.8-4.8c-2.6,0-4.8,2.2-4.8,4.8c0,2.6,2.2,4.8,4.8,4.8C32.9,30.1,35,28,35,25.3L35,25.3z M33.6,23.7
		c-0.3-0.3-0.8-0.3-1.1,0l-2.8,2.8l-1.7-1.7c-0.3-0.3-0.8-0.3-1.2,0c-0.3,0.3-0.3,0.8,0,1.2l2.3,2.3c0.2,0.1,0.4,0.2,0.6,0.2
		c0.2,0,0.4-0.1,0.6-0.2l3.4-3.4C33.9,24.6,33.9,24.1,33.6,23.7L33.6,23.7z M16.1,20.1c1.6,0,2.9,1.3,2.9,2.9c0,1.6-1.3,2.9-2.9,2.9
		c-1.6,0-2.9-1.3-2.9-2.9C13.1,21.5,14.4,20.1,16.1,20.1L16.1,20.1z M7.6,20.1c1.6,0,2.9,1.3,2.9,2.9c0,1.6-1.3,2.9-2.9,2.9
		c-1.6,0-2.9-1.3-2.9-2.9C4.7,21.5,6,20.1,7.6,20.1L7.6,20.1z M7.6,12.6c1.6,0,2.9,1.3,2.9,2.9c0,1.6-1.3,2.9-2.9,2.9
		c-1.6,0-2.9-1.3-2.9-2.9C4.7,13.9,6,12.6,7.6,12.6L7.6,12.6z M16.1,12.6c1.6,0,2.9,1.3,2.9,2.9c0,1.6-1.3,2.9-2.9,2.9
		c-1.6,0-2.9-1.3-2.9-2.9C13.1,13.9,14.4,12.6,16.1,12.6L16.1,12.6z M24.5,12.6c1.6,0,2.9,1.3,2.9,2.9c0,1.6-1.3,2.9-2.9,2.9
		c-1.6,0-2.9-1.3-2.9-2.9C21.6,13.9,22.9,12.6,24.5,12.6L24.5,12.6z M31.2,7.8v9.7c-0.3-0.1-0.7-0.1-1-0.1c-0.3,0-0.6,0-0.9,0.1
		v-5.8c0-3.7-22-1.9-25.4-1.9c-1.1,0-1.9,0.9-1.9,1.9v15.6c0,1.1,0.9,1.9,1.9,1.9h19.6c0.4,0.7,1,1.4,1.7,2H3.9
		c-2.1,0-3.9-1.8-3.9-3.9V7.8c0-2.1,1.7-3.9,3.9-3.9h1v1c0,1.1,0.9,1.9,2,1.9h1.9c1.1,0,2-0.9,2-1.9v-1h9.8v1c0,1.1,0.9,1.9,1.9,1.9
		h2c1.1,0,1.9-0.9,1.9-1.9v-1h1C29.5,3.9,31.2,5.7,31.2,7.8L31.2,7.8z M22.4,5.9h2c0.5,0,1-0.4,1-1V1c0-0.5-0.4-1-1-1h-2
		c-0.5,0-1,0.4-1,1v3.9C21.5,5.4,21.9,5.9,22.4,5.9L22.4,5.9z"/>
</g>
</svg>
