<?xml version="1.0" encoding="utf-8"?>
<!-- Generator: Adobe Illustrator 21.1.0, SVG Export Plug-In . SVG Version: 6.00 Build 0)  -->
<svg version="1.1" id="Layer_1" xmlns="http://www.w3.org/2000/svg" xmlns:xlink="http://www.w3.org/1999/xlink" x="0px" y="0px"
	 viewBox="0 0 349.3 85.4" style="enable-background:new 0 0 349.3 85.4;" xml:space="preserve">
<style type="text/css">
	.st0{fill:#0A4E8D;}
	.st1{fill:#DC7D32;}
	.st2{fill-rule:evenodd;clip-rule:evenodd;fill:#2D3776;}
	.st3{fill:#2D3776;}
	.st4{fill:#DB1F26;}
</style>
<g>
	<path class="st4" d="M90.6,33.6c-8.9,0-16.2,7.3-16.2,16.2S81.6,66,90.6,66c8.9,0,16.2-7.3,16.2-16.2S99.5,33.6,90.6,33.6
		 M90.6,56.9c-3.9,0-7.1-3.2-7.1-7.1c0-3.9,3.2-7.1,7.1-7.1c3.9,0,7.1,3.2,7.1,7.1C97.7,53.7,94.5,56.9,90.6,56.9"/>
	<polygon class="st4" points="127.4,34.4 122.9,34.4 122.9,24.8 113.3,24.8 113.3,34.4 108.9,34.4 108.9,43.1 113.3,43.1 
		113.3,65.2 122.9,65.2 122.9,43.1 127.4,43.1 	"/>
	<rect x="131.8" y="34.4" class="st4" width="9.7" height="30.8"/>
	<path class="st4" d="M136.6,19.5c-3,0-5.4,2.4-5.4,5.4c0,3,2.4,5.4,5.4,5.4c3,0,5.4-2.4,5.4-5.4C142,21.9,139.6,19.5,136.6,19.5"/>
	<path class="st4" d="M275.3,42.7c3.2,0,5.8,2.6,5.8,5.8v16.8h9.7V47.1c0-8.2-4.7-13.5-12.2-13.5c-3.1,0-6.3,1.3-9,5.7v-4.9h-9.7
		v30.8h9.7V48.5C269.6,45.3,272.1,42.7,275.3,42.7"/>
	<polygon class="st4" points="326,65.2 314.1,49.8 325.2,34.4 313.9,34.4 305,46.9 305,20.2 295.3,20.2 295.3,65.2 305,65.2 
		305,52.5 314.7,65.2 	"/>
	<path class="st4" d="M41.1,56.9c0.7-1.7,1-3.4,1-5.7c0-3.1-1-5.9-2.7-7.8c-2.1-2.3-5.6-4.1-10.5-5.6c-1.1-0.3-2-0.7-2.7-1
		c-0.9-0.4-1.5-0.9-2-1.5c-0.6-0.7-0.9-1.5-0.9-2.5c0-1.4,0.8-2.4,2-3.2c1.6-1,4.6-1.1,7.6,0.1c1.1,0.4,2,0.8,3.1,1.5l4.1-8.2
		c-1.5-0.9-3.7-2.1-5.9-2.7c-2.2-0.6-4.3-0.8-6.6-0.8c-2.3,0-4.3,0.3-6.1,1c-1.6,0.6-3.3,1.7-4.7,3.1c-1.3,1.2-2.5,3-3.1,4.7
		c-0.7,1.7-1,3.6-1,5.7c0,2.2,1,5.7,3.6,8.2c2.8,2.6,6,3.6,7.3,4.1c1.3,0.5,2.7,0.9,3.6,1.3c1,0.4,2,0.9,2.6,1.3
		c0.7,0.5,1.1,0.9,1.4,1.6c0.3,0.6,0.4,1.2,0.3,2c-0.1,1-0.5,1.9-1.4,2.7c-0.8,0.8-2.3,1.2-4.4,1.2c-1.8,0-3.6-0.5-5.4-1.3
		c-1.6-0.7-2.7-1.3-4.4-2.3L11.1,61c3.4,3,8.8,5,13.7,5c2.5,0,5.1-0.4,7.3-1.2c2.1-0.7,4.1-1.9,5.5-3.1
		C39.1,60.4,40.4,58.6,41.1,56.9"/>
	<path class="st4" d="M332.8,54.4c-3,0-5.4,2.4-5.4,5.4c0,3,2.4,5.4,5.4,5.4c3,0,5.4-2.4,5.4-5.4C338.2,56.8,335.8,54.4,332.8,54.4
		 M332.8,64.1c-2.4,0-4.3-1.9-4.3-4.3c0-2.4,1.9-4.3,4.3-4.3c2.4,0,4.3,1.9,4.3,4.3C337.1,62.2,335.2,64.1,332.8,64.1"/>
	<path class="st4" d="M332.8,60.7h-0.9v2h-1.1v-5.9h2.3c1.1,0,2,0.9,2,1.9c0,0.7-0.5,1.4-1.1,1.7l1.2,2.2h-1.3L332.8,60.7z
		 M331.9,59.7h1.2c0.5,0,0.8-0.4,0.8-0.9c0-0.5-0.4-0.9-0.8-0.9h-1.2V59.7z"/>
	<path class="st4" d="M67.6,54.3c-1.3,1.6-3.3,2.7-5.6,2.7c-3.9,0-7.1-3.2-7.1-7.1c0-3.9,3.2-7.1,7.1-7.1c2.2,0,4.2,1,5.6,2.7
		l6.4-6.4c-3-3.3-7.2-5.3-12-5.3c-8.9,0-16.7,6.3-16.7,16.2C45.3,59.6,53.1,66,62,66c4.7,0,9-2,12-5.3L67.6,54.3z"/>
	<path class="st4" d="M179.3,65.2V34.4h-9.4v3.2l-0.9-0.8c-2.4-2.1-5-3.2-8.1-3.2c-8.3,0-15.3,7.4-15.3,16.2c0,8.8,7,16.2,15.3,16.2
		c3.1,0,5.8-1.1,8.1-3.2l0.9-0.8v3.2H179.3z M162.4,57.1c-4,0-7.3-3.3-7.3-7.3c0-4,3.3-7.3,7.3-7.3c4,0,7.3,3.3,7.3,7.3
		C169.7,53.8,166.4,57.1,162.4,57.1"/>
	<path class="st4" d="M255.3,65.2V34.4h-9.4v3.2l-0.9-0.8c-2.4-2.1-5-3.2-8.1-3.2c-8.3,0-15.3,7.4-15.3,16.2c0,8.8,7,16.2,15.3,16.2
		c3.1,0,5.8-1.1,8.1-3.2l0.9-0.8v3.2H255.3z M238.3,57.1c-4,0-7.3-3.3-7.3-7.3c0-4,3.3-7.3,7.3-7.3c4,0,7.3,3.3,7.3,7.3
		C245.6,53.8,242.4,57.1,238.3,57.1"/>
	<path class="st4" d="M193.7,65.2V62l0.9,0.8c2.4,2.1,5,3.2,8.1,3.2c8.3,0,15.3-7.4,15.3-16.2c0-8.8-7-16.2-15.3-16.2
		c-3.1,0-5.8,1.1-8.1,3.2l-0.9,0.8V20.2h-9.4v45H193.7z M193.9,49.8c0-4,3.3-7.3,7.3-7.3c4,0,7.3,3.3,7.3,7.3c0,4-3.3,7.3-7.3,7.3
		C197.2,57.1,193.9,53.8,193.9,49.8"/>
</g>
</svg>
