<svg id="Capa_1" data-name="Capa 1" xmlns="http://www.w3.org/2000/svg" viewBox="0 0 23.95 15.42"><defs><style>.cls-1{fill:#565ea9;fill-rule:evenodd;}</style></defs><title>ICONOS DE REGISTRO</title><path class="cls-1" d="M7.15,8.13v.4C8.7,9.42,9.49,9,9.49,11H3.14c0-2.08.79-1.56,2.32-2.46V8.18A1.5,1.5,0,0,1,5,7.27H5S5,7.21,5,7.14a.05.05,0,0,1,0,0,.78.78,0,0,1-.07-.18c0-.11-.13-.34,0-.43A.09.09,0,0,1,5,6.5c-.11-.59-.27-1.37.56-1.6,0-.51,1.91-.28,2.15.52a3.39,3.39,0,0,1,0,1.07.07.07,0,0,1,.11,0c.09.08,0,.38,0,.47a.53.53,0,0,1-.07.19v0c0,.07,0,.13-.07.13a1.4,1.4,0,0,1-.42.86Zm5.51-3.25h6.66a.27.27,0,0,1,.27.27V6.5a.27.27,0,0,1-.27.27H12.66a.27.27,0,0,1-.27-.27V5.14a.27.27,0,0,1,.27-.27Zm0,2.86h6.66a.27.27,0,0,1,.27.26V9.37a.27.27,0,0,1-.27.26H12.66a.27.27,0,0,1-.27-.26V8a.27.27,0,0,1,.27-.26Zm9-7.73H2.26A2.26,2.26,0,0,0,0,2.26V13.15a2.26,2.26,0,0,0,2.26,2.26H21.69a2.27,2.27,0,0,0,2.26-2.26V2.26A2.27,2.27,0,0,0,21.69,0Zm.56,13.15a.57.57,0,0,1-.56.57H2.26a.57.57,0,0,1-.57-.57V2.26a.57.57,0,0,1,.57-.57H21.69a.57.57,0,0,1,.56.57V13.15Z"/></svg>