<?xml version="1.0" encoding="utf-8"?>
<!-- Generator: Adobe Illustrator 21.0.0, SVG Export Plug-In . SVG Version: 6.00 Build 0)  -->
<svg version="1.1" id="Capa_1" xmlns="http://www.w3.org/2000/svg" xmlns:xlink="http://www.w3.org/1999/xlink" x="0px" y="0px"
	 viewBox="0 0 65 46.3" style="enable-background:new 0 0 65 46.3;" xml:space="preserve">
<style type="text/css">
	.st0{fill:none;stroke:#FFFFFF;stroke-width:4.1274;stroke-linecap:round;stroke-miterlimit:10;}
	.st1{fill:none;stroke:#FFFFFF;stroke-width:4.1274;stroke-linecap:round;stroke-linejoin:round;stroke-miterlimit:10;}
	.st2{fill:#FFFFFF;}
	.st3{fill:#FFFFFF;stroke:#FFFFFF;stroke-width:2.0238;stroke-miterlimit:10;}
</style>
<g>
	<g>
		<path class="st2" d="M24.1,42.1c-6.1,0-12.2,0-18.2,0c-2.1,0-2.8-0.7-2.8-2.7c0-10.8,0-21.5,0-32.3c0-2.1,0.7-2.8,2.8-2.8
			c12.1,0,24.2,0,36.3,0c1.1,0,1.9,0.3,2.7,1.1c5.3,5.3,10.6,10.6,15.8,15.9c1.5,1.5,1.5,2.4,0,4C55.5,30.4,50.2,35.7,45,41
			c-0.8,0.8-1.6,1.1-2.7,1.1C36.2,42,30.2,42.1,24.1,42.1z M7.4,8.5c0,9.9,0,19.6,0,29.3c0.3,0,0.4,0,0.6,0c11.1,0,22.2,0,33.3,0
			c0.5,0,1.1-0.4,1.5-0.7c4.4-4.3,8.7-8.7,13.1-13.1c0.3-0.3,0.5-0.6,0.8-0.9c-0.3-0.3-0.5-0.6-0.8-0.8c-4.3-4.3-8.7-8.6-13-13
			c-0.6-0.6-1.3-0.9-2.2-0.9c-6.6,0-13.3,0-19.9,0C16.4,8.5,11.9,8.5,7.4,8.5z"/>
	</g>
	<g>
		<path class="st2" d="M20.8,29.3c1,0.7,2.8,1.4,4.5,1.4c2.5,0,3.7-1.2,3.7-2.8c0-1.6-1-2.5-3.5-3.5c-3.4-1.2-5-3.1-5-5.3
			c0-3,2.5-5.5,6.5-5.5c1.9,0,3.6,0.5,4.6,1.2l-0.9,2.5c-0.7-0.5-2.1-1.1-3.9-1.1c-2,0-3.1,1.2-3.1,2.6c0,1.6,1.1,2.3,3.6,3.2
			c3.3,1.2,4.9,2.9,4.9,5.7c0,3.3-2.6,5.6-7,5.6c-2.1,0-4-0.5-5.3-1.3L20.8,29.3z"/>
	</g>
	<g>
		<path class="st3" d="M34.8,26.7l3.9-10.2h1l-3.9,10.2H34.8z"/>
		<path class="st2" d="M35.6,30.5c0-0.8,0.5-1.3,1.3-1.3c0.7,0,1.2,0.5,1.2,1.3c0,0.8-0.5,1.3-1.3,1.3
			C36.1,31.8,35.6,31.2,35.6,30.5z"/>
	</g>
</g>
</svg>
