<?xml version="1.0" encoding="utf-8"?>
<!-- Generator: Adobe Illustrator 21.0.0, SVG Export Plug-In . SVG Version: 6.00 Build 0)  -->
<svg version="1.1" id="Capa_1" xmlns="http://www.w3.org/2000/svg" xmlns:xlink="http://www.w3.org/1999/xlink" x="0px" y="0px"
	 viewBox="0 0 65 46.3" style="enable-background:new 0 0 65 46.3;" xml:space="preserve">
<style type="text/css">
	.st0{fill:none;stroke:#FFFFFF;stroke-width:4.1274;stroke-linecap:round;stroke-miterlimit:10;}
	.st1{fill:none;stroke:#FFFFFF;stroke-width:4.1274;stroke-linecap:round;stroke-linejoin:round;stroke-miterlimit:10;}
	.st2{fill:#FFFFFF;}
	.st3{fill:#FFFFFF;stroke:#FFFFFF;stroke-width:2.0238;stroke-miterlimit:10;}
</style>
<g>
	<path class="st2" d="M4.6,20.5c0-4.3,0-8.5,0-12.6c0-1.3,0.1-2.7,0.7-3.9c1-2.3,2.9-3.4,5.4-3.4c5.1,0,10.2,0,15.3,0
		c8.9,0,17.8,0,26.8,0c1.4,0,2.8,0.1,4.1,0.6c2.2,0.9,3.4,2.7,3.4,5.1c0.1,4.2,0.1,8.4,0.1,12.5c0,0.9-0.1,1.8,1.2,2.1
		c0.4,0.1,0.9,1.1,0.9,1.7c0,5.9,0.1,11.8-0.1,17.6c-0.1,3.1-2.4,5.3-5.4,5.5c-1.2,0.1-2.5,0.1-3.7,0.1c-14.1,0-28.3-0.1-42.4,0.1
		c-6.8,0.1-8.7-2.8-8.5-8.6c0.2-4.6,0.1-9.3,0-13.9C2.4,21.8,2.7,20.6,4.6,20.5z M6.1,24.1c0,5.4-0.1,10.6,0,15.9c0,1.7,1,2.3,3,2.3
		c15.6,0,31.2,0,46.9,0c2.4,0,3.1-0.8,3.1-3.2c0-3.9,0-7.8,0-11.8c0-1.1,0-2.1,0-3.2C41.3,24.1,23.8,24.1,6.1,24.1z M56.9,13
		c0-2.3,0-4.2,0-6.1c0-2-0.8-2.8-2.8-2.9c-0.5,0-0.9,0-1.4,0c-13.4,0-26.8,0-40.2,0c-0.8,0-1.6-0.1-2.3,0.2C9.5,4.4,8.6,4.9,8.5,5.5
		C8.2,7.9,8.2,10.3,8,12.6c1.9-0.7,3.5-1.8,5.1-1.9c4.2-0.3,8.4-0.3,12.6,0c2.9,0.2,5,2,6.7,4.3c3.3-3.7,5.3-4.5,10.2-4.5
		c1.5,0,3,0,4.5,0C50.6,10.3,53.9,10.4,56.9,13z M56.8,20.5c-0.1-3.1-2.2-6-5.1-6.3c-4.1-0.4-8.2-0.4-12.3,0c-3,0.3-5.3,3.6-5,6.3
		C41.9,20.5,49.3,20.5,56.8,20.5z M8.4,20.5c7.4,0,14.8,0,22.2,0c0.2-2.9-2-6-5.1-6.3c-4-0.4-8-0.4-12,0
		C10.4,14.5,8.2,17.6,8.4,20.5z"/>
</g>
</svg>
