<svg id="Capa_1" data-name="Capa 1" xmlns="http://www.w3.org/2000/svg" viewBox="0 0 19.2 14.78"><defs><style>.cls-1{fill:#565ea9;}</style></defs><title>ICONOS DE REGISTRO</title><path class="cls-1" d="M1.43.21,8.1,7.77a2,2,0,0,0,3,0L17.65.34a.7.7,0,0,1,.19-.15A2.26,2.26,0,0,0,16.93,0H2.27A2.26,2.26,0,0,0,1.4.17Z"/><path class="cls-1" d="M18.85,1.06a.71.71,0,0,1-.13.22L12.17,8.72A3.42,3.42,0,0,1,7,8.72L.36,1.15l0,0A2.25,2.25,0,0,0,0,2.27V12.51a2.27,2.27,0,0,0,2.27,2.27H16.93a2.27,2.27,0,0,0,2.27-2.27V2.27A2.25,2.25,0,0,0,18.85,1.06Z"/></svg>