<?xml version="1.0" encoding="utf-8"?>
<!-- Generator: Adobe Illustrator 21.1.0, SVG Export Plug-In . SVG Version: 6.00 Build 0)  -->
<svg version="1.1" id="Grupo_1863" xmlns="http://www.w3.org/2000/svg" xmlns:xlink="http://www.w3.org/1999/xlink" x="0px" y="0px"
	 viewBox="0 0 184 40.8" style="enable-background:new 0 0 184 40.8;" xml:space="preserve">
<style type="text/css">
	.st0{fill:#009775;}
	.st1{fill:#192430;}
</style>
<g id="Grupo_1864">
	<path id="Trazado_1140" class="st0" d="M26.3,0H0v26.3h6.6V6.6h19.7L26.3,0z"/>
	<g id="Grupo_1863-2" transform="translate(13.375 13.372)">
		<path id="Trazado_1141" class="st0" d="M26.3,0H0v26.3h6.6V6.6h19.7L26.3,0z"/>
		<path id="Trazado_1142" class="st1" d="M26.3,13.1H13.1v6.6h6.6v6.6h6.6v-6.6L26.3,13.1z"/>
	</g>
</g>
<g id="Grupo_1865" transform="translate(59.994 33.82)">
	<g>
		<path id="Trazado_1143_8_" class="st1" d="M4,1.6V5C4.1,6,3.5,6.8,2.6,7C2.4,7,2.2,7,2.1,7C1.4,7,0.7,6.8,0.2,6.4L0.5,6
			c0.4,0.4,1,0.5,1.5,0.5c1,0,1.4-0.5,1.4-1.4V4.6C3.1,5.1,2.6,5.4,2,5.3C0.9,5.4,0,4.6,0,3.5c0-1,0.8-1.9,1.8-1.9c0,0,0.1,0,0.1,0
			c0.6,0,1.2,0.3,1.5,0.8V1.6L4,1.6z M3.5,3.5c0-0.8-0.6-1.5-1.4-1.5c-0.8,0-1.5,0.6-1.5,1.4S1.1,4.9,2,4.9c0,0,0,0,0,0
			c0.8,0,1.4-0.5,1.5-1.3C3.5,3.5,3.5,3.5,3.5,3.5z"/>
		<path id="Trazado_1144_8_" class="st1" d="M10.5,1.6v0.5c0,0-0.1,0-0.1,0C9.7,2,9.1,2.6,9.1,3.3c0,0.1,0,0.2,0,0.2v2H8.6V1.6h0.5
			v0.8C9.4,1.8,9.9,1.5,10.5,1.6z"/>
		<path id="Trazado_1145_8_" class="st1" d="M18.2,1.6v3.9h-0.5V4.8c-0.3,0.5-0.8,0.8-1.4,0.7c-0.8,0.1-1.6-0.5-1.6-1.4
			c0-0.1,0-0.2,0-0.3V1.6h0.5v2.2C15.1,4.4,15.5,5,16.1,5c0.1,0,0.2,0,0.3,0c0.7,0,1.3-0.5,1.3-1.2c0-0.1,0-0.1,0-0.2v-2H18.2z"/>
		<path id="Trazado_1146_8_" class="st1" d="M26.7,3.5c0.1,1-0.7,1.9-1.8,2c-0.1,0-0.1,0-0.2,0c-0.6,0-1.2-0.3-1.5-0.8v2.2h-0.5V1.6
			h0.5v0.8c0.3-0.5,0.9-0.8,1.5-0.8c1,0,1.9,0.8,1.9,1.8C26.7,3.4,26.7,3.5,26.7,3.5L26.7,3.5z M26.2,3.5c0-0.8-0.7-1.4-1.5-1.4
			c-0.8,0-1.4,0.7-1.4,1.5c0,0.8,0.7,1.4,1.5,1.4c0.8,0,1.4-0.6,1.5-1.4C26.2,3.6,26.2,3.6,26.2,3.5z"/>
		<path id="Trazado_1147_8_" class="st1" d="M30.5,3.5c0-1.1,0.9-2,2-2s2,0.9,2,2c0,1.1-0.9,2-2,2c-1.1,0-1.9-0.8-2-1.8
			C30.5,3.6,30.5,3.6,30.5,3.5z M33.9,3.5c0-0.8-0.7-1.4-1.5-1.4S31,2.9,31,3.7c0,0.8,0.7,1.4,1.5,1.4c0.8,0,1.4-0.6,1.4-1.4
			C33.9,3.6,33.9,3.6,33.9,3.5z"/>
		<path id="Trazado_1148_8_" class="st1" d="M43.6,0.4c0-0.2,0.2-0.4,0.4-0.4c0.2,0,0.4,0.2,0.4,0.4c0,0,0,0,0,0
			c0,0.2-0.2,0.4-0.4,0.4C43.7,0.7,43.6,0.6,43.6,0.4z M43.7,1.6h0.5v3.9h-0.5V1.6z"/>
		<path id="Trazado_1149_8_" class="st1" d="M52.4,3.2v2.3h-0.5V3.3c0.1-0.6-0.3-1.1-0.9-1.2c-0.1,0-0.2,0-0.3,0
			C50,2,49.4,2.5,49.3,3.2c0,0.1,0,0.2,0,0.2v2h-0.5V1.6h0.5v0.7c0.3-0.5,0.9-0.8,1.5-0.7c0.8-0.1,1.5,0.5,1.6,1.4
			C52.4,3,52.4,3.1,52.4,3.2L52.4,3.2z"/>
		<path id="Trazado_1150_8_" class="st1" d="M63.3,3.2v2.3h-0.5V3.3c0-0.8-0.4-1.2-1.1-1.2c-0.7,0-1.3,0.5-1.3,1.2
			c0,0.1,0,0.1,0,0.2v2h-0.5V3.3c0-0.8-0.4-1.2-1.1-1.2c-0.7,0-1.3,0.5-1.3,1.2c0,0.1,0,0.1,0,0.2v2h-0.5V1.6h0.5v0.7
			c0.3-0.5,0.9-0.8,1.4-0.7c0.6,0,1.1,0.3,1.4,0.8c0.3-0.5,0.9-0.9,1.5-0.8c0.8-0.1,1.5,0.5,1.6,1.4C63.3,3,63.3,3.1,63.3,3.2
			L63.3,3.2z"/>
		<path id="Trazado_1151_8_" class="st1" d="M67.5,3.5c0-1.1,0.9-2,2-2c1.1,0,2,0.9,2,2c0,1.1-0.9,2-2,2c-1.1,0-1.9-0.8-2-1.8
			C67.5,3.6,67.5,3.6,67.5,3.5z M70.9,3.5c0-0.8-0.7-1.4-1.5-1.4c-0.8,0-1.4,0.7-1.4,1.5c0,0.8,0.7,1.4,1.5,1.4
			c0.8,0,1.4-0.6,1.4-1.4C70.9,3.6,70.9,3.6,70.9,3.5z"/>
		<path id="Trazado_1152_8_" class="st1" d="M79.6,3.5c0.1,1-0.8,1.9-1.8,2c0,0-0.1,0-0.1,0c-0.6,0-1.2-0.3-1.5-0.8v0.8h-0.5V0h0.5
			v2.3c0.3-0.5,0.9-0.8,1.5-0.8c1,0,1.9,0.8,1.9,1.8C79.6,3.4,79.6,3.5,79.6,3.5z M79.1,3.5c0-0.8-0.7-1.4-1.5-1.4
			c-0.8,0-1.4,0.7-1.4,1.5c0,0.8,0.7,1.4,1.5,1.4c0.8,0,1.4-0.6,1.5-1.4C79.1,3.6,79.1,3.6,79.1,3.5z"/>
		<path id="Trazado_1153_8_" class="st1" d="M83.6,0.4C83.7,0.2,83.8,0,84,0c0.2,0,0.4,0.2,0.4,0.4c0,0,0,0,0,0
			c0,0.2-0.2,0.4-0.4,0.4C83.8,0.8,83.6,0.6,83.6,0.4L83.6,0.4L83.6,0.4z M83.8,1.6h0.5v3.9h-0.5V1.6z"/>
		<path id="Trazado_1154_8_" class="st1" d="M88.9,0h0.5v5.5h-0.5V0z"/>
		<path id="Trazado_1155_8_" class="st1" d="M93.8,0.4C93.9,0.2,94,0,94.2,0c0.2,0,0.4,0.2,0.4,0.4c0,0,0,0,0,0
			c0,0.2-0.2,0.4-0.4,0.4C94,0.7,93.9,0.6,93.8,0.4z M94,1.6h0.5v3.9H94V1.6z"/>
		<path id="Trazado_1156_8_" class="st1" d="M102,3.1v2.4h-0.5V4.9c-0.3,0.4-0.8,0.7-1.3,0.6c-0.9,0-1.4-0.5-1.4-1.1
			c0-0.6,0.4-1.1,1.5-1.1h1.2V3.1c0-0.7-0.4-1-1.1-1c-0.5,0-0.9,0.2-1.3,0.5l-0.2-0.4c0.5-0.4,1-0.5,1.6-0.5
			c0.8-0.1,1.5,0.4,1.6,1.2C102,2.8,102,3,102,3.1L102,3.1z M101.5,4.3V3.7h-1.2c-0.8,0-1,0.3-1,0.7c0,0.5,0.4,0.7,1,0.7
			C100.8,5.2,101.3,4.8,101.5,4.3L101.5,4.3z"/>
		<path id="Trazado_1157_8_" class="st1" d="M108.5,1.6v0.5c0,0-0.1,0-0.1,0c-0.7,0-1.3,0.5-1.3,1.2c0,0.1,0,0.2,0,0.2v2h-0.5V1.6
			h0.5v0.8C107.3,1.8,107.9,1.5,108.5,1.6z"/>
		<path id="Trazado_1158_8_" class="st1" d="M112.4,0.4c0-0.2,0.2-0.4,0.4-0.4c0.2,0,0.4,0.2,0.4,0.4c0,0,0,0,0,0
			c0,0.2-0.2,0.4-0.4,0.4C112.6,0.8,112.4,0.6,112.4,0.4L112.4,0.4z M112.6,1.6h0.5v3.9h-0.5V1.6z"/>
		<path id="Trazado_1159_8_" class="st1" d="M117.3,3.5c0-1.1,0.9-2,2-2c1.1,0,2,0.9,2,2c0,1.1-0.9,2-2,2c-1.1,0-1.9-0.8-2-1.8
			C117.3,3.6,117.3,3.6,117.3,3.5z M120.7,3.5c0-0.8-0.7-1.4-1.5-1.4c-0.8,0-1.4,0.7-1.4,1.5c0,0.8,0.7,1.4,1.5,1.4
			c0.8,0,1.4-0.6,1.4-1.4C120.7,3.6,120.7,3.6,120.7,3.5z"/>
	</g>
</g>
<g id="Grupo_1867" transform="translate(54.75 13.144)">
	<g>
		<path id="Trazado_1160_8_" class="st1" d="M4.5,9.2c0,1,0.5,2,1.4,2.6c1,0.6,2.1,0.8,3.2,0.8c1.5,0,3-0.3,4.4-0.7
			c0.3,0.4,0.5,0.9,0.6,1.4c0.2,0.6,0.3,1.2,0.3,1.8c-1.8,0.6-3.8,0.9-5.7,0.9c-1.4,0-2.7-0.2-4-0.6c-1-0.3-1.9-0.9-2.7-1.6
			c-0.7-0.7-1.2-1.5-1.6-2.5C0.2,10.2,0,9.1,0,8C0,7,0.2,5.9,0.5,4.9c0.3-0.9,0.9-1.8,1.5-2.6C2.8,1.6,3.6,1,4.6,0.6
			C5.7,0.2,6.9,0,8.1,0c1.1,0,2.1,0.2,3.1,0.6c0.9,0.3,1.7,0.9,2.3,1.5c0.6,0.7,1.1,1.4,1.4,2.3c0.3,0.9,0.5,1.9,0.5,2.9
			c0,0.4,0,0.7,0,1.1c0,0.3-0.1,0.6-0.1,0.9L4.5,9.2z M11.1,6.3c0-0.8-0.3-1.6-0.9-2.3C9.7,3.4,8.9,3.1,8,3.2C7.1,3.1,6.2,3.4,5.6,4
			c-0.6,0.6-1,1.5-1,2.3L11.1,6.3z"/>
		<path id="Trazado_1161_8_" class="st1" d="M16.3,0.4c0.5-0.1,1-0.2,1.4-0.2c0.4,0,0.8,0,1.1,0c0.4,0,0.9,0,1.3,0
			c0.4,0,0.8,0.1,1.2,0.1L25,11.6l3.6-11.3c0.4-0.1,0.8-0.1,1.2-0.1c0.4,0,0.8,0,1.2,0c0.3,0,0.7,0,1.1,0c0.5,0,1,0.1,1.4,0.2
			l-6.3,15.1c-0.4,0.1-0.8,0.1-1.3,0.1s-0.8,0-1.1,0c-0.3,0-0.7,0-1.1,0c-0.4,0-0.8-0.1-1.2-0.1L16.3,0.4z"/>
		<path id="Trazado_1162_8_" class="st1" d="M39,9.2c0,1,0.5,2,1.4,2.6c1,0.6,2.1,0.8,3.2,0.8c1.5,0,3-0.3,4.4-0.7
			c0.3,0.4,0.5,0.9,0.6,1.4c0.2,0.6,0.3,1.2,0.3,1.8c-1.8,0.6-3.8,0.9-5.7,0.9c-1.4,0-2.7-0.2-4-0.6c-1-0.3-1.9-0.9-2.7-1.6
			c-0.7-0.7-1.2-1.5-1.6-2.5c-0.3-1-0.5-2.1-0.5-3.1c0-1.1,0.2-2.1,0.5-3.1c0.3-0.9,0.9-1.8,1.5-2.6c0.7-0.7,1.6-1.3,2.5-1.7
			C40.2,0.2,41.4,0,42.6,0c1.1,0,2.1,0.2,3.1,0.6c0.9,0.3,1.7,0.9,2.3,1.5c0.6,0.7,1.1,1.4,1.4,2.3c0.3,0.9,0.5,1.9,0.5,2.9
			c0,0.4,0,0.7,0,1.1c0,0.3-0.1,0.6-0.1,0.9L39,9.2z M45.6,6.3c0-0.8-0.3-1.6-0.9-2.3c-0.6-0.6-1.4-0.9-2.2-0.9
			c-0.9-0.1-1.8,0.2-2.5,0.8c-0.6,0.6-1,1.5-1,2.3L45.6,6.3z"/>
		<path id="Trazado_1163_8_" class="st1" d="M53.5,0.4c0.3-0.1,0.6-0.1,0.9-0.1c0.3,0,0.6,0,1,0c0.3,0,0.6,0,1,0.1
			c0.3,0,0.6,0.1,0.9,0.1c0.1,0.1,0.1,0.3,0.2,0.4c0.1,0.2,0.1,0.4,0.1,0.6s0.1,0.4,0.1,0.6l0.1,0.5c0.5-0.6,1.1-1.2,1.7-1.6
			c0.8-0.5,1.7-0.8,2.6-0.7c0.2,0,0.5,0,0.7,0c0.2,0,0.4,0,0.6,0.1c0,0.2,0.1,0.4,0.1,0.7c0,0.3,0,0.5,0,0.8c0,0.3,0,0.7,0,1.1
			c0,0.4-0.1,0.7-0.2,1.1c-0.3,0-0.5-0.1-0.8-0.1h-0.5c-0.4,0-0.8,0-1.2,0.1c-0.5,0.1-0.9,0.3-1.3,0.5c-0.4,0.3-0.8,0.8-1,1.3
			c-0.3,0.8-0.4,1.6-0.4,2.5v7.2c-0.4,0.1-0.8,0.1-1.2,0.1c-0.4,0-0.8,0-1.1,0s-0.7,0-1.1,0s-0.8-0.1-1.2-0.1L53.5,0.4z"/>
		<path id="Trazado_1164_8_" class="st1" d="M84.9,0.4c0.3-0.1,0.6-0.1,0.9-0.1c0.3,0,0.6,0,1,0c0.3,0,0.6,0,1,0.1
			c0.3,0,0.6,0.1,0.9,0.1c0.1,0.1,0.1,0.3,0.2,0.4c0.1,0.2,0.1,0.4,0.1,0.6S89,1.8,89.1,2l0.1,0.5c0.5-0.6,1.1-1.2,1.7-1.6
			c0.8-0.5,1.7-0.8,2.6-0.7c0.2,0,0.5,0,0.7,0c0.2,0,0.4,0,0.6,0.1c0,0.2,0.1,0.4,0.1,0.7c0,0.3,0,0.5,0,0.8c0,0.3,0,0.7,0,1.1
			c0,0.4-0.1,0.7-0.2,1.1c-0.3,0-0.5-0.1-0.8-0.1h-0.5c-0.4,0-0.8,0-1.2,0.1c-0.5,0.1-0.9,0.3-1.3,0.5c-0.4,0.3-0.8,0.8-1,1.3
			c-0.3,0.8-0.4,1.6-0.4,2.5v7.2c-0.4,0.1-0.8,0.1-1.2,0.1c-0.4,0-0.8,0-1.1,0s-0.7,0-1.1,0s-0.8-0.1-1.2-0.1L84.9,0.4z"/>
		<path id="Trazado_1165_8_" class="st1" d="M105.9,5.5c0-0.4-0.1-0.8-0.3-1.1c-0.2-0.3-0.4-0.5-0.7-0.7c-0.3-0.2-0.7-0.3-1.1-0.3
			c-0.5-0.1-1-0.1-1.5-0.1c-1.3,0-2.5,0.2-3.7,0.6c-0.3-0.5-0.5-0.9-0.7-1.4c-0.2-0.5-0.2-1.1-0.2-1.6c1.8-0.5,3.6-0.8,5.5-0.9
			c1.9-0.1,3.7,0.4,5.3,1.5c1.3,1.2,2.1,2.9,1.9,4.7V15c-0.8,0.2-1.7,0.4-2.8,0.6c-1.2,0.2-2.4,0.3-3.7,0.3c-1,0-2-0.1-3-0.3
			c-0.8-0.1-1.6-0.4-2.4-0.9c-0.6-0.4-1.2-0.9-1.5-1.6c-0.4-0.7-0.6-1.6-0.5-2.4c0-0.8,0.2-1.7,0.7-2.4c0.4-0.6,1-1.2,1.7-1.5
			c0.7-0.4,1.5-0.7,2.3-0.8c0.9-0.2,1.7-0.2,2.6-0.2c0.6,0,1.3,0,2.1,0.1L105.9,5.5z M105.9,8.6c-0.3,0-0.5-0.1-0.8-0.1
			s-0.6,0-0.8,0c-0.9,0-1.7,0.1-2.5,0.5c-0.6,0.3-1,1-0.9,1.7c0,0.4,0.1,0.8,0.4,1.2c0.2,0.3,0.5,0.5,0.9,0.6
			c0.3,0.1,0.7,0.2,1.1,0.2c0.4,0,0.7,0,1,0c0.3,0,0.6,0,1-0.1c0.3,0,0.6-0.1,0.8-0.1L105.9,8.6z"/>
		<path id="Trazado_1166_8_" class="st1" d="M114.4,0.4c0.3-0.1,0.6-0.1,0.9-0.1s0.6,0,1,0c0.3,0,0.6,0,1,0c0.3,0,0.6,0.1,0.9,0.1
			c0.1,0.1,0.1,0.3,0.2,0.4c0.1,0.2,0.1,0.4,0.1,0.6s0.1,0.4,0.1,0.6l0.1,0.5c0.2-0.3,0.5-0.6,0.8-0.9c0.3-0.3,0.7-0.6,1.1-0.8
			c0.4-0.2,0.9-0.4,1.3-0.6c0.5-0.2,1.1-0.2,1.7-0.2c1.6-0.1,3.1,0.4,4.3,1.4c1.1,1.2,1.6,2.8,1.4,4.4v9.7c-1.5,0.2-3.1,0.2-4.6,0
			V6.9c0-0.8-0.1-1.7-0.5-2.4c-0.4-0.6-1.1-0.9-1.9-0.9c-0.4,0-0.8,0.1-1.1,0.1c-0.4,0.1-0.8,0.3-1.1,0.6c-0.3,0.3-0.6,0.7-0.8,1.2
			c-0.2,0.6-0.3,1.3-0.3,2v7.9c-1.5,0.2-3.1,0.2-4.6,0L114.4,0.4z"/>
		<g id="Grupo_1866_8_" transform="translate(65.901 0.041)">
			<path id="Trazado_1167_8_" class="st1" d="M14.9,13.2c0,4.1-3.1,6.6-7.8,6.6c-2.3,0-4.5-0.6-6.4-1.9l1.6-3.1
				c1.3,0.9,2.9,1.4,4.4,1.4c2.2,0,3.5-1.2,3.5-3v-1.5c-1,1.3-2.5,2-4.1,1.9C2.6,13.7,0,11,0,6.8C0,2.7,2.5,0,6.1,0
				c1.6-0.1,3.2,0.6,4.2,1.9V0.2h4.6L14.9,13.2z M10.3,6.9c0-2.1-1.2-3.5-3-3.5c-1.8,0-3,1.4-3,3.5c0,2,1.2,3.5,3,3.5
				C9.1,10.4,10.3,9,10.3,6.9L10.3,6.9z"/>
		</g>
	</g>
</g>
</svg>
