<svg id="Capa_1" data-name="Capa 1" xmlns="http://www.w3.org/2000/svg" viewBox="0 0 33.4 44.3"><defs><style>.cls-1{fill:#81c41d;fill-rule:evenodd;}</style></defs><title>ICONOS DE CUADRADOS</title><path class="cls-1" d="M28.83,20.65l-1-2.88a2,2,0,0,0-2.35-1.32A2,2,0,0,0,24.08,19l1,2.76H24.7L22,14.44a2,2,0,0,0-2.36-1.33,2,2,0,0,0-1.37,2.56l2.56,7.7-.29,0-3.63-9.18a2,2,0,0,0-2.35-1.33A2,2,0,0,0,13.2,15.4l3.1,8.66-.39.18L9.54,7.69A2,2,0,0,0,7.2,6.39,2,2,0,0,0,5.82,8.95L13,28.9h0l.53,1.51c.53,1.09.25,2.46-1.3,1.63-1.1-.6-2.15-2.41-3.08-3.93L7,24.95a2,2,0,0,0-2.85-.53,2,2,0,0,0-.44,2.65s3.84,6.35,5.23,8.38c3.93,5.71,8.77,9.39,13.16,8.78,4-.58,7.34-3.64,10.17-6.2,1.51-1.37,1.39-4,.55-6.31L28.83,20.65ZM5.21,0A5.17,5.17,0,0,1,8.87,1.5h0a5.26,5.26,0,0,1,1.52,3.68,5.44,5.44,0,0,1-.41,2A2.59,2.59,0,0,0,8.61,5.91a3.73,3.73,0,0,0,.07-.73,3.51,3.51,0,0,0-1-2.46h0a3.49,3.49,0,0,0-2.47-1,3.41,3.41,0,0,0-2.47,1h0a3.5,3.5,0,0,0,0,4.93,3.43,3.43,0,0,0,2.38,1,1.77,1.77,0,0,0,.14.48l.41,1.18a2.89,2.89,0,0,1-.45,0A5.1,5.1,0,0,1,1.53,8.84a5.16,5.16,0,0,1,0-7.34h0A5.16,5.16,0,0,1,5.21,0Z"/></svg>