<?xml version="1.0" encoding="utf-8"?>
<!-- Generator: Adobe Illustrator 21.1.0, SVG Export Plug-In . SVG Version: 6.00 Build 0)  -->
<svg version="1.1" id="Layer_1" xmlns="http://www.w3.org/2000/svg" xmlns:xlink="http://www.w3.org/1999/xlink" x="0px" y="0px"
	 viewBox="0 0 197.4 197.4" style="enable-background:new 0 0 197.4 197.4;" xml:space="preserve">
<style type="text/css">
	.st0{opacity:0.5;stroke:#FFFFFF;stroke-width:8;stroke-miterlimit:10;}
	.st1{fill:#FFFFFF;}
</style>
<g>
	<path class="st0" d="M98.7,193.4L98.7,193.4C46.6,193.4,4,150.8,4,98.7v0C4,46.6,46.6,4,98.7,4h0c52.1,0,94.7,42.6,94.7,94.7v0
		C193.4,150.8,150.8,193.4,98.7,193.4z"/>
	<path class="st1" d="M99.6,144.2c-2.3,0-4.6-0.9-6.3-2.6L38.2,86.5c-3.5-3.5-3.5-9.2,0-12.7c3.5-3.5,9.2-3.5,12.7,0l48.8,48.8
		l48.8-48.8c3.5-3.5,9.2-3.5,12.7,0c3.5,3.5,3.5,9.2,0,12.7L106,141.6C104.2,143.3,101.9,144.2,99.6,144.2L99.6,144.2z M99.6,144.2"
		/>
</g>
</svg>
