<?xml version="1.0" encoding="utf-8"?>
<!-- Generator: Adobe Illustrator 21.0.0, SVG Export Plug-In . SVG Version: 6.00 Build 0)  -->
<svg version="1.1" id="Capa_1" xmlns="http://www.w3.org/2000/svg" xmlns:xlink="http://www.w3.org/1999/xlink" x="0px" y="0px"
	 viewBox="0 0 79.4 179" style="enable-background:new 0 0 79.4 179;" xml:space="preserve">
<style type="text/css">
	.st0{fill:#575DAA;}
	.st1{display:none;}
</style>
<g id="loog">
</g>
<g id="web">
</g>
<path class="st0" d="M62.9,52.6H16.5C7.4,52.6,0,60,0,69.1v40.8c0,9.1,7.4,16.5,16.5,16.5h46.4c9.1,0,16.5-7.4,16.5-16.5V69.1
	C79.4,60,72,52.6,62.9,52.6z M49.3,92L34.8,105c-1.5,1.3-3.7,1.2-5-0.3c-1.3-1.4-1.2-3.6,0.2-4.9l8.7-7.9c1.6-1.4,1.5-3.8,0-5.2
	l-8.4-7.6c-1.5-1.2-1.6-3.5-0.3-4.9c1.2-1.5,3.5-1.6,4.9-0.3l14.4,12.8C50.8,88.2,50.9,90.5,49.3,92z"/>
<g id="DESIGNED_BY_FREEPIK" class="st1">
</g>
<image style="overflow:visible;" width="1129" height="99" xlink:href="671791AF.jpg"  transform="matrix(1 0 0 1 -507.7372 -333)">
</image>
</svg>
