<?xml version="1.0" encoding="utf-8"?>
<!-- Generator: Adobe Illustrator 21.0.0, SVG Export Plug-In . SVG Version: 6.00 Build 0)  -->
<svg version="1.1" id="Capa_1" xmlns="http://www.w3.org/2000/svg" xmlns:xlink="http://www.w3.org/1999/xlink" x="0px" y="0px"
	 viewBox="0 0 79.4 179" style="enable-background:new 0 0 79.4 179;" xml:space="preserve">
<style type="text/css">
	.st0{display:none;}
	.st1{fill:#575DAA;}
</style>
<g id="loog">
</g>
<g id="web">
</g>
<g id="DESIGNED_BY_FREEPIK" class="st0">
</g>
<path class="st1" d="M0,69.1l0,40.8c0,9.1,7.4,16.5,16.5,16.5h46.4c9.1,0,16.5-7.4,16.5-16.5l0-40.8c0-9.1-7.4-16.5-16.5-16.5H16.5
	C7.4,52.6,0,60,0,69.1z M30.1,86.8L44.5,74c1.4-1.3,3.7-1.2,4.9,0.3c1.3,1.4,1.2,3.7-0.3,4.9l-8.4,7.6c-1.5,1.4-1.6,3.8,0,5.2
	l8.7,7.9c1.4,1.3,1.5,3.5,0.2,4.9c-1.3,1.5-3.5,1.6-5,0.3L30.1,92C28.5,90.5,28.6,88.2,30.1,86.8z"/>
</svg>
