<?xml version="1.0" encoding="utf-8"?>
<!-- Generator: Adobe Illustrator 22.1.0, SVG Export Plug-In . SVG Version: 6.00 Build 0)  -->
<svg version="1.1" id="Capa_1" xmlns="http://www.w3.org/2000/svg" xmlns:xlink="http://www.w3.org/1999/xlink" x="0px" y="0px"
	 viewBox="0 0 343 343" style="enable-background:new 0 0 343 343;" xml:space="preserve">
<style type="text/css">
	.st0{fill:#FFFFFF;}
</style>
<path class="st0" d="M171.5-0.3C105.6-0.3,52,53.2,52,119.1c0,82.8,119.6,224.2,119.6,224.2S291,197.8,291,119.1
	C291,53.2,237.4-0.3,171.5-0.3L171.5-0.3z M213.3,170c-11.5,11.5-26.7,17.3-41.8,17.3s-30.3-5.8-41.8-17.3
	c-23.1-23.1-23.1-60.6,0-83.6c11.2-11.2,26-17.3,41.8-17.3s30.7,6.2,41.8,17.3C236.4,109.4,236.4,146.9,213.3,170L213.3,170z"/>
<image style="overflow:visible;enable-background:new    ;" width="1920" height="1080" xlink:href="A5522A88.jpg"  transform="matrix(1 0 0 1 -687 669)">
</image>
</svg>
