<?xml version="1.0" encoding="utf-8"?>
<!-- Generator: Adobe Illustrator 21.1.0, SVG Export Plug-In . SVG Version: 6.00 Build 0)  -->
<svg version="1.1" id="Layer_1" xmlns="http://www.w3.org/2000/svg" xmlns:xlink="http://www.w3.org/1999/xlink" x="0px" y="0px"
	 viewBox="0 0 78.7 78.7" style="enable-background:new 0 0 78.7 78.7;" xml:space="preserve">
<style type="text/css">
	.st0{fill:#0A4E8D;}
	.st1{fill:#DC7D32;}
	.st2{fill:#FFFFFF;stroke:#565EA9;stroke-width:4.1959;stroke-miterlimit:10;}
	.st3{fill:#565EA9;}
	.st4{fill-rule:evenodd;clip-rule:evenodd;fill:#565EA9;}
</style>
<circle class="st2" cx="39.3" cy="39.3" r="37.2"/>
<path class="st3" d="M18.3,50.8v-21c0-1.2,0.3-2.3,1-3.3c0.9-1.3,2.1-1.6,4.4-1.6c10.6,0,21.2,0,31.8,0c0.5,0,1,0,1.5,0.1
	c1.1,0.2,1.9,0.8,2.5,1.6c0.6,0.8,0.9,1.9,0.9,2.9v21c0,1.2-0.3,2.3-1,3.3c-0.9,1.3-2.1,1.6-4.4,1.6c-10.6,0-21.2,0-31.8,0
	c-0.5,0-1,0-1.5-0.1c-1.1-0.2-1.9-0.8-2.5-1.6C18.6,52.9,18.3,51.8,18.3,50.8z M21.6,30.2c0,0.5,0,0.7,0,1c0,6.4,0,12.9,0,19.3
	c0,1.4,0.4,1.8,1.8,1.8c10.7,0,21.4,0,32.1,0c1.4,0,1.8-0.4,1.8-1.8c0-6.4,0-12.9,0-19.3c0-0.3,0-0.5-0.1-0.9
	c-0.5,0.4-0.8,0.6-1.1,0.9c-4.5,3.6-9,7.1-13.5,10.7c-2,1.6-4.3,1.6-6.3,0c-2.1-1.6-4.2-3.3-6.2-4.9C27.3,34.7,24.5,32.5,21.6,30.2z
	 M54.5,28.2c-10.2,0-20.1,0-30.2,0c0.3,0.3,0.4,0.4,0.6,0.5c4.4,3.5,8.8,7,13.2,10.5c1,0.8,1.6,0.8,2.6,0c2.9-2.3,5.9-4.6,8.8-7
	C51.1,30.9,52.7,29.6,54.5,28.2z"/>
</svg>
