<?xml version="1.0" encoding="utf-8"?>
<!-- Generator: Adobe Illustrator 21.1.0, SVG Export Plug-In . SVG Version: 6.00 Build 0)  -->
<svg version="1.1" id="Layer_1" xmlns="http://www.w3.org/2000/svg" xmlns:xlink="http://www.w3.org/1999/xlink" x="0px" y="0px"
	 viewBox="0 0 78.7 78.7" style="enable-background:new 0 0 78.7 78.7;" xml:space="preserve">
<style type="text/css">
	.st0{fill:#0A4E8D;}
	.st1{fill:#DC7D32;}
	.st2{fill:#FFFFFF;stroke:#565EA9;stroke-width:4.1959;stroke-miterlimit:10;}
	.st3{fill:#565EA9;}
	.st4{fill-rule:evenodd;clip-rule:evenodd;fill:#565EA9;}
</style>
<circle class="st2" cx="39.3" cy="39.3" r="37.2"/>
<g>
	<g>
		<g>
			<g>
				<path class="st3" d="M19.8,57.1l2.8-10.3c-1.6-2.8-2.4-6-2.4-9.2c0-10.5,8.6-19.1,19.1-19.1c10.5,0,19.1,8.6,19.1,19.1
					c0,10.5-8.6,19.1-19.1,19.1c-3.2,0-6.3-0.8-9.1-2.3L19.8,57.1z M30.7,50.4l0.7,0.4c2.4,1.4,5.1,2.2,7.9,2.2
					c8.5,0,15.5-6.9,15.5-15.5c0-8.5-6.9-15.5-15.5-15.5c-8.5,0-15.5,6.9-15.5,15.5c0,2.8,0.8,5.6,2.3,8l0.4,0.7L24.9,52L30.7,50.4z
					"/>
			</g>
		</g>
		<g>
			<path class="st4" d="M46.4,40.2c-0.8-0.5-1.8-1-2.7-0.6c-0.7,0.3-1.2,1.4-1.6,2c-0.2,0.3-0.5,0.3-0.9,0.2
				c-2.7-1.1-4.7-2.8-6.2-5.3c-0.2-0.4-0.2-0.7,0.1-1c0.4-0.5,1-1.1,1.1-1.8c0.1-0.7-0.2-1.5-0.5-2.2c-0.4-0.8-0.8-1.9-1.6-2.4
				c-0.7-0.4-1.7-0.2-2.4,0.4c-1.1,0.9-1.7,2.4-1.7,3.8c0,0.4,0.1,0.8,0.1,1.2c0.2,0.9,0.7,1.8,1.2,2.7c0.4,0.6,0.8,1.2,1.2,1.8
				c1.4,1.9,3.2,3.6,5.3,4.9c1,0.6,2.1,1.2,3.3,1.6c1.3,0.4,2.4,0.9,3.8,0.6c1.5-0.3,2.9-1.2,3.5-2.6c0.2-0.4,0.3-0.9,0.2-1.3
				C48.4,41.2,47.1,40.6,46.4,40.2z"/>
		</g>
	</g>
</g>
</svg>
