<?xml version="1.0" encoding="utf-8"?>
<!-- Generator: Adobe Illustrator 21.1.0, SVG Export Plug-In . SVG Version: 6.00 Build 0)  -->
<svg version="1.1" id="Layer_1" xmlns="http://www.w3.org/2000/svg" xmlns:xlink="http://www.w3.org/1999/xlink" x="0px" y="0px"
	 viewBox="0 0 78.7 78.7" style="enable-background:new 0 0 78.7 78.7;" xml:space="preserve">
<style type="text/css">
	.st0{fill:#0A4E8D;}
	.st1{fill:#DC7D32;}
	.st2{fill:#FFFFFF;stroke:#565EA9;stroke-width:4.1959;stroke-miterlimit:10;}
	.st3{fill:#565EA9;}
	.st4{fill-rule:evenodd;clip-rule:evenodd;fill:#565EA9;}
</style>
<circle class="st2" cx="39.3" cy="39.3" r="37.2"/>
<path class="st3" d="M28.6,22.9c0.7,0.3,1.5,0.5,2.1,1c0.7,0.6,1.3,1.5,1.6,2.4c0.6,1.4,0.9,3,1.3,4.5c0.4,1.5,0,2.8-1,4
	c-0.3,0.3-0.6,0.7-0.9,0.9c-0.7,0.5-0.7,1-0.4,1.8c2,5.5,5.8,9.3,11.4,11.2c0.5,0.2,0.8,0.1,1.2-0.3c0.9-1,1.8-2.1,3.3-2.2
	c0.7-0.1,1.5,0,2.2,0.1c1.2,0.3,2.4,0.7,3.7,1c2,0.5,3.2,1.7,3.7,3.7c0,0.1,0.1,0.1,0.1,0.2v1.2c-0.9,2.6-2.6,4.3-5,5.4
	c-0.5,0.1-0.9,0.1-1.3,0.2c-1.7-0.3-3.4-0.4-5.1-0.7c-11.5-2.3-20.6-11.3-22.9-22.8c-0.3-1.6-0.5-3.3-0.8-5c0.1-0.5,0.1-1,0.2-1.6
	c1.1-2.4,2.9-4.1,5.5-5C27.9,22.9,28.2,22.9,28.6,22.9z"/>
</svg>
