<?xml version="1.0" encoding="utf-8"?>
<!-- Generator: Adobe Illustrator 24.0.2, SVG Export Plug-In . SVG Version: 6.00 Build 0)  -->
<svg version="1.1" id="Capa_1" xmlns="http://www.w3.org/2000/svg" xmlns:xlink="http://www.w3.org/1999/xlink" x="0px" y="0px"
	 viewBox="0 0 22.5 29.2" style="enable-background:new 0 0 22.5 29.2;" xml:space="preserve">
<style type="text/css">
	.st0{fill:#FFFFFF;}
</style>
<g>
	<path class="st0" d="M14.1,18.7c-0.6,0.4-0.9,0.8-0.9,1.4c0,0.2-0.1,0.2-0.2,0.2c-2.4,0-4.8,0-7.2,0c-0.2,0-0.2,0-0.2-0.2
		c0-3.7,0-7.3,0-11c0-0.2,0.1-0.2,0.2-0.2c3.7,0,7.3,0,11,0c0.2,0,0.2,0,0.2,0.2c0,3.7,0,7.3,0,11c0,0.2-0.1,0.2-0.2,0.2
		c-0.8,0-1.6,0-2.4,0c-0.2,0-0.2,0-0.2-0.2C14.1,19.6,14.1,19.2,14.1,18.7z M13.6,9.8c-0.7,0-1.4,0-2.2,0c-0.2,0-0.2,0.1-0.2,0.2
		c0,0.3,0,0.6,0,0.9c0,0.2,0.1,0.6-0.1,0.7c-0.1,0.1-0.5,0-0.7,0c-0.2,0-0.2,0-0.2-0.2c0-0.5,0-1,0-1.5c0-0.2,0-0.2-0.2-0.2
		c-1.1,0-2.3,0-3.4,0c-0.2,0-0.2,0.1-0.2,0.2c0,1.3,0,2.5,0,3.8c0,0.2,0,0.2,0.2,0.2c1.1,0,2.2,0,3.3,0c0.2,0,0.3,0,0.3-0.2
		c0-0.2-0.1-0.6,0.1-0.7c0.2-0.1,0.5,0,0.7,0c0,0,0,0,0,0c0.1,0,0.2,0,0.2,0.2c0,0.9,0,1.7,0,2.6c0,0.1,0,0.1-0.1,0.1
		c-0.3,0-0.6,0.1-0.8,0c-0.1-0.1,0-0.4,0-0.6c0,0,0-0.1,0-0.1c0-0.2-0.1-0.2-0.2-0.2c-1.1,0-2.3,0-3.4,0c-0.2,0-0.2,0-0.2,0.2
		c0,1.3,0,2.6,0,3.9c0,0.2,0,0.2,0.2,0.2c1.1,0,2.3,0,3.4,0c0.1,0,0.2,0,0.2-0.2c0-0.3,0-0.7,0-1c0-0.2-0.1-0.5,0-0.7
		c0.2-0.1,0.5,0,0.7,0c0.2,0,0.2,0,0.2,0.2c0,0.5,0,1,0,1.5c0,0.1,0,0.2,0.2,0.2c0.2,0,0.5,0,0.7,0c0.2,0,0.3,0,0.3-0.2
		c0.5-1,1.3-1.6,2.4-1.7c0.2,0,0.2,0,0.2,0.2c0,0.3,0,0.7,0,1c0,0.7,0,0.7,0.7,0.7c0.2,0,0.2,0,0.2-0.2c0-1.3,0-2.5,0-3.8
		c0-0.2-0.1-0.3-0.3-0.2c-0.8,0-1.6,0-2.3,0c-0.2,0-0.5,0.1-0.7,0c-0.1-0.1,0-0.4,0-0.7c0-0.2,0-0.2,0.2-0.2c0.9,0,1.9,0,2.8,0
		c0.2,0,0.2,0,0.2-0.2c0-1.3,0-2.6,0-3.8c0-0.2,0-0.2-0.2-0.2C15.1,9.9,14.4,9.8,13.6,9.8z"/>
</g>
</svg>
