<?xml version="1.0" encoding="utf-8"?>
<!-- Generator: Adobe Illustrator 22.1.0, SVG Export Plug-In . SVG Version: 6.00 Build 0)  -->
<svg version="1.1" id="Capa_1" xmlns="http://www.w3.org/2000/svg" xmlns:xlink="http://www.w3.org/1999/xlink" x="0px" y="0px"
	 viewBox="0 0 343 343" style="enable-background:new 0 0 343 343;" xml:space="preserve">
<style type="text/css">
	.st0{fill:#FFFFFF;}
</style>
<g>
	<path class="st0" d="M171.5,157.2c-11.8,0-21.5-9.6-21.5-21.5s9.6-21.5,21.5-21.5c11.8,0,21.5,9.6,21.5,21.5
		S183.3,157.2,171.5,157.2L171.5,157.2z M171.5,135.7L171.5,135.7l10.7,0L171.5,135.7z M171.5,135.7"/>
	<path class="st0" d="M203.7,214.5c-5.9,0-10.7-4.8-10.7-10.7c0-5.9-4.8-10.7-10.7-10.7h-21.5c-5.9,0-10.7,4.8-10.7,10.7
		c0,5.9-4.8,10.7-10.7,10.7c-5.9,0-10.7-4.8-10.7-10.7c0-17.8,14.5-32.2,32.2-32.2h21.5c17.8,0,32.2,14.5,32.2,32.2
		C214.5,209.7,209.7,214.5,203.7,214.5L203.7,214.5z M203.7,214.5"/>
	<path class="st0" d="M171.5,56.9c-15.8,0-28.6-12.8-28.6-28.6c0-15.8,12.8-28.6,28.6-28.6c15.8,0,28.6,12.8,28.6,28.6
		C200.1,44.1,187.3,56.9,171.5,56.9L171.5,56.9z M171.5,21.1c-3.9,0-7.2,3.2-7.2,7.2s3.2,7.2,7.2,7.2c3.9,0,7.2-3.2,7.2-7.2
		S175.4,21.1,171.5,21.1L171.5,21.1z M171.5,21.1"/>
	<path class="st0" d="M171.5,99.9c-5.9,0-10.7-4.8-10.7-10.7V49.8c0-5.9,4.8-10.7,10.7-10.7c5.9,0,10.7,4.8,10.7,10.7v39.4
		C182.2,95.1,177.4,99.9,171.5,99.9L171.5,99.9z M171.5,99.9"/>
	<path class="st0" d="M272.8,98.9c-7.3,0-14.7-2.8-20.3-8.4c-11.2-11.2-11.2-29.3,0-40.5c11.2-11.2,29.3-11.2,40.5,0
		c11.2,11.2,11.2,29.3,0,40.5C287.4,96.1,280.1,98.9,272.8,98.9L272.8,98.9z M285.4,82.9h0.1H285.4z M272.8,63.1
		c-1.8,0-3.7,0.7-5.1,2.1c-2.8,2.8-2.8,7.3,0,10.1c2.8,2.8,7.3,2.8,10.1,0c2.8-2.8,2.8-7.3,0-10.1C276.4,63.8,274.6,63.1,272.8,63.1
		L272.8,63.1z M272.8,63.1"/>
	<path class="st0" d="M230.8,123c-2.7,0-5.5-1-7.6-3.1c-4.2-4.2-4.2-11,0-15.2L250,77.8c4.2-4.2,11-4.2,15.2,0
		c4.2,4.2,4.2,11,0,15.2l-26.8,26.8C236.3,121.9,233.5,123,230.8,123L230.8,123z M230.8,123"/>
	<path class="st0" d="M314.7,200.1c-15.8,0-28.6-12.8-28.6-28.6c0-15.8,12.8-28.6,28.6-28.6c15.8,0,28.6,12.8,28.6,28.6
		C343.3,187.3,330.5,200.1,314.7,200.1L314.7,200.1z M314.7,164.3c-3.9,0-7.2,3.2-7.2,7.2c0,4,3.2,7.2,7.2,7.2
		c3.9,0,7.2-3.2,7.2-7.2C321.9,167.5,318.6,164.3,314.7,164.3L314.7,164.3z M314.7,164.3"/>
	<path class="st0" d="M293.2,182.2h-39.4c-5.9,0-10.7-4.8-10.7-10.7c0-5.9,4.8-10.7,10.7-10.7h39.4c5.9,0,10.7,4.8,10.7,10.7
		C304,177.4,299.2,182.2,293.2,182.2L293.2,182.2z M293.2,182.2"/>
	<path class="st0" d="M272.8,301.4c-7.3,0-14.7-2.8-20.3-8.4c-11.2-11.2-11.2-29.3,0-40.5c11.2-11.2,29.3-11.2,40.5,0
		c11.2,11.2,11.2,29.3,0,40.5C287.4,298.6,280.1,301.4,272.8,301.4L272.8,301.4z M267.7,277.8c2.8,2.8,7.3,2.8,10.1,0
		c2.8-2.8,2.8-7.3,0-10.1c-2.8-2.8-7.3-2.8-10.1,0C264.9,270.5,264.9,275,267.7,277.8L267.7,277.8z M267.7,277.8"/>
	<path class="st0" d="M257.6,268.3c-2.7,0-5.5-1-7.6-3.1l-26.8-26.8c-4.2-4.2-4.2-11,0-15.2c4.2-4.2,11-4.2,15.2,0l26.8,26.8
		c4.2,4.2,4.2,11,0,15.2C263.1,267.3,260.3,268.3,257.6,268.3L257.6,268.3z M257.6,268.3"/>
	<path class="st0" d="M171.5,343.3c-15.8,0-28.6-12.8-28.6-28.6s12.8-28.6,28.6-28.6c15.8,0,28.6,12.8,28.6,28.6
		S187.3,343.3,171.5,343.3L171.5,343.3z M171.5,307.5c-3.9,0-7.2,3.2-7.2,7.2s3.2,7.2,7.2,7.2c3.9,0,7.2-3.2,7.2-7.2
		S175.4,307.5,171.5,307.5L171.5,307.5z M171.5,307.5"/>
	<path class="st0" d="M171.5,304c-5.9,0-10.7-4.8-10.7-10.7v-39.4c0-5.9,4.8-10.7,10.7-10.7c5.9,0,10.7,4.8,10.7,10.7v39.4
		C182.2,299.2,177.4,304,171.5,304L171.5,304z M171.5,304"/>
	<path class="st0" d="M70.2,301.4c-7.3,0-14.7-2.8-20.3-8.4c-11.2-11.2-11.2-29.3,0-40.5c11.2-11.1,29.3-11.1,40.5,0
		c11.2,11.2,11.2,29.3,0,40.5C84.9,298.6,77.6,301.4,70.2,301.4L70.2,301.4z M65.2,267.7c-2.8,2.8-2.8,7.3,0,10.1
		c2.8,2.8,7.3,2.8,10.1,0c2.8-2.8,2.8-7.3,0-10.1C72.5,264.9,68,264.9,65.2,267.7L65.2,267.7z M65.2,267.7"/>
	<path class="st0" d="M85.4,268.3c-2.7,0-5.5-1-7.6-3.1c-4.2-4.2-4.2-11,0-15.2l26.8-26.8c4.2-4.2,11-4.2,15.2,0
		c4.2,4.2,4.2,11,0,15.2L93,265.2C90.9,267.3,88.2,268.3,85.4,268.3L85.4,268.3z M85.4,268.3"/>
	<path class="st0" d="M28.3,200.1c-15.8,0-28.6-12.8-28.6-28.6c0-15.8,12.8-28.6,28.6-28.6s28.6,12.8,28.6,28.6
		C56.9,187.3,44.1,200.1,28.3,200.1L28.3,200.1z M28.3,164.3c-3.9,0-7.2,3.2-7.2,7.2c0,4,3.2,7.2,7.2,7.2c3.9,0,7.2-3.2,7.2-7.2
		C35.5,167.5,32.2,164.3,28.3,164.3L28.3,164.3z M28.3,164.3"/>
	<path class="st0" d="M89.2,182.2H49.8c-5.9,0-10.7-4.8-10.7-10.7c0-5.9,4.8-10.7,10.7-10.7h39.4c5.9,0,10.7,4.8,10.7,10.7
		C99.9,177.4,95.1,182.2,89.2,182.2L89.2,182.2z M89.2,182.2"/>
	<path class="st0" d="M70.2,98.9c-7.3,0-14.7-2.8-20.3-8.4C38.8,79.3,38.8,61.2,50,50c11.2-11.2,29.3-11.2,40.5,0
		c11.2,11.2,11.2,29.3,0,40.5C84.9,96.1,77.6,98.9,70.2,98.9L70.2,98.9z M70.2,63.1c-1.8,0-3.7,0.7-5.1,2.1c-2.8,2.8-2.8,7.3,0,10.1
		c2.8,2.8,7.3,2.8,10.1,0c2.8-2.8,2.8-7.3,0-10.1C73.9,63.8,72.1,63.1,70.2,63.1L70.2,63.1z M70.2,63.1"/>
	<path class="st0" d="M112.2,123c-2.8,0-5.5-1-7.6-3.1L77.8,93c-4.2-4.2-4.2-11,0-15.2c4.2-4.2,11-4.2,15.2,0l26.8,26.8
		c4.2,4.2,4.2,11,0,15.2C117.7,121.9,115,123,112.2,123L112.2,123z M112.2,123"/>
</g>
</svg>
