<?xml version="1.0" encoding="utf-8"?>
<!-- Generator: Adobe Illustrator 22.1.0, SVG Export Plug-In . SVG Version: 6.00 Build 0)  -->
<svg version="1.1" id="Capa_1" xmlns="http://www.w3.org/2000/svg" xmlns:xlink="http://www.w3.org/1999/xlink" x="0px" y="0px"
	 viewBox="0 0 343 343" style="enable-background:new 0 0 343 343;" xml:space="preserve">
<style type="text/css">
	.st0{fill:#FFFFFF;}
</style>
<g>
	<path class="st0" d="M232.4,343.3H110.6c-5.3,0-9.8-3.9-10.6-9.1l-14.3-93.1c-0.5-3.1,0.4-6.3,2.5-8.6c2-2.4,5-3.7,8.1-3.7h150.4
		c3.1,0,6.1,1.4,8.1,3.8c2,2.4,2.9,5.5,2.5,8.6L243,334.3C242.2,339.5,237.7,343.3,232.4,343.3L232.4,343.3z M232.4,343.3"/>
	<path class="st0" d="M228.8,56.9c0,31.6-25.6,57.3-57.3,57.3s-57.3-25.6-57.3-57.3s25.6-57.3,57.3-57.3S228.8,25.3,228.8,56.9
		L228.8,56.9z M228.8,56.9"/>
	<path class="st0" d="M332.1,185.8c-2.3-31.7-19.3-61.1-46.1-78.9c-0.1-11.8-9.7-21.3-21.5-21.3c-11.9,0-21.5,9.6-21.5,21.5
		s9.6,21.5,21.5,21.5c3.9,0,7.5-1.1,10.7-3c20.1,13.9,33.2,36.1,35.4,60.2h-25.4c-5.2-32.4-33.2-57.3-67.2-57.3H125
		c-33.9,0-62,24.9-67.2,57.3H10.4c-7.6,0-12.5,7.7-10.2,14.5L28.9,279c1.6,4.2,5.6,7,10.2,7h24.6l-6.3-40.5
		c-1.7-11.5,1.6-22.9,9-31.6c6.4-7.7,17.7-13.7,29.9-13.7h150.4c10.8,0,21.7,4.5,29.9,13.7c7.4,8.7,10.7,20.2,9,31.6l-6.3,40.5H304
		c4.6,0,8.6-2.9,10.2-7l28.6-78.8C345,193.8,340.7,185.8,332.1,185.8L332.1,185.8z M332.1,185.8"/>
</g>
</svg>
