<?xml version="1.0" encoding="utf-8"?>
<!-- Generator: Adobe Illustrator 24.0.2, SVG Export Plug-In . SVG Version: 6.00 Build 0)  -->
<svg version="1.1" id="Capa_1" xmlns="http://www.w3.org/2000/svg" xmlns:xlink="http://www.w3.org/1999/xlink" x="0px" y="0px"
	 viewBox="0 0 34.2 34.2" style="enable-background:new 0 0 34.2 34.2;" xml:space="preserve">
<style type="text/css">
	.st0{fill:#FFFFFF;}
</style>
<g>
	<path class="st0" d="M9.2,24.3c0.4-1.3,0.7-2.5,1-3.8c0.1-0.2,0-0.4-0.1-0.6c-2.5-4.7,0.4-10.5,5.6-11.4c4.5-0.8,8.6,2.2,9.2,6.7
		c0.6,4.4-2.7,8.5-7.1,8.9c-1.5,0.1-2.9-0.1-4.3-0.8c-0.1-0.1-0.3-0.1-0.5,0C11.8,23.6,10.5,24,9.2,24.3z M11.1,22.4
		c0.8-0.2,1.5-0.4,2.2-0.6c0.2-0.1,0.4,0,0.6,0.1c1.3,0.8,2.8,1.1,4.3,0.8c3.5-0.6,5.8-3.5,5.6-7C23.4,12,19.7,9.2,16,9.8
		c-4.6,0.8-6.9,5.8-4.5,9.8c0.2,0.3,0.2,0.5,0.1,0.8C11.4,21.1,11.3,21.7,11.1,22.4z"/>
	<path class="st0" d="M19.2,20.1c-1-0.1-1.8-0.4-2.6-0.9c-1.3-0.8-2.3-1.9-3-3.2c-0.4-0.7-0.6-1.4-0.3-2.1c0.1-0.3,0.4-0.7,0.6-1
		c0.4-0.4,1.1-0.3,1.4,0.3c0.2,0.4,0.4,0.8,0.5,1.3c0.1,0.2,0,0.4-0.1,0.5c0,0.1-0.1,0.2-0.2,0.3c-0.4,0.5-0.4,0.5,0,1
		c0.6,0.9,1.4,1.5,2.4,2c0.2,0.1,0.4,0.1,0.5-0.1c0.2-0.2,0.4-0.4,0.5-0.6c0.1-0.2,0.3-0.2,0.5-0.2c0.5,0.3,1.1,0.5,1.6,0.8
		c0.1,0,0.2,0.2,0.2,0.3c0,0.5-0.1,0.9-0.5,1.2C20.2,19.9,19.7,20.1,19.2,20.1z"/>
</g>
</svg>
