<?xml version="1.0" encoding="utf-8"?>
<!-- Generator: Adobe Illustrator 21.1.0, SVG Export Plug-In . SVG Version: 6.00 Build 0)  -->
<svg version="1.1" id="Capa_1" xmlns="http://www.w3.org/2000/svg" xmlns:xlink="http://www.w3.org/1999/xlink" x="0px" y="0px"
	 viewBox="0 0 235.4 67.4" style="enable-background:new 0 0 235.4 67.4;" xml:space="preserve">
<style type="text/css">
	.st0{fill:#DE5C38;}
	.st1{fill:#2F3675;}
	.st2{clip-path:url(#SVGID_1_);fill:url(#SVGID_2_);}
	.st3{opacity:0.35;clip-path:url(#SVGID_3_);}
	.st4{clip-path:url(#SVGID_4_);}
	.st5{fill:#FFFFFF;}
	.st6{fill:#C74F3C;}
	.st7{clip-path:url(#SVGID_6_);fill:#AF413B;}
	.st8{clip-path:url(#SVGID_6_);fill:#B2423B;}
	.st9{clip-path:url(#SVGID_6_);fill:#B5433C;}
	.st10{clip-path:url(#SVGID_6_);fill:#B7453C;}
	.st11{clip-path:url(#SVGID_6_);fill:#BA463D;}
	.st12{clip-path:url(#SVGID_6_);fill:#BB473D;}
	.st13{clip-path:url(#SVGID_6_);fill:#BE483D;}
	.st14{clip-path:url(#SVGID_6_);fill:#C0493D;}
	.st15{clip-path:url(#SVGID_6_);fill:#C24B3C;}
	.st16{clip-path:url(#SVGID_7_);fill:#AF413B;}
	.st17{clip-path:url(#SVGID_8_);fill:#B2423B;}
	.st18{clip-path:url(#SVGID_8_);fill:#B5433C;}
	.st19{clip-path:url(#SVGID_8_);fill:#B7453C;}
	.st20{clip-path:url(#SVGID_8_);fill:#BA463D;}
	.st21{clip-path:url(#SVGID_8_);fill:#BB473D;}
	.st22{clip-path:url(#SVGID_8_);fill:#BE483D;}
	.st23{clip-path:url(#SVGID_8_);fill:#C0493D;}
	.st24{clip-path:url(#SVGID_8_);fill:#C24B3C;}
	.st25{fill:#AE403A;}
	.st26{clip-path:url(#SVGID_9_);fill:#D6583C;}
	.st27{fill:#114477;}
</style>
<g>
	<path class="st0" d="M27.4,29.4c-3.5,0.9-6.9,1.8-9.9,3c-11.2,4.3-11.4,9.2-0.1,13.5c8.8,3.3,19.8,5.2,31.4,6.8
		c18.1,2.4,36.9,3.5,56.1,3.9c3.4,0.1,4.3-0.3,4.1-1.5c-0.3-1.5-0.1-2.9-0.1-4.8c8.3,2.9,15.8,5.5,23.5,8.1c1,0.3,1.1,0.6,0.1,0.9
		c-7.6,2.6-15.2,5.3-23.6,8.1c0-1.8-0.2-3.2,0.1-4.6c0.3-1.2-0.8-1.6-4.1-1.6c-15.3-0.2-30.4-1-45.3-2.4C44,57.3,29,55.3,16,51.6
		c-6.5-1.8-12.2-4-14.7-7c-3.9-4.7,1.4-8.3,10.2-11.5c4.5-1.6,9.6-2.9,15.1-4C27.5,29,27.6,29.2,27.4,29.4"/>
	<path class="st0" d="M207.4,29.3c0.9-0.2,1.6-0.2,2.3,0c7.3,1.6,14.1,3.4,19.4,5.9c9,4.3,8.5,9.4-1.1,13.5
		c-9.9,4.2-23,6.6-36.7,8.5c-14.1,1.9-28.8,2.9-43.7,3.7c-3.6,0.2-5.2,0-5-1.7c0.4-3,0.2-2.9,8.1-3.3c22.6-1.3,44.7-3.2,63.4-8.5
		c2.6-0.7,4.8-1.6,6.8-2.6c8.1-4,7.5-8.2-1.7-11.9C215.7,31.5,211.8,30.3,207.4,29.3"/>
	<path class="st1" d="M64.3,25.3h7.8c1.5,0,2.8,0.2,3.7,0.6c1,0.4,1.7,0.9,2.4,1.7c0.6,0.7,1.1,1.6,1.4,2.5c0.3,1,0.4,2,0.4,3
		c0,1.7-0.2,3-0.6,3.9c-0.4,0.9-1,1.7-1.7,2.3c-0.7,0.6-1.5,1-2.4,1.2c-1.2,0.3-2.2,0.4-3.1,0.4h-7.8V25.3z M69.6,28.9v8.6h1.3
		c1.1,0,1.9-0.1,2.4-0.3c0.5-0.2,0.8-0.6,1.1-1.2c0.3-0.6,0.4-1.5,0.4-2.7c0-1.7-0.3-2.8-0.9-3.4c-0.6-0.6-1.6-0.9-2.9-0.9H69.6z"/>
	<path class="st1" d="M82.8,41V25.3h8.8c1.6,0,2.9,0.1,3.7,0.4c0.9,0.3,1.6,0.7,2.1,1.4c0.5,0.7,0.8,1.5,0.8,2.5
		c0,0.9-0.2,1.6-0.6,2.3c-0.4,0.6-1,1.1-1.7,1.5c-0.5,0.2-1.1,0.5-1.9,0.6c0.6,0.2,1.1,0.4,1.4,0.6c0.2,0.1,0.5,0.4,0.8,0.8
		c0.4,0.4,0.6,0.7,0.7,1l2.6,4.5h-6l-2.8-4.8c-0.4-0.6-0.7-1-1-1.2c-0.4-0.2-0.8-0.4-1.3-0.4h-0.5V41H82.8z M88.1,31.7h2.2
		c0.2,0,0.7-0.1,1.4-0.2c0.3-0.1,0.6-0.2,0.9-0.5c0.2-0.3,0.3-0.6,0.3-0.9c0-0.5-0.2-0.9-0.5-1.2c-0.4-0.3-1-0.4-2-0.4h-2.3V31.7z"
		/>
	<path class="st1" d="M111.6,38.4h-6l-0.8,2.6h-5.4l6.4-15.7h5.8L118,41h-5.5L111.6,38.4z M110.5,35l-1.9-5.6l-1.9,5.6H110.5z"/>
	<path class="st1" d="M127.7,35.3v-3.3h8.2v6.7c-1.6,1-2.9,1.6-4.1,2c-1.2,0.4-2.6,0.5-4.3,0.5c-2,0-3.7-0.3-5-1
		c-1.3-0.6-2.3-1.6-3-2.8c-0.7-1.3-1.1-2.7-1.1-4.3c0-1.7,0.4-3.2,1.2-4.5c0.8-1.3,1.9-2.2,3.4-2.9c1.2-0.5,2.7-0.8,4.7-0.8
		c1.9,0,3.3,0.2,4.2,0.5c0.9,0.3,1.7,0.8,2.3,1.5c0.6,0.7,1.1,1.5,1.4,2.5l-5.1,0.8c-0.2-0.6-0.6-1-1.1-1.4
		c-0.5-0.3-1.1-0.5-1.9-0.5c-1.2,0-2.1,0.4-2.8,1.1c-0.7,0.7-1,1.9-1,3.5c0,1.7,0.3,2.9,1,3.6c0.7,0.7,1.7,1.1,2.9,1.1
		c0.6,0,1.2-0.1,1.7-0.2c0.5-0.2,1.1-0.4,1.8-0.8v-1.5H127.7z"/>
	<polygon class="st1" points="138.8,25.3 145.7,25.3 148.4,34.9 151.1,25.3 158,25.3 158,41 153.7,41 153.7,29 150.3,41 146.4,41 
		143.1,29 143.1,41 138.8,41 	"/>
	<path class="st1" d="M171.7,38.4h-6l-0.8,2.6h-5.4l6.4-15.7h5.8l6.4,15.7h-5.5L171.7,38.4z M170.7,35l-1.9-5.6l-1.9,5.6H170.7z"/>
	<path class="st0" d="M183.4,29.8l-4.5-0.7c0.4-1.3,1.1-2.3,2.1-3c1.1-0.7,2.6-1,4.5-1c2.2,0,3.8,0.4,4.8,1.1c1,0.8,1.5,1.7,1.5,2.9
		c0,0.7-0.2,1.3-0.6,1.8c-0.4,0.5-1,1-1.8,1.4c0.7,0.1,1.2,0.3,1.5,0.5c0.6,0.3,1,0.7,1.3,1.3c0.3,0.5,0.5,1.2,0.5,1.9
		c0,0.9-0.3,1.8-0.8,2.6c-0.5,0.8-1.3,1.5-2.2,1.9c-1,0.5-2.3,0.7-3.9,0.7c-1.6,0-2.8-0.2-3.7-0.5c-0.9-0.3-1.6-0.8-2.2-1.5
		c-0.6-0.6-1-1.5-1.3-2.4l4.7-0.6c0.2,0.9,0.5,1.5,0.9,1.8c0.4,0.3,0.9,0.5,1.5,0.5c0.6,0,1.2-0.2,1.6-0.6c0.4-0.4,0.6-1,0.6-1.7
		c0-0.7-0.2-1.3-0.6-1.7c-0.4-0.4-1-0.6-1.7-0.6c-0.4,0-0.9,0.1-1.5,0.3l0.2-3.1c0.3,0,0.5,0.1,0.6,0.1c0.6,0,1.1-0.2,1.6-0.5
		c0.4-0.4,0.6-0.8,0.6-1.3c0-0.5-0.2-0.9-0.5-1.1c-0.3-0.3-0.7-0.4-1.3-0.4c-0.6,0-1,0.2-1.4,0.5C183.8,28.5,183.6,29.1,183.4,29.8"
		/>
	<path class="st0" d="M195.5,25.3h7.8c1.5,0,2.8,0.2,3.7,0.6c1,0.4,1.7,0.9,2.4,1.7c0.6,0.7,1.1,1.6,1.4,2.5c0.3,1,0.4,2,0.4,3
		c0,1.7-0.2,3-0.6,3.9c-0.4,0.9-1,1.7-1.7,2.3c-0.7,0.6-1.5,1-2.4,1.2c-1.2,0.3-2.2,0.4-3.1,0.4h-7.8V25.3z M200.7,28.9v8.6h1.3
		c1.1,0,1.9-0.1,2.4-0.3c0.5-0.2,0.8-0.6,1.1-1.2c0.3-0.6,0.4-1.5,0.4-2.7c0-1.7-0.3-2.8-0.9-3.4c-0.6-0.6-1.6-0.9-2.9-0.9H200.7z"
		/>
	<g>
		<defs>
			<path id="SVGID_30_" d="M26.9,32.4c0,8.9,7.2,16.2,16.2,16.2c8.9,0,16.2-7.2,16.2-16.2c0-8.9-7.2-16.2-16.2-16.2
				C34.1,16.2,26.9,23.4,26.9,32.4"/>
		</defs>
		<clipPath id="SVGID_1_">
			<use xlink:href="#SVGID_30_"  style="overflow:visible;"/>
		</clipPath>
		
			<linearGradient id="SVGID_2_" gradientUnits="userSpaceOnUse" x1="133.7244" y1="-38.5444" x2="135.5884" y2="-38.5444" gradientTransform="matrix(10.1472 10.1472 -10.1472 10.1472 -1715.4471 -943.9112)">
			<stop  offset="0" style="stop-color:#404587"/>
			<stop  offset="2.418172e-02" style="stop-color:#404586"/>
			<stop  offset="1" style="stop-color:#43396C"/>
		</linearGradient>
		<polygon class="st2" points="10.7,32.4 43.1,64.7 75.4,32.4 43.1,0 		"/>
	</g>
	<g>
		<defs>
			<rect id="SVGID_24_" x="25.8" y="15.1" width="35.9" height="35.9"/>
		</defs>
		<clipPath id="SVGID_3_">
			<use xlink:href="#SVGID_24_"  style="overflow:visible;"/>
		</clipPath>
		<g class="st3">
			<g>
				<defs>
					<rect id="SVGID_26_" x="25.8" y="15.1" width="35.9" height="35.9"/>
				</defs>
				<clipPath id="SVGID_4_">
					<use xlink:href="#SVGID_26_"  style="overflow:visible;"/>
				</clipPath>
				<g class="st4">
					<defs>
						<rect id="SVGID_28_" x="25.8" y="15.1" width="35.9" height="35.9"/>
					</defs>
					<clipPath id="SVGID_5_">
						<use xlink:href="#SVGID_28_"  style="overflow:visible;"/>
					</clipPath>
					<g transform="matrix(1 0 0 1 1.907349e-06 0)" style="clip-path:url(#SVGID_5_);">
						
							<image style="overflow:visible;" width="27" height="27" xlink:href="702FAE74.png"  transform="matrix(1.33 0 0 1.33 25.7539 15.051)">
						</image>
					</g>
				</g>
			</g>
		</g>
	</g>
	<g>
		<path class="st5" d="M57.6,32.4c0,8-6.5,14.5-14.5,14.5c-8,0-14.5-6.5-14.5-14.5S35,17.8,43.1,17.8C51.1,17.8,57.6,24.3,57.6,32.4
			"/>
	</g>
	<polygon class="st6" points="41.7,27 41,30.5 39.7,30.8 40.4,27.3 	"/>
	<g>
		<defs>
			<path id="SVGID_22_" d="M42.3,26.9c-0.2,0-0.4,0.1-0.7,0.1L41,30.5c0.5-0.1,1-0.1,1.5-0.2c0,0,0,0,0,0c0,0,0.1,0,0.1,0
				c0.5,0,1,0.1,1.4,0.2c0,0,0,0,0.1,0c0.1,0,0.1,0.1,0.2,0.1c0.8,0.4,1.5,1.2,2.1,2.4c0.4,0.8,0.6,1.5,0.6,2c0,0.1,0,0.1,0,0.2
				l0.7-3.5c0,0,0-0.1,0-0.1v0v-0.2c0-0.5-0.2-1.1-0.6-1.9c-0.6-1.3-1.3-2.1-2.1-2.4c-0.5-0.2-1-0.3-1.7-0.3
				C42.9,26.9,42.6,26.9,42.3,26.9"/>
		</defs>
		<clipPath id="SVGID_6_">
			<use xlink:href="#SVGID_22_"  style="overflow:visible;"/>
		</clipPath>
		<path class="st7" d="M47.6,31.8l-0.7,3.5c0.1-0.5-0.1-1.2-0.6-2.2c-0.4-0.8-0.8-1.4-1.3-1.9l0.7-3.5c0.5,0.4,0.9,1.1,1.3,1.9
			C47.4,30.6,47.6,31.3,47.6,31.8"/>
		<path class="st8" d="M45.7,27.8l-0.7,3.5c-0.1-0.1-0.2-0.2-0.4-0.3l0.7-3.5C45.5,27.6,45.6,27.7,45.7,27.8"/>
		<path class="st9" d="M45.4,27.5L44.7,31c-0.1-0.1-0.2-0.1-0.3-0.2l0.7-3.5C45.2,27.4,45.3,27.4,45.4,27.5"/>
		<path class="st10" d="M45.1,27.3l-0.7,3.5c-0.1,0-0.1-0.1-0.2-0.1c0,0,0,0,0,0l0.7-3.5c0,0,0,0,0,0C45,27.2,45,27.3,45.1,27.3"/>
		<path class="st11" d="M44.9,27.2l-0.7,3.5c-0.1,0-0.2-0.1-0.3-0.1l0.7-3.5C44.7,27.1,44.8,27.2,44.9,27.2"/>
		<path class="st12" d="M44.6,27.1l-0.7,3.5c-0.1,0-0.2-0.1-0.3-0.1l0.7-3.5C44.4,27,44.5,27.1,44.6,27.1"/>
		<path class="st13" d="M44.3,27l-0.7,3.5c-0.1,0-0.3-0.1-0.5-0.1l0.7-3.5C44,26.9,44.1,27,44.3,27"/>
		<path class="st14" d="M43.8,26.9l-0.7,3.5c-0.3,0-0.7,0-1,0l0.7-3.5C43.1,26.9,43.5,26.9,43.8,26.9"/>
		<path class="st15" d="M42.8,26.9l-0.7,3.5c-0.3,0-0.7,0.1-1.1,0.1l0.7-3.5C42.1,27,42.4,26.9,42.8,26.9"/>
	</g>
	<g>
		<defs>
			<path id="SVGID_20_" d="M46.9,35.3c0,0,0,0.1,0,0.1l0.7-3.5c0,0,0,0,0,0c0,0,0,0,0-0.1v0L46.9,35.3z"/>
		</defs>
		<clipPath id="SVGID_7_">
			<use xlink:href="#SVGID_20_"  style="overflow:visible;"/>
		</clipPath>
		<path class="st16" d="M47.6,31.9l-0.7,3.5c0,0,0-0.1,0-0.1l0.7-3.5C47.6,31.8,47.6,31.9,47.6,31.9"/>
	</g>
	<g>
		<defs>
			<path id="SVGID_19_" d="M52.1,33.8c-0.5,0.6-1.1,1.1-1.9,1.4c-1,0.4-2,0.7-2.9,0.9l-0.7,3.5v0c0.9-0.2,1.9-0.5,2.9-0.9
				c0.8-0.3,1.4-0.8,1.9-1.4c0.4-0.5,0.7-1.1,0.8-1.7l0.6-3.4C52.8,32.7,52.5,33.3,52.1,33.8"/>
		</defs>
		<clipPath id="SVGID_8_">
			<use xlink:href="#SVGID_19_"  style="overflow:visible;"/>
		</clipPath>
		<path class="st17" d="M52.9,32.1l-0.7,3.5c0,0,0,0.1,0,0.1l0.7-3.5C52.9,32.1,52.9,32.1,52.9,32.1"/>
		<path class="st18" d="M52.9,32.2l-0.7,3.5c0,0.2-0.1,0.4-0.2,0.6l0.7-3.5C52.8,32.6,52.8,32.4,52.9,32.2"/>
		<path class="st19" d="M52.7,32.8L52,36.3c-0.1,0.2-0.2,0.4-0.3,0.5l0.7-3.5C52.5,33.2,52.6,33,52.7,32.8"/>
		<path class="st20" d="M52.4,33.4l-0.7,3.5c-0.1,0.1-0.2,0.3-0.3,0.4c0,0-0.1,0.1-0.1,0.1l0.7-3.5c0,0,0.1-0.1,0.1-0.1
			C52.2,33.7,52.3,33.5,52.4,33.4"/>
		<path class="st21" d="M52,33.9l-0.7,3.5c-0.2,0.2-0.3,0.3-0.5,0.5l0.7-3.5C51.7,34.2,51.9,34.1,52,33.9"/>
		<path class="st22" d="M51.5,34.4l-0.7,3.5c-0.2,0.2-0.4,0.3-0.6,0.4l0.7-3.5C51.1,34.7,51.3,34.5,51.5,34.4"/>
		<path class="st23" d="M50.9,34.8l-0.7,3.5c-0.2,0.1-0.5,0.3-0.7,0.4c-0.4,0.2-0.7,0.3-1.1,0.4l0.7-3.5c0.4-0.1,0.7-0.3,1.1-0.4
			C50.4,35.1,50.7,35,50.9,34.8"/>
		<path class="st24" d="M49.1,35.6l-0.7,3.5c-0.6,0.2-1.2,0.4-1.8,0.5l0.7-3.5C47.8,36,48.4,35.8,49.1,35.6"/>
	</g>
	<polygon class="st25" points="33.2,29 33.2,29 38.9,41 39.5,37.5 33.9,25.5 	"/>
	<polygon class="st6" points="39.5,37.5 38.9,41 46.6,39.6 47.2,36.1 	"/>
	<g>
		<defs>
			<rect id="SVGID_17_" x="33.2" y="23.8" width="19.7" height="17.2"/>
		</defs>
		<clipPath id="SVGID_9_">
			<use xlink:href="#SVGID_17_"  style="overflow:visible;"/>
		</clipPath>
		<path class="st26" d="M50.7,26.4c0.6,0.7,1.1,1.4,1.5,2.2c0.6,1.3,0.9,2.3,0.8,3.1c-0.1,0.8-0.4,1.5-0.9,2.1
			c-0.5,0.6-1.1,1.1-1.9,1.4c-1,0.4-2,0.7-2.9,0.9l-7.7,1.4l-5.6-12l7.7-1.4c1.5-0.3,2.8-0.4,3.9-0.2c1.1,0.1,2.1,0.4,2.9,0.8
			C49.3,25.1,50.1,25.7,50.7,26.4 M47.6,31.8c0.1-0.5-0.1-1.2-0.6-2.2c-0.6-1.3-1.3-2.1-2.1-2.4c-0.8-0.4-1.9-0.4-3.2-0.2l-1.3,0.2
			l3.1,6.6l1.3-0.2c1.1-0.2,1.8-0.4,2.2-0.7C47.3,32.7,47.5,32.3,47.6,31.8"/>
	</g>
</g>
</svg>
