<?xml version="1.0" encoding="utf-8"?>
<!-- Generator: Adobe Illustrator 24.0.2, SVG Export Plug-In . SVG Version: 6.00 Build 0)  -->
<svg version="1.1" id="Capa_1" xmlns="http://www.w3.org/2000/svg" xmlns:xlink="http://www.w3.org/1999/xlink" x="0px" y="0px"
	 viewBox="0 0 34.2 34.2" style="enable-background:new 0 0 34.2 34.2;" xml:space="preserve">
<style type="text/css">
	.st0{fill:#FFFFFF;}
</style>
<g>
	<path class="st0" d="M10.7,13.1c0.1-1,1.1-2.3,2.1-2.5c0.3,0,0.7,0.1,1,0.3c0.6,0.5,1.1,1.1,1.4,1.8c0.2,0.6,0,1-0.4,1.5
		c-0.8,0.8-0.8,1.1-0.2,2c0.9,1.3,2,2.4,3.3,3.4c0.2,0.1,0.4,0.2,0.6,0.3c0.5,0.3,0.8,0.2,1.2-0.2c0.9-0.9,1.4-0.9,2.4-0.2
		c0.4,0.3,0.8,0.6,1.1,1c0.4,0.5,0.4,1,0,1.5c-0.3,0.4-0.7,0.8-1.2,1.2c-0.4,0.3-0.9,0.3-1.4,0.2c-1.6-0.3-2.9-1-4.2-2
		c-2.3-1.8-4.2-3.9-5.2-6.6C11,14.3,10.9,13.7,10.7,13.1z"/>
</g>
</svg>
