<?xml version="1.0" encoding="utf-8"?>
<!-- Generator: Adobe Illustrator 21.1.0, SVG Export Plug-In . SVG Version: 6.00 Build 0)  -->
<svg version="1.1" id="Capa_1" xmlns="http://www.w3.org/2000/svg" xmlns:xlink="http://www.w3.org/1999/xlink" x="0px" y="0px"
	 viewBox="0 0 292 90.7" style="enable-background:new 0 0 292 90.7;" xml:space="preserve">
<style type="text/css">
	.st0{fill:#DE5C38;}
	.st1{fill:#2F3675;}
	.st2{clip-path:url(#SVGID_1_);fill:url(#SVGID_2_);}
	.st3{opacity:0.35;clip-path:url(#SVGID_3_);}
	.st4{clip-path:url(#SVGID_4_);}
	.st5{fill:#FFFFFF;}
	.st6{fill:#C74F3C;}
	.st7{clip-path:url(#SVGID_6_);fill:#AF413B;}
	.st8{clip-path:url(#SVGID_6_);fill:#B2423B;}
	.st9{clip-path:url(#SVGID_6_);fill:#B5433C;}
	.st10{clip-path:url(#SVGID_6_);fill:#B7453C;}
	.st11{clip-path:url(#SVGID_6_);fill:#BA463D;}
	.st12{clip-path:url(#SVGID_6_);fill:#BB473D;}
	.st13{clip-path:url(#SVGID_6_);fill:#BE483D;}
	.st14{clip-path:url(#SVGID_6_);fill:#C0493D;}
	.st15{clip-path:url(#SVGID_6_);fill:#C24B3C;}
	.st16{clip-path:url(#SVGID_7_);fill:#AF413B;}
	.st17{clip-path:url(#SVGID_8_);fill:#B2423B;}
	.st18{clip-path:url(#SVGID_8_);fill:#B5433C;}
	.st19{clip-path:url(#SVGID_8_);fill:#B7453C;}
	.st20{clip-path:url(#SVGID_8_);fill:#BA463D;}
	.st21{clip-path:url(#SVGID_8_);fill:#BB473D;}
	.st22{clip-path:url(#SVGID_8_);fill:#BE483D;}
	.st23{clip-path:url(#SVGID_8_);fill:#C0493D;}
	.st24{clip-path:url(#SVGID_8_);fill:#C24B3C;}
	.st25{fill:#AE403A;}
	.st26{clip-path:url(#SVGID_9_);fill:#D6583C;}
	.st27{fill:#114477;}
</style>
<g>
	<path class="st27" d="M280.8,90.7H11.2C5,90.7,0,85.7,0,79.5V11.2C0,5,5,0,11.2,0h269.7C287,0,292,5,292,11.2v68.4
		C292,85.7,287,90.7,280.8,90.7z"/>
	<g>
		<path class="st5" d="M30.6,35.6h6.2c0.3,0,0.5,0.2,0.4,0.5l-4.1,23.8c-0.1,0.4-0.3,0.5-0.6,0.5h-6.1c-0.3,0-0.5-0.2-0.4-0.5
			L30,36.1C30,35.7,30.2,35.6,30.6,35.6z"/>
		<path class="st5" d="M57.9,35.6H64c0.3,0,0.5,0.2,0.4,0.5l-4.1,23.8c-0.1,0.4-0.3,0.5-0.6,0.5h-4.2c-1,0-1.7-0.3-2-1l-7.1-11.7
			l-2.1,12.1c-0.1,0.4-0.3,0.5-0.6,0.5h-6.1c-0.3,0-0.5-0.2-0.4-0.5l4.1-23.8c0-0.4,0.2-0.5,0.6-0.5h4.4c0.5,0,0.8,0.1,1.1,0.2
			c0.1,0,0.2,0.1,0.2,0.1c0,0,0.1,0,0.2,0.1c0.1,0,0.1,0.1,0.1,0.1c0,0,0.1,0.1,0.1,0.1c0,0.1,0.1,0.1,0.1,0.1c0,0,0.1,0.1,0.1,0.2
			c0.1,0.1,0.1,0.2,0.2,0.3L55.2,48l2.1-11.9C57.3,35.7,57.5,35.6,57.9,35.6z"/>
		<path class="st5" d="M69.2,35.6h6.2c0.3,0,0.5,0.2,0.4,0.5l-4.1,23.8c-0.1,0.4-0.3,0.5-0.6,0.5h-6.1c-0.3,0-0.5-0.2-0.4-0.5
			l4.1-23.8C68.7,35.7,68.8,35.6,69.2,35.6z"/>
		<path class="st5" d="M90.7,35.4c2.9,0,5.2,0.2,7,0.7c0.4,0.1,0.6,0.2,0.7,0.4c0.1,0.1,0.1,0.4,0.1,0.7l-0.6,3.5
			c-0.1,0.3-0.3,0.5-0.6,0.5h-7.6c-1.7,0-2.9,0.5-3.7,1.4c-0.7,0.9-1.3,2.7-1.7,5.4c-0.5,2.5-0.6,4.3-0.2,5.4c0.4,1,1.5,1.5,3.2,1.5
			H95c0.3,0,0.5,0.2,0.4,0.5l-0.6,3.5c-0.1,0.6-0.5,0.9-1.2,1.1c-1.8,0.4-4.2,0.7-7.2,0.7c-4.5,0-7.4-0.9-8.7-2.6
			c-1.3-1.8-1.5-5.1-0.6-10c0.4-2.6,1-4.6,1.6-6.2s1.4-2.8,2.5-3.7c1-1,2.3-1.7,3.8-2.1C86.4,35.6,88.4,35.4,90.7,35.4z"/>
		<path class="st5" d="M102.3,35.6h6.2c0.3,0,0.5,0.2,0.4,0.5l-4.1,23.8c-0.1,0.4-0.3,0.5-0.6,0.5h-6.1c-0.3,0-0.5-0.2-0.4-0.5
			l4.1-23.8C101.8,35.7,102,35.6,102.3,35.6z"/>
		<path class="st5" d="M129.7,39.2l2.6,20.7c0,0.3-0.2,0.5-0.5,0.5h-6c-0.2,0-0.3,0-0.3-0.1c0-0.1-0.1-0.2-0.1-0.4l-0.8-6.2h-8.1
			l-2.9,6.2c-0.2,0.3-0.4,0.5-0.6,0.5h-6c-0.4,0-0.5-0.2-0.3-0.5l9.7-20.7c0.8-1.7,1.6-2.8,2.4-3.2c0.8-0.4,2.4-0.6,4.8-0.6
			c2.4,0,4,0.2,4.6,0.6C129,36.4,129.4,37.5,129.7,39.2z M122.8,40.8c-0.2,0-0.3,0.1-0.3,0.2l-3.4,7.4h4.9l-1-7.4
			C123,40.9,122.9,40.8,122.8,40.8z"/>
		<path class="st5" d="M149.8,35.4c3.6,0,6,0.6,7.3,1.9c1.3,1.3,1.6,3.4,1.1,6.5c-0.4,2.3-1.1,4-2,5.1s-2.3,1.9-4.2,2.3l4.3,8.5
			c0.1,0.2,0.1,0.3,0,0.4c-0.1,0.1-0.3,0.2-0.5,0.2h-6.3c-0.6,0-1-0.2-1.3-0.7l-4.1-8h-1.3l-1.4,8.2c0,0.2-0.1,0.3-0.2,0.4
			c-0.1,0.1-0.2,0.1-0.4,0.1h-6.1c-0.2,0-0.3,0-0.4-0.1c-0.1-0.1-0.1-0.2,0-0.4l4.1-23.7c0-0.3,0.2-0.4,0.6-0.4
			C142.5,35.5,146.1,35.4,149.8,35.4z M148,41.1h-3.4l-1,5.7h3.4c1.3,0,2.2-0.2,2.7-0.6c0.5-0.4,0.9-1.1,1.1-2.2
			c0.2-1.1,0.1-1.8-0.4-2.3C150.1,41.3,149.3,41.1,148,41.1z"/>
		<path class="st5" d="M170,35.6h17c0.4,0,0.5,0.2,0.5,0.5l-0.8,4.8c-0.1,0.3-0.3,0.5-0.6,0.5h-10.4l-0.7,4h9.5
			c0.4,0,0.5,0.2,0.5,0.5l-0.8,4.5c0,0.3-0.2,0.5-0.6,0.5h-9.5l-1.6,9.2c-0.1,0.3-0.3,0.5-0.6,0.5h-6.1c-0.3,0-0.5-0.2-0.4-0.5
			l4.1-23.8C169.5,35.7,169.6,35.6,170,35.6z"/>
		<path class="st5" d="M191,35.6h18.2c0.4,0,0.5,0.2,0.5,0.5l-0.8,4.8c-0.1,0.3-0.3,0.5-0.6,0.5h-11.6l-0.7,4h10.6
			c0.4,0,0.5,0.2,0.5,0.5l-0.8,4.5c0,0.3-0.2,0.5-0.6,0.5h-10.6l-0.7,4H206c0.4,0,0.5,0.2,0.5,0.5l-0.9,4.8c0,0.3-0.2,0.5-0.6,0.5
			h-18.2c-0.3,0-0.5-0.2-0.4-0.5l4.1-23.8C190.5,35.7,190.7,35.6,191,35.6z"/>
		<path class="st5" d="M224.6,35.4c3.6,0,6,0.6,7.3,1.9c1.3,1.3,1.6,3.4,1.1,6.5c-0.4,2.3-1.1,4-2,5.1s-2.3,1.9-4.2,2.3l4.3,8.5
			c0.1,0.2,0.1,0.3,0,0.4c-0.1,0.1-0.3,0.2-0.5,0.2h-6.3c-0.6,0-1-0.2-1.3-0.7l-4.1-8h-1.3l-1.4,8.2c0,0.2-0.1,0.3-0.2,0.4
			c-0.1,0.1-0.2,0.1-0.4,0.1h-6.1c-0.2,0-0.3,0-0.4-0.1c-0.1-0.1-0.1-0.2,0-0.4l4.1-23.7c0-0.3,0.2-0.4,0.6-0.4
			C217.3,35.5,220.9,35.4,224.6,35.4z M222.8,41.1h-3.4l-1,5.7h3.4c1.3,0,2.2-0.2,2.7-0.6c0.5-0.4,0.9-1.1,1.1-2.2
			c0.2-1.1,0.1-1.8-0.4-2.3C224.9,41.3,224.1,41.1,222.8,41.1z"/>
		<path class="st5" d="M238.5,35.6h6.2c0.3,0,0.5,0.2,0.4,0.5l-4.1,23.8c-0.1,0.4-0.3,0.5-0.6,0.5h-6.1c-0.3,0-0.5-0.2-0.4-0.5
			l4.1-23.8C237.9,35.7,238.1,35.6,238.5,35.6z"/>
		<path class="st5" d="M265.8,39.2l2.6,20.7c0,0.3-0.2,0.5-0.5,0.5h-6c-0.2,0-0.3,0-0.3-0.1c0-0.1-0.1-0.2-0.1-0.4l-0.8-6.2h-8.1
			l-2.9,6.2c-0.2,0.3-0.4,0.5-0.6,0.5h-6c-0.4,0-0.5-0.2-0.3-0.5l9.7-20.7c0.8-1.7,1.6-2.8,2.4-3.2c0.8-0.4,2.4-0.6,4.8-0.6
			c2.4,0,4,0.2,4.6,0.6C265.1,36.4,265.6,37.5,265.8,39.2z M258.9,40.8c-0.2,0-0.3,0.1-0.3,0.2l-3.4,7.4h4.9l-1-7.4
			C259.1,40.9,259,40.8,258.9,40.8z"/>
	</g>
</g>
</svg>
