<?xml version="1.0" encoding="utf-8"?>
<!-- Generator: Adobe Illustrator 21.1.0, SVG Export Plug-In . SVG Version: 6.00 Build 0)  -->
<svg version="1.1" id="Capa_1" xmlns="http://www.w3.org/2000/svg" xmlns:xlink="http://www.w3.org/1999/xlink" x="0px" y="0px"
	 viewBox="0 0 343 343" style="enable-background:new 0 0 343 343;" xml:space="preserve">
<style type="text/css">
	.st0{fill:#FFFFFF;}
</style>
<g>
	<path class="st0" d="M315.5,7h-264c-6.2,0-11.3,4.3-11.3,9.6V59H27.5c-6.2,0-11.3,4.3-11.3,9.6s5,9.6,11.3,9.6h12.8v32.1H27.5
		c-6.2,0-11.3,4.3-11.3,9.6s5,9.6,11.3,9.6h12.8v32.1H27.5c-6.2,0-11.3,4.3-11.3,9.6s5,9.6,11.3,9.6h12.8v32.1H27.5
		c-6.2,0-11.3,4.3-11.3,9.6s5,9.6,11.3,9.6h12.8v32.1H27.5c-6.2,0-11.3,4.3-11.3,9.6s5,9.6,11.3,9.6h12.8v42.4c0,5.3,5,9.6,11.3,9.6
		h264c6.2,0,11.3-4.3,11.3-9.6V16.6C326.8,11.3,321.7,7,315.5,7z M227.1,232.7c-4.5,0-8.2-3.5-8.2-7.7c0-20.5-13.3-41.7-35.5-41.7
		S148,204.5,148,225c0,4.3-3.7,7.7-8.2,7.7c-4.5,0-8.2-3.5-8.2-7.7c0-19.6,9.5-39.9,26.9-50.3c-8.4-6.7-13.8-16.7-13.8-27.9
		c0-20.1,17.4-36.5,38.7-36.5s38.7,16.4,38.7,36.5c0,11.2-5.4,21.2-13.8,27.9c17.4,10.4,26.9,30.7,26.9,50.3
		C235.3,229.3,231.7,232.7,227.1,232.7z"/>
	<path class="st0" d="M205.9,146.8c0,11.7-10,21.1-22.4,21.1s-22.4-9.4-22.4-21.1c0-11.7,10-21.1,22.4-21.1S205.9,135.2,205.9,146.8
		L205.9,146.8z"/>
</g>
</svg>
