<?xml version="1.0" encoding="utf-8"?>
<!-- Generator: Adobe Illustrator 24.0.2, SVG Export Plug-In . SVG Version: 6.00 Build 0)  -->
<svg version="1.1" id="Capa_1" xmlns="http://www.w3.org/2000/svg" xmlns:xlink="http://www.w3.org/1999/xlink" x="0px" y="0px"
	 viewBox="0 0 34.2 34.2" style="enable-background:new 0 0 34.2 34.2;" xml:space="preserve">
<style type="text/css">
	.st0{fill:#FFFFFF;}
</style>
<g>
	<path class="st0" d="M14.2,11.8c-1.3,0-2.7,0-4,0c-1.3,0-2.1,0.8-2.1,2.1c0,2.1,0,4.2,0,6.3c0,1.3,0.8,2.2,2.2,2.2
		c2.6,0,5.2,0,7.9,0c1.4,0,2.2-0.8,2.2-2.2c0-2.1,0-4.2,0-6.3c0-1.3-0.8-2.1-2.2-2.2C16.8,11.8,15.5,11.8,14.2,11.8z"/>
	<path class="st0" d="M26.1,20.4c-0.1,0.1-0.1,0.3-0.2,0.4c-0.3,0.5-0.9,0.7-1.5,0.4c-1-0.6-2-1.2-3.1-1.7c-0.1,0-0.1-0.2-0.1-0.3
		c0-1.4,0-2.8,0-4.2c0-0.1,0.1-0.3,0.2-0.4c0.9-0.5,1.7-1,2.6-1.5c0.8-0.5,1.7-0.3,2,0.6C26.1,16,26.1,18.2,26.1,20.4z"/>
	<path class="st0" d="M14.2,11.8c1.3,0,2.6,0,3.9,0c1.3,0,2.2,0.8,2.2,2.2c0,2.1,0,4.2,0,6.3c0,1.4-0.8,2.2-2.2,2.2
		c-2.6,0-5.2,0-7.9,0c-1.3,0-2.2-0.8-2.2-2.2c0-2.1,0-4.2,0-6.3c0-1.3,0.8-2.1,2.1-2.1C11.5,11.8,12.9,11.8,14.2,11.8z"/>
</g>
</svg>
