<?xml version="1.0" encoding="utf-8"?>
<!-- Generator: Adobe Illustrator 21.1.0, SVG Export Plug-In . SVG Version: 6.00 Build 0)  -->
<svg version="1.1" id="Layer_1" xmlns="http://www.w3.org/2000/svg" xmlns:xlink="http://www.w3.org/1999/xlink" x="0px" y="0px"
	 viewBox="0 0 33.2 44.4" style="enable-background:new 0 0 33.2 44.4;" xml:space="preserve">
<style type="text/css">
	.st0{fill:none;stroke:#FFFFFF;stroke-width:1.969;stroke-linecap:round;stroke-linejoin:round;stroke-miterlimit:10;}
	.st1{fill:none;stroke:#FFFFFF;stroke-width:1.969;stroke-linecap:round;stroke-linejoin:round;stroke-miterlimit:2.6131;}
	.st2{fill:#4E585F;stroke:#4E585F;stroke-width:1.5146;stroke-miterlimit:10;}
</style>
<g id="XMLID_5_">
	<path class="st0" d="M32.2,35.6l-7.8,7.8h0v-6.8c0-0.6,0.5-1.1,1.1-1.1L32.2,35.6L32.2,35.6z"/>
	<path class="st0" d="M32.2,2.1v32.5c0,0.6-0.5,1.1-1.1,1.1h-5.7c-0.6,0-1.1,0.5-1.1,1.1v5.7c0,0.6-0.5,1.1-1.1,1.1H2.1
		C1.5,43.5,1,43,1,42.4V2.1C1,1.5,1.5,1,2.1,1h29.1C31.7,1,32.2,1.5,32.2,2.1z"/>
	<path class="st0" d="M32.2,34.5V2.1c0-0.6-0.5-1.1-1.1-1.1H2.1C1.5,1,1,1.5,1,2.1v40.3c0,0.6,0.5,1.1,1.1,1.1h21.3
		c0.6,0,1.1-0.5,1.1-1.1v-5.7c0-0.6,0.5-1.1,1.1-1.1h5.7C31.7,35.6,32.2,35.1,32.2,34.5z"/>
	<line class="st1" x1="32.2" y1="35.6" x2="24.4" y2="43.5"/>
	<line class="st1" x1="5.9" y1="20.1" x2="26.9" y2="20.1"/>
	<line class="st1" x1="5.9" y1="25" x2="26.9" y2="25"/>
	<line class="st1" x1="5.9" y1="30.7" x2="26.9" y2="30.7"/>
	<path class="st1" d="M26.1,15.1H7.1c-0.7,0-1.3-0.6-1.3-1.3V5.9c0-0.7,0.6-1.3,1.3-1.3h19.1c0.7,0,1.3,0.6,1.3,1.3v7.9
		C27.4,14.5,26.9,15.1,26.1,15.1z"/>
</g>
</svg>
