<?xml version="1.0" encoding="utf-8"?>
<!-- Generator: Adobe Illustrator 21.1.0, SVG Export Plug-In . SVG Version: 6.00 Build 0)  -->
<svg version="1.1" id="Layer_1" xmlns="http://www.w3.org/2000/svg" xmlns:xlink="http://www.w3.org/1999/xlink" x="0px" y="0px"
	 viewBox="0 0 43.4 52.9" style="enable-background:new 0 0 43.4 52.9;" xml:space="preserve">
<style type="text/css">
	.st0{fill:none;stroke:#FFFFFF;stroke-width:1.969;stroke-linecap:round;stroke-linejoin:round;stroke-miterlimit:10;}
	.st1{fill:none;stroke:#FFFFFF;stroke-width:1.969;stroke-linecap:round;stroke-linejoin:round;stroke-miterlimit:2.6131;}
	.st2{fill:#4E585F;stroke:#4E585F;stroke-width:1.5146;stroke-miterlimit:10;}
</style>
<path class="st2" d="M37.7,41.4c-1.2-0.1-2.4,0.2-3.3,0.9l-16.2-11c0.9-2.4,0.6-5-0.5-7.2l15.2-13.3c0.6,0.3,1.3,0.5,2,0.6
	c2.9,0.2,5.5-2,5.7-4.9s-2-5.5-4.9-5.7c-2.9-0.2-5.5,2-5.7,4.9c-0.1,0.7,0,1.4,0.3,2.1L15,21.1c-0.5-0.4-1.1-0.7-1.7-1
	c-4.5-1.9-9.8,0.2-11.7,4.7c-1.9,4.5,0.2,9.8,4.7,11.7c3.4,1.5,7.2,0.6,9.7-1.8l16.1,11c0,0.2-0.1,0.5-0.1,0.7
	c-0.2,2.9,2,5.5,4.9,5.7c2.9,0.2,5.5-2,5.7-4.9C42.8,44.2,40.6,41.7,37.7,41.4z"/>
</svg>
