<?xml version="1.0" encoding="utf-8"?>
<!-- Generator: Adobe Illustrator 24.0.2, SVG Export Plug-In . SVG Version: 6.00 Build 0)  -->
<svg version="1.1" id="Capa_1" xmlns="http://www.w3.org/2000/svg" xmlns:xlink="http://www.w3.org/1999/xlink" x="0px" y="0px"
	 viewBox="0 0 22.5 29.2" style="enable-background:new 0 0 22.5 29.2;" xml:space="preserve">
<style type="text/css">
	.st0{fill:#FFFFFF;}
</style>
<g>
	<path class="st0" d="M18.7,15.7c-0.4,1.3-1.4,1.9-2.5,2.4c-0.9,0.4-1.9,0.6-3,0.8c-0.3,0-0.5-0.1-0.5-0.4c0-0.3,0.1-0.4,0.4-0.5
		c0.8-0.2,1.6-0.4,2.4-0.6c0.6-0.2,1.2-0.5,1.7-0.9c0.8-0.7,0.8-1.4,0-2.1c-0.1-0.1-0.2-0.2-0.4-0.3c-0.2-0.2-0.2-0.4-0.1-0.6
		c0.1-0.2,0.4-0.3,0.6-0.1c0.6,0.4,1.1,1,1.3,1.7C18.7,15.3,18.7,15.5,18.7,15.7z"/>
	<path class="st0" d="M9.6,18c-0.1-0.1-0.2-0.2-0.3-0.3c-0.2-0.2-0.2-0.4,0-0.6c0.2-0.2,0.4-0.2,0.6,0c0.4,0.4,0.8,0.8,1.2,1.2
		c0.2,0.2,0.2,0.4,0,0.6c-0.4,0.4-0.8,0.8-1.2,1.2c-0.2,0.2-0.4,0.2-0.6,0c-0.2-0.2-0.2-0.4,0-0.6c0.1-0.1,0.3-0.3,0.5-0.4
		c0,0,0-0.1,0-0.1c-0.3,0-0.5-0.1-0.8-0.1c-1.2-0.2-2.4-0.5-3.5-1.1c-0.4-0.3-0.9-0.6-1.2-1c-0.7-0.8-0.7-1.8,0-2.5
		c0.3-0.4,0.7-0.7,1.1-1C5.6,13,5.8,13.1,6,13.3c0.1,0.2,0.1,0.4-0.1,0.6c-0.2,0.2-0.5,0.4-0.7,0.6c-0.6,0.6-0.6,1.3,0,1.9
		c0.5,0.5,1,0.8,1.6,1c0.9,0.3,1.7,0.4,2.6,0.7C9.4,18,9.5,18,9.6,18z"/>
	<path class="st0" d="M10.7,13.4c0.2-0.1,0.4-0.1,0.5-0.2c0.8-0.1,1.3,0.3,1.3,1c0.1,0.9-0.3,1.5-1.2,1.5c-0.2,0-0.5,0-0.8-0.1
		c-0.4-0.1-0.8-0.4-0.8-0.9c0-0.7,0-1.4,0-2.2c0-0.1,0-0.2,0.1-0.2c0.2-0.5,0.7-0.8,1.4-0.7c0.6,0,1.1,0.3,1.2,0.8
		c0.1,0.4-0.1,0.7-0.5,0.6c-0.1,0-0.3-0.2-0.3-0.3c-0.1-0.3-0.2-0.3-0.5-0.3c-0.2,0-0.4,0.1-0.5,0.3C10.7,13,10.7,13.2,10.7,13.4z
		 M11.7,14.5c0-0.4-0.2-0.6-0.5-0.6c-0.3,0-0.5,0.2-0.5,0.6c0,0.4,0.2,0.6,0.5,0.6C11.6,15.1,11.7,14.9,11.7,14.5z"/>
	<path class="st0" d="M16,13.8c0,0.3,0,0.6,0,0.8c0,0.6-0.3,1-0.9,1.1c-0.3,0.1-0.6,0-0.9,0c-0.5-0.1-0.8-0.5-0.8-0.9
		c0-0.7,0-1.4,0-2c0-0.5,0.4-0.9,0.9-1c0.3,0,0.6-0.1,0.9,0c0.6,0.1,0.9,0.5,1,1.1C16,13.1,16,13.5,16,13.8z M15.1,13.7
		c0-0.3,0-0.6,0-0.8c0-0.3-0.2-0.4-0.5-0.5c-0.3,0-0.5,0.1-0.5,0.4c0,0.6,0,1.2,0,1.7c0,0.3,0.2,0.4,0.5,0.4c0.3,0,0.4-0.2,0.5-0.5
		C15.1,14.3,15.1,14,15.1,13.7z"/>
	<path class="st0" d="M8.7,13.6c0.6,0.3,0.6,0.8,0.5,1.3c-0.1,0.5-0.4,0.8-0.9,0.9c-0.4,0.1-0.8,0.1-1.1-0.1
		c-0.4-0.2-0.6-0.5-0.6-0.9c0-0.2,0.1-0.3,0.3-0.3c0.2,0,0.5-0.1,0.6,0.2C7.4,14.8,7.5,15,7.7,15c0.2,0,0.5,0.1,0.6-0.2
		c0.1-0.2,0.1-0.5,0-0.7C8.2,14.1,8,14,7.9,14c-0.2,0-0.3-0.1-0.3-0.3c0-0.2,0.1-0.3,0.3-0.3c0.3,0,0.5-0.3,0.4-0.6
		c-0.1-0.3-0.3-0.4-0.6-0.3c-0.1,0-0.2,0.2-0.2,0.3C7.4,13,7.2,13.1,6.8,13c-0.3,0-0.3-0.2-0.3-0.4c0,0,0-0.1,0-0.1
		c0.1-0.5,0.5-0.7,1-0.8c0.7-0.1,1.2,0.1,1.3,0.5C9.2,12.7,9.1,13.2,8.7,13.6z"/>
	<path class="st0" d="M15.8,10.3c0-0.7,0.6-1.3,1.3-1.3c0.7,0,1.3,0.6,1.3,1.3c0,0.7-0.6,1.3-1.3,1.3C16.3,11.7,15.7,11.1,15.8,10.3
		z M17.5,10.4c0-0.2-0.2-0.4-0.5-0.4c-0.2,0-0.4,0.2-0.4,0.4c0,0.2,0.2,0.4,0.4,0.4C17.3,10.8,17.5,10.6,17.5,10.4z"/>
</g>
</svg>
