<?xml version="1.0" encoding="utf-8"?>
<!-- Generator: Adobe Illustrator 24.0.2, SVG Export Plug-In . SVG Version: 6.00 Build 0)  -->
<svg version="1.1" id="Capa_1" xmlns="http://www.w3.org/2000/svg" xmlns:xlink="http://www.w3.org/1999/xlink" x="0px" y="0px"
	 viewBox="0 0 22.5 29.2" style="enable-background:new 0 0 22.5 29.2;" xml:space="preserve">
<style type="text/css">
	.st0{fill:#FFFFFF;}
</style>
<g>
	<path class="st0" d="M20.2,15.9c-0.4-0.5-0.9-0.8-1.4-1.1c-1-0.5-2.1-0.8-3.2-1c-0.1,0-0.1,0-0.1,0.1c0,0.4,0,0.8,0,1.3
		c0.1,0.1,0.1,0.1,0.2,0.1c0,0,0,0,0.1,0c0,0,0.1,0,0.1,0c0.8,0.2,1.5,0.4,2.2,0.7c0.3,0.1,0.6,0.3,0.8,0.5c0.4,0.4,0.4,0.8,0,1.2
		c-0.3,0.3-0.7,0.5-1.1,0.7c-0.9,0.3-1.7,0.6-2.6,0.7c-0.6,0.1-1.2,0.2-1.8,0.2c-0.3,0-2.1,0-2.4,0.1c-0.2,0-1.3,0-1.4,0
		c-0.9-0.1-1.8-0.2-2.7-0.4c-0.9-0.2-1.7-0.4-2.5-0.8C4,18,3.7,17.8,3.5,17.6c-0.3-0.3-0.3-0.6,0-1c0.2-0.2,0.4-0.3,0.6-0.5
		c0.8-0.5,1.8-0.7,2.7-0.9c0,0,0,0,0,0c0,0,0.1,0,0.1,0c0,0,0,0,0.1,0c0.1,0,0.1-0.1,0.1-0.1c0-0.2,0-0.5,0-0.7c0-0.1,0-0.2,0-0.3
		c0,0,0,0,0,0c0,0,0-0.1,0-0.1c0,0,0,0,0,0c0,0,0,0,0,0c-0.1,0-0.1,0-0.2,0C5.9,14,5,14.3,4.1,14.7c-0.6,0.3-1.2,0.6-1.6,1
		C2,16.3,1.7,16.9,2,17.6c0.1,0.4,0.4,0.8,0.8,1c0.7,0.6,1.5,0.9,2.3,1.1c1.6,0.5,3.3,0.7,5,0.8c1.6,0.1,3.2,0,4.8-0.2
		c1.3-0.2,2.5-0.5,3.6-1c0.6-0.3,1.1-0.6,1.6-1.1C20.8,17.5,20.8,16.7,20.2,15.9z"/>
	<path class="st0" d="M11.2,9.7c1,0,1.8-0.8,1.8-1.8c0-1-0.8-1.7-1.7-1.7c-1,0-1.8,0.8-1.8,1.7C9.5,8.9,10.3,9.7,11.2,9.7z"/>
	<path class="st0" d="M10.8,21.1c-0.2,0-0.4,0-0.6,0c0,0,0,0,0,0c-0.1,0-0.2,0-0.4,0c-0.3,0-0.3,0-0.3,0.3c0,0.3,0,0.6,0,0.9
		c0,0.4,0.3,0.7,0.7,0.7c0.4,0,0.7-0.3,0.7-0.7c0-0.4,0-0.7,0-1.1C11,21.2,10.9,21.1,10.8,21.1z"/>
	<path class="st0" d="M12.9,21.1c-0.2,0-0.4,0-0.6,0c0,0,0,0,0,0c-0.2,0-0.4,0-0.6,0c-0.1,0-0.1,0-0.1,0.1c0,0.4,0,0.7,0,1.1
		c0,0.4,0.3,0.7,0.6,0.7c0.4,0,0.7-0.3,0.8-0.7c0-0.4,0-0.8,0-1.1C13,21.1,12.9,21.1,12.9,21.1z"/>
	<path class="st0" d="M7.8,16.9c0,0.2,0.1,0.4,0.3,0.5c0.2,0.1,0.4,0,0.6-0.1C8.9,17.2,9,17,9,16.9c0-0.1,0-0.2,0-0.2v-1.1
		c0,0,0,0,0,0c0,0,0,0,0,0v-0.8c0,0,0,0,0,0c0-0.5,0-1.1,0.1-1.6c0-0.1,0-0.2,0.1-0.2c0.1,0,0.1,0,0.2,0c0.1,0,0.1,0.1,0.1,0.2
		c0,0.1,0,0.3,0,0.4l0,0v1.3c-0.1,0.2-0.1,0.6,0,0.7v2.7h0c0,0.2,0,0.3,0,0.5c0,0.1,0,0.1,0,0.2c0,0,0.1,0,0.1,0c0.2,0,0.5,0,0.7,0
		c0.2,0,0.4,0,0.5,0c0.1,0,0.1,0,0.1-0.1c0-0.4,0-0.7,0.1-1.1c0-0.1,0.1-0.2,0.2-0.2c0.1,0,0.2,0.1,0.2,0.2c0.1,0.3,0.1,0.5,0.1,0.8
		c0,0.1,0,0.2,0,0.2c0,0.1,0.1,0.2,0.2,0.1c0,0,0.1,0,0.1-0.1c0.2,0,0.5,0,0.7,0c0.1,0,0.2,0,0.3,0c0.1,0,0.1,0,0.1,0H13v-5
		c0,0,0,0,0,0c0,0,0,0,0,0v-0.5c0-0.1,0-0.2,0.1-0.2c0-0.1,0.1-0.2,0.2-0.2c0.1,0,0.2,0.1,0.2,0.2c0,0.2,0.1,0.4,0.1,0.6
		c0,0.3,0,0.6,0,0.9c0,0,0,0.1,0,0.1v0.2c0,0,0,0,0,0.1c0,0.1,0,0.2,0,0.4c0,0.1,0,0.2,0,0.3v1.2h0c0,0.1,0,0.1,0,0.2
		c0,0,0,0.1,0.1,0.1c0.1,0.2,0.4,0.3,0.6,0.3c0.3,0,0.5-0.2,0.5-0.5c0,0,0,0,0,0c0,0,0,0,0-0.1c0,0,0-0.1,0-0.1h0v-3.4h0
		c0-0.3,0-0.7,0-1c0,0,0-0.1,0-0.1c0,0,0,0,0-0.1c0,0,0,0,0,0c0,0,0,0,0,0c0-0.1,0-0.1,0-0.2c-0.2-0.9-1-1.6-1.9-1.6c-1,0-2,0-3,0
		c-0.5,0-0.9,0.2-1.3,0.4c-0.5,0.4-0.8,0.8-0.8,1.4c0,0,0,0,0,0c0,0.1,0,0.1,0,0.2c0,1.5,0,2.9,0,4.4C7.7,16.8,7.7,16.8,7.8,16.9
		C7.8,16.9,7.8,16.9,7.8,16.9z"/>
</g>
</svg>
