<?xml version="1.0" encoding="utf-8"?>
<!-- Generator: Adobe Illustrator 25.0.0, SVG Export Plug-In . SVG Version: 6.00 Build 0)  -->
<svg version="1.1" id="Capa_1" xmlns="http://www.w3.org/2000/svg" xmlns:xlink="http://www.w3.org/1999/xlink" x="0px" y="0px"
	 viewBox="0 0 135.2 135.2" style="enable-background:new 0 0 135.2 135.2;" xml:space="preserve">
<style type="text/css">
	.st0{fill:#DF6618;}
	.st1{fill:#FFFFFF;}
	.st2{fill:#001A5A;}
</style>
<g>
	<path class="st0" d="M135.2,67.6c0,37.3-30.3,67.6-67.6,67.6C30.3,135.2,0,104.9,0,67.6C0,30.3,30.3,0,67.6,0
		C104.9,0,135.2,30.3,135.2,67.6"/>
	<path class="st1" d="M97.7,91.3c0.2-0.2,0.4-0.5,0.4-0.9L98,58c0-0.1,0-0.1,0-0.2c0,0,0,0,0-0.1c0,0,0-0.1,0-0.1c0,0,0,0,0-0.1
		c0-0.1-0.1-0.1-0.1-0.2l0,0c0,0,0,0,0,0l-12-18c0,0,0,0,0,0c0-0.1-0.1-0.1-0.1-0.2c0,0,0,0,0,0c0,0-0.1-0.1-0.2-0.1c0,0,0,0,0,0
		c-0.1,0-0.1-0.1-0.2-0.1c0,0,0,0,0,0c-0.1,0-0.1,0-0.2-0.1c0,0,0,0,0,0c-0.1,0-0.1,0-0.2,0c0,0,0,0,0,0h0H43
		c-0.5,0-0.9,0.3-1.1,0.7l-8.1,18c0,0,0,0,0,0c0,0,0,0,0,0c0,0.1,0,0.1-0.1,0.2c0,0,0,0,0,0c0,0.1,0,0.1,0,0.2c0,0,0,0,0,0v32.4
		c0,0.7,0.5,1.2,1.2,1.2h61.9C97.1,91.7,97.4,91.5,97.7,91.3 M75.5,89.2H36.1v-30h39.4V89.2z M75.9,56.8H36.7l4.5-10c0,0,0,0,0,0
		h9.9c0.7,0,1.2-0.5,1.2-1.2c0-0.7-0.5-1.2-1.2-1.2h-8.8l1.4-3.2h39.2l-4.5,10H66.9c-0.7,0-1.2,0.5-1.2,1.2c0,0.7,0.5,1.2,1.2,1.2
		h10.5L75.9,56.8z M77.9,89.2V58.3L85,42.5l9.5,14.3h-6c-0.7,0-1.2,0.5-1.2,1.2s0.5,1.2,1.2,1.2h7.1l0,30H77.9z"/>
	<path class="st1" d="M84.2,56.8h-3.1c-0.7,0-1.2,0.5-1.2,1.2s0.5,1.2,1.2,1.2h3.1c0.7,0,1.2-0.5,1.2-1.2S84.9,56.8,84.2,56.8"/>
	<path class="st1" d="M67.3,64.6h2.8v2.8c0,0.7,0.5,1.2,1.2,1.2c0.7,0,1.2-0.5,1.2-1.2v-4c0-0.7-0.5-1.2-1.2-1.2h-4
		c-0.7,0-1.2,0.5-1.2,1.2C66.1,64,66.7,64.6,67.3,64.6"/>
	<path class="st1" d="M54,64.6h2.8v2.8c0,0.7,0.5,1.2,1.2,1.2c0.7,0,1.2-0.5,1.2-1.2v-4c0-0.7-0.5-1.2-1.2-1.2h-4
		c-0.7,0-1.2,0.5-1.2,1.2C52.8,64,53.3,64.6,54,64.6"/>
	<path class="st1" d="M40.6,64.6h2.8v2.8c0,0.7,0.5,1.2,1.2,1.2c0.7,0,1.2-0.5,1.2-1.2v-4c0-0.7-0.5-1.2-1.2-1.2h-4
		c-0.7,0-1.2,0.5-1.2,1.2C39.4,64,39.9,64.6,40.6,64.6"/>
	<path class="st1" d="M67.3,73.4h2.8v2.8c0,0.7,0.5,1.2,1.2,1.2c0.7,0,1.2-0.5,1.2-1.2v-4c0-0.7-0.5-1.2-1.2-1.2h-4
		c-0.7,0-1.2,0.5-1.2,1.2C66.1,72.9,66.7,73.4,67.3,73.4"/>
	<path class="st1" d="M54,73.4h2.8v2.8c0,0.7,0.5,1.2,1.2,1.2c0.7,0,1.2-0.5,1.2-1.2v-4c0-0.7-0.5-1.2-1.2-1.2h-4
		c-0.7,0-1.2,0.5-1.2,1.2C52.8,72.9,53.3,73.4,54,73.4"/>
	<path class="st1" d="M40.6,73.4h2.8v2.8c0,0.7,0.5,1.2,1.2,1.2c0.7,0,1.2-0.5,1.2-1.2v-4c0-0.7-0.5-1.2-1.2-1.2h-4
		c-0.7,0-1.2,0.5-1.2,1.2C39.4,72.9,39.9,73.4,40.6,73.4"/>
	<path class="st1" d="M67.3,82.3h2.8v2.8c0,0.7,0.5,1.2,1.2,1.2c0.7,0,1.2-0.5,1.2-1.2v-4c0-0.7-0.5-1.2-1.2-1.2h-4
		c-0.7,0-1.2,0.5-1.2,1.2C66.1,81.8,66.7,82.3,67.3,82.3"/>
	<path class="st1" d="M54,82.3h2.8v2.8c0,0.7,0.5,1.2,1.2,1.2c0.7,0,1.2-0.5,1.2-1.2v-4c0-0.7-0.5-1.2-1.2-1.2h-4
		c-0.7,0-1.2,0.5-1.2,1.2C52.8,81.8,53.3,82.3,54,82.3"/>
	<path class="st1" d="M40.6,82.3h2.8v2.8c0,0.7,0.5,1.2,1.2,1.2c0.7,0,1.2-0.5,1.2-1.2v-4c0-0.7-0.5-1.2-1.2-1.2h-4
		c-0.7,0-1.2,0.5-1.2,1.2C39.4,81.8,39.9,82.3,40.6,82.3"/>
	<path class="st1" d="M62.7,51.2h-2.9c-0.7,0-1.2,0.5-1.2,1.2c0,0.7,0.5,1.2,1.2,1.2h2.9c0.7,0,1.2-0.5,1.2-1.2
		C63.9,51.8,63.4,51.2,62.7,51.2"/>
	<path class="st1" d="M61,45.6c0-0.7-0.5-1.2-1.2-1.2H56c-0.7,0-1.2,0.5-1.2,1.2c0,0.7,0.5,1.2,1.2,1.2h3.8
		C60.5,46.8,61,46.3,61,45.6"/>
</g>
</svg>
