<svg id="Capa_1" data-name="Capa 1" xmlns="http://www.w3.org/2000/svg" viewBox="0 0 19.89 24.37"><defs><style>.cls-1{fill:#fff;}</style></defs><title>ICONOS DE BANNER PIE</title><circle class="cls-1" cx="9.65" cy="5.2" r="5.2"/><path class="cls-1" d="M9.65,12.18h0A9.65,9.65,0,0,0,0,21.83H0a2.53,2.53,0,0,0,2.53,2.53H16.77a2.53,2.53,0,0,0,2.53-2.53h0A9.65,9.65,0,0,0,9.65,12.18Z"/><path class="cls-1" d="M18.82,4.5a19.9,19.9,0,0,1,.82,2.13A7,7,0,0,1,18.92,12a1.8,1.8,0,0,1-2.35.71c-.36-.23-.51-.49-.28-.9a4.91,4.91,0,0,0,.43-.86.86.86,0,0,1,1-.67c.38.06.53-.15.62-.49a5.31,5.31,0,0,0,0-2.86.61.61,0,0,0-.72-.52c-.89,0-.89,0-1.13-.87l-.13-.46c-.2-.73.15-1.24.92-1.15a7,7,0,0,1,1.52.53"/></svg>