<?xml version="1.0" encoding="utf-8"?>
<!-- Generator: Adobe Illustrator 21.1.0, SVG Export Plug-In . SVG Version: 6.00 Build 0)  -->
<svg version="1.1" id="Layer_1" xmlns="http://www.w3.org/2000/svg" xmlns:xlink="http://www.w3.org/1999/xlink" x="0px" y="0px"
	 viewBox="0 0 833.6 160.5" style="enable-background:new 0 0 833.6 160.5;" xml:space="preserve">
<style type="text/css">
	.st0{fill-rule:evenodd;clip-rule:evenodd;fill:#EC1C24;}
</style>
<g>
	<path class="st0" d="M37.8,79.8c-4.7-7.4-5.7-17.3-5.7-24.9c0-25.8,23-47.6,47-47.6h75.2l-29.2,29.4H78.6
		C59.9,36.8,37.3,55.8,37.8,79.8L37.8,79.8z M66.5,58.7c1.9-6.2,8-14.1,13.7-18.3c-10.9,0-23.1,5.2-32.5,18.3H66.5L66.5,58.7z
		 M81.5,44c-4.3,3.8-8.9,9.5-11.3,14.6h22.6C90.4,53.5,85.7,47.8,81.5,44L81.5,44z M45.8,62.5c-2.8,5-4.2,10.7-4.7,16.4h21.1
		c0-5.7,1-11.4,2.9-16.4H45.8L45.8,62.5z M68.8,62.5c-1.9,5-2.7,10.7-3.3,16.4h31.9c-0.5-5.7-1.4-11.4-3.3-16.4H68.8L68.8,62.5z
		 M114.9,58.7c-9-13.1-21.2-18.3-31.9-18.3c5.5,4.2,11.2,12.1,13.6,18.3H114.9L114.9,58.7z M98,62.5c1.9,5,2.8,10.7,2.8,16.4h21.1
		c-0.4-5.7-1.8-11.4-4.7-16.4H98L98,62.5z M47.7,101.9c9.4,13.7,21.6,18.4,32.5,18.4c-5.7-4.3-11.8-12.3-13.7-18.4H47.7L47.7,101.9z
		 M81.5,117c4.2-3.8,8.9-9.9,11.2-15H70.2C72.6,107.1,77.3,113.2,81.5,117L81.5,117z M65.1,98.7c-1.9-5.7-2.9-11.3-2.9-16.4H41.1
		c0.5,5.5,1.9,11.2,4.7,16.4H65.1L65.1,98.7z M94.2,98.7c1.9-5.2,2.7-10.9,3.3-16.4H65.5c0.5,5.5,1.4,11.2,3.3,16.4H94.2L94.2,98.7z
		 M96.6,101.9c-2.4,6.1-8.1,14-13.6,18.4c10.7,0,23-4.7,31.9-18.4H96.6L96.6,101.9z M117.2,98.7c2.9-5.2,4.3-10.9,4.7-16.4h-21.1
		c0,5.1-0.9,10.7-2.8,16.4H117.2L117.2,98.7z M125.2,80.3c0.5,24.9-22,43.7-40.8,43.7H37.8L8.6,153.1h75.2c24,0,47-21.6,47-47.4
		c0-7.6-0.9-17.4-5.7-24.9V80.3L125.2,80.3z"/>
	<path class="st0" d="M345,120.2c-19.5,0-33.5-11.7-33.5-30.1c0-18.1,14.5-30.2,33.5-30.2c19,0,33.5,12,33.5,30.2
		C378.6,108.4,364.5,120.2,345,120.2L345,120.2z M679.2,61.3V119h-19.5l-0.3-5.8H659c-2.2,1.9-6.7,7.1-19.2,7.1
		c-13.9,0-26.2-12.1-26.2-30.2c0-16.8,10.8-30.1,27.4-30.1c11.3,0,15.9,5,17.6,6.6h0.5l0.2-5.2H679.2L679.2,61.3z M528.7,61.3V119
		h-19.5l-0.3-5.8h-0.4c-2.2,1.9-6.7,7.1-19.2,7.1c-13.9,0-26.2-12.1-26.2-30.2c0-16.8,10.8-30.1,27.4-30.1c11.3,0,15.9,5,17.6,6.6
		h0.5l0.2-5.2H528.7L528.7,61.3z M434,61.3h20.1v57.7H434V61.3L434,61.3z M541.7,118.9V37.6h20v27.9h0.2c1.4-0.9,7.9-5.5,17.4-5.5
		c15.6,0,27.1,12.5,27.1,29.1c0,20.7-12.7,31.2-27.2,31.2c-11,0-16.5-5.1-17.9-6.6H561l-0.3,5.3H541.7L541.7,118.9z M345,105.7
		c8.2,0,12.9-7.1,12.9-15.7c0-8.6-4.6-15.8-12.9-15.8c-8.8,0-13,7.1-13,15.8C332.1,98.6,336.9,105.7,345,105.7L345,105.7z
		 M424.3,103.3c-1,0.3-3.7,1-5.6,1c-4.1,0-8.5-1.9-8.5-9V75.8h12.6V61.3h-12.6V42.7h-20.1v18.6h-8.8v14.5h8.8v22.8
		c0,12.5,5.8,21.6,20.7,21.6c4.3,0,8.3-0.6,11-1.1L424.3,103.3L424.3,103.3z M196,116.9c5.6,1.7,14.1,3.3,23.2,3.3
		c17.1,0,34.2-6.1,34.2-24.9c0-25.8-35.6-22.2-35.6-32.5c0-5.3,5.5-6.4,10.8-6.4c7.4,0,16.8,3.6,18.9,4.4l1.6-17.8
		c-5.2-1.8-13.1-2.8-20.5-2.8c-16.9,0-33.6,6.6-33.6,23.4c0,25.4,35.5,20.1,35.5,33.4c0,5.1-5.1,7.1-11.6,7.1c-9,0-17.4-4.5-21-6.1
		L196,116.9L196,116.9z M634.8,89.5c0,9.5,5.3,15.5,12.2,15.5c6.2,0,12.3-5.8,12.3-14.7c0-8.9-5.4-15.1-12.3-15.1
		C639.9,75.3,634.8,81.7,634.8,89.5L634.8,89.5z M484.4,89.6c0,9.5,5.3,15.5,12.2,15.5c6.2,0,12.3-5.8,12.3-14.7
		c0-8.9-5.4-15.1-12.3-15.1C489.4,75.3,484.4,81.7,484.4,89.6L484.4,89.6z M306.4,62.2c-1.5-0.4-7-2.3-14.3-2.3
		c-18.1,0-31.6,11.3-31.6,30.2c0,17.1,12.2,30.2,30.8,30.2c7.9,0,13.8-2.1,15.1-2.5l-1-16.8c-1.5,0.7-5.6,3-10.2,3
		c-8.1,0-14-5.7-14-13.8c0-8.5,6.3-13.9,14.2-13.9c4.5,0,8.4,2.1,9.9,2.8L306.4,62.2L306.4,62.2z M764.7,119h20V92.3h0.2l17.8,26.7
		H825l-21.5-30.6l20.9-27h-22.3l-17.3,23.8h-0.2V37.7h-20V119L764.7,119z M692.2,119h19.5V89.2c0-7,4.6-11.8,10.6-11.8
		c6.8,0,10.6,4.4,10.6,11.8V119h19.5V84.3c0-13.1-8.4-24.3-23.9-24.3c-10.3,0-15.7,5.6-18.1,7.8H710l-0.2-6.4h-17.6V119L692.2,119z
		 M444.1,32.1c-6.2,0-11.3,5.1-11.3,11.3c0,6.2,5.1,11.3,11.3,11.3c6.2,0,11.3-5.1,11.3-11.3C455.3,37.2,450.2,32.1,444.1,32.1
		L444.1,32.1z M585.6,90.1c0-7.7-4.4-14.6-12.1-14.6c-6.8,0-12.2,5.8-12.2,14.6c0,8.5,4.5,14.6,12.2,14.6
		C580.5,104.7,585.6,98.9,585.6,90.1L585.6,90.1z"/>
</g>
</svg>
