<?xml version="1.0" encoding="utf-8"?>
<!-- Generator: Adobe Illustrator 22.1.0, SVG Export Plug-In . SVG Version: 6.00 Build 0)  -->
<svg version="1.1" id="Layer_1" xmlns="http://www.w3.org/2000/svg" xmlns:xlink="http://www.w3.org/1999/xlink" x="0px" y="0px"
	 viewBox="0 0 450 81" style="enable-background:new 0 0 450 81;" xml:space="preserve">
<style type="text/css">
	.st0{fill:#31006F;}
	.st1{fill:url(#SVGID_1_);}
	.st2{fill:#FFFFFF;}
	.st3{enable-background:new    ;}
	.st4{fill:#A85A2A;}
	.st5{clip-path:url(#SVGID_3_);enable-background:new    ;}
	.st6{fill:#924925;}
	.st7{fill:#944A25;}
	.st8{fill:#964C26;}
	.st9{fill:#984D26;}
	.st10{fill:#9A4F27;}
	.st11{fill:#9C5027;}
	.st12{fill:#9E5228;}
	.st13{fill:#9F5328;}
	.st14{fill:#A15529;}
	.st15{clip-path:url(#SVGID_5_);enable-background:new    ;}
	.st16{clip-path:url(#SVGID_7_);enable-background:new    ;}
	.st17{fill:#914825;}
	.st18{fill:#B6672E;}
	.st19{fill:#E69423;}
	.st20{clip-path:url(#SVGID_9_);fill:none;stroke:#000000;stroke-width:3.5924;stroke-miterlimit:10;}
	.st21{clip-path:url(#SVGID_11_);fill:none;stroke:#000000;stroke-width:3.5924;stroke-miterlimit:10;}
	.st22{fill:#BF6E30;}
</style>
<g>
	<g>
		<g>
			<path class="st0" d="M5.2,14.7c0-3.1,2.5-5.6,5.4-5.6s5.4,2.6,5.4,5.6s-2.5,5.6-5.4,5.6S5.2,17.8,5.2,14.7z M7,14.7
				c0,2,1.6,3.7,3.5,3.7s3.5-1.7,3.5-3.7S12.5,11,10.5,11C8.6,11,7,12.6,7,14.7z"/>
			<path class="st0" d="M25.2,18.9c0.1,0.2,0.1,0.3,0.1,0.5c0,0.3-0.2,0.6-0.4,0.7c-0.1,0.1-0.3,0.1-0.5,0.1c-0.3,0-0.6-0.2-0.9-0.4
				l-1.9-3.3H20v2.8c0,0.5-0.4,1-1,1c-0.5,0-1-0.4-1-1V10c0-0.5,0.4-1,1-1h2.6c0.1,0,1,0,1.8,0.4c1.3,0.6,1.9,1.8,1.9,3.3
				c0,0.1,0,1-0.4,1.8c-0.3,0.6-0.9,1.2-1.4,1.5L25.2,18.9z M19.9,14.7h1.6c0.9,0,1.3-0.3,1.6-0.9c0.2-0.4,0.3-1,0.3-1.1
				c0-0.7-0.3-1.3-1-1.6c-0.5-0.2-1-0.2-1-0.2h-1.6v3.8H19.9z"/>
			<path class="st0" d="M29,18.7c-1.1-1.1-1.7-2.5-1.7-4s0.5-2.9,1.7-4c1.1-1.1,2.5-1.6,4.1-1.6c1.5,0,3,0.5,4.1,1.6
				c0.2,0.2,0.2,0.4,0.2,0.6c0,0.2-0.1,0.4-0.3,0.6c-0.2,0.2-0.4,0.2-0.6,0.2c-0.2,0-0.5-0.1-0.6-0.3c-0.7-0.7-1.7-1.1-2.7-1.1
				c-1.1,0-1.9,0.4-2.7,1.1c-0.7,0.7-1.2,1.6-1.2,2.7c0,1,0.4,1.9,1.2,2.7c0.7,0.7,1.7,1.1,2.7,1.1c0.9,0,1.7-0.3,2.5-0.9v-1.9h-2.5
				c-0.5,0-1-0.4-1-1s0.4-1,1-1h3.3c0.5,0,1,0.4,1,1v3.3c0,0.2-0.1,0.5-0.3,0.6c-1.1,1.1-2.6,1.6-4.1,1.6
				C31.6,20.3,30.1,19.7,29,18.7z"/>
			<path class="st0" d="M48.7,19c0,0.1,0.1,0.2,0.1,0.3c0,0.4-0.4,1-1,1c-0.4,0-0.7-0.2-0.9-0.6l-0.7-1.8h-4.4l-0.7,1.8
				c-0.1,0.3-0.5,0.6-0.9,0.6c-0.5,0-1-0.4-1-1c0-0.1,0-0.2,0.1-0.3L43,9.7C43.1,9.2,43.5,9,43.9,9s0.7,0.2,0.9,0.6L48.7,19z
				 M45.4,16.1l-1.5-3.6L42.5,16h3L45.4,16.1L45.4,16.1z"/>
			<path class="st0" d="M57.4,19.9L52.5,13v6.4c0,0.5-0.4,1-1,1s-1-0.4-1-1V10c0-0.4,0.4-1,1-1c0.3,0,0.5,0.1,0.7,0.4l4.9,6.9V10
				c0-0.5,0.4-1,1-1s1,0.4,1,1v9.4c0,0.5-0.4,1-1,1C57.9,20.3,57.6,20.2,57.4,19.9z"/>
			<path class="st0" d="M61.1,19.3V10c0-0.5,0.4-1,1-1c0.5,0,1,0.4,1,1v9.4c0,0.5-0.4,1-1,1C61.6,20.3,61.1,19.9,61.1,19.3z"/>
			<path class="st0" d="M66,20.3c-0.5,0-1-0.4-1-1c0-0.1,0-0.3,0.1-0.4l4.8-7.9h-4.1c-0.5,0-1-0.4-1-1s0.4-1,1-1h5.7
				c0.5,0,1,0.4,1,1c0,0.2,0,0.3-0.1,0.4l-4.8,7.9h4.1c0.5,0,1,0.4,1,1c0,0.5-0.4,1-1,1H66z"/>
			<path class="st0" d="M83.9,19c0,0.1,0.1,0.2,0.1,0.3c0,0.4-0.4,1-1,1c-0.4,0-0.7-0.2-0.9-0.6L81.4,18H77l-0.7,1.8
				c-0.1,0.3-0.5,0.6-0.9,0.6c-0.5,0-1-0.4-1-1c0-0.1,0-0.2,0.1-0.3l3.7-9.3c0.2-0.5,0.5-0.7,1-0.7s0.7,0.2,0.9,0.6L83.9,19z
				 M80.7,16.1l-1.4-3.5l-1.5,3.5H80.7z"/>
			<path class="st0" d="M85.9,14.7c0-0.5,0.4-1,1-1s1,0.4,1,1s-0.4,1-1,1C86.3,15.6,85.9,15.2,85.9,14.7z M85.9,19.3
				c0-0.5,0.4-1,1-1s1,0.4,1,1c0,0.5-0.4,1-1,1S85.9,19.9,85.9,19.3z"/>
		</g>
		<g>
			<g>
				
					<linearGradient id="SVGID_1_" gradientUnits="userSpaceOnUse" x1="10.2209" y1="3072.4766" x2="38.4977" y2="3100.7534" gradientTransform="matrix(1 0 0 1 0 -3036.0002)">
					<stop  offset="0" style="stop-color:#323D88"/>
					<stop  offset="1" style="stop-color:#2D2B65"/>
				</linearGradient>
				<circle class="st1" cx="25.8" cy="52.1" r="24.2"/>
				<g>
					
						<image style="overflow:visible;opacity:0.35;enable-background:new    ;" width="50" height="50" xlink:href="F3E43FAF.png"  transform="matrix(1.0465 0 0 1.0465 0.6556 26.9484)">
					</image>
					<g>
						<circle class="st2" cx="25.8" cy="52.1" r="21.7"/>
					</g>
				</g>
				<g>
					<g>
						<g class="st3">
							<g>
								<polygon class="st4" points="23.6,44.9 22.9,48.6 21,48.9 21.6,45.3 								"/>
							</g>
							<g class="st3">
								<g>
									<g>
										<defs>
											<path id="SVGID_2_" d="M32.4,52.1l-0.6,3.6c0.1-0.7-0.2-1.8-0.9-3.2c-0.9-1.9-1.9-3.1-3.1-3.6S25,48.3,23,48.7l0.6-3.6
												c2-0.4,3.6-0.3,4.8,0.2s2.2,1.7,3.1,3.6C32.2,50.3,32.5,51.4,32.4,52.1z"/>
										</defs>
										<clipPath id="SVGID_3_">
											<use xlink:href="#SVGID_2_"  style="overflow:visible;"/>
										</clipPath>
										<g class="st5">
											<path class="st6" d="M32.4,52.1l-0.6,3.6c0.1-0.7-0.2-1.8-0.9-3.2c-0.5-1.2-1.2-2.1-1.9-2.8l0.6-3.6
												c0.6,0.6,1.3,1.6,1.9,2.8C32.2,50.3,32.5,51.4,32.4,52.1"/>
											<path class="st7" d="M29.6,46l-0.7,3.6c-0.2-0.2-0.3-0.3-0.5-0.4l0.6-3.6C29.3,45.7,29.4,45.9,29.6,46"/>
											<path class="st8" d="M29.1,45.6l-0.6,3.6c-0.1-0.1-0.2-0.2-0.4-0.2l0.6-3.6C28.8,45.4,29,45.5,29.1,45.6"/>
											<path class="st9" d="M28.7,45.4L28,49c-0.1-0.1-0.2-0.1-0.3-0.1l0,0l0.6-3.6l0,0C28.5,45.3,28.6,45.3,28.7,45.4"/>
											<path class="st10" d="M28.4,45.2l-0.6,3.6c-0.1-0.1-0.3-0.1-0.4-0.1l0.6-3.6C28.2,45.1,28.3,45.2,28.4,45.2"/>
											<path class="st11" d="M27.9,45.1l-0.6,3.6c-0.1,0-0.3-0.1-0.5-0.1l0.6-3.6C27.6,44.9,27.8,44.9,27.9,45.1"/>
											<path class="st12" d="M27.5,44.8l-0.7,3.7c-0.2,0-0.4-0.1-0.7-0.1l0.6-3.6C27,44.8,27.3,44.8,27.5,44.8"/>
											<path class="st13" d="M26.8,44.7l-0.6,3.6c-0.4-0.1-1-0.1-1.5,0l0.6-3.6C25.8,44.7,26.3,44.7,26.8,44.7"/>
											<path class="st14" d="M25.3,44.7l-0.6,3.6c-0.5,0-1.1,0.1-1.7,0.2l0.6-3.6C24.2,44.8,24.7,44.7,25.3,44.7"/>
										</g>
									</g>
								</g>
							</g>
							<g class="st3">
								<g>
									<g>
										<defs>
											<path id="SVGID_4_" d="M32.4,52.3l-0.6,3.6c0-0.1,0-0.1,0-0.2l0.6-3.6C32.4,52.1,32.4,52.2,32.4,52.3z"/>
										</defs>
										<clipPath id="SVGID_5_">
											<use xlink:href="#SVGID_4_"  style="overflow:visible;"/>
										</clipPath>
										<g class="st15">
											<path class="st6" d="M32.4,52.3l-0.6,3.6c0-0.1,0-0.1,0-0.2l0.6-3.6C32.4,52.1,32.4,52.2,32.4,52.3"/>
										</g>
									</g>
								</g>
							</g>
							<g class="st3">
								<g>
									<g>
										<defs>
											<path id="SVGID_6_" d="M40.3,52.4L39.7,56c-0.2,1-0.6,1.8-1.2,2.6c-0.7,1-1.7,1.6-2.9,2c-1.6,0.6-3,1.1-4.4,1.4l0.6-3.6
												c1.4-0.2,2.9-0.7,4.4-1.4c1.2-0.4,2.1-1.2,2.9-2C39.8,54.2,40.2,53.4,40.3,52.4z"/>
										</defs>
										<clipPath id="SVGID_7_">
											<use xlink:href="#SVGID_6_"  style="overflow:visible;"/>
										</clipPath>
										<g class="st16">
											<path class="st7" d="M40.3,52.4L39.7,56c0,0.1,0,0.1,0,0.2l0.6-3.6C40.3,52.6,40.3,52.5,40.3,52.4"/>
											<path class="st8" d="M40.3,52.6l-0.6,3.6c-0.1,0.3-0.2,0.6-0.3,1l0.6-3.6C40.1,53.3,40.2,53,40.3,52.6"/>
											<path class="st9" d="M40,53.6l-0.6,3.6c-0.1,0.3-0.2,0.5-0.4,0.9l0.6-3.6C39.8,54.1,39.9,53.9,40,53.6"/>
											<path class="st10" d="M39.6,54.5L39,58.1c-0.1,0.2-0.3,0.4-0.4,0.6l-0.1,0.1l0.6-3.6l0.1-0.1
												C39.4,54.9,39.5,54.7,39.6,54.5"/>
											<path class="st11" d="M39,55.2l-0.6,3.6c-0.2,0.2-0.4,0.5-0.7,0.7l0.6-3.6C38.5,55.7,38.8,55.5,39,55.2"/>
											<path class="st12" d="M38.3,55.9l-0.6,3.6c-0.3,0.2-0.6,0.4-1,0.6l0.6-3.6C37.7,56.4,38,56.2,38.3,55.9"/>
											<path class="st13" d="M37.3,56.6l-0.6,3.6c-0.3,0.2-0.6,0.4-1.1,0.5c-0.5,0.2-1.1,0.4-1.6,0.6l0.6-3.6
												c0.5-0.2,1.1-0.4,1.6-0.6C36.7,57,37,56.8,37.3,56.6"/>
											<path class="st14" d="M34.7,57.8l-0.6,3.6c-1,0.3-1.9,0.5-2.8,0.7l0.6-3.6C32.8,58.3,33.7,58.1,34.7,57.8"/>
										</g>
									</g>
								</g>
							</g>
							<g>
								<polygon class="st17" points="20.4,60.6 19.7,64.3 11.3,46.3 11.9,42.7 								"/>
							</g>
							<g>
								<polygon class="st4" points="31.9,58.5 31.2,62.1 19.7,64.3 20.4,60.6 								"/>
							</g>
							<g>
								<path class="st18" d="M37,44c1,1.1,1.7,2.1,2.2,3.3c0.9,1.9,1.3,3.4,1.2,4.6c-0.1,1.2-0.5,2.2-1.3,3.1c-0.7,1-1.7,1.6-2.9,2
									c-1.6,0.6-3,1.1-4.4,1.4l-11.5,2.1l-8.4-17.8l11.5-2.1c2.2-0.4,4.2-0.5,5.9-0.3c1.6,0.2,3.1,0.6,4.4,1.3
									C35,42.1,36.2,42.9,37,44z M32.4,52.1c0.1-0.7-0.2-1.8-0.9-3.2c-0.9-1.9-1.9-3.1-3.1-3.6s-2.8-0.6-4.8-0.2l-1.9,0.3l4.6,9.8
									l1.9-0.3c1.6-0.3,2.7-0.6,3.3-1.1C32,53.4,32.3,52.9,32.4,52.1"/>
							</g>
						</g>
					</g>
				</g>
			</g>
		</g>
	</g>
	<g>
		<g>
			<path class="st19" d="M276.6,56.7c0,2.4,0.8,4.6,2.5,6.4c0.2,0.2,0.6,0.5,1,0.5c0.3,0,0.7-0.1,1-0.3c0.2-0.2,0.5-0.7,0.5-1
				s-0.1-0.7-0.3-0.9c-1.2-1.3-1.7-2.8-1.7-4.5c0-1.6,0.7-3.2,1.8-4.4c0.6-0.6,0.6-1.5,0-2c-0.2-0.2-0.6-0.3-1-0.3
				c-0.3,0-0.7,0.1-1,0.5C277.5,52.1,276.6,54.2,276.6,56.7z"/>
			<path class="st19" d="M275.3,47.3c-2.4,2.5-3.8,5.8-3.8,9.3s1.3,6.8,3.7,9.3c0.2,0.2,0.6,0.5,1,0.5c0.3,0,0.7-0.1,1-0.3
				c0.2-0.2,0.5-0.7,0.5-1s-0.1-0.7-0.3-0.9c-1.8-2.1-2.9-4.6-2.9-7.5c0-2.8,1-5.4,3-7.4c0.6-0.6,0.6-1.5,0-2
				c-0.2-0.2-0.6-0.3-1-0.3C276,46.9,275.7,47,275.3,47.3z"/>
			<path class="st19" d="M270.1,45.7c-2.9,3-4.4,6.8-4.5,10.9c0,4.1,1.5,8.1,4.3,11.1c0.3,0.3,0.7,0.5,1.2,0.6
				c0.5,0,0.9-0.1,1.2-0.5c0.3-0.3,0.6-0.7,0.6-1.2s-0.1-0.8-0.5-1.2c-2.2-2.4-3.5-5.5-3.3-8.7c0-3.2,1.3-6.3,3.6-8.6
				c0.6-0.7,0.6-1.7,0-2.3c-0.3-0.3-0.7-0.5-1.2-0.5C270.9,45.1,270.5,45.4,270.1,45.7z"/>
			<path class="st19" d="M281.8,56.4c0,1.5,1.3,2.8,2.8,2.8s2.8-1.3,2.8-2.8s-1.3-2.8-2.8-2.8C283,53.8,281.8,54.9,281.8,56.4z
				 M285.1,56.4C285.2,56.4,285.2,56.5,285.1,56.4C285.1,56.5,285.1,56.5,285.1,56.4C285.1,56.5,285.1,56.4,285.1,56.4z"/>
		</g>
		<g>
			<path class="st19" d="M438.7,56.8c0-2.4-0.8-4.6-2.5-6.4c-0.2-0.2-0.6-0.5-1-0.5c-0.3,0-0.7,0.1-1,0.3c-0.2,0.2-0.5,0.7-0.5,1
				s0.1,0.7,0.3,0.9c1.2,1.3,1.7,2.8,1.7,4.5c0,1.6-0.7,3.2-1.8,4.4c-0.6,0.6-0.6,1.5,0,2c0.2,0.2,0.6,0.3,1,0.3
				c0.3,0,0.7-0.1,1-0.5C437.8,61.4,438.7,59.1,438.7,56.8z"/>
			<path class="st19" d="M440,66.1c2.4-2.5,3.8-5.8,3.8-9.3s-1.3-6.8-3.7-9.3c-0.2-0.2-0.6-0.5-1-0.5c-0.3,0-0.7,0.1-1,0.3
				c-0.2,0.2-0.5,0.7-0.5,1s0.1,0.7,0.3,0.9c1.8,2.1,2.9,4.6,2.9,7.5c0,2.8-1,5.4-3,7.4c-0.6,0.6-0.6,1.5,0,2c0.2,0.2,0.6,0.3,1,0.3
				C439.4,66.6,439.7,66.3,440,66.1z"/>
			<path class="st19" d="M445.1,67.7c2.9-3,4.4-6.8,4.5-10.9c0-4.1-1.5-8.1-4.3-11.1c-0.3-0.3-0.7-0.5-1.2-0.6
				c-0.5,0-0.9,0.1-1.2,0.5c-0.3,0.3-0.6,0.7-0.6,1.2s0.1,0.8,0.5,1.2c2.2,2.4,3.5,5.5,3.3,8.7c0,3.2-1.3,6.3-3.6,8.6
				c-0.6,0.7-0.6,1.7,0,2.3c0.3,0.3,0.7,0.5,1.2,0.5C444.4,68.2,444.8,68.1,445.1,67.7z"/>
			<path class="st19" d="M433.5,56.9c0-1.5-1.3-2.8-2.8-2.8s-2.8,1.3-2.8,2.8s1.3,2.8,2.8,2.8C432.4,59.6,433.5,58.5,433.5,56.9z
				 M430.2,56.9L430.2,56.9L430.2,56.9L430.2,56.9z"/>
		</g>
		<g>
			<path d="M296.2,56.5c-0.6,0-1.2-0.1-1.7-0.2c-0.5-0.2-0.9-0.5-1.3-0.8c-0.4-0.3-0.7-0.7-0.9-1.3c-0.2-0.5-0.3-1-0.3-1.6
				c0-0.7,0.1-1.3,0.3-2c0.2-0.6,0.6-1.2,1.2-1.7c0.5-0.5,1-0.9,1.7-1.3s1.5-0.5,2.3-0.5c0.9,0,1.6,0.2,2.3,0.6
				c0.6,0.3,1,0.9,1.3,1.6l-2.1,1.2c-0.2-0.3-0.5-0.7-0.7-0.8c-0.2-0.2-0.7-0.3-1-0.3s-0.7,0.1-1,0.2s-0.6,0.3-0.8,0.7
				c-0.2,0.2-0.5,0.6-0.6,0.9c-0.1,0.3-0.2,0.7-0.2,1.2c0,0.6,0.1,1,0.5,1.4c0.3,0.3,0.8,0.5,1.3,0.5c0.3,0,0.7-0.1,1-0.2
				c0.3-0.1,0.6-0.3,0.9-0.7l1.6,1.5c-0.5,0.5-0.9,0.9-1.5,1.2C297.7,56.4,297,56.5,296.2,56.5z"/>
			<path d="M303.3,47.6h7l-0.6,2.1h-4.6l-0.3,1.4h4.3l-0.5,2h-4.3l-0.3,1.4h4.7l-0.6,2.1H301L303.3,47.6z"/>
			<path d="M312.4,47.6h2.3l2.3,5l1.3-5h2.4l-2.4,8.9h-2.2l-2.4-5.1l-1.4,5.1h-2.4L312.4,47.6z"/>
			<path d="M324.2,49.7h-2.6l0.6-2.2h7.7l-0.6,2.2h-2.5l-1.8,6.7h-2.4L324.2,49.7z"/>
			<path d="M331.6,47.6h3.3c0.7,0,1.4,0.1,1.8,0.2c0.5,0.1,0.9,0.3,1.2,0.7c0.2,0.2,0.5,0.5,0.5,0.8c0.1,0.3,0.1,0.7,0.1,1
				c0,0.7-0.2,1.4-0.7,2s-1,0.9-2,1.2l1.4,3h-2.6l-1.2-2.6h-1l-0.7,2.6h-2.4L331.6,47.6z M334.3,51.8c0.6,0,1-0.1,1.3-0.3
				s0.5-0.6,0.5-0.9c0-0.2-0.1-0.5-0.2-0.6c-0.2-0.2-0.6-0.3-1-0.3h-1.3l-0.6,2.1H334.3L334.3,51.8L334.3,51.8z"/>
			<path d="M343.9,56.5c-0.6,0-1.2-0.1-1.7-0.3c-0.6-0.2-0.9-0.5-1.4-0.8c-0.3-0.3-0.7-0.8-0.8-1.3c-0.2-0.5-0.3-1-0.3-1.6
				c0-0.7,0.1-1.3,0.3-2c0.2-0.6,0.6-1.2,1-1.6c0.4-0.4,1-0.8,1.6-1.2c0.7-0.3,1.4-0.5,2.1-0.5c0.6,0,1.2,0.1,1.7,0.3
				s0.9,0.5,1.4,0.8c0.3,0.3,0.7,0.8,0.8,1.3c0.2,0.5,0.3,1,0.3,1.6c0,0.7-0.1,1.3-0.3,2c-0.2,0.6-0.6,1.2-1,1.6
				c-0.5,0.5-1,0.8-1.6,1.2C345.4,56.4,344.6,56.5,343.9,56.5z M344.2,54.4c0.3,0,0.7-0.1,1-0.2c0.3-0.1,0.6-0.3,0.8-0.7
				c0.2-0.2,0.3-0.6,0.5-0.9c0.1-0.3,0.2-0.7,0.2-1c0-0.2,0-0.6-0.1-0.8c-0.1-0.2-0.2-0.5-0.3-0.6c-0.1-0.2-0.3-0.3-0.6-0.5
				c-0.2-0.1-0.5-0.1-0.8-0.1s-0.7,0.1-1,0.2c-0.3,0.1-0.6,0.3-0.8,0.7c-0.2,0.2-0.3,0.6-0.5,0.9c-0.1,0.3-0.2,0.7-0.2,1
				c0,0.2,0,0.6,0.1,0.8c0.1,0.2,0.2,0.5,0.3,0.6c0.1,0.2,0.3,0.3,0.6,0.5C343.6,54.4,343.8,54.4,344.2,54.4z"/>
			<path d="M356.6,39.8h5.1l0.9,10.5l6.6-10.5h5.2l-11.2,16.7h-4.3L356.6,39.8z"/>
			<path d="M373.4,47.6h2.4l-2.4,8.9H371L373.4,47.6z"/>
			<path d="M378.1,47.6h3.3c0.7,0,1.4,0.1,1.8,0.2c0.4,0.1,0.9,0.3,1.2,0.7c0.2,0.2,0.5,0.5,0.5,0.8c0.1,0.3,0.1,0.7,0.1,1
				c0,0.7-0.2,1.4-0.7,2s-1,0.9-2,1.2l1.4,3h-2.6l-1.2-2.6h-1l-0.7,2.6h-2.4L378.1,47.6z M380.8,51.8c0.6,0,1-0.1,1.3-0.3
				s0.5-0.6,0.5-0.9c0-0.2-0.1-0.5-0.2-0.6c-0.2-0.2-0.6-0.3-1-0.3h-1.5l-0.6,2.1H380.8L380.8,51.8z"/>
			<path d="M389.3,49.7h-2.6l0.6-2.2h7.7l-0.6,2.2h-2.6l-1.8,6.7h-2.4L389.3,49.7z"/>
			<path d="M398.6,56.5c-1.2,0-2.1-0.2-2.6-0.8c-0.6-0.6-0.9-1.3-0.9-2.3c0-0.2,0-0.5,0-0.7s0.1-0.5,0.1-0.7l1.3-4.5h2.4l-1.3,4.6
				c0,0.1-0.1,0.2-0.1,0.5c0,0.1,0,0.2,0,0.5s0.1,0.7,0.3,0.9s0.6,0.3,1,0.3c0.4,0,0.9-0.1,1.2-0.5c0.1-0.1,0.3-0.3,0.5-0.6
				c0.1-0.2,0.2-0.6,0.3-0.9l1.3-4.8h2.4l-1.4,5.2c-0.3,1.2-0.8,2.1-1.4,2.6c-0.3,0.3-0.9,0.7-1.4,0.8
				C399.9,56.5,399.3,56.5,398.6,56.5z"/>
			<path d="M409.7,47.6h2.4l1.4,8.9h-2.6l-0.2-1.6h-3.5l-1,1.6h-2.6L409.7,47.6z M410.5,53l-0.3-2.5l-1.6,2.5H410.5z"/>
			<path d="M417.2,47.6h2.4l-1.8,6.7h4.3l-0.6,2.2h-6.7L417.2,47.6z"/>
		</g>
		<g>
			<path d="M311.8,62.5L311.8,62.5c0-0.9,0.7-1.7,1.7-1.7c0.7,0,1,0.2,1.4,0.6l-0.6,0.6c-0.2-0.2-0.5-0.3-0.8-0.3
				c-0.5,0-0.8,0.5-0.8,0.9l0,0c0,0.5,0.3,0.9,0.8,0.9c0.3,0,0.6-0.1,0.8-0.3l0.6,0.6c-0.3,0.3-0.7,0.6-1.4,0.6
				C312.5,64.3,311.8,63.6,311.8,62.5z"/>
			<path d="M317.2,62.5L317.2,62.5c0-1,0.8-1.7,1.8-1.7s1.8,0.8,1.8,1.7l0,0c0,0.9-0.8,1.7-1.8,1.7
				C317.9,64.3,317.2,63.6,317.2,62.5z M319.9,62.5L319.9,62.5c0-0.5-0.3-0.9-0.9-0.9c-0.6,0-0.9,0.5-0.9,0.9l0,0
				c0,0.5,0.3,0.9,0.9,0.9C319.6,63.4,319.9,63.1,319.9,62.5z"/>
			<path d="M323.4,60.8h0.9v0.5c0.2-0.2,0.5-0.6,1-0.6c0.7,0,1.2,0.5,1.2,1.3v2.3h-0.9v-1.8c0-0.5-0.2-0.7-0.6-0.7
				c-0.4,0-0.6,0.2-0.6,0.7v1.8h-0.9v-3.5C323.5,60.8,323.4,60.8,323.4,60.8z"/>
			<path d="M328.7,60.8h1l0.8,2.3l0.8-2.3h1l-1.4,3.5H330L328.7,60.8z"/>
			<path d="M334.4,62.5L334.4,62.5c0-0.9,0.7-1.7,1.7-1.7c1.2,0,1.6,0.9,1.6,1.8c0,0.1,0,0.1,0,0.2h-2.3c0.1,0.5,0.3,0.7,0.8,0.7
				c0.3,0,0.6-0.1,0.8-0.3l0.6,0.5c-0.3,0.3-0.8,0.6-1.4,0.6C335.2,64.3,334.4,63.6,334.4,62.5z M336.8,62.3c0-0.5-0.3-0.7-0.7-0.7
				c-0.3,0-0.7,0.2-0.7,0.7H336.8z"/>
			<path d="M340.3,60.8h0.9v0.5c0.2-0.2,0.5-0.6,1-0.6c0.7,0,1.2,0.5,1.2,1.3v2.3h-0.9v-1.8c0-0.5-0.2-0.7-0.6-0.7
				c-0.3,0-0.6,0.2-0.6,0.7v1.8h-0.9L340.3,60.8C340.4,60.8,340.3,60.8,340.3,60.8z"/>
			<path d="M345.9,62.5L345.9,62.5c0-0.9,0.7-1.7,1.7-1.7c0.7,0,1,0.2,1.4,0.6l-0.6,0.6c-0.2-0.2-0.5-0.3-0.8-0.3
				c-0.5,0-0.8,0.5-0.8,0.9l0,0c0,0.5,0.3,0.9,0.8,0.9c0.3,0,0.6-0.1,0.8-0.3l0.6,0.6c-0.3,0.3-0.7,0.6-1.4,0.6
				C346.7,64.3,345.9,63.6,345.9,62.5z"/>
			<path d="M351.7,59.6h1v0.8h-1V59.6z M351.7,60.8h0.9v3.5h-0.9V60.8z"/>
			<path d="M355.2,62.5L355.2,62.5c0-1,0.8-1.7,1.8-1.7s1.8,0.8,1.8,1.7l0,0c0,0.9-0.8,1.7-1.8,1.7C356,64.3,355.2,63.6,355.2,62.5z
				 M357.9,62.5L357.9,62.5c0-0.5-0.3-0.9-0.9-0.9c-0.6,0-0.9,0.5-0.9,0.9l0,0c0,0.5,0.3,0.9,0.9,0.9
				C357.6,63.4,357.9,63.1,357.9,62.5z"/>
			<path d="M361.4,60.8h0.9v0.5c0.2-0.2,0.5-0.6,1-0.6c0.7,0,1.2,0.5,1.2,1.3v2.3h-0.9v-1.8c0-0.5-0.2-0.7-0.6-0.7
				c-0.4,0-0.6,0.2-0.6,0.7v1.8h-0.9v-3.5C361.5,60.8,361.4,60.8,361.4,60.8z"/>
			<path d="M367.1,62.5L367.1,62.5c0-0.9,0.7-1.7,1.6-1.7c1.2,0,1.6,0.9,1.6,1.8c0,0.1,0,0.1,0,0.2H368c0.1,0.5,0.3,0.7,0.8,0.7
				c0.3,0,0.6-0.1,0.8-0.3l0.6,0.5c-0.3,0.3-0.8,0.6-1.4,0.6C367.8,64.3,367.1,63.6,367.1,62.5z M369.5,62.3c0-0.5-0.3-0.7-0.7-0.7
				s-0.7,0.2-0.7,0.7H369.5z"/>
			<path d="M372.7,63.8l0.5-0.6c0.3,0.2,0.8,0.3,1,0.3s0.3-0.1,0.3-0.2l0,0c0-0.2-0.3-0.2-0.7-0.3c-0.5-0.1-1-0.3-1-1l0,0
				c0-0.7,0.6-1,1.3-1c0.5,0,0.9,0.1,1.3,0.3l-0.3,0.7c-0.3-0.2-0.7-0.3-0.9-0.3c-0.2,0-0.3,0.1-0.3,0.2l0,0c0,0.2,0.3,0.2,0.7,0.3
				c0.5,0.1,1,0.3,1,1l0,0c0,0.8-0.6,1-1.3,1C373.6,64.3,373.2,64.1,372.7,63.8z"/>
			<path d="M378,63.2h1v1h-1V63.2z"/>
			<path d="M381.4,62.5L381.4,62.5c0-0.9,0.7-1.7,1.7-1.7c0.7,0,1,0.2,1.4,0.6l-0.6,0.6c-0.2-0.2-0.5-0.3-0.8-0.3
				c-0.5,0-0.8,0.5-0.8,0.9l0,0c0,0.5,0.3,0.9,0.8,0.9c0.3,0,0.6-0.1,0.8-0.3l0.6,0.6c-0.3,0.3-0.7,0.6-1.4,0.6
				C382.2,64.3,381.4,63.6,381.4,62.5z"/>
			<path d="M386.8,62.5L386.8,62.5c0-1,0.8-1.7,1.8-1.7s1.8,0.8,1.8,1.7l0,0c0,0.9-0.8,1.7-1.8,1.7
				C387.6,64.3,386.8,63.6,386.8,62.5z M389.5,62.5L389.5,62.5c0-0.5-0.3-0.9-0.9-0.9c-0.6,0-0.9,0.5-0.9,0.9l0,0
				c0,0.5,0.3,0.9,0.9,0.9S389.5,63.1,389.5,62.5z"/>
			<path d="M393,60.8h0.9v0.5c0.2-0.2,0.5-0.6,1-0.6s0.8,0.2,0.9,0.6c0.3-0.3,0.7-0.6,1.2-0.6c0.7,0,1.2,0.5,1.2,1.3v2.3h-0.9v-1.8
				c0-0.5-0.2-0.7-0.6-0.7c-0.4,0-0.6,0.2-0.6,0.7v1.8h-0.9v-1.8c0-0.5-0.2-0.7-0.6-0.7c-0.4,0-0.6,0.2-0.6,0.7v1.8h-0.9L393,60.8
				C393.1,60.8,393,60.8,393,60.8z"/>
		</g>
		<g>
			<g>
				<g>
					<defs>
						<rect id="SVGID_8_" x="293.2" y="5.5" width="129.1" height="37.1"/>
					</defs>
					<clipPath id="SVGID_9_">
						<use xlink:href="#SVGID_8_"  style="overflow:visible;"/>
					</clipPath>
					<path class="st20" d="M316.1,72.9c-9.4,0-17-7.1-17-15.9c0-7.8,6.2-14.4,14.3-15.7c2.4-11.1,13-19.3,25.5-19.3
						c3.1,0,6.1,0.5,8.9,1.5c4.3-6.7,12-10.8,20.5-10.8c12.5,0,22.9,9.1,23.8,20.5c0.1,0,0.1,0,0.2,0c11.7,0,21.3,8.9,21.3,19.8
						s-9.6,19.8-21.3,19.8L316.1,72.9L316.1,72.9z"/>
				</g>
			</g>
		</g>
		<g>
			<g>
				<g>
					<defs>
						<rect id="SVGID_10_" x="289.2" y="59.5" width="139.9" height="13.9"/>
					</defs>
					<clipPath id="SVGID_11_">
						<use xlink:href="#SVGID_10_"  style="overflow:visible;"/>
					</clipPath>
					<path class="st21" d="M316.1,70.5c-9.4,0-17-7.1-17-15.9c0-7.8,6.2-14.4,14.3-15.7c2.5-11.2,13.1-19.3,25.6-19.3
						c3.1,0,6.1,0.5,8.9,1.5c4.3-6.7,12-10.8,20.5-10.8c12.5,0,22.9,9.1,23.8,20.5c0.1,0,0.1,0,0.2,0c11.7,0,21.3,8.9,21.3,19.8
						s-9.6,19.8-21.3,19.8h-76.2L316.1,70.5L316.1,70.5z"/>
				</g>
			</g>
		</g>
	</g>
</g>
<g>
	<path class="st0" d="M64.1,52.7v-3.4h7.7v6.9c-1.5,1-2.8,1.7-3.9,2.1s-2.5,0.5-4.1,0.5c-1.9,0-3.5-0.3-4.7-1
		c-1.2-0.7-2.2-1.6-2.8-2.9c-0.7-1.3-1-2.8-1-4.5c0-1.8,0.4-3.3,1.1-4.6c0.7-1.3,1.8-2.3,3.2-3c1.1-0.5,2.6-0.8,4.4-0.8
		c1.8,0,3.1,0.2,4,0.5c0.9,0.3,1.6,0.8,2.2,1.5c0.6,0.7,1,1.5,1.3,2.6l-4.8,0.9c-0.2-0.6-0.5-1.1-1-1.4c-0.5-0.3-1.1-0.5-1.8-0.5
		c-1.1,0-2,0.4-2.6,1.1c-0.7,0.8-1,2-1,3.6c0,1.8,0.3,3,1,3.8c0.7,0.8,1.6,1.1,2.8,1.1c0.6,0,1.1-0.1,1.6-0.2
		c0.5-0.2,1.1-0.4,1.7-0.8v-1.5H64.1z"/>
	<path class="st0" d="M74.9,58.5V42.3h8.4c1.5,0,2.7,0.1,3.6,0.4s1.5,0.8,2,1.5c0.5,0.7,0.8,1.6,0.8,2.6c0,0.9-0.2,1.7-0.6,2.3
		c-0.4,0.7-0.9,1.2-1.6,1.6c-0.4,0.3-1,0.5-1.8,0.6c0.6,0.2,1,0.4,1.3,0.6c0.2,0.1,0.5,0.4,0.8,0.9c0.4,0.4,0.6,0.8,0.7,1l2.4,4.7
		h-5.7l-2.7-5c-0.3-0.6-0.6-1.1-0.9-1.3c-0.4-0.3-0.8-0.4-1.2-0.4h-0.4v6.6H74.9z M79.9,48.9H82c0.2,0,0.7-0.1,1.3-0.2
		c0.3-0.1,0.6-0.2,0.8-0.5c0.2-0.3,0.3-0.6,0.3-0.9c0-0.5-0.2-0.9-0.5-1.2c-0.3-0.3-1-0.4-1.9-0.4h-2.2V48.9z"/>
	<path class="st0" d="M102.6,42.3h5V52c0,1-0.1,1.9-0.4,2.7c-0.3,0.9-0.8,1.6-1.4,2.2c-0.6,0.6-1.3,1.1-2,1.3
		c-1,0.4-2.1,0.5-3.5,0.5c-0.8,0-1.6-0.1-2.6-0.2c-0.9-0.1-1.7-0.3-2.3-0.7c-0.6-0.3-1.2-0.8-1.7-1.4c-0.5-0.6-0.9-1.2-1.1-1.9
		c-0.3-1-0.5-1.9-0.5-2.7v-9.7h5v9.9c0,0.9,0.2,1.6,0.7,2.1c0.5,0.5,1.2,0.7,2,0.7c0.9,0,1.5-0.2,2-0.7c0.5-0.5,0.7-1.2,0.7-2.1
		V42.3z"/>
	<path class="st0" d="M110.9,42.3h8.3c1.8,0,3.2,0.4,4.1,1.3c0.9,0.9,1.4,2.1,1.4,3.7c0,1.6-0.5,2.9-1.5,3.8s-2.5,1.4-4.5,1.4h-2.7
		v6h-5V42.3z M115.9,49.2h1.2c1,0,1.6-0.2,2-0.5c0.4-0.3,0.6-0.8,0.6-1.3c0-0.5-0.2-0.9-0.5-1.3c-0.3-0.4-1-0.5-1.9-0.5h-1.4V49.2z"
		/>
	<path class="st0" d="M126.7,50.4c0-2.6,0.7-4.7,2.2-6.2c1.5-1.5,3.5-2.2,6.2-2.2c2.7,0,4.8,0.7,6.2,2.2c1.5,1.4,2.2,3.5,2.2,6.1
		c0,1.9-0.3,3.4-1,4.7c-0.6,1.2-1.6,2.2-2.8,2.8c-1.2,0.7-2.7,1-4.5,1c-1.8,0-3.3-0.3-4.5-0.9c-1.2-0.6-2.2-1.5-2.9-2.8
		C127,53.9,126.7,52.3,126.7,50.4z M131.7,50.5c0,1.6,0.3,2.8,0.9,3.5c0.6,0.7,1.4,1.1,2.5,1.1c1.1,0,1.9-0.4,2.5-1.1
		c0.6-0.7,0.9-2,0.9-3.8c0-1.5-0.3-2.6-0.9-3.3c-0.6-0.7-1.5-1.1-2.5-1.1c-1,0-1.8,0.4-2.4,1.1C132,47.6,131.7,48.8,131.7,50.5z"/>
	<path class="st22" d="M146.2,42.3h7.4c1.5,0,2.7,0.2,3.6,0.6c0.9,0.4,1.6,1,2.2,1.7c0.6,0.7,1,1.6,1.3,2.6c0.3,1,0.4,2,0.4,3.1
		c0,1.7-0.2,3.1-0.6,4c-0.4,1-0.9,1.8-1.6,2.4c-0.7,0.6-1.5,1.1-2.3,1.3c-1.1,0.3-2.1,0.4-3,0.4h-7.4V42.3z M151.2,46v8.9h1.2
		c1,0,1.8-0.1,2.2-0.3c0.4-0.2,0.8-0.6,1-1.2c0.3-0.6,0.4-1.5,0.4-2.8c0-1.7-0.3-2.9-0.8-3.5c-0.6-0.6-1.5-1-2.8-1H151.2z"/>
	<path class="st22" d="M163.9,58.5V42.3h8.4c1.5,0,2.7,0.1,3.6,0.4s1.5,0.8,2,1.5c0.5,0.7,0.8,1.6,0.8,2.6c0,0.9-0.2,1.7-0.6,2.3
		c-0.4,0.7-0.9,1.2-1.6,1.6c-0.4,0.3-1,0.5-1.8,0.6c0.6,0.2,1,0.4,1.3,0.6c0.2,0.1,0.5,0.4,0.8,0.9c0.4,0.4,0.6,0.8,0.7,1l2.4,4.7
		h-5.7l-2.7-5c-0.3-0.6-0.6-1.1-0.9-1.3c-0.4-0.3-0.8-0.4-1.2-0.4h-0.4v6.6H163.9z M168.9,48.9h2.1c0.2,0,0.7-0.1,1.3-0.2
		c0.3-0.1,0.6-0.2,0.8-0.5c0.2-0.3,0.3-0.6,0.3-0.9c0-0.5-0.2-0.9-0.5-1.2c-0.3-0.3-1-0.4-1.9-0.4h-2.2V48.9z"/>
	<path class="st22" d="M191.4,55.9h-5.7l-0.8,2.7h-5.1l6.1-16.2h5.5l6.1,16.2h-5.2L191.4,55.9z M190.3,52.4l-1.8-5.8l-1.8,5.8H190.3
		z"/>
	<path class="st22" d="M206.8,52.7v-3.4h7.7v6.9c-1.5,1-2.8,1.7-3.9,2.1c-1.1,0.4-2.5,0.5-4.1,0.5c-1.9,0-3.5-0.3-4.7-1
		c-1.2-0.7-2.2-1.6-2.8-2.9c-0.7-1.3-1-2.8-1-4.5c0-1.8,0.4-3.3,1.1-4.6c0.7-1.3,1.8-2.3,3.2-3c1.1-0.5,2.6-0.8,4.4-0.8
		c1.8,0,3.1,0.2,4,0.5c0.9,0.3,1.6,0.8,2.2,1.5c0.6,0.7,1,1.5,1.3,2.6l-4.8,0.9c-0.2-0.6-0.5-1.1-1-1.4c-0.5-0.3-1.1-0.5-1.8-0.5
		c-1.1,0-2,0.4-2.6,1.1c-0.7,0.8-1,2-1,3.6c0,1.8,0.3,3,1,3.8c0.7,0.8,1.6,1.1,2.8,1.1c0.6,0,1.1-0.1,1.6-0.2
		c0.5-0.2,1.1-0.4,1.7-0.8v-1.5H206.8z"/>
	<path class="st22" d="M217.4,42.3h6.6l2.5,9.9l2.5-9.9h6.6v16.2h-4.1V46.2l-3.2,12.4h-3.7l-3.2-12.4v12.4h-4.1V42.3z"/>
	<path class="st22" d="M248.8,55.9h-5.7l-0.8,2.7h-5.1l6.1-16.2h5.5l6.1,16.2h-5.2L248.8,55.9z M247.8,52.4l-1.8-5.8l-1.8,5.8H247.8
		z"/>
</g>
</svg>
