<?xml version="1.0" encoding="utf-8"?>
<!-- Generator: Adobe Illustrator 21.1.0, SVG Export Plug-In . SVG Version: 6.00 Build 0)  -->
<svg version="1.1" id="Layer_1" xmlns="http://www.w3.org/2000/svg" xmlns:xlink="http://www.w3.org/1999/xlink" x="0px" y="0px"
	 viewBox="0 0 319.7 190.8" style="enable-background:new 0 0 319.7 190.8;" xml:space="preserve">
<style type="text/css">
	.st0{opacity:0.63;}
	.st1{fill:#AEAEAE;}
	.st2{stroke:#000000;stroke-width:4.1461;stroke-miterlimit:10;}
</style>
<g>
	<g>
		<g>
			<g>
				<path d="M15.6,33.6v3.1H4.1V22.6h11.3v3.1H8.1v2.4h6.4v3H8.1v2.6H15.6z"/>
				<path d="M18.7,35.4l1.3-2.9c1.3,0.8,3.1,1.4,4.7,1.4c1.7,0,2.3-0.5,2.3-1.2c0-2.2-8.2-0.6-8.2-5.9c0-2.5,2.1-4.6,6.4-4.6
					c1.9,0,3.8,0.4,5.2,1.2l-1.3,3c-1.4-0.7-2.7-1.1-4-1.1c-1.7,0-2.3,0.6-2.3,1.3c0,2.2,8.1,0.5,8.1,5.8c0,2.5-2.1,4.6-6.4,4.6
					C22.4,37,20.1,36.4,18.7,35.4z"/>
				<path d="M47.8,27.8c0,3.2-2.5,5.2-6.4,5.2h-2.5v3.7h-4.1V22.6h6.6C45.3,22.6,47.8,24.6,47.8,27.8z M43.7,27.8
					c0-1.3-0.8-2.1-2.5-2.1h-2.3v4.1h2.3C42.8,29.9,43.7,29.1,43.7,27.8z"/>
				<path d="M63.1,33.6v3.1H51.6V22.6h11.3v3.1h-7.2v2.4H62v3h-6.4v2.6H63.1z"/>
				<path d="M66.4,29.6c0-4.3,3.3-7.3,7.9-7.3c2.6,0,4.8,0.9,6.2,2.7l-2.6,2.3c-0.9-1.1-2-1.7-3.4-1.7c-2.4,0-4,1.6-4,4
					c0,2.4,1.6,4,4,4c1.4,0,2.5-0.6,3.4-1.7l2.6,2.3C79.1,36,77,37,74.3,37C69.8,37,66.4,33.9,66.4,29.6z"/>
				<path d="M84.2,22.6h4.1v14.1h-4.1V22.6z"/>
				<path d="M102.6,34h-6.1l-1.1,2.7h-4.1l6.3-14.1h4l6.4,14.1h-4.2L102.6,34z M101.4,31l-1.8-4.5L97.7,31H101.4z"/>
				<path d="M110.9,22.6h4.1v11h6.8v3.2h-10.9V22.6z"/>
				<path d="M133.6,22.6h6c4.6,0,7.7,2.9,7.7,7.1s-3.1,7.1-7.7,7.1h-6V22.6z M139.5,35c3.5,0,5.8-2.1,5.8-5.3c0-3.2-2.3-5.3-5.8-5.3
					h-3.9V35H139.5z"/>
				<path d="M162.8,35v1.8h-10.4V22.6h10.1v1.8h-8.1v4.3h7.2v1.7h-7.2V35H162.8z"/>
				<path d="M186.9,27.5c0,3.1-2.3,4.9-6,4.9h-3.5v4.3h-2V22.6h5.6C184.7,22.6,186.9,24.4,186.9,27.5z M184.9,27.5
					c0-2-1.4-3.2-4-3.2h-3.5v6.3h3.5C183.5,30.7,184.9,29.5,184.9,27.5z"/>
				<path d="M201.4,36.7l-3.1-4.3c-0.3,0-0.6,0-0.9,0h-3.5v4.3h-2V22.6h5.6c3.7,0,6,1.9,6,4.9c0,2.2-1.1,3.8-3.2,4.5l3.4,4.7H201.4z
					 M201.3,27.5c0-2-1.4-3.2-4-3.2h-3.5v6.4h3.5C199.9,30.7,201.3,29.5,201.3,27.5z"/>
				<path d="M207.4,29.6c0-4.1,3.2-7.2,7.6-7.2c4.4,0,7.6,3.1,7.6,7.2s-3.2,7.2-7.6,7.2C210.6,36.9,207.4,33.8,207.4,29.6z
					 M220.6,29.6c0-3.1-2.4-5.4-5.6-5.4c-3.2,0-5.6,2.3-5.6,5.4c0,3.1,2.4,5.4,5.6,5.4C218.2,35.1,220.6,32.8,220.6,29.6z"/>
				<path d="M232.5,31.8v4.9h-2v-4.9l-5.7-9.2h2.2l4.6,7.4l4.6-7.4h2L232.5,31.8z"/>
				<path d="M252.3,35v1.8h-10.4V22.6H252v1.8h-8.1v4.3h7.2v1.7h-7.2V35H252.3z"/>
				<path d="M256.2,29.6c0-4.2,3.2-7.2,7.6-7.2c2.2,0,4.1,0.7,5.5,2.2l-1.3,1.3c-1.1-1.2-2.5-1.7-4-1.7c-3.2,0-5.6,2.3-5.6,5.4
					c0,3.1,2.4,5.4,5.6,5.4c1.6,0,2.9-0.5,4-1.7l1.3,1.3c-1.3,1.5-3.2,2.2-5.5,2.2C259.4,36.9,256.2,33.8,256.2,29.6z"/>
				<path d="M276.7,24.3h-4.9v-1.8h11.9v1.8h-4.9v12.4h-2V24.3z"/>
				<path d="M286.4,29.6c0-4.1,3.2-7.2,7.6-7.2c4.4,0,7.6,3.1,7.6,7.2s-3.2,7.2-7.6,7.2C289.6,36.9,286.4,33.8,286.4,29.6z
					 M299.6,29.6c0-3.1-2.4-5.4-5.6-5.4c-3.2,0-5.6,2.3-5.6,5.4c0,3.1,2.4,5.4,5.6,5.4C297.2,35.1,299.6,32.8,299.6,29.6z"/>
				<path d="M305.3,35.1l0.8-1.6c1.1,0.9,2.9,1.6,4.7,1.6c2.5,0,3.5-0.9,3.5-2.2c0-3.5-8.7-1.3-8.7-6.5c0-2.2,1.7-4,5.5-4
					c1.7,0,3.4,0.4,4.6,1.3l-0.7,1.6c-1.3-0.8-2.7-1.2-3.9-1.2c-2.4,0-3.5,1-3.5,2.2c0,3.5,8.7,1.3,8.7,6.5c0,2.2-1.8,4-5.6,4
					C308.6,36.9,306.4,36.1,305.3,35.1z"/>
			</g>
		</g>
		<g>
			<g>
				<g class="st0">
					<path class="st1" d="M3.4,51.9c0-0.4,0.1-0.7,0.4-1c0.3-0.3,0.6-0.4,1.1-0.4h6.5c0.4,0,0.7,0.1,1,0.4c0.3,0.2,0.4,0.6,0.4,1.1
						v58.5h20.4c0.4,0,0.7,0.1,1,0.4c0.3,0.3,0.4,0.6,0.4,1.1v6c0,0.4-0.1,0.7-0.4,1c-0.3,0.3-0.6,0.4-1,0.4H4.8
						c-1,0-1.4-0.5-1.4-1.4V51.9z"/>
					<path class="st1" d="M41.2,72.4c0-0.4,0.1-0.7,0.4-1c0.2-0.3,0.6-0.4,1.1-0.4h6.5c0.4,0,0.7,0.1,1,0.4c0.3,0.3,0.5,0.6,0.5,1
						v45.5c0,1-0.5,1.4-1.5,1.4h-6.5c-1,0-1.4-0.5-1.4-1.4V72.4z"/>
					<path class="st1" d="M63.9,72.4c0-0.4,0.2-0.8,0.5-1c0.3-0.3,0.6-0.4,1.1-0.4h8.1c0.8,0,1.3,0.4,1.5,1.2l11.5,32.1
						c1.9-5.4,3.9-10.7,5.8-16c1.9-5.3,3.9-10.6,5.8-16c0.3-0.8,0.8-1.2,1.5-1.2h8.2c0.4,0,0.8,0.1,1.1,0.4c0.3,0.3,0.4,0.6,0.4,1
						c0.8,7.6,1.6,15.2,2.4,22.8c0.8,7.6,1.6,15.1,2.5,22.7v0.1c0,0.9-0.5,1.3-1.4,1.3h-6.3c-1,0-1.5-0.5-1.5-1.4l-3.3-30.8
						l-10.8,30c-0.1,0.3-0.3,0.6-0.5,0.8c-0.2,0.3-0.5,0.4-0.7,0.4h-5.9c-0.3,0-0.5-0.1-0.8-0.4c-0.2-0.2-0.4-0.5-0.5-0.9
						c-1.8-5-3.6-10-5.4-15c-1.8-5-3.6-9.9-5.4-15l-3.3,30.8c0,1-0.5,1.4-1.5,1.4h-6.3c-1,0-1.4-0.5-1.4-1.4L63.9,72.4z"/>
					<path class="st1" d="M119.3,118.1c0.1-0.4,0.2-0.8,0.4-1.2c0.1-0.4,0.3-0.7,0.4-1l17.5-43.7c0.1-0.2,0.2-0.5,0.5-0.8
						c0.3-0.3,0.7-0.4,1.2-0.4h5.2c0.5,0,0.9,0.1,1.1,0.4c0.2,0.3,0.4,0.5,0.5,0.7l1.1,2.5l17.2,43c0,0.1,0,0.2,0,0.3
						c0,0.2,0,0.3,0,0.4c0,0.7-0.5,1-1.4,1h-6.4c-0.5,0-0.8-0.1-1.1-0.3c-0.3-0.2-0.5-0.5-0.7-0.9l-0.6-1.5c-0.4-1-0.8-2.1-1.2-3.1
						c-0.4-1-0.8-2.1-1.2-3.2h-20.1c-0.6,1.5-1.1,2.9-1.6,4.3c-0.5,1.3-1,2.5-1.4,3.5c-0.3,0.8-0.9,1.2-1.7,1.2h-6.5
						c-0.4,0-0.7-0.1-1-0.2c-0.2-0.2-0.4-0.4-0.4-0.7C119.2,118.3,119.2,118.2,119.3,118.1z M141.9,83.4c-1.2,3-2.3,6.1-3.5,9.3
						c-1.2,3.2-2.3,6.3-3.5,9.3h13.9L141.9,83.4z"/>
				</g>
				<g>
					<g>
						<path d="M3.4,49.1c0-0.4,0.1-0.7,0.4-1c0.3-0.3,0.6-0.4,1.1-0.4h6.5c0.4,0,0.7,0.1,1,0.4c0.3,0.2,0.4,0.6,0.4,1.1v58.5h20.4
							c0.4,0,0.7,0.1,1,0.4c0.3,0.3,0.4,0.6,0.4,1.1v6c0,0.4-0.1,0.7-0.4,1c-0.3,0.3-0.6,0.4-1,0.4H4.8c-1,0-1.4-0.5-1.4-1.4V49.1z"
							/>
						<path d="M41.2,69.5c0-0.4,0.1-0.7,0.4-1c0.2-0.3,0.6-0.4,1.1-0.4h6.5c0.4,0,0.7,0.1,1,0.4c0.3,0.3,0.5,0.6,0.5,1V115
							c0,1-0.5,1.4-1.5,1.4h-6.5c-1,0-1.4-0.5-1.4-1.4V69.5z"/>
						<path d="M63.9,69.5c0-0.4,0.2-0.8,0.5-1c0.3-0.3,0.6-0.4,1.1-0.4h8.1c0.8,0,1.3,0.4,1.5,1.2l11.5,32.1
							c1.9-5.4,3.9-10.7,5.8-16c1.9-5.3,3.9-10.6,5.8-16c0.3-0.8,0.8-1.2,1.5-1.2h8.2c0.4,0,0.8,0.1,1.1,0.4c0.3,0.3,0.4,0.6,0.4,1
							c0.8,7.6,1.6,15.2,2.4,22.8c0.8,7.6,1.6,15.1,2.5,22.7v0.1c0,0.9-0.5,1.3-1.4,1.3h-6.3c-1,0-1.5-0.5-1.5-1.4l-3.3-30.8
							l-10.8,30c-0.1,0.3-0.3,0.6-0.5,0.8c-0.2,0.3-0.5,0.4-0.7,0.4h-5.9c-0.3,0-0.5-0.1-0.8-0.4c-0.2-0.2-0.4-0.5-0.5-0.9
							c-1.8-5-3.6-10-5.4-15c-1.8-5-3.6-9.9-5.4-15L68.3,115c0,1-0.5,1.4-1.5,1.4h-6.3c-1,0-1.4-0.5-1.4-1.4L63.9,69.5z"/>
						<path d="M119.3,115.3c0.1-0.4,0.2-0.8,0.4-1.2c0.1-0.4,0.3-0.7,0.4-1l17.5-43.7c0.1-0.2,0.2-0.5,0.5-0.8
							c0.3-0.3,0.7-0.4,1.2-0.4h5.2c0.5,0,0.9,0.1,1.1,0.4c0.2,0.3,0.4,0.5,0.5,0.7l1.1,2.5l17.2,43c0,0.1,0,0.2,0,0.3s0,0.3,0,0.4
							c0,0.7-0.5,1-1.4,1h-6.4c-0.5,0-0.8-0.1-1.1-0.3c-0.3-0.2-0.5-0.5-0.7-0.9l-0.6-1.5c-0.4-1-0.8-2.1-1.2-3.1
							c-0.4-1-0.8-2.1-1.2-3.2h-20.1c-0.6,1.5-1.1,2.9-1.6,4.3c-0.5,1.3-1,2.5-1.4,3.5c-0.3,0.8-0.9,1.2-1.7,1.2h-6.5
							c-0.4,0-0.7-0.1-1-0.2c-0.2-0.2-0.4-0.4-0.4-0.7C119.2,115.4,119.2,115.3,119.3,115.3z M141.9,80.5c-1.2,3-2.3,6.1-3.5,9.3
							c-1.2,3.2-2.3,6.3-3.5,9.3h13.9L141.9,80.5z"/>
					</g>
				</g>
			</g>
			<g>
				<g class="st0">
					<path class="st1" d="M173.8,73.2c0-0.4,0.1-0.8,0.4-1c0.3-0.3,0.6-0.4,1.1-0.4h34.2c0.4,0,0.7,0.1,1.1,0.4
						c0.3,0.2,0.5,0.6,0.5,1.1v5.7c0,0.4-0.1,0.8-0.4,1.1c-0.3,0.3-0.7,0.5-1.2,0.5h-12.4v38.1c0,0.4-0.1,0.7-0.4,1
						c-0.3,0.3-0.6,0.5-1.1,0.5h-6.4c-0.4,0-0.7-0.1-1.1-0.4c-0.3-0.3-0.5-0.6-0.5-1.1V80.5h-12.4c-0.4,0-0.8-0.1-1.1-0.4
						c-0.3-0.3-0.4-0.7-0.4-1.2V73.2z"/>
					<path class="st1" d="M216.8,96c0-2.3,0.3-4.5,0.9-6.6c0.6-2.1,1.4-4.1,2.5-6c1.1-1.8,2.4-3.5,3.9-5.1c1.5-1.5,3.2-2.8,5-3.9
						c1.8-1.1,3.8-1.9,5.9-2.5c2.1-0.6,4.3-0.9,6.6-0.9c2.3,0,4.5,0.3,6.6,0.9c2.1,0.6,4.1,1.4,5.9,2.5c1.8,1.1,3.5,2.4,5,3.9
						c1.5,1.5,2.8,3.2,3.9,5.1c1.1,1.8,1.9,3.8,2.5,6c0.6,2.1,0.9,4.3,0.9,6.6c0,2.3-0.3,4.5-0.9,6.6c-0.6,2.1-1.4,4.1-2.5,5.9
						c-1.1,1.8-2.4,3.5-3.9,5c-1.5,1.5-3.2,2.8-5,3.9c-1.8,1.1-3.8,1.9-5.9,2.5c-2.1,0.6-4.3,0.9-6.6,0.9c-2.3,0-4.5-0.3-6.6-0.9
						c-2.1-0.6-4.1-1.4-5.9-2.5c-1.8-1.1-3.5-2.4-5-3.9c-1.5-1.5-2.8-3.2-3.9-5c-1.1-1.8-1.9-3.8-2.5-5.9
						C217.1,100.5,216.8,98.3,216.8,96z M226.2,95.9c0,2.2,0.4,4.2,1.2,6.2c0.8,1.9,1.9,3.6,3.3,5c1.4,1.4,3,2.5,4.9,3.4
						c1.9,0.8,3.9,1.2,6.1,1.2c2.2,0,4.2-0.4,6.1-1.2c1.9-0.8,3.5-1.9,4.9-3.4c1.4-1.4,2.5-3.1,3.3-5c0.8-1.9,1.2-4,1.2-6.2
						c0-2.2-0.4-4.2-1.2-6.1c-0.8-1.9-1.9-3.6-3.3-5c-1.4-1.4-3-2.5-4.9-3.4c-1.9-0.8-3.9-1.2-6.1-1.2c-2.2,0-4.2,0.4-6.1,1.2
						c-1.9,0.8-3.5,1.9-4.9,3.4c-1.4,1.4-2.5,3.1-3.3,5C226.6,91.7,226.2,93.7,226.2,95.9z"/>
					<path class="st1" d="M274.7,73.3c0-1,0.5-1.5,1.5-1.5h18.5c2.2,0,4.2,0.4,6.1,1.3c1.8,0.9,3.4,2,4.8,3.4
						c1.3,1.4,2.4,3.1,3.1,4.9c0.7,1.9,1.1,3.8,1.1,5.8c0,2-0.4,3.9-1.1,5.7c-0.7,1.8-1.7,3.5-3.1,4.9c-1.3,1.4-2.9,2.6-4.7,3.4
						c-1.8,0.9-3.8,1.3-6,1.3h-10.7v37.4c0,0.9-0.5,1.4-1.5,1.4h-6.5c-1,0-1.4-0.5-1.4-1.4V73.3z M300.2,87.1c0-0.9-0.2-1.8-0.5-2.6
						c-0.3-0.9-0.8-1.6-1.4-2.3c-0.6-0.7-1.3-1.2-2.2-1.6c-0.8-0.4-1.8-0.6-2.8-0.6h-9.2v14.3h9.2c1,0,1.9-0.2,2.7-0.6
						c0.8-0.4,1.6-0.9,2.2-1.6c0.6-0.7,1.1-1.4,1.5-2.3C300,89,300.2,88.1,300.2,87.1z"/>
				</g>
				<g>
					<g>
						<path d="M173.8,70.3c0-0.4,0.1-0.8,0.4-1c0.3-0.3,0.6-0.4,1.1-0.4h34.2c0.4,0,0.7,0.1,1.1,0.4c0.3,0.2,0.5,0.6,0.5,1.1V76
							c0,0.4-0.1,0.8-0.4,1.1c-0.3,0.3-0.7,0.5-1.2,0.5h-12.4v38.1c0,0.4-0.1,0.7-0.4,1c-0.3,0.3-0.6,0.5-1.1,0.5h-6.4
							c-0.4,0-0.7-0.1-1.1-0.4c-0.3-0.3-0.5-0.6-0.5-1.1V77.6h-12.4c-0.4,0-0.8-0.1-1.1-0.4c-0.3-0.3-0.4-0.7-0.4-1.2V70.3z"/>
						<path d="M216.8,93.1c0-2.3,0.3-4.5,0.9-6.6c0.6-2.1,1.4-4.1,2.5-6c1.1-1.8,2.4-3.5,3.9-5.1c1.5-1.5,3.2-2.8,5-3.9
							c1.8-1.1,3.8-1.9,5.9-2.5c2.1-0.6,4.3-0.9,6.6-0.9c2.3,0,4.5,0.3,6.6,0.9c2.1,0.6,4.1,1.4,5.9,2.5c1.8,1.1,3.5,2.4,5,3.9
							c1.5,1.5,2.8,3.2,3.9,5.1c1.1,1.8,1.9,3.8,2.5,6c0.6,2.1,0.9,4.3,0.9,6.6c0,2.3-0.3,4.5-0.9,6.6c-0.6,2.1-1.4,4.1-2.5,5.9
							c-1.1,1.8-2.4,3.5-3.9,5c-1.5,1.5-3.2,2.8-5,3.9c-1.8,1.1-3.8,1.9-5.9,2.5c-2.1,0.6-4.3,0.9-6.6,0.9c-2.3,0-4.5-0.3-6.6-0.9
							c-2.1-0.6-4.1-1.4-5.9-2.5c-1.8-1.1-3.5-2.4-5-3.9c-1.5-1.5-2.8-3.2-3.9-5c-1.1-1.8-1.9-3.8-2.5-5.9
							C217.1,97.6,216.8,95.4,216.8,93.1z M226.2,93c0,2.2,0.4,4.2,1.2,6.2c0.8,1.9,1.9,3.6,3.3,5c1.4,1.4,3,2.5,4.9,3.4
							c1.9,0.8,3.9,1.2,6.1,1.2c2.2,0,4.2-0.4,6.1-1.2c1.9-0.8,3.5-1.9,4.9-3.4c1.4-1.4,2.5-3.1,3.3-5c0.8-1.9,1.2-4,1.2-6.2
							c0-2.2-0.4-4.2-1.2-6.1c-0.8-1.9-1.9-3.6-3.3-5c-1.4-1.4-3-2.5-4.9-3.4c-1.9-0.8-3.9-1.2-6.1-1.2c-2.2,0-4.2,0.4-6.1,1.2
							c-1.9,0.8-3.5,1.9-4.9,3.4c-1.4,1.4-2.5,3.1-3.3,5C226.6,88.8,226.2,90.9,226.2,93z"/>
						<path d="M274.7,70.4c0-1,0.5-1.5,1.5-1.5h18.5c2.2,0,4.2,0.4,6.1,1.3c1.8,0.9,3.4,2,4.8,3.4c1.3,1.4,2.4,3.1,3.1,4.9
							c0.7,1.9,1.1,3.8,1.1,5.8c0,2-0.4,3.9-1.1,5.7c-0.7,1.8-1.7,3.5-3.1,4.9c-1.3,1.4-2.9,2.6-4.7,3.4c-1.8,0.9-3.8,1.3-6,1.3
							h-10.7v37.4c0,0.9-0.5,1.4-1.5,1.4h-6.5c-1,0-1.4-0.5-1.4-1.4V70.4z M300.2,84.3c0-0.9-0.2-1.8-0.5-2.6
							c-0.3-0.9-0.8-1.6-1.4-2.3c-0.6-0.7-1.3-1.2-2.2-1.6c-0.8-0.4-1.8-0.6-2.8-0.6h-9.2v14.3h9.2c1,0,1.9-0.2,2.7-0.6
							c0.8-0.4,1.6-0.9,2.2-1.6c0.6-0.7,1.1-1.4,1.5-2.3C300,86.1,300.2,85.2,300.2,84.3z"/>
					</g>
				</g>
			</g>
			<line class="st2" x1="149.7" y1="138.6" x2="313.2" y2="138.6"/>
			<line class="st2" x1="25.5" y1="49.9" x2="191.3" y2="49.9"/>
		</g>
	</g>
	<g>
		<path d="M118.5,153.7c0-0.1,0.1-0.3,0.2-0.4c0.1-0.1,0.2-0.2,0.4-0.2h4.2c0.3,0,0.5,0.2,0.6,0.5l3.3,10.8l3.3-10.8
			c0.1-0.3,0.3-0.5,0.6-0.5h4.1c0.1,0,0.3,0,0.4,0.1c0.1,0.1,0.2,0.2,0.2,0.4c0.3,2.8,0.6,5.6,0.9,8.3c0.3,2.7,0.6,5.5,0.9,8.3v0.1
			c0,0.3-0.2,0.5-0.5,0.5h-3.4c-0.4,0-0.6-0.2-0.6-0.5l-1.1-9.2l-2.7,9.2c0,0.1-0.1,0.2-0.2,0.3c-0.1,0.1-0.2,0.2-0.3,0.2h-3.2
			c-0.1,0-0.2-0.1-0.3-0.2c-0.1-0.1-0.2-0.2-0.2-0.3l-2.7-9.2l-1.1,9.2c0,0.3-0.2,0.5-0.6,0.5h-3.4c-0.3,0-0.5-0.2-0.5-0.5
			L118.5,153.7z"/>
		<path d="M149.4,153.6c0,0,0-0.1,0.1-0.2c0-0.1,0.1-0.1,0.2-0.2c0.1,0,0.1-0.1,0.2-0.1c0.1,0,0.1,0,0.2,0h3.1c0.1,0,0.3,0,0.4,0.1
			c0.1,0.1,0.2,0.2,0.2,0.2l0.3,0.7l6.3,16.1c0.1,0.2,0.1,0.3,0,0.4c-0.1,0.1-0.2,0.1-0.5,0.1h-3.5c-0.2,0-0.3,0-0.4-0.1
			c-0.1-0.1-0.2-0.2-0.2-0.3c-0.2-0.4-0.3-0.8-0.5-1.2c-0.2-0.4-0.3-0.8-0.5-1.2h-6.4c-0.2,0.4-0.3,0.8-0.5,1.2
			c-0.2,0.4-0.3,0.8-0.5,1.2c-0.1,0.3-0.3,0.4-0.6,0.4h-3.6c-0.2,0-0.3,0-0.4-0.1c-0.1-0.1-0.1-0.2-0.1-0.4L149.4,153.6z
			 M151.6,158.7c-0.2,0.4-0.3,0.8-0.5,1.3c-0.2,0.5-0.3,0.9-0.5,1.4c-0.2,0.5-0.3,0.9-0.5,1.4c-0.2,0.5-0.3,0.9-0.5,1.3h3.7
			L151.6,158.7z"/>
		<path d="M166.4,153.7c0-0.2,0-0.3,0.1-0.4s0.2-0.1,0.4-0.1h7.8c0.8,0,1.6,0.2,2.3,0.5c0.7,0.3,1.4,0.7,1.9,1.2
			c0.5,0.5,1,1.1,1.3,1.8c0.3,0.7,0.5,1.4,0.5,2.2c0,0.5-0.1,1.1-0.2,1.5c-0.1,0.5-0.4,0.9-0.6,1.4c-0.3,0.4-0.6,0.8-0.9,1.2
			c-0.4,0.3-0.8,0.6-1.2,0.9l3.1,5.8c0.1,0.1,0.1,0.2,0.2,0.4c0.1,0.2,0.1,0.3,0.1,0.4c0,0.1,0,0.2-0.1,0.3
			c-0.1,0.1-0.2,0.1-0.3,0.1h-4.1c-0.1,0-0.3,0-0.4-0.1c-0.1-0.1-0.2-0.2-0.2-0.3L173,165h-2v5.4c0,0.3-0.2,0.5-0.6,0.5h-3.6
			c-0.2,0-0.3,0-0.4-0.1c-0.1-0.1-0.1-0.2-0.1-0.4V153.7z M175.9,159c0-0.2,0-0.5-0.1-0.7c-0.1-0.2-0.2-0.5-0.4-0.7
			c-0.2-0.2-0.4-0.4-0.6-0.5c-0.2-0.1-0.5-0.2-0.7-0.3c-0.2,0-0.4,0-0.6,0s-0.4,0-0.6,0h-1.7v4.4h2.2c0.1,0,0.3,0,0.4,0
			c0.1,0,0.2,0,0.4,0c0.3,0,0.5-0.1,0.8-0.2c0.2-0.1,0.4-0.3,0.6-0.5c0.2-0.2,0.3-0.4,0.4-0.7C175.8,159.5,175.9,159.3,175.9,159z"
			/>
		<path d="M186.3,153.7c0-0.2,0.1-0.3,0.2-0.4c0.1-0.1,0.2-0.1,0.4-0.1h14c0.2,0,0.3,0,0.4,0.1c0.1,0.1,0.2,0.2,0.2,0.4v2.4
			c0,0.1,0,0.1,0,0.2c0,0.1,0,0.1-0.1,0.2l-8.7,10.3h8.3c0.2,0,0.3,0,0.4,0.1c0.1,0.1,0.2,0.2,0.2,0.4v3c0,0.1,0,0.3-0.2,0.4
			c-0.1,0.1-0.2,0.2-0.4,0.2h-14c-0.2,0-0.3-0.1-0.4-0.2c-0.1-0.1-0.2-0.2-0.2-0.4v-2.6c0-0.1,0-0.2,0.1-0.3l8.7-10.1h-8.3
			c-0.2,0-0.3,0-0.4-0.1c-0.1-0.1-0.2-0.2-0.2-0.4V153.7z"/>
		<path d="M207.1,162c0-0.8,0.1-1.6,0.3-2.4c0.2-0.8,0.5-1.5,0.9-2.2c0.4-0.7,0.9-1.3,1.4-1.8c0.6-0.6,1.2-1,1.9-1.4
			c0.7-0.4,1.4-0.7,2.2-0.9c0.8-0.2,1.6-0.3,2.5-0.3c0.8,0,1.7,0.1,2.5,0.3c0.8,0.2,1.5,0.5,2.2,0.9c0.7,0.4,1.3,0.9,1.9,1.4
			c0.6,0.6,1,1.2,1.4,1.8c0.4,0.7,0.7,1.4,0.9,2.2c0.2,0.8,0.3,1.6,0.3,2.4c0,0.8-0.1,1.6-0.3,2.4c-0.2,0.8-0.5,1.5-0.9,2.2
			c-0.4,0.7-0.9,1.3-1.4,1.8c-0.6,0.6-1.2,1-1.9,1.4c-0.7,0.4-1.4,0.7-2.2,0.9c-0.8,0.2-1.6,0.3-2.5,0.3c-0.9,0-1.7-0.1-2.5-0.3
			c-0.8-0.2-1.5-0.5-2.2-0.9c-0.7-0.4-1.3-0.9-1.9-1.4c-0.6-0.6-1-1.2-1.4-1.8c-0.4-0.7-0.7-1.4-0.9-2.2
			C207.2,163.7,207.1,162.9,207.1,162z M211.7,162c0,0.7,0.1,1.3,0.3,1.8c0.2,0.6,0.5,1.1,0.9,1.5c0.4,0.4,0.9,0.8,1.4,1
			c0.6,0.2,1.2,0.4,1.8,0.4s1.3-0.1,1.8-0.4c0.6-0.2,1-0.6,1.4-1s0.7-0.9,0.9-1.5c0.2-0.6,0.3-1.2,0.3-1.8c0-0.6-0.1-1.3-0.3-1.8
			c-0.2-0.6-0.5-1.1-0.9-1.5c-0.4-0.4-0.9-0.8-1.4-1c-0.6-0.2-1.2-0.4-1.8-0.4s-1.3,0.1-1.8,0.4c-0.6,0.2-1,0.6-1.4,1
			c-0.4,0.4-0.7,0.9-0.9,1.5C211.8,160.7,211.7,161.4,211.7,162z"/>
	</g>
	<g>
		<path d="M245.6,159.6c0-0.1-0.1-0.1-0.1-0.2c0-0.1,0-0.1,0-0.1c-0.1-1.1,0-2.1,0.4-3.1c0.4-1,1-1.8,1.9-2.4s2-0.9,3.4-0.9
			c0.9,0,1.8,0.2,2.7,0.5c0.9,0.3,1.6,0.9,2.2,1.5c0.6,0.7,1,1.5,1.2,2.4c0.1,0.4,0.1,0.7,0.1,1.2c0,0.9-0.2,1.7-0.5,2.4
			c-0.4,0.7-0.8,1.3-1.3,1.8l-4.2,4.4h5.4c0.2,0,0.3,0,0.4,0.1s0.1,0.2,0.2,0.3c0,0.1,0,0.2,0,0.2l-0.1,2.8c0,0.2-0.1,0.3-0.1,0.4
			c-0.1,0.1-0.2,0.1-0.4,0.1h-11c-0.2,0-0.3,0-0.5-0.1s-0.2-0.2-0.2-0.3c0,0,0-0.1,0-0.1l0-1.6c0-0.2,0-0.4,0.1-0.5
			c0-0.1,0.1-0.2,0.3-0.4l7-8c0.2-0.3,0.4-0.5,0.6-0.7c0.1-0.2,0.2-0.5,0.2-0.9c0-0.1,0-0.2,0-0.3c-0.1-0.4-0.3-0.7-0.6-0.9
			c-0.3-0.2-0.7-0.3-1.1-0.3c-0.7,0-1.2,0.2-1.5,0.7c-0.3,0.5-0.5,1.1-0.5,1.9c0,0.2-0.1,0.3-0.1,0.3c-0.1,0-0.2,0.1-0.4,0l-3,0
			C245.7,159.8,245.6,159.7,245.6,159.6z"/>
		<path d="M265.3,157.4c0.8-1.3,1.9-2.4,3.3-3.2c1.4-0.8,3-1.2,4.8-1.2c1.4,0,2.8,0.3,4,1c1.2,0.7,2.3,1.6,3.1,2.7
			c0.8,1.1,1.4,2.4,1.7,3.8c0.1,0.7,0.2,1.3,0.2,1.9c0,1.7-0.4,3.2-1.3,4.5c-0.8,1.3-1.9,2.4-3.3,3.1c-1.4,0.8-3,1.1-4.8,1.1
			c-1.4,0-2.8-0.3-4-1c-1.2-0.6-2.3-1.5-3.1-2.7c-0.8-1.1-1.4-2.4-1.7-3.7c-0.1-0.7-0.2-1.3-0.2-2
			C264.1,160.2,264.5,158.7,265.3,157.4z M268.6,163.2c0.1,0.7,0.4,1.3,0.8,1.9c0.4,0.6,0.9,1,1.6,1.3c0.6,0.3,1.3,0.5,2.1,0.5
			c0.9,0,1.7-0.2,2.4-0.6c0.7-0.4,1.3-1,1.7-1.7c0.4-0.7,0.7-1.5,0.7-2.4c0-0.4,0-0.7-0.1-1.1c-0.1-0.7-0.4-1.3-0.8-1.9
			c-0.4-0.6-1-1-1.6-1.3s-1.3-0.5-2.1-0.5c-0.9,0-1.7,0.2-2.4,0.6c-0.7,0.4-1.3,1-1.7,1.7c-0.4,0.7-0.6,1.5-0.7,2.4
			C268.5,162.5,268.5,162.9,268.6,163.2z"/>
		<path d="M289.3,159.6c0-0.1-0.1-0.1-0.1-0.2c0-0.1,0-0.1,0-0.1c-0.1-1.1,0-2.1,0.4-3.1c0.4-1,1-1.8,1.9-2.4c0.9-0.6,2-0.9,3.4-0.9
			c0.9,0,1.8,0.2,2.7,0.5c0.9,0.3,1.6,0.9,2.2,1.5c0.6,0.7,1,1.5,1.2,2.4c0.1,0.4,0.1,0.7,0.1,1.2c0,0.9-0.2,1.7-0.5,2.4
			s-0.8,1.3-1.3,1.8l-4.2,4.4h5.4c0.2,0,0.3,0,0.4,0.1c0.1,0.1,0.1,0.2,0.2,0.3c0,0.1,0,0.2,0,0.2l-0.1,2.8c0,0.2-0.1,0.3-0.1,0.4
			c-0.1,0.1-0.2,0.1-0.4,0.1h-11c-0.2,0-0.3,0-0.5-0.1c-0.1-0.1-0.2-0.2-0.2-0.3c0,0,0-0.1,0-0.1l0-1.6c0-0.2,0-0.4,0.1-0.5
			c0-0.1,0.1-0.2,0.3-0.4l7-8c0.2-0.3,0.4-0.5,0.6-0.7c0.1-0.2,0.2-0.5,0.2-0.9c0-0.1,0-0.2,0-0.3c-0.1-0.4-0.3-0.7-0.6-0.9
			c-0.3-0.2-0.7-0.3-1.1-0.3c-0.7,0-1.2,0.2-1.5,0.7c-0.3,0.5-0.5,1.1-0.5,1.9c0,0.2-0.1,0.3-0.1,0.3c-0.1,0-0.2,0.1-0.4,0l-3,0
			C289.4,159.8,289.3,159.7,289.3,159.6z"/>
		<path d="M314.1,153.5c0,0,0,0.1,0,0.2l-0.4,16.7c0,0.3-0.2,0.5-0.6,0.5h-3.4c-0.3,0-0.5-0.1-0.5-0.3c0-0.1,0-0.1,0-0.1l0.3-13.1
			l-2,0.9c-0.1,0-0.1,0-0.2,0c-0.1,0-0.2-0.1-0.2-0.2l0.1-2.9c0-0.2,0-0.3,0.1-0.4c0-0.1,0.1-0.2,0.3-0.2l1.7-0.9
			c0.5-0.2,0.9-0.4,1.3-0.4h3.2C314,153.3,314.1,153.4,314.1,153.5z"/>
	</g>
</g>
</svg>
