<?xml version="1.0" encoding="utf-8"?>
<!-- Generator: Adobe Illustrator 21.1.0, SVG Export Plug-In . SVG Version: 6.00 Build 0)  -->
<svg version="1.1" id="Capa_1" xmlns="http://www.w3.org/2000/svg" xmlns:xlink="http://www.w3.org/1999/xlink" x="0px" y="0px"
	 viewBox="0 0 342.9 342.9" style="enable-background:new 0 0 342.9 342.9;" xml:space="preserve">
<style type="text/css">
	.st0{fill:#D4BB04;}
	.st1{fill:#FFFFFF;}
	.st2{fill:none;stroke:#D4BB04;stroke-width:18;stroke-miterlimit:10;}
	.st3{fill:#D4BB04;stroke:#D4BB04;stroke-width:6;stroke-miterlimit:10;}
	.st4{fill:none;stroke:#D4BB04;stroke-width:8;stroke-miterlimit:10;}
	.st5{fill:#D0BE18;stroke:#D0BE18;stroke-width:7;stroke-miterlimit:10;}
</style>
<path class="st0" d="M171.4,0c-20.7,0-40.5,3.6-58.8,10.4C47.6,34.1,1.1,95.9,0,168.9c0,0.8,0,1.7,0,2.6c0,33.3,9.5,64.5,26,90.8
	c30.3,48.4,84.1,80.6,145.4,80.6c18.3,0,35.9-2.9,52.4-8.1c8.5-2.8,16.8-6.1,24.7-10.1c33.7-17,61-44.8,77.4-78.9
	c10.9-22.5,16.9-47.6,16.9-74.3C342.9,76.8,266.1,0,171.4,0z M171.4,305.6c-74.1,0-134.1-60-134.1-134.1
	c0-74.1,60-134.1,134.1-134.1s134.1,60,134.1,134.1C305.5,245.6,245.5,305.6,171.4,305.6z"/>
<g>
	<g>
		<path class="st0" d="M250.7,109.9c-7-7-16.2-10.8-26-10.8c-9.8,0-19.1,3.8-26,10.8l-45,45l-9.5-9.5c-7-7-16.2-10.8-26-10.8
			s-19.1,3.8-26,10.8c-7,7-10.8,16.2-10.8,26c0,9.8,3.8,19.1,10.8,26l35.5,35.5c7,7,16.2,10.8,26,10.8h0c9.8,0,19.1-3.8,26-10.8
			l71-71C265.1,147.6,265.1,124.3,250.7,109.9L250.7,109.9z M234.1,145.4l-71,71c-2.5,2.5-5.9,3.9-9.5,3.9c-3.6,0-6.9-1.4-9.5-3.9
			l-35.5-35.5c-2.5-2.5-3.9-5.9-3.9-9.5c0-3.6,1.4-6.9,3.9-9.5c2.5-2.5,5.9-3.9,9.5-3.9c3.6,0,6.9,1.4,9.5,3.9l17.7,17.7
			c4.6,4.6,12,4.6,16.6,0l53.2-53.2c2.5-2.5,5.9-3.9,9.5-3.9c3.6,0,6.9,1.4,9.5,3.9C239.4,131.7,239.4,140.2,234.1,145.4
			L234.1,145.4z M234.1,145.4"/>
	</g>
</g>
</svg>
