<?xml version="1.0" encoding="utf-8"?>
<!-- Generator: Adobe Illustrator 21.1.0, SVG Export Plug-In . SVG Version: 6.00 Build 0)  -->
<svg version="1.1" id="Layer_1" xmlns="http://www.w3.org/2000/svg" xmlns:xlink="http://www.w3.org/1999/xlink" x="0px" y="0px"
	 viewBox="0 0 269.5 58.4" style="enable-background:new 0 0 269.5 58.4;" xml:space="preserve">
<style type="text/css">
	.st0{fill:#85AE3F;}
	.st1{fill:#DC9C2E;}
	.st2{fill:#E3AF2D;}
	.st3{fill:#172851;}
	.st4{opacity:0.2;}
	.st5{enable-background:new    ;}
	.st6{fill:#FFFFFF;}
</style>
<title>LOGO EXPOHOGARR</title>
<g>
	<g id="Capa_1">
		<path class="st0" d="M28.2,6.7c2.2,3.2,8,11.9,11.6,17.3l3.7-7C43.2,16.6,32,0,32,0H14.5L11,6.7H28.2z"/>
		<path class="st1" d="M45,28.2L27.8,39.8l7,3.7c0.4-0.3,17-11.5,17-11.5V14.5L45,10.9V28.2z"/>
		<path class="st2" d="M23.5,45c-2.2-3.2-8-11.9-11.6-17.3l-3.7,7c0.3,0.4,11.5,17,11.5,17h17.6l3.5-6.7H23.5z"/>
		<path class="st3" d="M6.7,23.5L24,11.9l-7-3.7C16.6,8.5,0,19.7,0,19.7v17.6l6.7,3.5L6.7,23.5L6.7,23.5z"/>
		<polygon class="st3" points="23.9,29.1 23.9,28.7 23.9,27.3 23.9,25.5 23.1,25.5 26.2,22.7 23.6,20.4 20.3,22.4 20.3,29.5 
			23.9,31.7 		"/>
		<path class="st3" d="M26.6,22.5L26.6,22.5l1.6,1.5l1.1,1l0,0l0.5,0.5h-0.8v3.2h3.7v-6.3l-6.2-3.6L24,20.2L26.6,22.5z"/>
		<polygon class="st3" points="24.4,29.1 24.4,31.9 26.5,33.2 32.8,29.5 32.8,29.1 		"/>
		<path class="st3" d="M33.4,21.7l-0.2-0.1L26.9,18l-0.2-0.1c-0.1-0.1-0.3-0.1-0.4,0L26.1,18l-6.3,3.6l-0.2,0.1
			c-0.1,0.1-0.2,0.2-0.2,0.4v7.7c0,0.1,0.1,0.3,0.2,0.4l0.2,0.1l6.2,3.6l0.2,0.1c0.1,0.1,0.3,0.1,0.4,0l0.2-0.1l6.2-3.6l0.2-0.1
			c0.1-0.1,0.2-0.2,0.2-0.4v-7.7C33.6,22,33.5,21.8,33.4,21.7z M33.2,22.4v7.5L33,29.9l-6.2,3.6l-0.2,0.1l-0.2-0.1L20,29.9l-0.2-0.1
			v-7.7L20,22l6.2-3.6l0.2-0.1l0.2,0.1l6.3,3.6l0.2,0.1L33.2,22.4L33.2,22.4z"/>
		<path class="st3" d="M26.3,25.4h-0.8c0,0-0.1,0-0.1,0.1v0.8c0,0,0,0.1,0.1,0.1h0.8c0,0,0.1,0,0.1-0.1L26.3,25.4
			C26.4,25.5,26.4,25.4,26.3,25.4z"/>
		<path class="st3" d="M27.5,26.6h-0.8c0,0-0.1,0-0.1,0.1v0.8c0,0,0,0.1,0.1,0.1h0.8c0,0,0.1,0,0.1-0.1L27.5,26.6
			C27.6,26.6,27.5,26.6,27.5,26.6z"/>
		<path class="st3" d="M26.3,26.6h-0.8c0,0-0.1,0-0.1,0.1v0.8c0,0,0,0.1,0.1,0.1h0.8c0,0,0.1,0,0.1-0.1L26.3,26.6
			C26.4,26.6,26.4,26.6,26.3,26.6z"/>
		<path class="st3" d="M27.5,25.4h-0.8c0,0-0.1,0-0.1,0.1v0.8c0,0,0,0.1,0.1,0.1h0.8c0,0,0.1,0,0.1-0.1L27.5,25.4
			C27.6,25.5,27.5,25.4,27.5,25.4z"/>
		<g class="st4">
			<path class="st3" d="M26.2,22.7l-2.6-2.3l-3.4,2v7.2l3.7,2.1v-6.2h-0.8L26.2,22.7z M23.8,25.6v5.8l-3.4-2v-7l3.2-1.9l2.4,2.1
				l-3,2.7c0,0,0,0.1,0,0.2c0,0.1,0.1,0.1,0.1,0.1H23.8z"/>
			<path class="st3" d="M26.5,18.7L24,20.2l2.6,2.4l0,0l1.6,1.5l1.1,1l0,0l0.5,0.5h-0.8v3.2h3.7v-6.3L26.5,18.7z M32.6,28.5h-3.4
				v-2.9h0.7c0.1,0,0.1,0,0.1-0.1c0,0,0-0.1,0-0.2l-0.5-0.5l0,0l-1.1-1l-1.6-1.4l0,0l-2.5-2.2l2.3-1.3l6.1,3.5v6L32.6,28.5z"/>
			<path class="st3" d="M24.4,31.9l2.2,1.2l6.2-3.6v-0.5h-8.4V31.9z M24.5,29.2h8.1v0.3L26.5,33l-2-1.2
				C24.5,31.8,24.5,29.2,24.5,29.2z"/>
		</g>
		<path class="st3" d="M81,22.7c0,1.1-0.9,2-2,2H68c-1.1,0-2-0.9-2-2V2.9c0-1.1,0.9-2,2-2h11c1.1,0,2,0.9,2,2s-0.9,2-2,2l0,0h-9v5.9
			h7c1.1-0.2,2.1,0.5,2.3,1.6s-0.5,2.1-1.6,2.3c-0.2,0-0.5,0-0.7,0h-7v5.9h9C80.1,20.7,81,21.6,81,22.7z"/>
		<path class="st3" d="M102.8,21.5c0.2,0.3,0.4,0.7,0.4,1.1c0,1.1-0.9,2-2,2c-0.7,0-1.3-0.3-1.7-0.9l-5.4-7.5l-5.4,7.5
			c-0.4,0.5-1,0.9-1.7,0.9c-1.1,0-2-0.9-2-2c0-0.4,0.1-0.8,0.4-1.1l6.2-8.7l-6.2-8.7c-0.3-0.3-0.4-0.7-0.4-1.1c0-1.1,0.8-2,1.9-2.1
			c0,0,0.1,0,0.1,0c0.7,0,1.3,0.3,1.7,0.9l5.4,7.5l5.4-7.5c0.4-0.5,1-0.8,1.7-0.8c1.1,0,2,0.9,2,2c0,0.4-0.1,0.8-0.4,1.1l-6.2,8.7
			L102.8,21.5z"/>
		<path class="st3" d="M107.3,22.7V2.9c0-1.1,0.9-2,2-2h5.5c1.4,0,2.7,0.4,3.9,0.9c2.7,1.3,4.3,4,4.2,7c0,1.3-0.4,2.7-1,3.8
			c-1.4,2.6-4.2,4.2-7.1,4h-3.5v5.9c0,1.1-0.9,2-2,2S107.2,23.8,107.3,22.7L107.3,22.7z M111.3,12.8h3.5c1.4,0.2,2.8-0.5,3.5-1.8
			c0.3-0.7,0.6-1.4,0.6-2.2c0.1-1.4-0.6-2.8-1.9-3.4c-0.7-0.3-1.4-0.5-2.1-0.5h-3.5L111.3,12.8z"/>
		<path class="st3" d="M126.9,12.8c-0.3-6.4,4.7-11.7,11-12s11.7,4.7,12,11c0,0.3,0,0.6,0,1c0.3,6.4-4.7,11.7-11,12s-11.7-4.7-12-11
			C126.9,13.4,126.9,13.1,126.9,12.8z M130.9,12.8c-0.4,4.1,2.7,7.8,6.8,8.2s7.8-2.7,8.2-6.8c0-0.4,0-0.9,0-1.3
			c0.4-4.1-2.7-7.8-6.8-8.2s-7.8,2.7-8.2,6.8C130.9,11.9,130.9,12.3,130.9,12.8z"/>
		<path class="st3" d="M171.2,2.9v19.8c0,1.1-0.9,2-2,2s-2-0.9-2-2v-8h-9v7.9c0,1.1-0.9,2-2,2s-2-0.9-2-2V2.9c0-1.1,0.9-2,2-2
			s2,0.9,2,2v7.9h9V2.9c0-1.1,0.9-2,2-2S171.2,1.8,171.2,2.9z"/>
		<path class="st3" d="M175.4,12.8c-0.3-6.4,4.7-11.7,11-12s11.7,4.7,12,11c0,0.3,0,0.6,0,1c0.3,6.4-4.7,11.7-11,12s-11.7-4.7-12-11
			C175.3,13.4,175.3,13.1,175.4,12.8z M179.4,12.8c-0.4,4.1,2.7,7.8,6.8,8.2s7.8-2.7,8.2-6.8c0-0.4,0-0.9,0-1.3
			c0.4-4.1-2.7-7.8-6.8-8.2s-7.8,2.7-8.2,6.8C179.3,11.9,179.3,12.3,179.4,12.8z"/>
		<path class="st3" d="M206.1,21.2c-2.3-2.2-3.5-5.2-3.5-8.4c0-3.1,1.3-6.2,3.5-8.4c4.7-4.7,12.3-4.7,17.1,0
			c0.4,0.3,0.6,0.8,0.6,1.3c0,0.5-0.2,1-0.6,1.4c-0.4,0.4-0.9,0.6-1.4,0.6c-0.5,0-1-0.2-1.4-0.6c-1.5-1.5-3.5-2.3-5.7-2.3
			c-2.1,0-4.2,0.8-5.7,2.3c-1.5,1.5-2.4,3.5-2.4,5.6c0,4.4,3.6,7.9,8,7.9c1.9,0,3.7-0.6,5.1-1.8v-4.1h-5c-1.1,0.2-2.1-0.5-2.3-1.6
			s0.5-2.1,1.6-2.3c0.2,0,0.5,0,0.7,0h7c1.1,0,2,0.9,2,2v7c0,0.5-0.2,1-0.6,1.4C218.4,25.8,210.8,25.8,206.1,21.2L206.1,21.2z"/>
		<path class="st3" d="M247.8,21.9c0.1,0.2,0.2,0.5,0.2,0.8c0,1.1-0.9,2-2,2c-0.8,0-1.5-0.5-1.9-1.3l-1.5-3.7h-9.3l-1.5,3.7
			c-0.4,1-1.6,1.5-2.6,1.1c-0.7-0.3-1.2-1-1.2-1.8c0-0.3,0-0.5,0.2-0.8l8-19.8c0.4-1,1.6-1.5,2.6-1.1c0.5,0.2,0.9,0.6,1.1,1.1
			L247.8,21.9z M240.9,15.8l-3-7.5l-3.1,7.5H240.9z"/>
		<path class="st3" d="M267.2,21.7c0.2,0.3,0.3,0.7,0.3,1.1c0,0.7-0.4,1.3-1,1.6c-0.3,0.2-0.6,0.3-1,0.3c-0.7,0-1.3-0.3-1.7-0.9
			l-4.4-7H256v5.9c0,1.1-0.9,2-2,2s-2-0.9-2-2V2.9c0-1.1,0.9-2,2-2h5.5c1.4,0,2.7,0.4,3.9,0.9c2.7,1.3,4.3,4,4.2,7
			c0,1.3-0.4,2.7-1,3.8c-0.7,1.3-1.7,2.4-3,3.1L267.2,21.7z M256,12.8h3.5c1.4,0.2,2.9-0.5,3.5-1.8c0.3-0.7,0.6-1.4,0.6-2.2
			c0.1-1.4-0.6-2.8-1.9-3.4c-0.7-0.3-1.4-0.5-2.1-0.5H256V12.8z"/>
		<path class="st3" d="M123.2,38.1l-3.3-3.3c-0.3-0.3-0.8-0.3-1.1,0c-0.1,0.1-0.2,0.3-0.2,0.5V42c0,0.4,0.4,0.8,0.8,0.7
			c0.2,0,0.4-0.1,0.5-0.2l3.3-3.3C123.5,38.8,123.5,38.4,123.2,38.1z"/>
		<path class="st3" d="M116.3,38.1l-3.3-3.3c-0.3-0.3-0.8-0.3-1.1,0c-0.1,0.1-0.2,0.3-0.2,0.5V42c0,0.4,0.4,0.8,0.8,0.7
			c0.2,0,0.4-0.1,0.5-0.2l3.3-3.3C116.6,38.8,116.6,38.4,116.3,38.1C116.3,38.1,116.3,38.1,116.3,38.1z"/>
		<path class="st3" d="M109.4,38.1l-3.3-3.3c-0.3-0.3-0.8-0.3-1.1,0c-0.1,0.1-0.2,0.3-0.2,0.5V42c0,0.4,0.4,0.8,0.8,0.7
			c0.2,0,0.4-0.1,0.5-0.2l3.3-3.3C109.7,38.9,109.7,38.4,109.4,38.1C109.4,38.1,109.4,38.1,109.4,38.1z"/>
		<path class="st3" d="M136.6,29.4h124.7c4.6,0,8.3,3.7,8.3,8.3v2.4c0,4.6-3.7,8.3-8.3,8.3H136.6c-4.6,0-8.3-3.7-8.3-8.3v-2.4
			C128.3,33.1,132,29.4,136.6,29.4z"/>
		<g class="st5">
			<path class="st6" d="M139.6,42.9v-8.2c0-0.4,0.4-0.8,0.8-0.8s0.8,0.4,0.8,0.8v8.2c0,0.4-0.4,0.8-0.8,0.8S139.6,43.4,139.6,42.9z"
				/>
			<path class="st6" d="M148.8,43.4l-4.2-6.1v5.6c0,0.4-0.4,0.8-0.8,0.8s-0.8-0.4-0.8-0.8v-8.2c0-0.4,0.3-0.8,0.8-0.8
				c0.3,0,0.5,0.1,0.7,0.3l4.2,6.1v-5.6c0-0.4,0.4-0.8,0.8-0.8c0.4,0,0.8,0.4,0.8,0.8v8.2c0,0.4-0.4,0.8-0.8,0.8
				C149.2,43.7,148.9,43.6,148.8,43.4z"/>
			<path class="st6" d="M159.3,42.9v-5.7l-2.2,2.9c-0.2,0.2-0.4,0.3-0.7,0.3s-0.5-0.1-0.7-0.3l-2.2-2.9v5.7c0,0.4-0.4,0.8-0.8,0.8
				c-0.4,0-0.8-0.4-0.8-0.8v-8.2c0-0.4,0.4-0.8,0.8-0.8c0.3,0,0.5,0.1,0.6,0.3l3,4l3-4c0.2-0.2,0.4-0.3,0.6-0.3
				c0.5,0,0.8,0.4,0.8,0.8v8.2c0,0.4-0.4,0.8-0.8,0.8C159.7,43.7,159.3,43.4,159.3,42.9z"/>
			<path class="st6" d="M162.7,38.8c0-2.7,2.1-4.9,4.7-4.9c2.6,0,4.7,2.2,4.7,4.9s-2.1,4.9-4.7,4.9
				C164.8,43.7,162.7,41.5,162.7,38.8z M164.3,38.8c0,1.8,1.4,3.3,3.1,3.3c1.7,0,3.1-1.5,3.1-3.3s-1.4-3.3-3.1-3.3
				C165.7,35.5,164.3,37,164.3,38.8z"/>
			<path class="st6" d="M180.3,40.7c0,1.9-1.6,3.1-2.9,3.1h-2.9c-0.4,0-0.8-0.4-0.8-0.8v-8.2c0-0.4,0.4-0.8,0.8-0.8h2.3
				c0.1,0,0.7,0,1.3,0.3c0.9,0.4,1.4,1.3,1.4,2.3c0,0.6-0.2,1.1-0.4,1.5C179.9,38.6,180.3,39.5,180.3,40.7z M175.4,37.6h1.2
				c0.2,0,1.2,0,1.2-1c0-0.9-0.6-1-0.9-1c-0.1,0-0.1,0-0.1,0h-1.4V37.6z M178.7,40.7c0-0.5-0.3-1.4-1.3-1.4h-1.9v2.9h1.9
				c0,0,0.4,0,0.7-0.2C178.6,41.6,178.7,41,178.7,40.7z"/>
			<path class="st6" d="M182,42.9v-8.2c0-0.4,0.4-0.8,0.8-0.8s0.8,0.4,0.8,0.8v8.2c0,0.4-0.4,0.8-0.8,0.8S182,43.4,182,42.9z"/>
			<path class="st6" d="M186.1,43.7c-0.5,0-0.8-0.4-0.8-0.8v-8.2c0-0.4,0.4-0.8,0.8-0.8c0.4,0,0.8,0.4,0.8,0.8v7.4h2.9
				c0.4,0,0.8,0.4,0.8,0.8c0,0.4-0.4,0.8-0.8,0.8H186.1z"/>
			<path class="st6" d="M192.3,42.9v-8.2c0-0.4,0.4-0.8,0.8-0.8s0.8,0.4,0.8,0.8v8.2c0,0.4-0.4,0.8-0.8,0.8S192.3,43.4,192.3,42.9z"
				/>
			<path class="st6" d="M203.8,42.6c0,0.1,0.1,0.2,0.1,0.3c0,0.4-0.3,0.8-0.8,0.8c-0.3,0-0.6-0.2-0.8-0.5l-0.6-1.5h-3.8l-0.6,1.5
				c-0.1,0.3-0.4,0.5-0.8,0.5c-0.5,0-0.8-0.4-0.8-0.8c0-0.1,0-0.2,0.1-0.3l3.3-8.2c0.1-0.3,0.4-0.5,0.8-0.5c0.3,0,0.6,0.2,0.8,0.5
				L203.8,42.6z M201,40.1l-1.2-3.1l-1.3,3.1H201z"/>
			<path class="st6" d="M211.7,42.5c0.1,0.1,0.1,0.3,0.1,0.4c0,0.3-0.1,0.5-0.4,0.7c-0.1,0.1-0.3,0.1-0.4,0.1
				c-0.3,0-0.5-0.1-0.7-0.4l-1.8-2.9h-1.4v2.5c0,0.4-0.4,0.8-0.8,0.8s-0.8-0.4-0.8-0.8v-8.2c0-0.4,0.4-0.8,0.8-0.8h2.2
				c0.1,0,0.8,0,1.6,0.4c1.1,0.5,1.7,1.6,1.7,2.9c0,0.1,0,0.8-0.4,1.6c-0.3,0.6-0.7,1-1.2,1.3L211.7,42.5z M207.2,38.8h1.4
				c0.7,0,1.2-0.2,1.4-0.7c0.2-0.4,0.2-0.9,0.2-0.9c0-0.7-0.3-1.2-0.8-1.4c-0.4-0.2-0.9-0.2-0.9-0.2h-1.4V38.8z"/>
			<path class="st6" d="M213.6,42.9v-8.2c0-0.4,0.4-0.8,0.8-0.8s0.8,0.4,0.8,0.8v8.2c0,0.4-0.4,0.8-0.8,0.8S213.6,43.4,213.6,42.9z"
				/>
			<path class="st6" d="M225,42.6c0,0.1,0.1,0.2,0.1,0.3c0,0.4-0.3,0.8-0.8,0.8c-0.3,0-0.6-0.2-0.8-0.5l-0.6-1.5h-3.8l-0.6,1.5
				c-0.1,0.3-0.4,0.5-0.8,0.5c-0.5,0-0.8-0.4-0.8-0.8c0-0.1,0-0.2,0.1-0.3l3.3-8.2c0.1-0.3,0.4-0.5,0.8-0.5c0.3,0,0.6,0.2,0.8,0.5
				L225,42.6z M222.2,40.1l-1.2-3.1l-1.2,3.1H222.2z"/>
			<path class="st6" d="M228.4,42.9c0,0.4-0.4,0.8-0.8,0.8s-0.8-0.4-0.8-0.8c0-0.5,0.4-0.8,0.8-0.8S228.4,42.5,228.4,42.9z"/>
			<path class="st6" d="M237.7,42c0.2,0.4,0.1,0.9-0.3,1.1c-0.7,0.4-1.5,0.6-2.3,0.6c-2.7,0-4.9-2.2-4.9-4.9s2.2-4.9,4.9-4.9
				c0.8,0,1.6,0.2,2.3,0.6c0.4,0.2,0.5,0.7,0.3,1.1c-0.2,0.4-0.7,0.5-1.1,0.3c-0.5-0.3-1-0.4-1.6-0.4c-1.8,0-3.3,1.5-3.3,3.3
				s1.5,3.3,3.3,3.3c0.5,0,1.1-0.1,1.6-0.4C236.9,41.5,237.4,41.6,237.7,42z"/>
			<path class="st6" d="M238.7,38.8c0-2.7,2.1-4.9,4.7-4.9c2.6,0,4.7,2.2,4.7,4.9s-2.1,4.9-4.7,4.9
				C240.8,43.7,238.7,41.5,238.7,38.8z M240.4,38.8c0,1.8,1.4,3.3,3.1,3.3c1.7,0,3.1-1.5,3.1-3.3s-1.4-3.3-3.1-3.3
				C241.8,35.5,240.4,37,240.4,38.8z"/>
			<path class="st6" d="M257.2,42.9v-5.7l-2.2,2.9c-0.2,0.2-0.4,0.3-0.7,0.3s-0.5-0.1-0.7-0.3l-2.2-2.9v5.7c0,0.4-0.4,0.8-0.8,0.8
				c-0.4,0-0.8-0.4-0.8-0.8v-8.2c0-0.4,0.4-0.8,0.8-0.8c0.3,0,0.5,0.1,0.6,0.3l3,4l3-4c0.2-0.2,0.4-0.3,0.6-0.3
				c0.5,0,0.8,0.4,0.8,0.8v8.2c0,0.4-0.4,0.8-0.8,0.8C257.6,43.7,257.2,43.4,257.2,42.9z"/>
		</g>
	</g>
</g>
</svg>
