<?xml version="1.0" encoding="utf-8"?>
<!-- Generator: Adobe Illustrator 22.1.0, SVG Export Plug-In . SVG Version: 6.00 Build 0)  -->
<svg version="1.1" id="Capa_1" xmlns="http://www.w3.org/2000/svg" xmlns:xlink="http://www.w3.org/1999/xlink" x="0px" y="0px"
	 viewBox="0 0 342.9 342.9" style="enable-background:new 0 0 342.9 342.9;" xml:space="preserve">
<style type="text/css">
	.st0{fill:#D0BE18;stroke:#D0BE18;stroke-width:7;stroke-miterlimit:10;}
	.st1{fill:#C13434;}
	.st2{fill:#FFFFFF;}
</style>
<path class="st0" d="M260.4,126.4c-1.9-1.2-4.4-1.3-6.4-0.3l-43.1,21.5V132c0-10.9-8.8-19.7-19.7-19.7H99.1
	c-10.9,0-19.7,8.8-19.7,19.7v78.9c0,10.9,8.8,19.7,19.7,19.7h92.1c10.9,0,19.7-8.8,19.7-19.7v-15.7l43.1,21.6
	c3.2,1.6,7.2,0.3,8.8-2.9c0.5-0.9,0.7-1.9,0.7-3V132C263.5,129.7,262.3,127.6,260.4,126.4z M197.7,210.9c0,3.6-2.9,6.6-6.6,6.6h-92
	c-3.6,0-6.6-2.9-6.6-6.6V132c0-3.6,2.9-6.6,6.6-6.6h92.1c3.6,0,6.6,2.9,6.6,6.6v78.9H197.7z M250.3,200.2l-39.5-19.7v-18.2
	l39.5-19.7V200.2z"/>
<g>
	<path class="st1" d="M168.5,298.9c-23.6,0.5-50.1-0.7-76.5-2.8c-13.4-1.1-27-1.3-40.1-5c-27.8-7.9-48.1-34.3-50.2-65
		c-2.3-34-1.8-67.9-0.7-101.9C1.8,102,8.6,82.8,24.3,67.8c11.9-11.4,25.8-17.4,41.7-18.6c10.5-0.8,21-1.9,31.6-2.7
		c22.6-1.7,45.2-2.4,67.8-2.5c24.5-0.1,49,0.2,73.5,2c16.4,1.2,32.9,1.6,49,5.1c26.5,5.7,48.2,30,52.4,58.6
		c2.2,15.2,2.2,30.6,2.4,45.9c0.3,24.4,0.7,48.8-1.7,73.1c-2.5,25-14.7,43.7-35,56.2c-10.8,6.7-22.8,8.7-34.9,9.7
		c-12.9,1.1-25.9,1.8-38.8,2.8C211.9,298.7,191.7,299,168.5,298.9z"/>
	<path class="st2" d="M140,221.3c0-33.2,0-66.5,0-100.4c5.8,3.5,11.1,6.6,16.4,9.9c21.2,12.8,42.4,25.6,63.6,38.4
		c3.7,2.2,3.7,2.3,0,4.5c-25.9,15.6-51.7,31.3-77.6,46.9C141.7,221,141.2,221.7,140,221.3z"/>
</g>
</svg>
