<?xml version="1.0" encoding="utf-8"?>
<!-- Generator: Adobe Illustrator 22.1.0, SVG Export Plug-In . SVG Version: 6.00 Build 0)  -->
<svg version="1.1" id="Layer_1" xmlns="http://www.w3.org/2000/svg" xmlns:xlink="http://www.w3.org/1999/xlink" x="0px" y="0px"
	 viewBox="0 0 833.6 160.5" style="enable-background:new 0 0 833.6 160.5;" xml:space="preserve">
<style type="text/css">
	.st0{fill:#86AF37;}
	.st1{fill:#DD9D30;}
	.st2{fill:#E4B02F;}
	.st3{fill:#002553;}
	.st4{opacity:0.2;}
</style>
<g>
	<g>
		<g>
			<g>
				<path class="st0" d="M121.9,21.2c6.6,9.8,24.4,36.3,35.6,52.9l11.3-21.3c-0.8-1.1-35.1-52-35.1-52H80L69.3,21.2H121.9z"/>
			</g>
			<g>
				<path class="st1" d="M173.5,87c-9.8,6.6-36.3,24.4-52.9,35.6l21.3,11.3c1.1-0.8,52-35.1,52-35.1V45.1l-20.5-10.8V87z"/>
			</g>
			<g>
				<g>
					<path class="st2" d="M107.7,138.6c-6.6-9.8-24.4-36.3-35.6-52.9l-11.3,21.3c0.8,1.1,35.1,52,35.1,52h53.7l10.8-20.5H107.7z"/>
				</g>
			</g>
			<g>
				<path class="st3" d="M56.1,72.8c9.8-6.6,36.3-24.4,52.9-35.6L87.7,25.9c-1.1,0.8-52,35.1-52,35.1v53.7l20.5,10.8V72.8z"/>
			</g>
			<g>
				<g>
					<g>
						<polygon class="st3" points="108.9,89.8 108.9,88.5 108.9,84.4 108.9,78.7 106.4,78.7 115.8,70.2 108,63.2 97.7,69.2 
							97.7,91.2 108.9,97.7 						"/>
						<path class="st3" d="M117.2,69.7C117.2,69.8,117.2,69.8,117.2,69.7l4.9,4.4l3.4,3.1l0,0l1.6,1.5h-2.5v9.7h11.2V69.2l-19.1-11
							l-7.6,4.4L117.2,69.7z"/>
						<polygon class="st3" points="110.2,89.8 110.2,98.5 116.8,102.3 135.9,91.2 135.9,89.8 						"/>
					</g>
					<path class="st3" d="M137.8,67.3l-0.6-0.4l-19.1-11l-0.6-0.4c-0.2-0.1-0.4-0.2-0.6-0.2c-0.2,0-0.4,0.1-0.6,0.2l-0.6,0.4
						L96.4,67l-0.6,0.4c-0.4,0.2-0.6,0.6-0.6,1.1v0.7v22.1V92c0,0.5,0.2,0.9,0.6,1.1l0.6,0.4l19.1,11l0.6,0.4
						c0.2,0.1,0.4,0.2,0.6,0.2c0.2,0,0.4-0.1,0.6-0.2l0.6-0.4l19.1-11l0.6-0.4c0.4-0.2,0.6-0.6,0.6-1.1v-0.7V69.2v-0.7
						C138.4,68,138.2,67.6,137.8,67.3z M137.2,69.2v22.1V92l-0.6,0.4l-19.1,11l-0.6,0.4l-0.6-0.4L97,92.3L96.4,92v-0.7V69.2v-0.7
						l0.6-0.4l19.1-11l0.6-0.4l0.6,0.4l19.1,11l0.6,0.4V69.2z"/>
					<g>
						<path class="st3" d="M116.3,78.6h-2.5c-0.1,0-0.2,0.1-0.2,0.2v2.5c0,0.1,0.1,0.2,0.2,0.2h2.5c0.1,0,0.2-0.1,0.2-0.2v-2.5
							C116.5,78.7,116.4,78.6,116.3,78.6z"/>
						<path class="st3" d="M119.8,82.2h-2.5c-0.1,0-0.2,0.1-0.2,0.2v2.5c0,0.1,0.1,0.2,0.2,0.2h2.5c0.1,0,0.2-0.1,0.2-0.2v-2.5
							C120,82.3,119.9,82.2,119.8,82.2z"/>
						<path class="st3" d="M116.3,82.2h-2.5c-0.1,0-0.2,0.1-0.2,0.2v2.5c0,0.1,0.1,0.2,0.2,0.2h2.5c0.1,0,0.2-0.1,0.2-0.2v-2.5
							C116.5,82.3,116.4,82.2,116.3,82.2z"/>
						<path class="st3" d="M119.8,78.6h-2.5c-0.1,0-0.2,0.1-0.2,0.2v2.5c0,0.1,0.1,0.2,0.2,0.2h2.5c0.1,0,0.2-0.1,0.2-0.2v-2.5
							C120,78.7,119.9,78.6,119.8,78.6z"/>
					</g>
					<g class="st4">
						<path class="st3" d="M115.8,70.2l-7.8-7l-10.3,6v22.1l11.2,6.5v-8v-1.3v-4.1v-5.6h-2.5L115.8,70.2z M108.4,79.2v5.2v4.1v1.3
							v7.2l-10.3-6V69.4l9.8-5.7l7.2,6.5l-9.1,8.2c-0.1,0.1-0.2,0.3-0.1,0.5c0.1,0.2,0.2,0.3,0.4,0.3H108.4z"/>
						<path class="st3" d="M116.8,58.1l-7.6,4.4l8,7.2c0,0,0,0,0,0l4.9,4.4l3.4,3.1l0,0l1.6,1.5h-2.5v9.7h11.2V69.2L116.8,58.1z
							 M135.4,88h-10.3v-8.8h2.1c0.2,0,0.4-0.1,0.4-0.3c0.1-0.2,0-0.4-0.1-0.5l-1.6-1.4c0,0,0,0,0,0l-3.4-3.1l-4.9-4.4
							c0,0,0,0-0.1,0l-7.5-6.8l6.9-4l18.7,10.8V88z"/>
						<path class="st3" d="M110.2,98.5l6.6,3.8l19.1-11v-1.5h-25.7V98.5z M110.6,90.2h24.8V91l-18.7,10.8l-6.2-3.6V90.2z"/>
					</g>
				</g>
			</g>
		</g>
		<g>
			<path class="st3" d="M268.4,105.5c0,2.8-2.3,5-5.2,5h-28c-2.9,0-5.2-2.2-5.2-5V55.2c0-2.8,2.3-5,5.2-5h28c2.9,0,5.2,2.2,5.2,5
				c0,2.8-2.3,5.1-5.2,5.1h-22.9v15.1h17.9c2.8,0,5.1,2.2,5.1,5c0,2.8-2.3,5-5.1,5h-17.9v15.1h22.9
				C266.1,100.4,268.4,102.7,268.4,105.5z"/>
			<path class="st3" d="M323.9,102.6c0.6,0.9,1,1.9,1,2.9c0,2.6-2.4,5-5.1,5c-1.7,0-3.2-0.8-4.2-2.2l-13.7-19.2l-13.7,19.2
				c-1,1.4-2.5,2.2-4.2,2.2c-2.8,0-5.1-2.4-5.1-5c0-0.9,0.3-2,1-2.9l15.8-22.2l-15.8-22.2c-0.6-0.8-1-1.6-1-2.7
				c0-2.6,1.9-5.3,5.1-5.3c1.7,0,3.2,0.8,4.2,2.2l13.7,19.2l13.7-19.2c1-1.4,2.5-2.2,4.2-2.2c2.8,0,5.1,2.4,5.1,5c0,1-0.4,2.1-1,2.9
				l-15.8,22.2L323.9,102.6z"/>
			<path class="st3" d="M335.3,105.5V55.2c0-2.8,2.3-5,5.1-5h13.9c0.5,0,5.2,0.1,10,2.4c6.8,3.4,10.6,9.6,10.6,17.7
				c0,0.5-0.1,5.2-2.5,9.8c-3.4,6.6-9.9,10.3-18.1,10.3h-8.8v15.1c0,2.8-2.3,5-5.2,5C337.6,110.5,335.3,108.3,335.3,105.5z
				 M345.6,80.3h8.8c4.4,0,7.2-1.5,8.8-4.6c1.4-2.6,1.5-5.3,1.5-5.5c0-4.3-1.6-7.1-4.9-8.7c-2.6-1.3-5.4-1.3-5.4-1.3h-8.8V80.3z"/>
			<path class="st3" d="M385.4,80.3c0-16.6,13.1-30.2,29.3-30.2c16.2,0,29.4,13.5,29.4,30.2s-13.2,30.2-29.4,30.2
				C398.6,110.5,385.4,97,385.4,80.3z M395.7,80.3c0,11.1,8.6,20.1,19.1,20.1c10.6,0,19.2-9,19.2-20.1s-8.6-20.1-19.2-20.1
				C404.3,60.3,395.7,69.2,395.7,80.3z"/>
			<path class="st3" d="M498.1,55.2v50.4c0,2.8-2.3,5-5.2,5c-2.8,0-5.1-2.2-5.1-5V85.3h-22.9v20.2c0,2.8-2.4,5-5.2,5
				c-2.8,0-5.1-2.2-5.1-5V55.2c0-2.8,2.3-5,5.1-5c2.8,0,5.2,2.2,5.2,5v20.2h22.9V55.2c0-2.8,2.3-5,5.1-5
				C495.8,50.2,498.1,52.4,498.1,55.2z"/>
			<path class="st3" d="M508.6,80.3c0-16.6,13.1-30.2,29.3-30.2s29.4,13.5,29.4,30.2s-13.2,30.2-29.4,30.2S508.6,97,508.6,80.3z
				 M518.9,80.3c0,11.1,8.6,20.1,19.1,20.1c10.6,0,19.2-9,19.2-20.1s-8.6-20.1-19.2-20.1C527.5,60.3,518.9,69.2,518.9,80.3z"/>
			<path class="st3" d="M586.8,101.7c-5.8-5.7-8.9-13.3-8.9-21.4c0-8,3.2-15.6,8.9-21.3c5.8-5.8,13.5-8.9,21.7-8.9
				c8.1,0,15.9,3.1,21.7,8.9c1,0.9,1.4,2.2,1.4,3.4s-0.4,2.6-1.5,3.6s-2.3,1.5-3.6,1.5c-1.3,0-2.6-0.4-3.6-1.5
				c-3.9-3.8-9-5.9-14.4-5.9c-5.5,0-10.6,2.1-14.4,5.9c-3.9,3.8-6,8.9-6,14.2c0,5.3,2.2,10.4,6,14.2c3.9,4,9.2,6,14.4,6
				c4.6,0,9.2-1.6,13-4.6V85.3h-12.8c-2.8,0-5.2-2.2-5.2-5c0-2.8,2.4-5,5.2-5h17.9c2.8,0,5.1,2.2,5.1,5v17.8c0,1.4-0.5,2.7-1.5,3.6
				c-6,5.9-13.8,8.8-21.6,8.8C600.7,110.5,592.8,107.6,586.8,101.7z"/>
			<path class="st3" d="M692.9,103.6c0.3,0.6,0.4,1.3,0.4,1.9c0,2.6-2,5-5.1,5c-2,0-3.9-1.2-4.7-3.2l-3.9-9.4h-23.7l-3.9,9.4
				c-0.8,2-2.7,3.2-4.7,3.2c-3,0-5.1-2.5-5.1-5c0-0.7,0.1-1.3,0.4-1.9l20.4-50.3c0.8-1.9,2.7-3.2,4.8-3.2c2,0,3.9,1.3,4.7,3.2
				L692.9,103.6z M675.4,87.9l-7.7-19.2l-7.8,19.2H675.4z"/>
			<path class="st3" d="M742.5,102.9c0.5,0.9,0.8,1.7,0.8,2.7c0,1.6-0.9,3.3-2.5,4.2c-0.8,0.5-1.8,0.8-2.6,0.8
				c-1.8,0-3.4-0.9-4.4-2.3l-11.3-17.8H714v15.1c0,2.8-2.4,5-5.2,5c-2.8,0-5.1-2.2-5.1-5V55.2c0-2.8,2.3-5,5.1-5h13.9
				c0.5,0,5.2,0.1,10,2.4c6.8,3.4,10.6,9.6,10.6,17.7c0,0.5-0.1,5.2-2.5,9.8c-1.8,3.5-4.5,6.2-7.7,7.9L742.5,102.9z M714,80.3h8.8
				c4.4,0,7.2-1.5,8.8-4.6c1.4-2.6,1.5-5.3,1.5-5.5c0-4.3-1.6-7.1-4.9-8.7c-2.6-1.3-5.4-1.3-5.4-1.3H714V80.3z"/>
		</g>
		<g>
			<path class="st0" d="M246.6,13.8c1.2,0,2.2,1,2.2,2.1c0,1.2-1,2.2-2.2,2.2h-10.8v6.4h8.6c1.2,0,2.2,1,2.2,2.1s-1,2.1-2.2,2.1
				h-8.6v8.6c0,1.2-1,2.1-2.2,2.1s-2.2-1-2.2-2.1V16c0-1.2,1-2.1,2.2-2.1H246.6z"/>
			<path class="st0" d="M269.5,37.3c0,1.2-1,2.1-2.2,2.1h-11.9c-1.2,0-2.2-1-2.2-2.1V16c0-1.2,1-2.1,2.2-2.1h11.9
				c1.2,0,2.2,1,2.2,2.1c0,1.2-1,2.2-2.2,2.2h-9.7v6.4h7.6c1.2,0,2.2,1,2.2,2.1s-1,2.1-2.2,2.1h-7.6v6.4h9.7
				C268.6,35.2,269.5,36.1,269.5,37.3z"/>
			<path class="st0" d="M290.5,36.2c0.2,0.4,0.3,0.7,0.3,1.1c0,0.7-0.4,1.4-1,1.8c-0.3,0.2-0.7,0.3-1.1,0.3c-0.7,0-1.4-0.4-1.9-1
				l-4.8-7.5h-3.6v6.4c0,1.2-1,2.1-2.2,2.1s-2.2-1-2.2-2.1V16c0-1.2,1-2.1,2.2-2.1h5.9c0.2,0,2.2,0,4.2,1c2.9,1.4,4.5,4.1,4.5,7.5
				c0,0.2,0,2.2-1,4.2c-0.8,1.5-1.9,2.6-3.3,3.4L290.5,36.2z M278.3,26.6h3.7c1.9,0,3-0.6,3.7-1.9c0.6-1.1,0.6-2.3,0.6-2.3
				c0-1.8-0.7-3-2.1-3.7c-1.1-0.5-2.3-0.5-2.3-0.5h-3.7V26.6z"/>
			<path class="st0" d="M295.2,37.3V16c0-1.2,1-2.1,2.2-2.1s2.2,1,2.2,2.1v21.4c0,1.2-1,2.1-2.2,2.1S295.2,38.5,295.2,37.3z"/>
			<path class="st0" d="M325.5,36.5c0.1,0.3,0.1,0.5,0.1,0.8c0,1.1-0.9,2.1-2.2,2.1c-0.9,0-1.7-0.5-2-1.4l-1.6-4h-10.1l-1.6,4
				c-0.3,0.8-1.2,1.4-2,1.4c-1.3,0-2.2-1.1-2.2-2.1c0-0.3,0-0.5,0.1-0.8l8.7-21.3c0.3-0.8,1.2-1.4,2-1.4c0.9,0,1.7,0.5,2,1.4
				L325.5,36.5z M318.1,29.9l-3.3-8.2l-3.3,8.2H318.1z"/>
			<path class="st0" d="M350.3,38.1l-8.7-21.3c-0.1-0.3-0.1-0.5-0.1-0.8c0-1.1,0.9-2.2,2.2-2.2c0.9,0,1.7,0.5,2,1.4l6.7,16.4
				l6.6-16.4c0.3-0.8,1.2-1.4,2-1.4c1.3,0,2.2,1.1,2.2,2.1c0,0.3,0,0.5-0.1,0.8l-8.6,21.3c-0.3,0.8-1.2,1.4-2,1.4
				C351.5,39.4,350.7,38.9,350.3,38.1z"/>
			<path class="st0" d="M367.6,37.3V16c0-1.2,1-2.1,2.2-2.1s2.2,1,2.2,2.1v21.4c0,1.2-1,2.1-2.2,2.1S367.6,38.5,367.6,37.3z"/>
			<path class="st0" d="M392.9,36.2c0.2,0.4,0.3,0.7,0.3,1.1c0,0.7-0.4,1.4-1,1.8c-0.3,0.2-0.7,0.3-1.1,0.3c-0.7,0-1.4-0.4-1.9-1
				l-4.8-7.5h-3.6v6.4c0,1.2-1,2.1-2.2,2.1s-2.2-1-2.2-2.1V16c0-1.2,1-2.1,2.2-2.1h5.9c0.2,0,2.2,0,4.2,1c2.9,1.4,4.5,4.1,4.5,7.5
				c0,0.2,0,2.2-1,4.2c-0.8,1.5-1.9,2.6-3.3,3.4L392.9,36.2z M380.7,26.6h3.7c1.9,0,3-0.6,3.8-1.9c0.6-1.1,0.6-2.3,0.6-2.3
				c0-1.8-0.7-3-2.1-3.7c-1.1-0.5-2.3-0.5-2.3-0.5h-3.7V26.6z"/>
			<path class="st0" d="M411,13.8c1.2,0,2.2,1,2.2,2.1c0,1.2-1,2.2-2.2,2.2h-4.3v19.2c0,1.2-1,2.1-2.2,2.1c-1.2,0-2.2-1-2.2-2.1
				V18.1H398c-1.2,0-2.2-1-2.2-2.2c0-1.2,1-2.1,2.2-2.1H411z"/>
			<path class="st0" d="M418.7,34.5c-1-2.2-1.1-4.4-1.1-4.6V16c0-1.2,1-2.1,2.2-2.1c1.2,0,2.2,1,2.2,2.1v13.9c0,0.5,0.4,5.3,4.9,5.3
				c4.2,0,4.9-4.5,4.9-5.3V16c0-1.2,1-2.1,2.2-2.1c1.2,0,2.2,1,2.2,2.1v13.9c0,0.3,0,2.4-1,4.6c-1.5,3.2-4.4,5-8.1,5
				C423.1,39.4,420.3,37.7,418.7,34.5z"/>
			<path class="st0" d="M460.3,36.5c0.1,0.3,0.1,0.5,0.1,0.8c0,1.1-0.9,2.1-2.2,2.1c-0.9,0-1.7-0.5-2-1.4l-1.6-4h-10.1l-1.6,4
				c-0.3,0.8-1.2,1.4-2,1.4c-1.3,0-2.2-1.1-2.2-2.1c0-0.3,0-0.5,0.1-0.8l8.6-21.3c0.3-0.8,1.2-1.4,2-1.4c0.9,0,1.7,0.5,2,1.4
				L460.3,36.5z M452.9,29.9l-3.3-8.2l-3.3,8.2H452.9z"/>
			<path class="st0" d="M467.1,39.4c-1.2,0-2.2-1-2.2-2.1V16c0-1.2,1-2.1,2.2-2.1c1.2,0,2.2,1,2.2,2.1v19.2h7.6c1.2,0,2.2,1,2.2,2.2
				c0,1.2-1,2.1-2.2,2.1H467.1z"/>
		</g>
		<g>
			<path class="st0" d="M517.3,148.1v-21.4c0-1.2,1-2.1,2.2-2.1c1.2,0,2.2,1,2.2,2.1v21.4c0,1.2-1,2.1-2.2,2.1
				C518.3,150.3,517.3,149.3,517.3,148.1z"/>
			<path class="st0" d="M541.6,149.4l-11.2-15.8v14.6c0,1.2-1,2.1-2.2,2.1c-1.2,0-2.2-1-2.2-2.1v-21.4c0-1.1,0.9-2.1,2.2-2.1
				c0.7,0,1.3,0.3,1.7,0.9l11.2,15.8v-14.6c0-1.2,1-2.1,2.2-2.1c1.2,0,2.2,1,2.2,2.1v21.4c0,1.1-1,2.1-2.2,2.1
				C542.7,150.3,542.1,149.9,541.6,149.4z"/>
			<path class="st0" d="M569.5,148.1v-15l-5.8,7.7c-0.4,0.5-1.1,0.9-1.7,0.9c-0.7,0-1.3-0.3-1.7-0.9l-5.8-7.7v15
				c0,1.2-1,2.1-2.2,2.1c-1.2,0-2.2-1-2.2-2.1v-21.4c0-1.1,0.9-2.1,2.2-2.1c0.7,0,1.3,0.3,1.7,0.8l8,10.5l8-10.5
				c0.4-0.5,1-0.8,1.7-0.8c1.3,0,2.2,1,2.2,2.1v21.4c0,1.2-1,2.1-2.2,2.1C570.5,150.3,569.5,149.3,569.5,148.1z"/>
			<path class="st0" d="M578.3,137.5c0-7.1,5.6-12.8,12.4-12.8s12.5,5.7,12.5,12.8c0,7.1-5.6,12.8-12.5,12.8
				S578.3,144.5,578.3,137.5z M582.7,137.5c0,4.7,3.6,8.5,8.1,8.5c4.5,0,8.1-3.8,8.1-8.5c0-4.7-3.6-8.5-8.1-8.5
				C586.3,129,582.7,132.8,582.7,137.5z"/>
			<path class="st0" d="M625,142.3c0,4.9-4.1,8-7.6,8h-7.6c-1.2,0-2.2-1-2.2-2.1v-21.4c0-1.2,1-2.1,2.2-2.1h6c0.2,0,1.8,0.1,3.4,0.8
				c2.4,1.2,3.6,3.3,3.6,6.1c0,1.5-0.4,2.9-1.2,4C623.8,137,625,139.4,625,142.3z M612,134.3h3.2c0.6,0,3.3-0.1,3.3-2.7
				c0-2.4-1.7-2.7-2.4-2.7c-0.2,0-0.3,0-0.3,0H612V134.3z M620.7,142.3c0-1.4-0.9-3.7-3.5-3.7H612v7.5h5.1c0,0,1,0,1.9-0.5
				C620.5,144.7,620.7,143.2,620.7,142.3z"/>
			<path class="st0" d="M629.5,148.1v-21.4c0-1.2,1-2.1,2.2-2.1c1.2,0,2.2,1,2.2,2.1v21.4c0,1.2-1,2.1-2.2,2.1
				C630.5,150.3,629.5,149.3,629.5,148.1z"/>
			<path class="st0" d="M640.4,150.3c-1.2,0-2.2-1-2.2-2.1v-21.4c0-1.2,1-2.1,2.2-2.1c1.2,0,2.2,1,2.2,2.1V146h7.6
				c1.2,0,2.2,1,2.2,2.2c0,1.2-1,2.1-2.2,2.1H640.4z"/>
			<path class="st0" d="M656.8,148.1v-21.4c0-1.2,1-2.1,2.2-2.1c1.2,0,2.2,1,2.2,2.1v21.4c0,1.2-1,2.1-2.2,2.1
				C657.8,150.3,656.8,149.3,656.8,148.1z"/>
			<path class="st0" d="M687.1,147.3c0.1,0.3,0.1,0.5,0.1,0.8c0,1.1-0.9,2.1-2.2,2.1c-0.9,0-1.7-0.5-2-1.4l-1.6-4h-10.1l-1.6,4
				c-0.3,0.8-1.2,1.4-2,1.4c-1.3,0-2.2-1.1-2.2-2.1c0-0.3,0-0.5,0.1-0.8l8.6-21.3c0.3-0.8,1.2-1.4,2-1.4c0.9,0,1.7,0.5,2,1.4
				L687.1,147.3z M679.7,140.7l-3.3-8.2l-3.3,8.2H679.7z"/>
			<path class="st0" d="M708.1,147c0.2,0.4,0.3,0.7,0.3,1.1c0,0.7-0.4,1.4-1,1.8c-0.3,0.2-0.7,0.3-1.1,0.3c-0.7,0-1.4-0.4-1.9-1
				l-4.8-7.5H696v6.4c0,1.2-1,2.1-2.2,2.1c-1.2,0-2.2-1-2.2-2.1v-21.4c0-1.2,1-2.1,2.2-2.1h5.9c0.2,0,2.2,0,4.2,1
				c2.9,1.4,4.5,4.1,4.5,7.5c0,0.2,0,2.2-1,4.2c-0.8,1.5-1.9,2.6-3.3,3.4L708.1,147z M696,137.5h3.7c1.9,0,3-0.6,3.8-1.9
				c0.6-1.1,0.6-2.3,0.6-2.3c0-1.8-0.7-3-2.1-3.7c-1.1-0.5-2.3-0.5-2.3-0.5H696V137.5z"/>
			<path class="st0" d="M712.9,148.1v-21.4c0-1.2,1-2.1,2.2-2.1c1.2,0,2.2,1,2.2,2.1v21.4c0,1.2-1,2.1-2.2,2.1
				C713.9,150.3,712.9,149.3,712.9,148.1z"/>
			<path class="st0" d="M743.2,147.3c0.1,0.3,0.1,0.5,0.1,0.8c0,1.1-0.9,2.1-2.2,2.1c-0.9,0-1.7-0.5-2-1.4l-1.6-4h-10.1l-1.6,4
				c-0.3,0.8-1.2,1.4-2,1.4c-1.3,0-2.2-1.1-2.2-2.1c0-0.3,0-0.5,0.1-0.8l8.6-21.3c0.3-0.8,1.2-1.4,2-1.4c0.9,0,1.7,0.5,2,1.4
				L743.2,147.3z M735.8,140.7l-3.3-8.2l-3.3,8.2H735.8z"/>
		</g>
		<path class="st3" d="M502.9,134.8L493,125c-1.4-1.4-3.8-0.4-3.8,1.6v19.8c0,2,2.4,3,3.8,1.6l9.9-9.9
			C503.7,137.1,503.7,135.7,502.9,134.8z"/>
		<path class="st3" d="M482.5,134.8l-9.9-9.9c-1.4-1.4-3.8-0.4-3.8,1.6v19.8c0,2,2.4,3,3.8,1.6l9.9-9.9
			C483.3,137.1,483.3,135.7,482.5,134.8z"/>
		<path class="st3" d="M462.1,134.8l-9.9-9.9c-1.4-1.4-3.8-0.4-3.8,1.6v19.8c0,2,2.4,3,3.8,1.6l9.9-9.9
			C462.9,137.1,462.9,135.7,462.1,134.8z"/>
	</g>
</g>
</svg>
