<?xml version="1.0" encoding="utf-8"?>
<!-- Generator: Adobe Illustrator 21.1.0, SVG Export Plug-In . SVG Version: 6.00 Build 0)  -->
<svg version="1.1" id="Layer_1" xmlns="http://www.w3.org/2000/svg" xmlns:xlink="http://www.w3.org/1999/xlink" x="0px" y="0px"
	 viewBox="0 0 359.6 81" style="enable-background:new 0 0 359.6 81;" xml:space="preserve">
<style type="text/css">
	.st0{enable-background:new    ;}
	.st1{fill:#FFFFFF;}
	.st2{fill:none;stroke:#E6B53A;stroke-width:1.892;stroke-miterlimit:10;}
</style>
<g>
	<g class="st0">
		<path class="st1" d="M66.9,57.4c-1.3,5.4-4,13.8-5.7,17.8c-2.6,0.7-12,2.9-18.8,2.9C15.4,78,4.2,58.7,4.2,41
			c0-22.9,16-38.9,40.2-38.9c8.2,0,15.7,2.3,18.4,3c0.9,6.1,1.6,11.3,2.3,18.3l-3.7,0.8C58,10.9,50.2,7,42.4,7
			C27.8,7,19.7,22.3,19.7,38.7c0,20.5,10,34.1,23.8,34.1c8.4,0,14.7-5.9,19.9-17.2L66.9,57.4z"/>
		<path class="st1" d="M136.5,57.4c-1.3,5.4-4,13.8-5.7,17.8c-2.6,0.7-12,2.9-18.8,2.9C85,78,73.7,58.7,73.7,41
			c0-22.9,16-38.9,40.2-38.9c8.2,0,15.7,2.3,18.4,3c0.9,6.1,1.6,11.3,2.3,18.3l-3.7,0.8C127.6,10.9,119.8,7,112,7
			C97.3,7,89.2,22.3,89.2,38.7c0,20.5,10,34.1,23.8,34.1c8.4,0,14.7-5.9,19.9-17.2L136.5,57.4z"/>
		<path class="st1" d="M193.6,57.5c-0.8,4.7-2.9,15.9-3.7,18.9h-49.3v-3.9c8.8-0.8,9.8-1.6,9.8-10.9V18.8c0-9.6-1-10.3-8.7-11.1V3.8
			h31v3.9c-7.8,0.8-8.7,1.5-8.7,11.1v43.5c0,5.2,0.4,7.3,2.5,8.3c1.7,0.8,4.5,1,7.6,1c4.3,0,7.9-0.8,10.3-3.8
			c1.9-2.3,3.7-5.9,5.7-11.5L193.6,57.5z"/>
	</g>
	<g class="st0">
		<path class="st1" d="M235.3,19.5c-0.2,1.1-0.7,2.7-1.1,3.5c-0.5,0.1-2.3,0.6-3.6,0.6c-5.1,0-7.2-3.8-7.2-7.4c0-4.5,3-7.7,7.6-7.7
			c1.5,0,3,0.5,3.5,0.6c0.2,1.2,0.3,2.2,0.4,3.6l-0.7,0.2c-0.6-2.6-2.1-3.4-3.6-3.4c-2.8,0-4.3,3-4.3,6.3c0,4.1,1.9,6.8,4.5,6.8
			c1.6,0,2.8-1.2,3.8-3.4L235.3,19.5z"/>
		<path class="st1" d="M243.2,23.2v-0.8c1.1-0.2,1.2-0.5,0.9-1.4c-0.2-0.7-0.5-1.6-0.8-2.5h-3.7c-0.2,0.7-0.5,1.5-0.7,2.4
			c-0.3,1.1-0.2,1.4,1.2,1.6v0.8h-4.3l0-0.8c1.3-0.2,1.5-0.4,2.1-2.3L242,8.8l1-0.3c1.2,3.9,2.4,7.7,3.7,11.6c0.7,2,0.9,2.2,2.1,2.4
			v0.8H243.2z M241.6,12.5L241.6,12.5c-0.6,1.6-1.1,3.2-1.6,4.8h3L241.6,12.5z M245.5,6.7l-3.9,1.3l-0.3-0.6
			c1.1-0.9,2.2-1.8,3.3-2.7c0.3,0.2,0.9,1.2,1,1.7L245.5,6.7z"/>
		<path class="st1" d="M259.9,23.2v-0.8c1.4-0.2,1.5-0.3,1.5-2.4l0-8.5h-0.1L257,23.1h-0.5l-3.9-11.3h-0.1l-0.2,5.8
			c-0.1,1.8-0.1,2.9,0,3.6c0.1,1,0.5,1.2,1.7,1.3v0.8h-4.6v-0.8c1.1-0.1,1.4-0.5,1.5-1.3c0.1-0.7,0.3-1.9,0.4-4.2l0.3-4.4
			c0.2-2.5,0-2.8-1.6-3V8.8h4l3.7,9.7l3.8-9.7h3.8v0.8c-1.5,0.2-1.6,0.4-1.6,2.2l0.2,8.3c0,2,0.1,2.2,1.6,2.4v0.8H259.9z"/>
		<path class="st1" d="M273.7,23.2v-0.8c1.1-0.2,1.2-0.5,0.9-1.4c-0.2-0.7-0.5-1.6-0.8-2.5h-3.7c-0.2,0.7-0.5,1.5-0.7,2.4
			c-0.3,1.1-0.2,1.4,1.2,1.6v0.8h-4.3l0-0.8c1.3-0.2,1.5-0.4,2.1-2.3l3.9-11.4l1-0.3c1.2,3.9,2.4,7.7,3.7,11.6
			c0.7,2,0.9,2.2,2.1,2.4v0.8H273.7z M272.1,12.5L272.1,12.5c-0.6,1.6-1.1,3.2-1.6,4.8h3L272.1,12.5z"/>
		<path class="st1" d="M292.1,23.4c-0.1,0-0.3,0-0.6,0c-2.4-0.1-3.2-0.8-3.9-2.2c-0.5-0.9-1-2.1-1.6-3.3c-0.3-0.7-0.7-1-1.3-1h-0.4
			v3.2c0,1.8,0.2,2,1.6,2.2v0.8h-5.8v-0.8c1.4-0.2,1.6-0.4,1.6-2.2v-8.5c0-1.8-0.2-2-1.6-2.2V8.8h5.4c1.7,0,2.6,0.2,3.4,0.8
			c0.8,0.6,1.3,1.6,1.3,2.9c0,2-1.1,3-2.4,3.6c0.3,0.6,1,2.1,1.5,3.1c0.7,1.2,1.1,1.9,1.5,2.4c0.4,0.5,0.7,0.8,1.2,1L292.1,23.4z
			 M284.9,16.1c0.8,0,1.5-0.2,1.9-0.6c0.7-0.6,0.9-1.5,0.9-2.6c0-2.4-1.2-3.2-2.3-3.2c-0.5,0-0.7,0.1-0.9,0.2
			c-0.1,0.1-0.2,0.4-0.2,0.8v5.4H284.9z"/>
		<path class="st1" d="M300,23.2v-0.8c1.1-0.2,1.2-0.5,0.9-1.4c-0.2-0.7-0.5-1.6-0.8-2.5h-3.7c-0.2,0.7-0.5,1.5-0.7,2.4
			c-0.3,1.1-0.2,1.4,1.2,1.6v0.8h-4.3l0-0.8c1.3-0.2,1.5-0.4,2.1-2.3l3.9-11.4l1-0.3c1.2,3.9,2.4,7.7,3.7,11.6
			c0.7,2,0.9,2.2,2.1,2.4v0.8H300z M298.4,12.5L298.4,12.5c-0.6,1.6-1.1,3.2-1.6,4.8h3L298.4,12.5z"/>
	</g>
	<g class="st0">
		<path class="st1" d="M229.2,35.3c2.4,0,4.2,0.6,5.5,1.9c0.9,1,1.7,2.6,1.7,4.7c0,2.7-0.9,4.6-2.4,5.9c-1.4,1.2-3.4,1.8-5.8,1.8
			h-4.9v-0.8c1.5-0.2,1.7-0.3,1.7-2.2v-8.5c0-1.9-0.2-2-1.5-2.2v-0.8H229.2z M227.5,46.6c0,1.6,0.3,2.2,1.6,2.2
			c2.6,0,4.3-2.4,4.3-6.4c0-2.1-0.6-3.8-1.4-4.8c-0.8-0.9-1.8-1.4-3.1-1.4c-0.7,0-1.1,0.2-1.2,0.3c-0.2,0.2-0.2,0.6-0.2,1.2V46.6z"
			/>
		<path class="st1" d="M247.9,46c-0.1,1-0.5,3-0.7,3.7h-9.8v-0.8c1.6-0.2,1.8-0.3,1.8-2.2v-8.5c0-1.9-0.2-2-1.5-2.2v-0.8h9
			c0,0.4,0.1,2,0.2,3.3l-0.7,0.1c-0.2-0.8-0.4-1.5-0.8-1.9c-0.3-0.4-0.8-0.6-1.9-0.6h-0.9c-0.7,0-0.8,0-0.8,0.8v4.7h1.3
			c1.6,0,1.9-0.1,2.1-1.7h0.7v4.5h-0.7c-0.3-1.6-0.5-1.7-2.1-1.7h-1.3v3.8c0,1,0.1,1.6,0.5,1.8c0.3,0.2,1,0.2,1.7,0.2
			c1,0,1.7-0.2,2.1-0.7c0.4-0.5,0.7-1.2,1.1-2.2L247.9,46z"/>
		<path class="st1" d="M264.8,46c-0.2,1.1-0.7,2.8-1.1,3.5c-0.5,0.1-2.3,0.6-3.6,0.6c-5.1,0-7.2-3.8-7.2-7.4c0-4.5,3-7.7,7.6-7.7
			c1.5,0,3,0.5,3.5,0.6c0.2,1.2,0.3,2.2,0.4,3.6l-0.7,0.2c-0.6-2.6-2.1-3.4-3.6-3.4c-2.8,0-4.3,3-4.3,6.3c0,4.1,1.9,6.8,4.5,6.8
			c1.6,0,2.8-1.2,3.8-3.4L264.8,46z"/>
		<path class="st1" d="M279.2,42.4c0,4.8-3,7.7-6.6,7.7c-3.8,0-6.5-3.3-6.5-7.5c0-3.8,2.3-7.6,6.7-7.6C276.4,35,279.2,38,279.2,42.4
			z M269.1,42.1c0,3.8,1.5,7,3.9,7c1.8,0,3.3-2.1,3.3-6.1c0-4.4-1.5-7.1-3.8-7.1C270.6,35.9,269.1,38.3,269.1,42.1z"/>
		<path class="st1" d="M290.5,49.7v-0.8c1.4-0.2,1.6-0.3,1.5-2.4l0-8.5h-0.1l-4.2,11.5h-0.5l-3.9-11.3h-0.1l-0.2,5.8
			c-0.1,1.8-0.1,2.9,0,3.6c0.1,1,0.5,1.2,1.7,1.3v0.8H280v-0.8c1.1-0.1,1.4-0.5,1.6-1.3c0.1-0.7,0.3-1.9,0.4-4.2l0.3-4.4
			c0.2-2.5,0-2.8-1.6-3v-0.8h4l3.7,9.7l3.8-9.7h3.8v0.8c-1.5,0.2-1.6,0.4-1.6,2.2l0.2,8.3c0,2,0.1,2.2,1.6,2.4v0.8H290.5z"/>
		<path class="st1" d="M307.6,46c-0.1,1-0.5,3-0.7,3.7h-9.8v-0.8c1.6-0.2,1.8-0.3,1.8-2.2v-8.5c0-1.9-0.2-2-1.6-2.2v-0.8h9
			c0,0.4,0.1,2,0.2,3.3l-0.7,0.1c-0.2-0.8-0.4-1.5-0.8-1.9c-0.3-0.4-0.8-0.6-1.9-0.6h-0.9c-0.7,0-0.8,0-0.8,0.8v4.7h1.3
			c1.6,0,1.9-0.1,2.1-1.7h0.7v4.5H305c-0.3-1.6-0.5-1.7-2.1-1.7h-1.3v3.8c0,1,0.1,1.6,0.5,1.8c0.3,0.2,1,0.2,1.7,0.2
			c1,0,1.7-0.2,2.1-0.7c0.4-0.5,0.7-1.2,1.1-2.2L307.6,46z"/>
		<path class="st1" d="M320.3,49.9c-0.1,0-0.3,0-0.6,0c-2.4-0.1-3.2-0.8-3.9-2.2c-0.5-0.9-1-2.1-1.6-3.3c-0.3-0.7-0.7-1-1.3-1h-0.4
			v3.2c0,1.8,0.2,2,1.6,2.2v0.8h-5.8v-0.8c1.4-0.2,1.6-0.4,1.6-2.2v-8.5c0-1.8-0.2-2-1.6-2.2v-0.8h5.4c1.7,0,2.6,0.2,3.4,0.8
			c0.8,0.6,1.3,1.6,1.3,2.9c0,2-1.1,3-2.4,3.6c0.3,0.6,1,2.1,1.6,3.1c0.7,1.2,1.1,1.9,1.5,2.4c0.4,0.5,0.7,0.8,1.2,1L320.3,49.9z
			 M313.1,42.7c0.8,0,1.5-0.2,1.9-0.6c0.7-0.6,0.9-1.5,0.9-2.6c0-2.4-1.2-3.2-2.3-3.2c-0.5,0-0.7,0.1-0.9,0.2
			c-0.1,0.1-0.2,0.4-0.2,0.8v5.4H313.1z"/>
		<path class="st1" d="M332.8,46c-0.2,1.1-0.7,2.8-1.1,3.5c-0.5,0.1-2.3,0.6-3.6,0.6c-5.1,0-7.2-3.8-7.2-7.4c0-4.5,3-7.7,7.6-7.7
			c1.5,0,3,0.5,3.5,0.6c0.2,1.2,0.3,2.2,0.4,3.6l-0.7,0.2c-0.6-2.6-2.1-3.4-3.6-3.4c-2.8,0-4.3,3-4.3,6.3c0,4.1,1.9,6.8,4.5,6.8
			c1.6,0,2.8-1.2,3.8-3.4L332.8,46z"/>
		<path class="st1" d="M333.8,49.7v-0.8c1.4-0.2,1.6-0.3,1.6-2.2v-8.5c0-1.9-0.2-2-1.6-2.2v-0.8h5.7v0.8c-1.4,0.2-1.6,0.3-1.6,2.2
			v8.5c0,1.9,0.2,2,1.6,2.2v0.8H333.8z"/>
		<path class="st1" d="M354,42.4c0,4.8-3,7.7-6.6,7.7c-3.8,0-6.5-3.3-6.5-7.5c0-3.8,2.3-7.6,6.7-7.6C351.1,35,354,38,354,42.4z
			 M343.8,42.1c0,3.8,1.5,7,3.9,7c1.8,0,3.3-2.1,3.3-6.1c0-4.4-1.5-7.1-3.8-7.1C345.3,35.9,343.8,38.3,343.8,42.1z"/>
	</g>
	<g class="st0">
		<path class="st1" d="M233.1,72.5c-0.2,0.9-0.6,3.1-0.7,3.7h-9.3v-0.8c1.7-0.2,1.9-0.3,1.9-2.2v-8.5c0-1.9-0.2-2-1.6-2.2v-0.8h5.9
			v0.8c-1.5,0.2-1.6,0.3-1.6,2.2v8.6c0,1,0.1,1.4,0.5,1.6c0.3,0.2,0.8,0.2,1.4,0.2c0.8,0,1.5-0.2,2-0.8c0.4-0.5,0.7-1.2,1.1-2.3
			L233.1,72.5z"/>
		<path class="st1" d="M233.9,76.2v-0.8c1.4-0.2,1.6-0.3,1.6-2.2v-8.5c0-1.9-0.2-2-1.6-2.2v-0.8h5.7v0.8c-1.4,0.2-1.6,0.3-1.6,2.2
			v8.5c0,1.9,0.2,2,1.6,2.2v0.8H233.9z"/>
		<path class="st1" d="M251.2,76.2v-0.8c1.4-0.2,1.5-0.3,1.5-2.4l0-8.5h-0.1l-4.2,11.5h-0.5l-3.9-11.3h-0.1l-0.2,5.8
			c-0.1,1.8-0.1,2.9,0,3.6c0.1,1,0.5,1.2,1.7,1.3v0.8h-4.6v-0.8c1.1-0.1,1.4-0.5,1.6-1.3c0.1-0.7,0.3-1.9,0.4-4.2l0.3-4.4
			c0.2-2.5,0-2.8-1.6-3v-0.8h4l3.7,9.7l3.8-9.7h3.8v0.8c-1.5,0.2-1.6,0.4-1.6,2.2l0.2,8.3c0,2,0.1,2.2,1.6,2.4v0.8H251.2z"/>
		<path class="st1" d="M265.1,76.2v-0.8c1.1-0.2,1.2-0.5,0.9-1.4c-0.2-0.7-0.5-1.6-0.8-2.5h-3.7c-0.2,0.7-0.5,1.5-0.7,2.4
			c-0.3,1.1-0.2,1.4,1.2,1.6v0.8h-4.3l0-0.8c1.3-0.2,1.5-0.4,2.1-2.3l3.9-11.4l1-0.3c1.2,3.9,2.4,7.7,3.7,11.6
			c0.7,2,0.9,2.2,2.1,2.4v0.8H265.1z M263.4,65.5L263.4,65.5c-0.6,1.6-1.1,3.2-1.6,4.8h3L263.4,65.5z"/>
	</g>
</g>
<line class="st2" x1="206.2" y1="4.3" x2="206.2" y2="79.7"/>
</svg>
