<?xml version="1.0" encoding="utf-8"?>
<!-- Generator: Adobe Illustrator 22.1.0, SVG Export Plug-In . SVG Version: 6.00 Build 0)  -->
<svg version="1.1" id="Layer_1" xmlns="http://www.w3.org/2000/svg" xmlns:xlink="http://www.w3.org/1999/xlink" x="0px" y="0px"
	 viewBox="0 0 241 81" style="enable-background:new 0 0 241 81;" xml:space="preserve">
<style type="text/css">
	.st0{fill:#0065A7;}
	.st1{fill:#EAC000;}
	.st2{fill:#0065A4;}
	.st3{fill:#31006F;}
</style>
<g>
	<g>
		<g>
			<g>
				<path class="st0" d="M45.5,72.8c-4,2-10.1,2.7-14.6,2.7c-14.2,0-24.7-9.2-24.7-23.7c0-13.5,9.1-25.9,26.3-25.9
					c4.3,0,9.4,0.8,12.3,1.7l1,8.8c-2.9-3.5-7.9-6.2-13.2-6.2c-9,0-16.4,4.7-16.4,19.8c0,9,4.6,21,17.4,21c5.6,0,10.4-3.8,13.5-8.1
					c0.1,0.6,0.1,1.3,0.1,2C47.3,67.5,46.7,70,45.5,72.8L45.5,72.8z"/>
			</g>
			<g>
				<path class="st0" d="M89.4,72.8c-3.9,2-10.1,2.7-14.6,2.7c-14.2,0-24.7-9.2-24.7-23.7c0-13.5,9.1-25.9,26.3-25.9
					c4.3,0,9.4,0.8,12.3,1.7l1,8.8c-2.9-3.4-7.9-6.2-13.2-6.2c-9,0-16.4,4.7-16.4,19.8c0,9,4.6,21,17.4,21c5.5,0,10.4-3.8,13.5-8.1
					c0.1,0.6,0.1,1.3,0.1,2C91.1,67.5,90.6,70,89.4,72.8L89.4,72.8z"/>
			</g>
			<g>
				<path class="st0" d="M128.5,74.1H94.8c1.4-1.3,1.9-2.3,1.9-4.4V31.9c0-1.8-0.2-3.1-2-4.5h13.2c-1.8,1.2-2,3-2,4.5v37.4
					c2.1,0.3,5.4,0.4,7.2,0.4c5.7,0,12-0.1,16.6-2.2L128.5,74.1L128.5,74.1z"/>
			</g>
		</g>
		<g>
			<g>
				<path class="st0" d="M153.8,38.7V40v0.2c0,0.1,0,0.2,0,0.3s-0.1,0.1-0.1,0.2c-0.2,0.2-0.4,0.4-0.9,0.5c-0.4,0.1-0.9,0.2-1.4,0.2
					c-0.6,0-1.1-0.1-1.6-0.4c-0.4-0.3-0.9-0.6-1.3-1.1c-0.4-0.5-0.7-1.1-1-1.8c-0.2-0.6-0.3-1.4-0.3-2.2c0-1.6,0.4-2.9,1.2-3.9
					c0.8-1,1.8-1.5,3.1-1.5c0.4,0,0.8,0.1,1.2,0.1c0.4,0.1,0.6,0.3,0.7,0.4c0.1,0.1,0.1,0.1,0.1,0.3c0,0.1,0,0.3,0,0.4l0.1,1.5
					c0,0.1,0,0.2-0.1,0.3c-0.1,0.1-0.1,0.1-0.2,0.1c-0.2,0-0.3-0.3-0.5-0.7c-0.1-0.1-0.1-0.3-0.1-0.3c-0.2-0.6-0.4-1-0.6-1.2
					c-0.2-0.2-0.5-0.3-0.8-0.3c-0.7,0-1.3,0.4-1.7,1.1c-0.4,0.8-0.6,1.8-0.6,3.2c0,1.7,0.2,3,0.6,3.9c0.4,1,1,1.5,1.7,1.5
					c0.4,0,0.7-0.1,1-0.4c0.3-0.3,0.5-0.7,0.6-1.2c0.1-0.2,0.1-0.4,0.1-0.7c0.1-0.6,0.3-0.9,0.4-0.9c0.1,0,0.1,0.1,0.2,0.1
					c0.1,0.1,0.1,0.3,0.1,0.5V38.7z"/>
			</g>
			<g>
				<path class="st0" d="M155.5,39.2c-0.1,0.1-0.1,0.3-0.1,0.4c0,0.1,0,0.3,0,0.4c0,0.2,0.1,0.3,0.1,0.4c0.1,0.1,0.2,0.1,0.4,0.2
					c0.1,0,0.2,0.1,0.3,0.1c0.2,0,0.3,0.1,0.3,0.2c0,0.1-0.1,0.1-0.1,0.1c-0.1,0-0.1,0.1-0.2,0.1c0,0-0.1,0-0.1,0c-0.3,0-0.6,0-1,0
					c-0.1,0-0.2,0-0.4,0c-0.2,0-0.3,0-0.4,0h-0.2c-0.2,0-0.3,0-0.4-0.1c-0.1,0-0.1-0.1-0.1-0.2c0-0.1,0.1-0.2,0.3-0.2
					c0.1,0,0.2-0.1,0.3-0.1c0.1-0.1,0.2-0.1,0.3-0.3c0.1-0.1,0.2-0.4,0.3-0.7l2.5-8.6c0,0,0-0.1,0.1-0.1c0.1-0.3,0.2-0.4,0.3-0.4
					c0.1,0,0.1,0,0.2,0.1c0.1,0.1,0.1,0.1,0.1,0.3l2.4,8.2c0,0.1,0.1,0.2,0.1,0.3c0.2,0.7,0.4,1.1,0.6,1.2c0.1,0.1,0.2,0.1,0.3,0.1
					c0.2,0.1,0.3,0.1,0.3,0.2s0,0.1-0.1,0.1c-0.1,0-0.1,0.1-0.3,0.1c0,0-0.1,0-0.2,0c-0.4,0-0.9,0-1.3,0c-0.4,0-0.8,0-1.2,0
					c-0.1,0-0.1,0-0.1,0c-0.1,0-0.2,0-0.2-0.1c-0.1,0-0.1-0.1-0.1-0.1c0-0.1,0.1-0.2,0.3-0.2c0.1,0,0.1,0,0.2-0.1
					c0.1-0.1,0.3-0.1,0.3-0.1c0.1-0.1,0.1-0.1,0.1-0.3c0-0.1,0-0.2,0-0.3s-0.1-0.2-0.1-0.3l-0.5-1.8c-0.1-0.3-0.1-0.4-0.3-0.4
					c-0.1-0.1-0.3-0.1-0.5-0.1h-1.2c-0.3,0-0.5,0-0.6,0.1c-0.1,0.1-0.1,0.2-0.2,0.4L155.5,39.2z M156.4,36.1
					c-0.1,0.1-0.1,0.3-0.1,0.4c0,0.1-0.1,0.2-0.1,0.3s0,0.1,0.1,0.1c0.1,0.1,0.1,0.1,0.2,0.1h1.3c0.1,0,0.2,0,0.3-0.1
					c0.1-0.1,0.1-0.1,0.1-0.1s0-0.1,0-0.1c0-0.1,0-0.1-0.1-0.1l-0.7-2.5l0,0c-0.1-0.3-0.1-0.4-0.2-0.4c-0.1,0-0.1,0-0.1,0.1
					c0,0.1-0.1,0.2-0.1,0.4L156.4,36.1z M156.4,29.7l2.2-2.3c0.1-0.2,0.3-0.3,0.4-0.3c0.1-0.1,0.2-0.1,0.3-0.1
					c0.2,0,0.3,0.1,0.4,0.1c0.1,0.1,0.1,0.3,0.1,0.4s-0.1,0.3-0.1,0.3c-0.1,0.1-0.2,0.2-0.4,0.3l-2.5,1.6H156.4z"/>
			</g>
			<g>
				<path class="st0" d="M162.5,31.9L162.5,31.9c0-0.2,0-0.3-0.1-0.4c-0.1-0.1-0.1-0.1-0.3-0.2c-0.1,0-0.1,0-0.3-0.1
					c-0.3-0.1-0.4-0.1-0.4-0.3c0-0.1,0.1-0.1,0.1-0.2c0.1-0.1,0.3-0.1,0.4-0.1h0.7h1.1c0.2,0,0.3,0.1,0.4,0.3l0,0l1.9,5.7
					c0.1,0.3,0.2,0.4,0.2,0.6c0.1,0.1,0.1,0.1,0.1,0.1c0.1,0,0.1-0.1,0.2-0.3l0,0l1.8-5.7c0.1-0.3,0.2-0.4,0.3-0.5
					c0.1-0.1,0.2-0.1,0.4-0.1h0.7h1.1c0.1,0,0.3,0,0.3,0.1c0.1,0,0.1,0.1,0.1,0.1c0,0.1-0.1,0.2-0.4,0.3c-0.1,0-0.1,0-0.1,0
					c-0.2,0.1-0.3,0.1-0.4,0.1c-0.1,0.1-0.1,0.2-0.1,0.4v0.1l0.2,7.9c0,0.3,0.1,0.4,0.1,0.5c0.1,0.1,0.1,0.3,0.2,0.3
					c0.1,0,0.2,0.1,0.4,0.1c0.2,0.1,0.3,0.1,0.3,0.2c0,0.1,0,0.1-0.1,0.1c-0.1,0-0.2,0.1-0.4,0.1c-0.1,0-0.3,0-0.6,0
					c-0.3,0-0.4,0-0.6,0c-0.3,0-0.6,0-1.1,0s-0.7,0-0.8,0h-0.1c-0.1,0-0.2,0-0.2,0l-0.1-0.1c0-0.1,0.1-0.3,0.4-0.3
					c0.1,0,0.1,0,0.1-0.1c0.3,0,0.5-0.1,0.6-0.2c0.1-0.1,0.1-0.3,0.1-0.5v-0.1l-0.1-6c0-0.3,0-0.4-0.1-0.6c-0.1-0.1-0.1-0.2-0.1-0.2
					c-0.1,0-0.1,0.1-0.1,0.1s-0.1,0.2-0.1,0.3l-2,6.6l-0.1,0.1c-0.2,0.6-0.3,0.9-0.4,0.9s-0.3-0.4-0.4-1.1c0-0.1,0-0.1,0-0.1
					l-1.9-6.3c-0.1-0.1-0.1-0.3-0.1-0.3c-0.1-0.1-0.1-0.1-0.1-0.1c-0.1,0-0.1,0.1-0.1,0.1c-0.1,0.1-0.1,0.3-0.1,0.4l-0.1,6.1v0.1
					c0,0.3,0.1,0.4,0.1,0.6s0.3,0.2,0.4,0.2h0.1c0.1,0,0.2,0,0.3,0.1c0.1,0.1,0.1,0.1,0.1,0.2c0,0.1,0,0.1-0.1,0.2
					c-0.1,0.1-0.2,0.1-0.3,0.1c0,0-0.1,0-0.1,0c-0.4,0-0.7,0-1,0c-0.1,0-0.3,0-0.5,0c-0.2,0-0.3,0-0.3,0c-0.1,0-0.1,0-0.2-0.1
					c-0.1-0.1-0.1-0.1-0.1-0.1c0-0.2,0.1-0.3,0.4-0.3c0.1,0,0.1,0,0.1,0c0.2-0.1,0.3-0.1,0.4-0.3c0.1-0.1,0.1-0.3,0.1-0.6
					L162.5,31.9z"/>
			</g>
			<g>
				<path class="st0" d="M172.9,39.2c0,0.1-0.1,0.3-0.1,0.4c0,0.1,0,0.3,0,0.4c0,0.2,0,0.3,0.1,0.4c0.1,0.1,0.2,0.1,0.4,0.2
					c0.1,0,0.2,0.1,0.3,0.1c0.2,0,0.3,0.1,0.3,0.2c0,0.1,0,0.1-0.1,0.1s-0.1,0.1-0.2,0.1c0,0-0.1,0-0.1,0c-0.3,0-0.6,0-1,0
					c-0.1,0-0.2,0-0.3,0c-0.2,0-0.3,0-0.4,0h-0.2c-0.2,0-0.3,0-0.4-0.1c-0.1,0-0.1-0.1-0.1-0.2c0-0.1,0.1-0.2,0.3-0.2
					c0.1,0,0.2-0.1,0.3-0.1c0.1-0.1,0.3-0.1,0.3-0.3c0.1-0.1,0.2-0.4,0.3-0.7l2.5-8.6c0,0,0-0.1,0-0.1c0.1-0.3,0.2-0.4,0.3-0.4
					c0.1,0,0.1,0,0.2,0.1c0.1,0.1,0.1,0.1,0.1,0.3l2.4,8.2c0,0.1,0.1,0.2,0.1,0.3c0.2,0.7,0.4,1.1,0.6,1.2c0.1,0.1,0.2,0.1,0.3,0.1
					c0.2,0.1,0.3,0.1,0.3,0.2s0,0.1-0.1,0.1c-0.1,0-0.1,0.1-0.2,0.1c0,0-0.1,0-0.2,0c-0.4,0-0.9,0-1.3,0c-0.4,0-0.8,0-1.3,0
					c-0.1,0-0.1,0-0.1,0c-0.1,0-0.2,0-0.2-0.1c-0.1,0-0.1-0.1-0.1-0.1c0-0.1,0.1-0.2,0.3-0.2c0.1,0,0.1,0,0.2-0.1
					c0.2-0.1,0.3-0.1,0.3-0.1c0.1-0.1,0.1-0.1,0.1-0.3c0-0.1,0-0.2,0-0.3s0-0.2-0.1-0.3l-0.5-1.8c-0.1-0.3-0.1-0.4-0.3-0.4
					c-0.1-0.1-0.3-0.1-0.5-0.1h-1.2c-0.3,0-0.5,0-0.6,0.1c-0.1,0.1-0.1,0.2-0.2,0.4L172.9,39.2z M173.8,36.1
					c-0.1,0.1-0.1,0.3-0.1,0.4c0,0.1-0.1,0.2-0.1,0.3s0,0.1,0.1,0.1c0.1,0.1,0.1,0.1,0.2,0.1h1.3c0.1,0,0.2,0,0.3-0.1
					c0.1-0.1,0.1-0.1,0.1-0.1s0-0.1,0-0.1c0-0.1,0-0.1-0.1-0.1l-0.7-2.5l0,0c-0.1-0.3-0.1-0.4-0.2-0.4c-0.1,0-0.1,0-0.1,0.1
					c-0.1,0.1-0.1,0.2-0.1,0.4L173.8,36.1z"/>
			</g>
			<g>
				<path class="st0" d="M180,31.9c0-0.3,0-0.4-0.1-0.5c-0.1-0.1-0.1-0.2-0.3-0.3c-0.1,0-0.1,0-0.2,0c-0.3,0-0.4-0.1-0.4-0.3
					c0-0.1,0-0.1,0.1-0.1c0.1-0.1,0.1-0.1,0.3-0.1c0,0,0.1,0,0.3,0c0.2,0,0.3,0,0.5,0c0.1,0,0.4,0,1,0c0.5,0,0.9,0,1.2,0
					c1.3,0,2.2,0.2,2.8,0.6c0.6,0.4,0.9,1,0.9,1.9c0,0.6-0.2,1.1-0.6,1.5c-0.4,0.4-1,0.8-1.8,1.1c0.3,0.1,0.6,0.4,0.8,0.8
					c0,0.1,0,0.1,0,0.1l1.3,2.9c0.1,0.3,0.3,0.4,0.4,0.6s0.3,0.3,0.4,0.4c0.1,0,0.1,0.1,0.3,0.1c0.2,0.1,0.3,0.1,0.3,0.2
					c0,0.1,0,0.1-0.1,0.1c-0.1,0-0.1,0.1-0.3,0.1c-0.2,0-0.4,0-0.7,0s-0.5,0-0.6,0c-0.1,0-0.3,0-0.4,0c-0.2,0-0.3,0-0.3,0
					c-0.1,0-0.2-0.1-0.3-0.2c0-0.1,0-0.1-0.1-0.1l-1.7-3.8c-0.2-0.4-0.3-0.7-0.4-0.8c-0.1-0.1-0.3-0.1-0.5-0.1c-0.1,0-0.1,0-0.2,0
					c-0.1,0-0.1,0-0.1,0.1v3.8c0,0.3,0,0.4,0.1,0.6c0.1,0.1,0.1,0.2,0.3,0.2c0.1,0,0.2,0.1,0.3,0.1c0.3,0,0.4,0.1,0.4,0.3
					c0,0.1,0,0.1-0.1,0.1s-0.1,0.1-0.3,0.1c-0.1,0-0.2,0-0.5,0c-0.3,0-0.6,0-0.8,0c-0.3,0-0.6,0-1,0c-0.3,0-0.5,0-0.6,0
					c-0.2,0-0.4,0-0.4-0.1c-0.1,0-0.1-0.1-0.1-0.1c0-0.1,0.1-0.1,0.3-0.2c0.1-0.1,0.2-0.1,0.3-0.1c0.2-0.1,0.3-0.1,0.4-0.2
					c0.1-0.1,0.1-0.3,0.1-0.6v-7.9H180z M181.6,31.9v2.7c0,0.4,0.1,0.7,0.1,0.8c0.1,0.1,0.3,0.1,0.4,0.1c0.7,0,1.2-0.2,1.6-0.6
					c0.4-0.4,0.6-1,0.6-1.7c0-0.6-0.2-1.1-0.5-1.5c-0.3-0.4-0.8-0.5-1.4-0.5c-0.3,0-0.6,0.1-0.6,0.1
					C181.6,31.3,181.6,31.6,181.6,31.9z"/>
			</g>
			<g>
				<path class="st0" d="M187,39.2c-0.1,0.1-0.1,0.3-0.1,0.4c0,0.1,0,0.3,0,0.4c0,0.2,0.1,0.3,0.1,0.4c0.1,0.1,0.2,0.1,0.4,0.2
					c0.1,0,0.2,0.1,0.3,0.1c0.2,0,0.3,0.1,0.3,0.2c0,0.1-0.1,0.1-0.1,0.1c-0.1,0-0.1,0.1-0.2,0.1c0,0-0.1,0-0.1,0c-0.3,0-0.6,0-1,0
					c-0.1,0-0.2,0-0.3,0c-0.2,0-0.3,0-0.4,0h-0.2c-0.2,0-0.3,0-0.4-0.1c-0.1,0-0.1-0.1-0.1-0.2c0-0.1,0.1-0.2,0.3-0.2
					c0.1,0,0.2-0.1,0.3-0.1c0.1-0.1,0.3-0.1,0.3-0.3c0.1-0.1,0.2-0.4,0.3-0.7l2.5-8.6c0,0,0-0.1,0-0.1c0.1-0.3,0.2-0.4,0.3-0.4
					c0.1,0,0.1,0,0.2,0.1c0.1,0.1,0.1,0.1,0.1,0.3l2.4,8.2c0,0.1,0.1,0.2,0.1,0.3c0.2,0.7,0.4,1.1,0.6,1.2c0.1,0.1,0.2,0.1,0.3,0.1
					c0.2,0.1,0.3,0.1,0.3,0.2s0,0.1-0.1,0.1c-0.1,0-0.1,0.1-0.3,0.1c0,0-0.1,0-0.2,0c-0.4,0-0.9,0-1.3,0c-0.4,0-0.8,0-1.2,0
					c-0.1,0-0.1,0-0.1,0c-0.1,0-0.2,0-0.2-0.1c-0.1,0-0.1-0.1-0.1-0.1c0-0.1,0.1-0.2,0.3-0.2c0.1,0,0.1,0,0.2-0.1
					c0.2-0.1,0.3-0.1,0.3-0.1c0.1-0.1,0.1-0.1,0.1-0.3c0-0.1,0-0.2,0-0.3s0-0.2-0.1-0.3l-0.5-1.8c-0.1-0.3-0.1-0.4-0.3-0.4
					c-0.1-0.1-0.3-0.1-0.5-0.1h-1.2c-0.3,0-0.5,0-0.6,0.1c-0.1,0.1-0.1,0.2-0.2,0.4L187,39.2z M187.9,36.1c-0.1,0.1-0.1,0.3-0.1,0.4
					c0,0.1-0.1,0.2-0.1,0.3s0.1,0.1,0.1,0.1c0.1,0.1,0.1,0.1,0.2,0.1h1.3c0.1,0,0.2,0,0.3-0.1c0.1-0.1,0.1-0.1,0.1-0.1s0-0.1,0-0.1
					c0-0.1,0-0.1-0.1-0.1l-0.7-2.5l0,0c-0.1-0.3-0.1-0.4-0.2-0.4c-0.1,0-0.1,0-0.1,0.1c0,0.1-0.1,0.2-0.1,0.4L187.9,36.1z"/>
			</g>
			<g>
				<path class="st0" d="M148.2,48.5c0-0.3-0.1-0.5-0.1-0.6c-0.1-0.1-0.2-0.1-0.4-0.1c-0.1,0-0.1,0-0.2,0c-0.1,0-0.2,0-0.3,0
					c-0.1,0-0.1,0-0.2-0.1c-0.1-0.1-0.1-0.1-0.1-0.2c0-0.2,0.3-0.3,1-0.4c0.6-0.1,1.5-0.2,2.5-0.2c0.7,0,1.3,0.1,1.8,0.3
					s1,0.4,1.4,0.8c0.6,0.5,1,1.1,1.3,1.8s0.4,1.5,0.4,2.3c0,1.7-0.4,3-1.3,3.9c-0.8,1-2,1.5-3.4,1.5c-0.2,0-0.5,0-1-0.1
					c-0.5-0.1-0.9-0.1-1.2-0.1c-0.2,0-0.4,0-0.7,0s-0.4,0-0.5,0c-0.2,0-0.3,0-0.4-0.1c-0.1,0-0.1-0.1-0.1-0.1c0-0.1,0.1-0.2,0.3-0.2
					c0.2,0,0.3-0.1,0.4-0.1c0.2-0.1,0.3-0.1,0.4-0.3c0.1-0.1,0.1-0.3,0.1-0.6L148.2,48.5L148.2,48.5z M149.8,49v7
					c0,0.4,0.1,0.8,0.3,0.9c0.2,0.2,0.4,0.3,0.8,0.3c1,0,1.7-0.4,2.1-1.3c0.5-0.8,0.8-2,0.8-3.6c0-1.5-0.3-2.7-0.8-3.6
					c-0.5-0.9-1.2-1.3-2.1-1.3c-0.4,0-0.6,0.1-0.8,0.4C149.8,47.9,149.8,48.3,149.8,49z"/>
			</g>
			<g>
				<path class="st0" d="M162.5,47.2v2.2c0,0.1,0,0.2-0.1,0.3c0,0.1-0.1,0.1-0.1,0.1c-0.1,0-0.3-0.2-0.4-0.5
					c-0.1-0.2-0.1-0.4-0.2-0.5c-0.2-0.4-0.4-0.7-0.8-0.8c-0.3-0.2-0.7-0.3-1.2-0.3c-0.4,0-0.6,0.1-0.8,0.1c-0.1,0.1-0.2,0.3-0.2,0.6
					v3.1c0,0.1,0.1,0.2,0.1,0.2c0.1,0.1,0.2,0.1,0.3,0.1h0.4c0.3,0,0.6-0.1,0.8-0.1c0.2-0.1,0.4-0.2,0.4-0.4
					c0.1-0.1,0.2-0.3,0.2-0.5c0.1-0.3,0.1-0.4,0.3-0.4c0.1,0,0.1,0,0.1,0.1c0,0,0.1,0.1,0.1,0.3v2.7c0,0.2,0,0.3-0.1,0.4
					c0,0.1-0.1,0.1-0.2,0.1s-0.2-0.1-0.3-0.4c-0.1-0.2-0.1-0.4-0.2-0.4c-0.1-0.3-0.3-0.4-0.4-0.5c-0.1-0.1-0.4-0.1-1-0.1H159
					c-0.1,0-0.2,0.1-0.3,0.1c-0.1,0.1-0.1,0.2-0.1,0.3v2.6c0,0.7,0.1,1.2,0.3,1.5c0.2,0.3,0.5,0.4,1,0.4c0.5,0,1-0.1,1.3-0.4
					s0.6-0.6,0.7-1.1c0.1-0.1,0.1-0.3,0.1-0.5c0.1-0.3,0.2-0.5,0.3-0.5c0.1,0,0.1,0,0.2,0.1c0,0.1,0.1,0.1,0.1,0.3V57
					c0,0.2,0,0.4-0.1,0.4c-0.1,0.1-0.2,0.1-0.4,0.1c-0.3,0-0.9,0-1.6,0c-0.8,0-1.3,0-1.7,0h-2.3c-0.2,0-0.3,0-0.4-0.1
					c-0.1,0-0.1-0.1-0.1-0.1c0-0.1,0.1-0.1,0.2-0.2c0.1-0.1,0.2-0.1,0.3-0.1c0.2-0.1,0.3-0.1,0.4-0.2c0.1-0.1,0.1-0.3,0.1-0.6v-7.8
					c0-0.3,0-0.4-0.1-0.5c-0.1-0.1-0.1-0.2-0.2-0.2c-0.1,0-0.1,0-0.3,0c-0.3,0-0.4-0.1-0.4-0.3c0-0.1,0-0.1,0.1-0.1
					c0.1,0,0.1-0.1,0.3-0.1h2.7c0.7,0,1.3,0,1.7,0C161.6,47.2,162,47.2,162.5,47.2z"/>
			</g>
			<g>
				<path class="st0" d="M174.1,55.1v1.3v0.2c0,0.1,0,0.2,0,0.3S174,57,174,57c-0.2,0.2-0.4,0.4-0.9,0.5c-0.4,0.1-0.9,0.2-1.4,0.2
					c-0.6,0-1.1-0.1-1.6-0.4c-0.4-0.3-0.9-0.6-1.3-1.1c-0.4-0.5-0.7-1.1-1-1.8c-0.2-0.6-0.3-1.4-0.3-2.2c0-1.6,0.4-2.9,1.2-3.9
					c0.8-1,1.8-1.5,3.1-1.5c0.4,0,0.8,0.1,1.2,0.1c0.4,0.1,0.6,0.2,0.7,0.4c0.1,0.1,0.1,0.1,0.1,0.3c0,0.1,0,0.3,0,0.4l0.1,1.5
					c0,0.1,0,0.2-0.1,0.3c-0.1,0.1-0.1,0.1-0.2,0.1c-0.2,0-0.3-0.3-0.5-0.8C173,49,173,49,173,48.8c-0.2-0.6-0.4-1-0.6-1.2
					c-0.2-0.2-0.5-0.3-0.8-0.3c-0.7,0-1.3,0.4-1.7,1.2c-0.4,0.8-0.6,1.8-0.6,3.2c0,1.7,0.2,3,0.6,3.9c0.4,1,1,1.5,1.7,1.5
					c0.4,0,0.7-0.1,1-0.4c0.3-0.3,0.5-0.7,0.6-1.2c0.1-0.2,0.1-0.4,0.1-0.7c0.1-0.6,0.3-0.9,0.4-0.9c0.1,0,0.1,0.1,0.2,0.1
					c0.1,0.1,0.1,0.3,0.1,0.5L174.1,55.1L174.1,55.1z"/>
			</g>
			<g>
				<path class="st0" d="M175.1,52.4c0-0.7,0.1-1.4,0.3-2c0.2-0.6,0.4-1.2,0.8-1.7c0.4-0.6,0.8-1,1.3-1.3c0.5-0.3,1-0.4,1.5-0.4
					c0.4,0,0.9,0.1,1.3,0.3c0.4,0.2,0.8,0.5,1.2,1c0.4,0.5,0.8,1.1,1.1,1.8c0.3,0.7,0.4,1.5,0.4,2.3c0,1.5-0.4,2.8-1.1,3.9
					c-0.8,1-1.7,1.5-2.7,1.5c-0.4,0-0.9-0.1-1.3-0.3s-0.8-0.5-1.2-1c-0.5-0.5-0.8-1.1-1.1-1.8C175.3,54,175.1,53.2,175.1,52.4z
					 M178.9,47.4c-0.6,0-1.1,0.4-1.5,1.3c-0.4,0.9-0.6,2-0.6,3.4c0,1.5,0.3,2.7,0.7,3.7c0.4,1,1,1.5,1.7,1.5c0.6,0,1.1-0.4,1.5-1.3
					c0.4-0.9,0.6-2,0.6-3.5c0-1.5-0.3-2.7-0.7-3.7C180.1,47.9,179.5,47.4,178.9,47.4z"/>
			</g>
			<g>
				<path class="st0" d="M184.8,48.3L184.8,48.3c0-0.2,0-0.3-0.1-0.4c-0.1-0.1-0.1-0.1-0.3-0.2c-0.1,0-0.1,0-0.3-0.1
					c-0.3-0.1-0.4-0.1-0.4-0.3c0-0.1,0.1-0.1,0.1-0.2c0.1-0.1,0.3-0.1,0.4-0.1h0.7h1.1c0.2,0,0.3,0.1,0.4,0.3l0,0l1.9,5.7
					c0.1,0.3,0.1,0.4,0.2,0.6c0.1,0.1,0.1,0.1,0.1,0.1c0.1,0,0.1-0.1,0.2-0.3l0,0l1.8-5.7c0.1-0.3,0.2-0.4,0.3-0.4
					c0.1-0.1,0.2-0.1,0.4-0.1h0.7h1.1c0.1,0,0.3,0,0.3,0.1c0.1,0,0.1,0.1,0.1,0.1c0,0.1-0.1,0.2-0.4,0.3c-0.1,0-0.1,0-0.1,0
					c-0.2,0.1-0.3,0.1-0.4,0.1c-0.1,0.1-0.1,0.2-0.1,0.4v0.1l0.2,7.9c0,0.2,0.1,0.4,0.1,0.5c0.1,0.1,0.1,0.3,0.2,0.3
					c0.1,0,0.2,0.1,0.4,0.1c0.2,0.1,0.3,0.1,0.3,0.2c0,0.1,0,0.1-0.1,0.1c-0.1,0-0.2,0.1-0.4,0.1c-0.1,0-0.3,0-0.6,0
					c-0.3,0-0.4,0-0.6,0c-0.3,0-0.7,0-1.1,0c-0.4,0-0.7,0-0.8,0h-0.1c-0.1,0-0.2,0-0.2,0c-0.1,0-0.1-0.1-0.1-0.1
					c0-0.1,0.1-0.3,0.4-0.3c0.1,0,0.1-0.1,0.1-0.1c0.3,0,0.5-0.1,0.6-0.2c0.1-0.1,0.1-0.3,0.1-0.5v-0.1l-0.1-6c0-0.3,0-0.4-0.1-0.6
					c-0.1-0.1-0.1-0.2-0.1-0.2c-0.1,0-0.1,0.1-0.1,0.1c-0.1,0.1-0.1,0.2-0.1,0.3l-2,6.6l-0.1,0.1c-0.2,0.6-0.3,0.9-0.4,0.9
					c-0.1,0-0.3-0.4-0.4-1.1c0-0.1,0-0.1,0-0.1l-1.9-6.3c-0.1-0.1-0.1-0.3-0.1-0.3c-0.1-0.1-0.1-0.1-0.1-0.1c-0.1,0-0.1,0.1-0.1,0.1
					c0,0.1-0.1,0.3-0.1,0.4l-0.1,6.1v0.1c0,0.3,0.1,0.4,0.1,0.6c0.1,0.1,0.3,0.2,0.4,0.2h0.1c0.1,0,0.2,0,0.3,0.1
					c0.1,0.1,0.1,0.1,0.1,0.2c0,0.1,0,0.1-0.1,0.2c-0.1,0.1-0.1,0.1-0.3,0.1c0,0-0.1,0-0.1,0c-0.4,0-0.7,0-1,0c-0.1,0-0.3,0-0.5,0
					s-0.3,0-0.3,0c-0.1,0-0.1,0-0.2-0.1c-0.1,0-0.1-0.1-0.1-0.1c0-0.2,0.1-0.3,0.4-0.3c0.1,0,0.1,0,0.1,0c0.2-0.1,0.3-0.1,0.4-0.3
					c0.1-0.1,0.1-0.3,0.1-0.6L184.8,48.3z"/>
			</g>
			<g>
				<path class="st0" d="M200.7,47.2v2.2c0,0.1,0,0.2-0.1,0.3c0,0.1-0.1,0.1-0.1,0.1c-0.1,0-0.3-0.2-0.4-0.5
					c-0.1-0.2-0.1-0.4-0.2-0.5c-0.2-0.4-0.4-0.7-0.7-0.8c-0.3-0.2-0.7-0.3-1.2-0.3c-0.4,0-0.6,0.1-0.8,0.1c-0.1,0.1-0.2,0.3-0.2,0.6
					v3.1c0,0.1,0.1,0.2,0.1,0.2c0.1,0.1,0.2,0.1,0.3,0.1h0.4c0.3,0,0.6-0.1,0.8-0.1s0.4-0.2,0.4-0.4c0.1-0.1,0.1-0.3,0.2-0.5
					c0.1-0.3,0.2-0.4,0.3-0.4c0.1,0,0.1,0,0.1,0.1c0,0,0,0.1,0,0.3v2.7c0,0.2,0,0.3-0.1,0.4c0,0.1-0.1,0.1-0.1,0.1
					c-0.1,0-0.2-0.1-0.3-0.4c-0.1-0.2-0.1-0.4-0.2-0.4c-0.1-0.3-0.3-0.4-0.4-0.5c-0.1-0.1-0.4-0.1-0.9-0.1h-0.4
					c-0.1,0-0.2,0.1-0.3,0.1c-0.1,0.1-0.1,0.2-0.1,0.3v2.6c0,0.7,0.1,1.2,0.3,1.5c0.2,0.3,0.5,0.4,1,0.4c0.6,0,1-0.1,1.3-0.4
					s0.6-0.6,0.7-1.1c0.1-0.1,0.1-0.3,0.1-0.5c0.1-0.3,0.2-0.5,0.3-0.5c0.1,0,0.1,0,0.2,0.1c0,0.1,0.1,0.1,0.1,0.3V57
					c0,0.2,0,0.4-0.1,0.4c-0.1,0.1-0.2,0.1-0.4,0.1c-0.3,0-0.9,0-1.6,0s-1.3,0-1.7,0h-2.3c-0.2,0-0.3,0-0.4-0.1
					c-0.1,0-0.1-0.1-0.1-0.1c0-0.1,0.1-0.1,0.2-0.2c0.1-0.1,0.2-0.1,0.3-0.1c0.2-0.1,0.3-0.1,0.4-0.2c0.1-0.1,0.1-0.3,0.1-0.6v-7.8
					c0-0.3,0-0.4-0.1-0.5c-0.1-0.1-0.1-0.2-0.2-0.2c-0.1,0-0.1,0-0.3,0c-0.3,0-0.4-0.1-0.4-0.3c0-0.1,0-0.1,0.1-0.1
					c0.1,0,0.1-0.1,0.3-0.1h2.7c0.7,0,1.3,0,1.7,0C199.7,47.2,200.2,47.2,200.7,47.2z"/>
			</g>
			<g>
				<path class="st0" d="M203.1,48.3c0-0.3,0-0.4-0.1-0.5c-0.1-0.1-0.1-0.2-0.2-0.3c-0.1,0-0.1,0-0.2,0c-0.3,0-0.4-0.1-0.4-0.3
					c0-0.1,0-0.1,0.1-0.1c0.1-0.1,0.1-0.1,0.3-0.1c0,0,0.1,0,0.3,0s0.3,0,0.5,0c0.1,0,0.4,0,1,0s0.9,0,1.2,0c1.3,0,2.2,0.2,2.8,0.6
					c0.6,0.4,0.9,1,0.9,1.9c0,0.6-0.2,1.1-0.6,1.5c-0.4,0.4-1,0.8-1.8,1.1c0.3,0.1,0.6,0.4,0.8,0.8c0,0.1,0,0.1,0.1,0.1L209,56
					c0.1,0.3,0.3,0.4,0.4,0.6s0.3,0.3,0.4,0.4c0.1,0,0.1,0.1,0.3,0.1c0.2,0.1,0.3,0.1,0.3,0.2c0,0.1,0,0.1-0.1,0.1
					c-0.1,0.1-0.1,0.1-0.3,0.1c-0.2,0-0.4,0-0.7,0s-0.5,0-0.6,0s-0.3,0-0.4,0c-0.2,0-0.3,0-0.3,0c-0.1,0-0.2-0.1-0.2-0.2
					c0-0.1,0-0.1-0.1-0.1l-1.7-3.8c-0.2-0.4-0.3-0.7-0.4-0.8c-0.1-0.1-0.3-0.1-0.5-0.1c-0.1,0-0.1,0-0.2,0c-0.1,0-0.1,0-0.1,0.1v3.8
					c0,0.3,0,0.4,0.1,0.6c0.1,0.1,0.1,0.2,0.3,0.2c0.1,0,0.2,0.1,0.3,0.1c0.3,0,0.4,0.1,0.4,0.3c0,0.1,0,0.1-0.1,0.1
					s-0.1,0.1-0.3,0.1c-0.1,0-0.2,0-0.5,0c-0.3,0-0.6,0-0.8,0c-0.3,0-0.6,0-1,0c-0.3,0-0.5,0-0.6,0c-0.2,0-0.3,0-0.4-0.1
					c-0.1,0-0.1-0.1-0.1-0.1c0-0.1,0.1-0.1,0.3-0.2c0.1-0.1,0.2-0.1,0.3-0.1c0.2-0.1,0.3-0.1,0.4-0.2c0.1-0.1,0.1-0.3,0.1-0.6v-7.9
					H203.1z M204.8,48.3v2.7c0,0.4,0.1,0.7,0.1,0.8c0.1,0.1,0.3,0.1,0.4,0.1c0.7,0,1.2-0.2,1.6-0.6c0.4-0.4,0.6-1,0.6-1.7
					c0-0.6-0.2-1.1-0.5-1.5s-0.8-0.5-1.4-0.5c-0.3,0-0.6,0.1-0.6,0.1C204.8,47.8,204.8,48,204.8,48.3z"/>
			</g>
			<g>
				<path class="st0" d="M216.8,55.1v1.3v0.2c0,0.1,0,0.2,0,0.3s-0.1,0.1-0.1,0.2c-0.1,0.2-0.4,0.4-0.9,0.5
					c-0.4,0.1-0.9,0.2-1.4,0.2c-0.6,0-1.1-0.1-1.6-0.4c-0.4-0.3-0.9-0.6-1.3-1.1c-0.4-0.5-0.7-1.1-0.9-1.8c-0.2-0.6-0.3-1.4-0.3-2.2
					c0-1.6,0.4-2.9,1.2-3.9c0.8-1,1.8-1.5,3.1-1.5c0.4,0,0.8,0.1,1.2,0.1c0.4,0.1,0.6,0.2,0.7,0.4c0,0.1,0.1,0.1,0.1,0.3
					c0,0.1,0,0.3,0,0.4v1.5c0,0.1,0,0.2-0.1,0.3c-0.1,0.1-0.1,0.1-0.2,0.1c-0.2,0-0.3-0.3-0.5-0.8c-0.1-0.1-0.1-0.2-0.1-0.3
					c-0.2-0.6-0.4-1-0.6-1.2c-0.3-0.2-0.5-0.3-0.8-0.3c-0.7,0-1.3,0.4-1.7,1.2c-0.4,0.8-0.6,1.8-0.6,3.2c0,1.7,0.2,3,0.6,3.9
					c0.4,1,1,1.5,1.7,1.5c0.4,0,0.7-0.1,1-0.4c0.3-0.3,0.5-0.7,0.6-1.2c0.1-0.2,0.1-0.4,0.1-0.7c0.1-0.6,0.3-0.9,0.4-0.9
					c0.1,0,0.1,0.1,0.2,0.1c0.1,0.1,0.1,0.3,0.1,0.5L216.8,55.1L216.8,55.1z"/>
			</g>
			<g>
				<path class="st0" d="M220.3,56.2c0,0.3,0,0.4,0.1,0.6c0.1,0.1,0.1,0.2,0.3,0.2c0.1,0,0.1,0,0.2,0.1c0.3,0.1,0.4,0.1,0.4,0.3
					c0,0.1,0,0.1-0.1,0.1c-0.1,0-0.1,0-0.3,0c0,0-0.1,0-0.2,0c-0.4,0-0.8,0-1.1,0c-0.3,0-0.5,0-0.8,0s-0.5,0-0.6,0
					c-0.2,0-0.3,0-0.4-0.1c-0.1,0-0.1-0.1-0.1-0.1c0-0.1,0.1-0.1,0.3-0.2c0.1-0.1,0.2-0.1,0.3-0.1c0.2-0.1,0.3-0.1,0.4-0.2
					c0.1-0.1,0.1-0.3,0.1-0.6v-7.7c0-0.3,0-0.4-0.1-0.5c-0.1-0.1-0.1-0.1-0.2-0.2c-0.1,0-0.1,0-0.3-0.1c-0.3,0-0.4-0.1-0.4-0.3
					c0-0.1,0-0.1,0.1-0.1c0.1,0,0.1-0.1,0.3-0.1c0,0,0.1,0,0.1,0c0.4,0,0.8,0,1.2,0c0.2,0,0.4,0,0.7,0s0.5,0,0.6,0
					c0.1,0,0.3,0,0.3,0.1c0.1,0,0.1,0.1,0.1,0.1c0,0.1-0.1,0.2-0.4,0.3c-0.1,0-0.1,0.1-0.1,0.1c-0.2,0-0.3,0.1-0.4,0.1
					c-0.1,0.1-0.1,0.3-0.1,0.6L220.3,56.2L220.3,56.2z"/>
			</g>
			<g>
				<path class="st0" d="M222.2,52.4c0-0.7,0.1-1.4,0.3-2c0.2-0.6,0.4-1.2,0.8-1.7c0.4-0.6,0.8-1,1.3-1.3c0.5-0.3,1-0.4,1.5-0.4
					c0.4,0,0.9,0.1,1.3,0.3s0.8,0.5,1.2,1c0.4,0.5,0.8,1.1,1.1,1.8c0.3,0.7,0.4,1.5,0.4,2.3c0,1.5-0.4,2.8-1.1,3.9
					c-0.8,1-1.7,1.5-2.7,1.5c-0.4,0-0.9-0.1-1.3-0.3s-0.8-0.5-1.2-1c-0.5-0.5-0.8-1.1-1.1-1.8C222.3,54,222.2,53.2,222.2,52.4z
					 M226,47.4c-0.6,0-1.1,0.4-1.5,1.3c-0.4,0.9-0.6,2-0.6,3.4c0,1.5,0.3,2.7,0.7,3.7c0.5,1,1,1.5,1.7,1.5c0.6,0,1.1-0.4,1.5-1.3
					c0.4-0.9,0.6-2,0.6-3.5c0-1.5-0.3-2.7-0.7-3.7C227.2,47.9,226.6,47.4,226,47.4z"/>
			</g>
			<g>
				<path class="st0" d="M148.2,64.8c0-0.3,0-0.4-0.1-0.5c0-0.1-0.1-0.2-0.2-0.2c-0.1,0-0.1-0.1-0.3-0.1c-0.3-0.1-0.4-0.1-0.4-0.3
					c0-0.1,0-0.1,0.1-0.1c0.1,0,0.1-0.1,0.3-0.1c0,0,0.1,0,0.1,0c0.4,0,0.8,0,1.2,0c0.2,0,0.4,0,0.7,0s0.5,0,0.6,0
					c0.1,0,0.3,0,0.3,0.1c0.1,0.1,0.1,0.1,0.1,0.1c0,0.1-0.1,0.2-0.4,0.3c-0.1,0-0.1,0-0.1,0.1c-0.2,0-0.3,0.1-0.4,0.1
					c-0.1,0.1-0.1,0.3-0.1,0.6v6.7c0,0.7,0.1,1.1,0.2,1.5c0.1,0.3,0.4,0.4,0.7,0.4c0.4,0,0.8-0.1,1-0.3c0.3-0.2,0.5-0.4,0.6-0.8
					c0.1-0.3,0.2-0.5,0.3-0.9c0.1-0.3,0.2-0.5,0.3-0.5c0.1,0,0.1,0,0.2,0.1c0,0.1,0.1,0.1,0.1,0.3v2.2c0,0.3,0,0.4-0.1,0.5
					c-0.1,0.1-0.2,0.1-0.4,0.1c-0.2,0-0.6,0-1.3-0.1c-0.6,0-1.2-0.1-1.7-0.1h-2c-0.2,0-0.3,0-0.4-0.1c-0.1,0-0.1-0.1-0.1-0.1
					s0.1-0.1,0.2-0.2c0.1-0.1,0.2-0.1,0.3-0.1c0.2-0.1,0.3-0.1,0.4-0.2c0.1-0.1,0.1-0.3,0.1-0.6L148.2,64.8L148.2,64.8z"/>
			</g>
			<g>
				<path class="st0" d="M156.9,72.6c0,0.3,0,0.4,0.1,0.6c0.1,0.1,0.1,0.2,0.3,0.3c0.1,0,0.1,0,0.2,0c0.3,0.1,0.4,0.1,0.4,0.3
					c0,0.1,0,0.1-0.1,0.1c-0.1,0-0.1,0.1-0.3,0.1c0,0-0.1,0-0.2,0c-0.4,0-0.8,0-1.1,0c-0.3,0-0.5,0-0.8,0s-0.5,0-0.6,0
					c-0.2,0-0.3,0-0.4-0.1c-0.1,0-0.1-0.1-0.1-0.1c0-0.1,0.1-0.1,0.3-0.2c0.1,0,0.2-0.1,0.3-0.1c0.2-0.1,0.3-0.1,0.4-0.3
					c0.1-0.1,0.1-0.3,0.1-0.6v-7.8c0-0.3,0-0.4-0.1-0.5c-0.1-0.1-0.1-0.2-0.2-0.2c-0.1,0-0.1-0.1-0.3-0.1c-0.3-0.1-0.4-0.1-0.4-0.3
					c0-0.1,0-0.1,0.1-0.1c0.1-0.1,0.1-0.1,0.3-0.1c0,0,0.1,0,0.1,0c0.4,0,0.8,0,1.2,0c0.2,0,0.4,0,0.7,0c0.3,0,0.5,0,0.6,0
					c0.1,0,0.3,0,0.3,0.1c0.1,0.1,0.1,0.1,0.1,0.1c0,0.1-0.1,0.2-0.4,0.3c-0.1,0-0.1,0-0.1,0.1c-0.2,0-0.3,0.1-0.4,0.1
					c-0.1,0.1-0.1,0.3-0.1,0.6v7.8H156.9z"/>
			</g>
			<g>
				<path class="st0" d="M159.6,64.7L159.6,64.7c0-0.2,0-0.3-0.1-0.4c-0.1-0.1-0.1-0.1-0.3-0.2c-0.1,0-0.1,0-0.3-0.1
					c-0.3-0.1-0.4-0.1-0.4-0.3c0-0.1,0.1-0.1,0.1-0.2c0.1-0.1,0.3-0.1,0.4-0.1h0.7h1c0.2,0,0.3,0.1,0.4,0.2l0,0l1.9,5.7
					c0.1,0.3,0.1,0.4,0.2,0.6c0.1,0.1,0.1,0.1,0.1,0.1c0.1,0,0.1-0.1,0.2-0.3l0,0l1.8-5.7c0.1-0.3,0.2-0.4,0.3-0.4s0.3-0.1,0.4-0.1
					h0.7h1.1c0.2,0,0.3,0,0.3,0.1c0.1,0,0.1,0.1,0.1,0.1c0,0.1-0.1,0.2-0.4,0.3c-0.1,0-0.1,0-0.1,0c-0.2,0.1-0.3,0.1-0.3,0.1
					c-0.1,0.1-0.1,0.2-0.1,0.4v0.1l0.2,7.9c0,0.2,0.1,0.4,0.1,0.5c0.1,0.1,0.1,0.3,0.2,0.3c0.1,0,0.2,0.1,0.4,0.1
					c0.2,0.1,0.3,0.1,0.3,0.2c0,0.1,0,0.1-0.1,0.1s-0.2,0.1-0.4,0.1c-0.1,0-0.3,0-0.5,0c-0.3,0-0.4,0-0.6,0c-0.3,0-0.7,0-1.1,0
					c-0.4,0-0.7,0-0.8,0H165c-0.1,0-0.2,0-0.2,0c-0.1,0-0.1-0.1-0.1-0.1c0-0.1,0.1-0.3,0.4-0.3c0.1,0,0.1-0.1,0.1-0.1
					c0.3,0,0.5-0.1,0.6-0.2c0.1-0.1,0.1-0.3,0.1-0.6v-0.1l-0.1-6c0-0.3,0-0.4-0.1-0.6c-0.1-0.1-0.1-0.2-0.1-0.2s-0.1,0.1-0.1,0.1
					s-0.1,0.2-0.1,0.3l-2.1,6.9v0.1c-0.2,0.6-0.3,0.9-0.4,0.9c-0.1,0-0.3-0.4-0.4-1.1c0-0.1,0-0.1,0-0.1l-1.9-6.3
					c-0.1-0.1-0.1-0.3-0.1-0.3c-0.1-0.1-0.1-0.1-0.1-0.1c-0.1,0-0.1,0.1-0.1,0.1s-0.1,0.3-0.1,0.4l-0.1,6.1v0.1
					c0,0.3,0.1,0.4,0.1,0.6c0.1,0.1,0.3,0.2,0.4,0.2h0.1c0.1,0,0.2,0,0.3,0.1s0.1,0.1,0.1,0.2c0,0.1,0,0.1-0.1,0.2
					c-0.1,0.1-0.2,0.1-0.3,0.1c0,0-0.1,0-0.1,0c-0.4,0-0.7,0-1,0c-0.1,0-0.3,0-0.5,0c-0.2,0-0.3,0-0.3,0c-0.1,0-0.1,0-0.2-0.1
					c-0.1,0-0.1-0.1-0.1-0.1c0-0.2,0.1-0.3,0.4-0.3c0.1,0,0.1,0,0.1,0c0.2-0.1,0.3-0.1,0.4-0.3c0.1-0.1,0.1-0.3,0.1-0.6L159.6,64.7z
					"/>
			</g>
			<g>
				<path class="st0" d="M170,72c0,0.1-0.1,0.3-0.1,0.4c0,0.1,0,0.3,0,0.4c0,0.2,0.1,0.3,0.1,0.4c0.1,0.1,0.2,0.2,0.4,0.2
					c0.1,0,0.2,0.1,0.3,0.1c0.2,0,0.3,0.1,0.3,0.2c0,0.1,0,0.1-0.1,0.1c-0.1,0-0.1,0.1-0.2,0.1c0,0-0.1,0-0.1,0c-0.3,0-0.6,0-1,0
					c-0.1,0-0.2,0-0.3,0c-0.2,0-0.3,0-0.4,0h-0.2c-0.2,0-0.3,0-0.4-0.1c-0.1,0-0.1-0.1-0.1-0.1c0-0.1,0.1-0.2,0.3-0.2
					c0.1,0,0.2-0.1,0.3-0.1c0.1-0.1,0.2-0.1,0.3-0.3c0.1-0.1,0.2-0.4,0.3-0.7l2.5-8.6c0,0,0-0.1,0-0.1c0.1-0.3,0.2-0.4,0.3-0.4
					c0.1,0,0.1,0,0.2,0.1c0.1,0.1,0.1,0.1,0.1,0.3l2.4,8.2c0,0.1,0.1,0.2,0.1,0.3c0.2,0.7,0.4,1.1,0.6,1.2c0.1,0.1,0.2,0.1,0.3,0.1
					c0.2,0.1,0.3,0.1,0.3,0.2c0,0.1,0,0.1-0.1,0.1c-0.1,0-0.1,0.1-0.2,0.1c0,0-0.1,0-0.2,0c-0.4,0-0.9,0-1.3,0s-0.8,0-1.2,0
					c-0.1,0-0.1,0-0.1,0c-0.1,0-0.2,0-0.2-0.1c-0.1,0-0.1-0.1-0.1-0.1c0-0.1,0.1-0.2,0.3-0.2c0.1,0,0.1,0,0.2,0
					c0.1-0.1,0.3-0.1,0.3-0.1c0.1-0.1,0.1-0.1,0.1-0.3c0-0.1,0-0.2,0-0.3s0-0.1-0.1-0.3l-0.5-1.9c-0.1-0.3-0.1-0.4-0.3-0.4
					c-0.1-0.1-0.3-0.1-0.5-0.1h-1.2c-0.3,0-0.5,0-0.6,0.1s-0.1,0.2-0.2,0.4L170,72z M170.9,68.9c-0.1,0.1-0.1,0.3-0.1,0.4
					c0,0.1-0.1,0.2-0.1,0.3s0,0.1,0.1,0.1c0.1,0.1,0.1,0.1,0.2,0.1h1.3c0.1,0,0.2,0,0.3-0.1c0.1,0,0.1-0.1,0.1-0.1s0-0.1,0-0.1
					c0-0.1,0-0.1-0.1-0.1l-0.7-2.5l0,0c-0.1-0.3-0.1-0.4-0.2-0.4c-0.1,0-0.1,0-0.1,0.1c-0.1,0.1-0.1,0.2-0.1,0.4L170.9,68.9z"/>
			</g>
		</g>
		<g>
			<g>
				<rect x="136.8" y="27.3" class="st1" width="0.4" height="47.2"/>
				<path class="st1" d="M137.4,74.8h-0.8V27.2h0.8V74.8z M137,74.4L137,74.4l0.1-46.9H137V74.4z"/>
			</g>
		</g>
	</g>
	<g>
		<path class="st2" d="M45.5,72.8c-4,2-10.1,2.7-14.6,2.7c-14.2,0-24.7-9.2-24.7-23.7c0-13.5,9.1-25.9,26.3-25.9
			c4.3,0,9.4,0.8,12.3,1.7l1,8.8c-2.9-3.5-7.9-6.2-13.2-6.2c-9,0-16.4,4.7-16.4,19.8c0,9,4.6,21,17.4,21c5.6,0,10.4-3.8,13.5-8.1
			c0.1,0.6,0.1,1.3,0.1,2C47.3,67.5,46.7,70,45.5,72.8L45.5,72.8z"/>
	</g>
</g>
<g>
	<path class="st3" d="M17.1,19c0,0.1,0.1,0.2,0.1,0.3c0,0.5-0.4,0.9-0.9,0.9c-0.4,0-0.7-0.2-0.9-0.6l-0.7-1.7h-4.4l-0.7,1.7
		C9.4,20,9,20.3,8.7,20.3c-0.5,0-0.9-0.5-0.9-0.9c0-0.1,0-0.2,0.1-0.3l3.8-9.3c0.1-0.4,0.5-0.6,0.9-0.6c0.4,0,0.7,0.2,0.9,0.6
		L17.1,19z M13.9,16.1l-1.4-3.5L11,16.1H13.9z"/>
	<path class="st3" d="M26.2,16.5v0.2c0,0.9-0.4,1.8-1,2.4c-0.7,0.7-1.7,1.1-2.7,1.1h-0.1c-1.4,0-2.6-0.8-3.1-2
		c-0.1-0.1-0.1-0.3-0.1-0.4c0-0.4,0.2-0.7,0.5-0.8c0.1-0.1,0.3-0.1,0.4-0.1c0.4,0,0.7,0.2,0.9,0.5c0.3,0.6,0.8,0.9,1.5,0.9h0.1
		c0.6,0,1-0.2,1.4-0.5c0.3-0.3,0.5-0.7,0.5-1.1v-0.1c0-0.7-1.5-1.4-2.1-1.6l-0.1,0c-1.7-0.6-2.5-1.6-2.5-3.1v-0.1
		c0-0.8,0.4-1.5,1.1-2.1c0.6-0.4,1.4-0.7,2.2-0.7h0.1c0.7,0,1.4,0.3,1.9,0.7c0.2,0.2,0.4,0.5,0.4,0.7c0,0.2-0.1,0.4-0.2,0.6
		c-0.2,0.2-0.5,0.4-0.8,0.4c-0.2,0-0.4,0-0.6-0.2c-0.2-0.2-0.6-0.3-0.9-0.3H23c-0.8,0-1.4,0.4-1.4,1V12c0,0.8,0.6,1.1,1.2,1.3
		C23.3,13.5,26.1,14.3,26.2,16.5z"/>
	<path class="st3" d="M28.7,14.7c0-3.1,2.4-5.6,5.4-5.6s5.4,2.5,5.4,5.6s-2.4,5.6-5.4,5.6S28.7,17.8,28.7,14.7z M30.6,14.7
		c0,2.1,1.6,3.7,3.5,3.7c2,0,3.5-1.7,3.5-3.7c0-2.1-1.6-3.7-3.5-3.7C32.2,11,30.6,12.6,30.6,14.7z"/>
	<path class="st3" d="M50.7,18.3c0.2,0.4,0.1,1-0.4,1.3c-0.8,0.4-1.7,0.7-2.7,0.7c-3.1,0-5.7-2.5-5.7-5.6s2.5-5.6,5.7-5.6
		c1,0,1.9,0.2,2.7,0.7c0.5,0.3,0.6,0.8,0.4,1.3c-0.3,0.5-0.8,0.6-1.3,0.4c-0.5-0.3-1.2-0.4-1.8-0.4c-2.1,0-3.8,1.7-3.8,3.7
		c0,2.1,1.7,3.7,3.8,3.7c0.6,0,1.3-0.1,1.8-0.4C49.9,17.7,50.5,17.9,50.7,18.3z"/>
	<path class="st3" d="M53.3,19.3V10c0-0.5,0.4-0.9,0.9-0.9s0.9,0.4,0.9,0.9v9.3c0,0.5-0.4,0.9-0.9,0.9S53.3,19.8,53.3,19.3z"/>
	<path class="st3" d="M67,19c0,0.1,0.1,0.2,0.1,0.3c0,0.5-0.4,0.9-0.9,0.9c-0.4,0-0.7-0.2-0.9-0.6l-0.7-1.7h-4.4l-0.7,1.7
		c-0.1,0.4-0.5,0.6-0.9,0.6c-0.5,0-0.9-0.5-0.9-0.9c0-0.1,0-0.2,0.1-0.3l3.8-9.3c0.1-0.4,0.5-0.6,0.9-0.6c0.4,0,0.7,0.2,0.9,0.6
		L67,19z M63.8,16.1l-1.4-3.5l-1.4,3.5H63.8z"/>
	<path class="st3" d="M70.4,20.3c-0.5,0-0.9-0.4-0.9-0.9V10c0-0.5,0.4-0.9,0.9-0.9h2.7c0.1,0,4.8,0,4.8,5.6c0,5.6-4.7,5.6-4.8,5.6
		H70.4z M71.4,18.4h1.8c0,0,0.8,0,1.5-0.5c0.9-0.6,1.4-1.7,1.4-3.2c0-1.6-0.5-2.7-1.5-3.3C73.9,11,73.2,11,73.2,11h-1.8V18.4z"/>
	<path class="st3" d="M80.4,14.7c0-3.1,2.4-5.6,5.4-5.6s5.4,2.5,5.4,5.6s-2.4,5.6-5.4,5.6S80.4,17.8,80.4,14.7z M82.3,14.7
		c0,2.1,1.6,3.7,3.5,3.7c2,0,3.5-1.7,3.5-3.7c0-2.1-1.6-3.7-3.5-3.7C83.9,11,82.3,12.6,82.3,14.7z"/>
	<path class="st3" d="M108.6,19c0,0.1,0.1,0.2,0.1,0.3c0,0.5-0.4,0.9-0.9,0.9c-0.4,0-0.7-0.2-0.9-0.6l-0.7-1.7h-4.4l-0.7,1.7
		c-0.1,0.4-0.5,0.6-0.9,0.6c-0.5,0-0.9-0.5-0.9-0.9c0-0.1,0-0.2,0.1-0.3l3.8-9.3c0.1-0.4,0.5-0.6,0.9-0.6c0.4,0,0.7,0.2,0.9,0.6
		L108.6,19z M105.4,16.1l-1.4-3.5l-1.4,3.5H105.4z"/>
</g>
</svg>
