<?xml version="1.0" encoding="utf-8"?>
<!-- Generator: Adobe Illustrator 22.1.0, SVG Export Plug-In . SVG Version: 6.00 Build 0)  -->
<svg version="1.1" id="Capa_1" xmlns="http://www.w3.org/2000/svg" xmlns:xlink="http://www.w3.org/1999/xlink" x="0px" y="0px"
	 viewBox="0 0 342.9 342.9" style="enable-background:new 0 0 342.9 342.9;" xml:space="preserve">
<style type="text/css">
	.st0{fill:#EDEDED;}
	.st1{fill:#3A9A48;}
	.st2{fill:#FEFEFE;}
</style>
<g>
	<path class="st0" d="M0.1,342.8L23.8,257C8.4,230.4,0.1,200.8,0.1,170.2C0.1,76.8,76.9-0.1,171-0.1s171.9,76.9,171.9,170.4
		S264.8,342.9,171,342.9c-29.6,0-57.9-9.4-83.4-23.7L0.1,342.8z"/>
	<path class="st1" d="M92.3,288.4l5.3,2.9c21.9,13.6,47.3,21.9,73.9,21.9c77.5,0,141.9-64.5,141.9-143.1S248.8,29.5,171,29.5
		S29.7,92.2,29.7,170.3c0,27.2,7.7,53.8,21.9,76.3l3.5,5.3l-13.6,49.6L92.3,288.4z"/>
	<path class="st2" d="M125.4,91l-11.2-0.6c-3.5,0-7.1,1.1-9.4,3.5c-5.3,4.8-14.2,13.6-16.5,25.4c-4.2,17.8,2.4,39,17.8,60.3
		s45,55.5,97,70.4c16.5,4.8,29.6,1.8,40.2-4.8c8.3-5.3,13.6-13.6,15.4-22.4l1.8-8.3c0.6-2.4-0.6-5.3-2.9-6.5l-37.3-17.1
		c-2.4-1.1-5.3-0.6-7.1,1.8l-14.7,18.9c-1.1,1.1-2.9,1.8-4.8,1.1c-10.1-3.5-43.7-17.8-62.1-53.3c-0.6-1.8-0.6-3.5,0.6-4.8l14.2-16
		c1.1-1.8,1.8-4.2,1.1-5.9l-17.1-38.4C129.6,92.8,127.8,91,125.4,91"/>
</g>
</svg>
