<?xml version="1.0" encoding="utf-8"?>
<!-- Generator: Adobe Illustrator 21.1.0, SVG Export Plug-In . SVG Version: 6.00 Build 0)  -->
<svg version="1.1" id="Layer_1" xmlns="http://www.w3.org/2000/svg" xmlns:xlink="http://www.w3.org/1999/xlink" x="0px" y="0px"
	 viewBox="0 0 305.9 63.4" style="enable-background:new 0 0 305.9 63.4;" xml:space="preserve">
<style type="text/css">
	.st0{fill:#002756;}
	.st1{fill:#8DB800;}
	.st2{fill:#FAA819;}
	.st3{fill:#FFBC05;}
	.st4{opacity:0.2;}
</style>
<g>
	<g>
		<g>
			<path class="st0" d="M90.3,41.7c0,1.3-1,2.3-2.3,2.3H75.2c-1.3,0-2.3-1-2.3-2.3V18.8c0-1.3,1-2.3,2.3-2.3h12.7
				c1.3,0,2.3,1,2.3,2.3s-1,2.3-2.3,2.3H77.5v6.8h8.1c1.3,0,2.3,1,2.3,2.3s-1,2.3-2.3,2.3h-8.1v6.8h10.4
				C89.3,39.4,90.3,40.4,90.3,41.7z"/>
			<path class="st0" d="M115.5,40.4c0.3,0.4,0.4,0.9,0.4,1.3c0,1.2-1.1,2.3-2.3,2.3c-0.8,0-1.5-0.4-1.9-1l-6.2-8.7L99.3,43
				c-0.4,0.6-1.2,1-1.9,1c-1.3,0-2.3-1.1-2.3-2.3c0-0.4,0.1-0.9,0.4-1.3l7.2-10.1l-7.2-10.1c-0.3-0.4-0.4-0.7-0.4-1.2
				c0-1.2,0.9-2.4,2.3-2.4c0.8,0,1.5,0.4,1.9,1l6.2,8.7l6.2-8.7c0.4-0.6,1.2-1,1.9-1c1.3,0,2.3,1.1,2.3,2.3c0,0.5-0.2,0.9-0.4,1.3
				l-7.2,10.1L115.5,40.4z"/>
			<path class="st0" d="M120.7,41.7V18.8c0-1.3,1-2.3,2.3-2.3h6.3c0.2,0,2.3,0,4.5,1.1c3.1,1.5,4.8,4.3,4.8,8c0,0.2,0,2.3-1.1,4.5
				c-1.5,3-4.5,4.7-8.2,4.7h-4v6.8c0,1.3-1,2.3-2.3,2.3C121.7,44,120.7,43,120.7,41.7z M125.4,30.3h4c2,0,3.3-0.7,4-2.1
				c0.6-1.2,0.7-2.4,0.7-2.5c0-2-0.7-3.2-2.2-4c-1.2-0.6-2.5-0.6-2.5-0.6h-4V30.3z"/>
			<path class="st0" d="M143.4,30.3c0-7.6,6-13.7,13.3-13.7c7.4,0,13.4,6.1,13.4,13.7s-6,13.7-13.4,13.7
				C149.4,44,143.4,37.8,143.4,30.3z M148.1,30.3c0,5,3.9,9.1,8.7,9.1s8.7-4.1,8.7-9.1s-3.9-9.1-8.7-9.1
				C152,21.2,148.1,25.2,148.1,30.3z"/>
			<path class="st0" d="M194.6,18.9v22.9c0,1.3-1,2.3-2.3,2.3s-2.3-1-2.3-2.3v-9.2h-10.4v9.2c0,1.3-1.1,2.3-2.3,2.3s-2.3-1-2.3-2.3
				V18.9c0-1.3,1-2.3,2.3-2.3s2.3,1,2.3,2.3v9.2H190v-9.2c0-1.3,1-2.3,2.3-2.3S194.6,17.6,194.6,18.9z"/>
			<path class="st0" d="M199.4,30.3c0-7.6,6-13.7,13.3-13.7s13.4,6.1,13.4,13.7s-6,13.7-13.4,13.7S199.4,37.8,199.4,30.3z M204,30.3
				c0,5,3.9,9.1,8.7,9.1s8.7-4.1,8.7-9.1s-3.9-9.1-8.7-9.1C207.9,21.2,204,25.2,204,30.3z"/>
			<path class="st0" d="M234.8,40c-2.6-2.6-4.1-6-4.1-9.7c0-3.6,1.4-7.1,4.1-9.7c2.6-2.6,6.1-4,9.9-4c3.7,0,7.2,1.4,9.9,4
				c0.4,0.4,0.6,1,0.6,1.6s-0.2,1.2-0.7,1.6c-0.5,0.5-1,0.7-1.6,0.7s-1.2-0.2-1.6-0.7c-1.7-1.7-4.1-2.7-6.6-2.7s-4.8,0.9-6.6,2.7
				c-1.7,1.7-2.7,4-2.7,6.5c0,2.4,1,4.7,2.7,6.5c1.8,1.8,4.2,2.7,6.6,2.7c2.1,0,4.2-0.7,5.9-2.1v-4.8h-5.8c-1.3,0-2.3-1-2.3-2.3
				s1.1-2.3,2.3-2.3h8.1c1.3,0,2.3,1,2.3,2.3v8.1c0,0.6-0.2,1.2-0.7,1.6c-2.7,2.7-6.3,4-9.8,4C241.1,44,237.5,42.7,234.8,40z"/>
			<path class="st0" d="M283,40.9c0.1,0.3,0.2,0.6,0.2,0.9c0,1.2-0.9,2.3-2.3,2.3c-0.9,0-1.8-0.5-2.1-1.4l-1.7-4.3h-10.8l-1.7,4.3
				c-0.4,0.9-1.2,1.4-2.1,1.4c-1.4,0-2.3-1.1-2.3-2.3c0-0.3,0-0.6,0.2-0.9l9.3-22.8c0.4-0.9,1.2-1.4,2.2-1.4c0.9,0,1.8,0.6,2.1,1.4
				L283,40.9z M275.1,33.7l-3.5-8.7l-3.5,8.7H275.1z"/>
			<path class="st0" d="M305.5,40.5c0.2,0.4,0.4,0.8,0.4,1.2c0,0.7-0.4,1.5-1.1,1.9c-0.4,0.2-0.8,0.4-1.2,0.4c-0.8,0-1.5-0.4-2-1.1
				l-5.1-8.1h-3.9v6.8c0,1.3-1.1,2.3-2.3,2.3s-2.3-1-2.3-2.3V18.7c0-1.3,1-2.3,2.3-2.3h6.3c0.2,0,2.3,0,4.5,1.1
				c3.1,1.5,4.8,4.3,4.8,8c0,0.2,0,2.3-1.1,4.5c-0.8,1.6-2,2.8-3.5,3.6L305.5,40.5z M292.6,30.3h4c2,0,3.3-0.7,4-2.1
				c0.6-1.2,0.7-2.4,0.7-2.5c0-2-0.7-3.2-2.2-4c-1.2-0.6-2.5-0.6-2.5-0.6h-4V30.3z"/>
		</g>
		<g>
			<path class="st1" d="M80.5,0.1c0.5,0,1,0.4,1,1c0,0.5-0.5,1-1,1h-4.9V5h3.9c0.5,0,1,0.4,1,1s-0.4,1-1,1h-3.9v3.9c0,0.5-0.5,1-1,1
				s-1-0.4-1-1V1.1c0-0.5,0.4-1,1-1H80.5z"/>
			<path class="st1" d="M90.9,10.8c0,0.5-0.4,1-1,1h-5.4c-0.6,0-1-0.4-1-1V1.1c0-0.5,0.4-1,1-1h5.4c0.6,0,1,0.4,1,1c0,0.5-0.4,1-1,1
				h-4.5V5h3.4c0.5,0,1,0.4,1,1s-0.4,1-1,1h-3.4v2.9h4.4C90.4,9.8,90.9,10.2,90.9,10.8z"/>
			<path class="st1" d="M100.3,10.2c0.1,0.2,0.2,0.3,0.2,0.5c0,0.3-0.2,0.6-0.5,0.8c-0.2,0.1-0.3,0.1-0.5,0.1
				c-0.3,0-0.7-0.2-0.8-0.4l-2.2-3.4h-1.7v2.9c0,0.5-0.5,1-1,1s-1-0.4-1-1V1.1c0-0.5,0.4-1,1-1h2.7c0.1,0,1,0,1.9,0.5
				c1.3,0.6,2,1.8,2,3.4c0,0.1,0,1-0.5,1.9c-0.4,0.7-0.9,1.2-1.5,1.5L100.3,10.2z M94.8,5.9h1.7c0.8,0,1.4-0.3,1.7-0.9
				c0.3-0.5,0.3-1,0.3-1.1c0-0.8-0.3-1.4-0.9-1.7c-0.5-0.2-1-0.2-1-0.2h-1.7L94.8,5.9L94.8,5.9z"/>
			<path class="st1" d="M102.5,10.8V1.1c0-0.5,0.4-1,1-1s1,0.4,1,1v9.7c0,0.5-0.4,1-1,1S102.5,11.3,102.5,10.8z"/>
			<path class="st1" d="M116.2,10.4c0.1,0.1,0.1,0.2,0.1,0.4c0,0.5-0.4,1-1,1c-0.4,0-0.8-0.2-0.9-0.6l-0.7-1.8h-4.6l-0.7,1.7
				c-0.2,0.4-0.5,0.6-0.9,0.6c-0.6,0-1-0.5-1-1c0-0.1,0-0.2,0.1-0.4l3.9-9.7c0.2-0.4,0.5-0.6,0.9-0.6s0.8,0.2,0.9,0.6L116.2,10.4z
				 M112.9,7.4l-1.5-3.7l-1.5,3.7H112.9z"/>
			<path class="st1" d="M127.5,11.1l-3.9-9.7c-0.1-0.1-0.1-0.2-0.1-0.3c0-0.5,0.4-1,1-1c0.4,0,0.8,0.2,0.9,0.6l3,7.4l3-7.4
				c0.2-0.4,0.5-0.6,0.9-0.6c0.6,0,1,0.5,1,1c0,0.1,0,0.2-0.1,0.4l-3.8,9.6c-0.2,0.4-0.5,0.6-0.9,0.6
				C128,11.7,127.7,11.5,127.5,11.1z"/>
			<path class="st1" d="M135.4,10.8V1.1c0-0.5,0.4-1,1-1c0.6,0,1,0.4,1,1v9.7c0,0.5-0.4,1-1,1C135.8,11.8,135.4,11.3,135.4,10.8z"/>
			<path class="st1" d="M146.8,10.2c0.1,0.2,0.2,0.3,0.2,0.5c0,0.3-0.2,0.6-0.5,0.8c-0.2,0.1-0.3,0.1-0.5,0.1
				c-0.3,0-0.7-0.2-0.8-0.4L143,7.8h-1.7v2.9c0,0.5-0.5,1-1,1s-1-0.4-1-1V1.1c0-0.5,0.4-1,1-1h2.7c0.1,0,1,0,1.9,0.5
				c1.3,0.6,2,1.8,2,3.4c0,0.1,0,1-0.5,1.9c-0.4,0.7-0.9,1.2-1.5,1.5L146.8,10.2z M141.3,5.9h1.7c0.8,0,1.4-0.3,1.7-0.9
				c0.3-0.5,0.3-1,0.3-1.1c0-0.8-0.3-1.4-0.9-1.7c-0.5-0.2-1-0.2-1-0.2h-1.7v3.9H141.3z"/>
			<path class="st1" d="M155.1,0.1c0.5,0,1,0.4,1,1c0,0.5-0.5,1-1,1h-2v8.7c0,0.5-0.5,1-1,1s-1-0.4-1-1V2.1h-2c-0.5,0-1-0.4-1-1
				c0-0.5,0.4-1,1-1H155.1z"/>
			<path class="st1" d="M158.6,9.5c-0.5-1-0.5-2-0.5-2.1V1.1c0-0.5,0.4-1,1-1c0.5,0,1,0.4,1,1v6.3c0,0.2,0.2,2.4,2.2,2.4
				c1.9,0,2.2-2,2.2-2.4V1.1c0-0.5,0.4-1,1-1c0.5,0,1,0.4,1,1v6.3c0,0.1,0,1.1-0.5,2.1c-0.7,1.5-2,2.3-3.7,2.3S159.2,10.9,158.6,9.5
				z"/>
			<path class="st1" d="M177.4,10.4c0.1,0.1,0.1,0.2,0.1,0.4c0,0.5-0.4,1-1,1c-0.4,0-0.8-0.2-0.9-0.6l-0.7-1.8h-4.6l-0.7,1.8
				c-0.2,0.4-0.5,0.6-0.9,0.6c-0.6,0-1-0.5-1-1c0-0.1,0-0.2,0.1-0.4l3.9-9.7c0.2-0.4,0.5-0.6,0.9-0.6s0.8,0.2,0.9,0.6L177.4,10.4z
				 M174.1,7.4l-1.5-3.7l-1.5,3.7H174.1z"/>
			<path class="st1" d="M180.5,11.7c-0.6,0-1-0.4-1-1V1.1c0-0.5,0.4-1,1-1c0.5,0,1,0.4,1,1v8.7h3.4c0.5,0,1,0.4,1,1c0,0.5-0.5,1-1,1
				L180.5,11.7L180.5,11.7z"/>
		</g>
		<g>
			<path class="st1" d="M203.3,61.1v-9.7c0-0.5,0.4-1,1-1c0.5,0,1,0.4,1,1v9.7c0,0.5-0.4,1-1,1C203.7,62,203.3,61.6,203.3,61.1z"/>
			<path class="st1" d="M214.3,61.6l-5.1-7.2V61c0,0.5-0.5,1-1,1s-1-0.4-1-1v-9.7c0-0.5,0.4-1,1-1c0.3,0,0.6,0.1,0.8,0.4l5.1,7.2
				v-6.6c0-0.5,0.4-1,1-1c0.5,0,1,0.4,1,1V61c0,0.5-0.4,1-1,1C214.8,62,214.5,61.9,214.3,61.6z"/>
			<path class="st1" d="M227,61.1v-6.8l-2.6,3.5c-0.2,0.2-0.5,0.4-0.8,0.4s-0.6-0.1-0.8-0.4l-2.6-3.5v6.8c0,0.5-0.4,1-1,1
				c-0.5,0-1-0.4-1-1v-9.7c0-0.5,0.4-1,1-1c0.3,0,0.6,0.1,0.8,0.4l3.6,4.8l3.6-4.8c0.2-0.2,0.5-0.4,0.8-0.4c0.6,0,1,0.4,1,1v9.7
				c0,0.5-0.4,1-1,1C227.4,62,227,61.6,227,61.1z"/>
			<path class="st1" d="M231,56.2c0-3.2,2.5-5.8,5.6-5.8s5.7,2.6,5.7,5.8s-2.5,5.8-5.7,5.8C233.5,62,231,59.4,231,56.2z M233,56.2
				c0,2.1,1.7,3.9,3.7,3.9s3.7-1.7,3.7-3.9c0-2.1-1.7-3.9-3.7-3.9C234.6,52.3,233,54.1,233,56.2z"/>
			<path class="st1" d="M252.2,58.4c0,2.2-1.9,3.6-3.5,3.6h-3.4c-0.5,0-1-0.4-1-1v-9.7c0-0.5,0.4-1,1-1h2.7c0.1,0,0.8,0,1.5,0.4
				c1.1,0.5,1.7,1.5,1.7,2.8c0,0.7-0.2,1.3-0.5,1.8C251.7,56,252.2,57.1,252.2,58.4z M246.3,54.8h1.5c0.3,0,1.5,0,1.5-1.2
				c0-1.1-0.8-1.2-1.1-1.2c-0.1,0-0.1,0-0.1,0h-1.7L246.3,54.8L246.3,54.8z M250.2,58.4c0-0.6-0.4-1.7-1.6-1.7h-2.3v3.4h2.3
				c0,0,0.5,0,0.9-0.2C250.2,59.5,250.2,58.8,250.2,58.4z"/>
			<path class="st1" d="M254.2,61.1v-9.7c0-0.5,0.4-1,1-1c0.5,0,1,0.4,1,1v9.7c0,0.5-0.4,1-1,1C254.7,62,254.2,61.6,254.2,61.1z"/>
			<path class="st1" d="M259.2,62c-0.6,0-1-0.4-1-1v-9.7c0-0.5,0.4-1,1-1c0.5,0,1,0.4,1,1V60h3.4c0.5,0,1,0.4,1,1c0,0.5-0.5,1-1,1
				H259.2z"/>
			<path class="st1" d="M266.6,61.1v-9.7c0-0.5,0.4-1,1-1c0.5,0,1,0.4,1,1v9.7c0,0.5-0.4,1-1,1C267.1,62,266.6,61.6,266.6,61.1z"/>
			<path class="st1" d="M280.3,60.7c0.1,0.1,0.1,0.2,0.1,0.4c0,0.5-0.4,1-1,1c-0.4,0-0.8-0.2-0.9-0.6l-0.7-1.8h-4.6l-0.7,1.8
				c-0.2,0.4-0.5,0.6-0.9,0.6c-0.6,0-1-0.5-1-1c0-0.1,0-0.2,0.1-0.4l3.9-9.7c0.2-0.4,0.5-0.6,0.9-0.6s0.8,0.2,0.9,0.6L280.3,60.7z
				 M277,57.7l-1.5-3.7l-1.5,3.7H277z"/>
			<path class="st1" d="M289.9,60.5c0.1,0.2,0.2,0.3,0.2,0.5c0,0.3-0.2,0.6-0.5,0.8c-0.2,0.1-0.3,0.1-0.5,0.1
				c-0.3,0-0.7-0.2-0.8-0.4l-2.2-3.4h-1.7V61c0,0.5-0.5,1-1,1s-1-0.4-1-1v-9.7c0-0.5,0.4-1,1-1h2.7c0.1,0,1,0,1.9,0.5
				c1.3,0.6,2,1.8,2,3.4c0,0.1,0,1-0.5,1.9c-0.4,0.7-0.9,1.2-1.5,1.5L289.9,60.5z M284.4,56.2h1.7c0.8,0,1.4-0.3,1.7-0.9
				c0.3-0.5,0.3-1,0.3-1.1c0-0.8-0.3-1.4-0.9-1.7c-0.5-0.2-1-0.2-1-0.2h-1.8V56.2z"/>
			<path class="st1" d="M292.1,61.1v-9.7c0-0.5,0.4-1,1-1s1,0.4,1,1v9.7c0,0.5-0.4,1-1,1S292.1,61.6,292.1,61.1z"/>
			<path class="st1" d="M305.8,60.7c0.1,0.1,0.1,0.2,0.1,0.4c0,0.5-0.4,1-1,1c-0.4,0-0.8-0.2-0.9-0.6l-0.7-1.8h-4.6l-0.7,1.8
				c-0.2,0.4-0.5,0.6-0.9,0.6c-0.6,0-1-0.5-1-1c0-0.1,0-0.2,0.1-0.4l3.9-9.7c0.2-0.4,0.5-0.6,0.9-0.6s0.8,0.2,0.9,0.6L305.8,60.7z
				 M302.5,57.7L301,54l-1.5,3.7H302.5z"/>
		</g>
		<path class="st0" d="M196.7,55l-4.5-4.5c-0.6-0.6-1.7-0.2-1.7,0.7v9c0,0.9,1.1,1.4,1.7,0.7l4.5-4.5
			C197.1,56.1,197.1,55.4,196.7,55z"/>
		<path class="st0" d="M187.5,55l-4.5-4.5c-0.6-0.6-1.7-0.2-1.7,0.7v9c0,0.9,1.1,1.4,1.7,0.7l4.5-4.5
			C187.9,56.1,187.9,55.4,187.5,55z"/>
		<path class="st0" d="M178.2,55l-4.5-4.5c-0.6-0.6-1.7-0.2-1.7,0.7v9c0,0.9,1.1,1.4,1.7,0.7l4.5-4.5
			C178.6,56.1,178.6,55.4,178.2,55z"/>
	</g>
	<g>
		<g>
			<path class="st1" d="M33.8,9.4c2.6,3.9,9.6,14.2,14,20.7l4.4-8.3C51.9,21.4,38.4,1.4,38.4,1.4H17.4l-4.2,8L33.8,9.4L33.8,9.4z"/>
		</g>
		<g>
			<path class="st2" d="M54,35.2c-3.9,2.6-14.2,9.6-20.7,14l8.3,4.4C42,53.3,62,39.9,62,39.9V18.8l-8-4.2V35.2z"/>
		</g>
		<g>
			<g>
				<path class="st3" d="M28.2,55.4c-2.6-3.9-9.6-14.2-14-20.7L9.8,43c0.3,0.4,13.7,20.4,13.7,20.4h21.1l4.2-8L28.2,55.4L28.2,55.4z
					"/>
			</g>
		</g>
		<g>
			<path class="st0" d="M8,29.6c3.9-2.6,14.2-9.6,20.7-14l-8.3-4.4C19.9,11.5,0,25,0,25v21.1l8,4.2L8,29.6L8,29.6z"/>
		</g>
		<g>
			<g>
				<g>
					<polygon class="st0" points="28.7,36.3 28.7,35.8 28.7,34.2 28.7,32 27.7,32 31.4,28.6 28.3,25.9 24.3,28.2 24.3,36.8 
						28.7,39.4 					"/>
					<path class="st0" d="M31.9,28.5L31.9,28.5l2,1.7l1.3,1.2l0,0l0.6,0.6h-1v3.8h4.4v-7.5l-7.5-4.3l-3,1.7L31.9,28.5z"/>
					<polygon class="st0" points="29.2,36.3 29.2,39.7 31.7,41.2 39.3,36.8 39.3,36.3 					"/>
				</g>
				<path class="st0" d="M40,27.5l-0.2-0.2L32.2,23L32,22.9c-0.1-0.1-0.2-0.1-0.2-0.1c-0.1,0-0.2,0-0.2,0.1L31.3,23l-7.5,4.3
					l-0.2,0.2c-0.2,0.1-0.2,0.3-0.2,0.4v0.3v8.7v0.3c0,0.2,0.1,0.3,0.2,0.4l0.2,0.2l7.5,4.3l0.2,0.2c0.1,0.1,0.2,0.1,0.2,0.1
					c0.1,0,0.2,0,0.2-0.1l0.2-0.2l7.5-4.3l0.3-0.2c0.2-0.1,0.2-0.3,0.2-0.4v-0.3v-8.6V28C40.2,27.7,40.2,27.6,40,27.5z M39.7,28.2
					v8.7v0.3l-0.2,0.2L32,41.6l-0.2,0.2l-0.2-0.2l-7.5-4.3l-0.2-0.2v-0.3v-8.7V28l0.2-0.2l7.5-4.3l0.2-0.2l0.2,0.2l7.5,4.3l0.2,0.2
					V28.2z"/>
				<g>
					<path class="st0" d="M31.6,31.9h-1c-0.1,0-0.1,0.1-0.1,0.1v1c0,0.1,0.1,0.1,0.1,0.1h1c0.1,0,0.1-0.1,0.1-0.1L31.6,31.9
						C31.6,31.9,31.6,31.9,31.6,31.9z"/>
					<path class="st0" d="M33,33.3h-1c-0.1,0-0.1,0.1-0.1,0.1v1c0,0.1,0.1,0.1,0.1,0.1h1c0.1,0,0.1-0.1,0.1-0.1L33,33.3
						C33,33.3,33,33.3,33,33.3z"/>
					<path class="st0" d="M31.6,33.3h-1c-0.1,0-0.1,0.1-0.1,0.1v1c0,0.1,0.1,0.1,0.1,0.1h1c0.1,0,0.1-0.1,0.1-0.1L31.6,33.3
						C31.6,33.3,31.6,33.3,31.6,33.3z"/>
					<path class="st0" d="M33,31.9h-1c-0.1,0-0.1,0.1-0.1,0.1v1C31.9,33,32,33,32,33h1C33,33,33,33,33,33L33,31.9
						C33,31.9,33,31.9,33,31.9z"/>
				</g>
				<g class="st4">
					<path class="st0" d="M31.4,28.6l-3.1-2.7l-4,2.3v8.7l4.4,2.5v-3.1v-0.5v-1.6V32h-1L31.4,28.6z M28.5,32.1v2v1.6v0.5v2.8l-4-2.3
						v-8.4l3.9-2.2l2.8,2.5l-3.6,3.2c-0.1,0.1-0.1,0.1-0.1,0.2c0,0.1,0.1,0.1,0.2,0.1L28.5,32.1L28.5,32.1z"/>
					<path class="st0" d="M31.7,23.9l-3,1.7l3.1,2.8l0,0l1.9,1.7l1.3,1.2l0,0l0.6,0.6h-1v3.8h4.4v-7.5L31.7,23.9z M39.1,35.6h-4
						v-3.5h0.8c0.1,0,0.2-0.1,0.2-0.1c0-0.1,0-0.2-0.1-0.2l-0.6-0.6l0,0L34,30l-1.9-1.7l0,0l-3-2.6l2.7-1.6l7.3,4.2L39.1,35.6
						L39.1,35.6z"/>
					<path class="st0" d="M29.2,39.7l2.6,1.5l7.5-4.3v-0.6H29.1L29.2,39.7L29.2,39.7z M29.3,36.4h9.7v0.3L31.7,41l-2.4-1.4
						L29.3,36.4L29.3,36.4z"/>
				</g>
			</g>
		</g>
	</g>
</g>
</svg>
