<?xml version="1.0" encoding="utf-8"?>
<!-- Generator: Adobe Illustrator 21.1.0, SVG Export Plug-In . SVG Version: 6.00 Build 0)  -->
<svg version="1.1" id="Layer_1" xmlns="http://www.w3.org/2000/svg" xmlns:xlink="http://www.w3.org/1999/xlink" x="0px" y="0px"
	 viewBox="0 0 208.5 208.5" style="enable-background:new 0 0 208.5 208.5;" xml:space="preserve">
<style type="text/css">
	.st0{fill-rule:evenodd;clip-rule:evenodd;fill:#FFFFFF;}
	.st1{fill-rule:evenodd;clip-rule:evenodd;fill:none;stroke:#FFFFFF;stroke-width:4;stroke-miterlimit:10;}
</style>
<g>
	<g>
		<path class="st0" d="M123.1,117.4l-6-5.8c9.3-13.1,8.2-31.3-3.5-43c-13.1-13.1-34.2-13-47.2,0c-13.1,13-13.1,34.2,0,47.2
			c11.7,11.7,30,12.8,43,3.5l5.6,5.4l28,34.7c0,0,6.6,0.1,10.5-4.5c4-4.5,3.8-9.8,3.8-9.8L123.1,117.4z M71.8,110.4L71.8,110.4
			c-10.1-10-10.1-26.3,0-36.4c10-10.1,26.3-10.1,36.4,0c10,10,10,26.3,0,36.4C98.2,120.5,81.8,120.5,71.8,110.4L71.8,110.4z"/>
	</g>
	<circle class="st1" cx="104.3" cy="104.3" r="102.3"/>
	<polygon class="st0" points="88.3,106.7 88.3,96.5 78.1,96.5 78.1,89.5 88.3,89.5 88.3,79.4 95.2,79.4 95.2,89.5 105.4,89.5 
		105.4,96.5 95.2,96.5 95.2,106.7 	"/>
</g>
</svg>
