<?xml version="1.0" encoding="utf-8"?>
<!-- Generator: Adobe Illustrator 21.1.0, SVG Export Plug-In . SVG Version: 6.00 Build 0)  -->
<svg version="1.1" id="Capa_1" xmlns="http://www.w3.org/2000/svg" xmlns:xlink="http://www.w3.org/1999/xlink" x="0px" y="0px"
	 viewBox="0 0 22.5 29.2" style="enable-background:new 0 0 22.5 29.2;" xml:space="preserve">
<style type="text/css">
	.st0{fill:#4D575E;}
</style>
<circle class="st0" cx="11.3" cy="10.7" r="3.4"/>
<path class="st0" d="M11.3,0C5,0,0,5,0,11.3c0,0,0,0,0,0c0,5.3,8.2,14.9,10.6,17.6c0.3,0.4,0.9,0.4,1.2,0.1c0,0,0.1-0.1,0.1-0.1
	c2.4-2.7,10.6-12.3,10.6-17.6C22.5,5,17.5,0,11.3,0z M11.3,16.3c-3.1,0-5.6-2.5-5.6-5.6s2.5-5.6,5.6-5.6s5.6,2.5,5.6,5.6v0
	C16.8,13.8,14.3,16.3,11.3,16.3z"/>
</svg>
