<?xml version="1.0" encoding="utf-8"?>
<!-- Generator: Adobe Illustrator 22.1.0, SVG Export Plug-In . SVG Version: 6.00 Build 0)  -->
<svg version="1.1" id="Layer_1" xmlns="http://www.w3.org/2000/svg" xmlns:xlink="http://www.w3.org/1999/xlink" x="0px" y="0px"
	 viewBox="0 0 512 383.5" style="enable-background:new 0 0 512 383.5;" xml:space="preserve">
<style type="text/css">
	.st0{fill:#3DA3C1;}
</style>
<path class="st0" d="M486.1,94.2H25.9C11.6,94.2,0,82.6,0,68.3V25.9C0,11.6,11.6,0,25.9,0h460.3C500.4,0,512,11.6,512,25.9v42.5
	C512,82.6,500.4,94.2,486.1,94.2z"/>
<path class="st0" d="M486.1,238.9H25.9C11.6,238.9,0,227.3,0,213v-42.5c0-14.3,11.6-25.9,25.9-25.9h460.3
	c14.3,0,25.9,11.6,25.9,25.9V213C512,227.3,500.4,238.9,486.1,238.9z"/>
<path class="st0" d="M364.5,383.5h-342C10.1,383.5,0,373.4,0,361v-49.2c0-12.4,10.1-22.5,22.5-22.5h342c12.4,0,22.5,10.1,22.5,22.5
	V361C387,373.4,376.9,383.5,364.5,383.5z"/>
</svg>
