<svg id="Capa_1" data-name="Capa 1" xmlns="http://www.w3.org/2000/svg" viewBox="0 0 26.02 25.41"><defs><style>.cls-1{fill:#fff;}</style></defs><title>ICONOS DE BANNER PIE</title><path class="cls-1" d="M8.18,13.67c.22,6.6,2.64,11.11,4.83,11.11s4.61-4.52,4.83-11.11Z"/><path class="cls-1" d="M13,.63C10.82.63,8.4,5.14,8.18,11.74h9.66C17.62,5.14,15.19.63,13,.63Z"/><path class="cls-1" d="M19.77,11.74H26A13,13,0,0,0,16,0C18.14,2.07,19.61,6.41,19.77,11.74Z"/><path class="cls-1" d="M19.77,13.67C19.61,19,18.14,23.35,16,25.41A13,13,0,0,0,26,13.67Z"/><path class="cls-1" d="M6.24,13.67H0A13,13,0,0,0,10,25.41C7.88,23.35,6.4,19,6.24,13.67Z"/><path class="cls-1" d="M6.24,11.74C6.4,6.41,7.88,2.07,10,0A13,13,0,0,0,0,11.74Z"/></svg>