<?xml version="1.0" encoding="utf-8"?>
<!-- Generator: Adobe Illustrator 22.1.0, SVG Export Plug-In . SVG Version: 6.00 Build 0)  -->
<svg version="1.1" id="Capa_1" xmlns="http://www.w3.org/2000/svg" xmlns:xlink="http://www.w3.org/1999/xlink" x="0px" y="0px"
	 viewBox="0 0 342.9 342.9" style="enable-background:new 0 0 342.9 342.9;" xml:space="preserve">
<style type="text/css">
	.st0{fill:url(#SVGID_1_);}
	.st1{fill:url(#SVGID_2_);}
	.st2{fill:url(#SVGID_3_);}
	.st3{fill:#FFFFFF;}
	.st4{opacity:0.2;fill:url(#SVGID_4_);enable-background:new    ;}
</style>
<g>
	
		<linearGradient id="SVGID_1_" gradientUnits="userSpaceOnUse" x1="5.000305e-02" y1="172.6099" x2="342.95" y2="172.6099" gradientTransform="matrix(1 0 0 -1 0 344.1099)">
		<stop  offset="0" style="stop-color:#3DA3C1"/>
		<stop  offset="1" style="stop-color:#0C8AA7"/>
	</linearGradient>
	<path class="st0" d="M343,171.5c0,26.6-6.1,51.8-16.9,74.3c-16.4,34.1-43.7,61.9-77.4,78.9c-7.9,4-16.2,7.4-24.7,10.1
		c-16.5,5.3-34.1,8.1-52.4,8.1c-61.3,0-115.1-32.2-145.4-80.6C9.6,235.9,0.1,204.8,0.1,171.5c0-0.8,0-1.7,0-2.6
		c1.1-73,47.6-134.8,112.6-158.5C130.9,3.6,150.8,0,171.4,0C266.2,0,343,76.8,343,171.5z"/>
	<linearGradient id="SVGID_2_" gradientUnits="userSpaceOnUse" x1="183.9737" y1="277.2176" x2="154.9737" y2="30.2176">
		<stop  offset="0" style="stop-color:#83A3C1"/>
		<stop  offset="1" style="stop-color:#0C8AA7"/>
	</linearGradient>
	<circle class="st1" cx="171.4" cy="170.5" r="144.5"/>
	<radialGradient id="SVGID_3_" cx="171.45" cy="171.55" r="172.6004" gradientUnits="userSpaceOnUse">
		<stop  offset="0" style="stop-color:#989CC1"/>
		<stop  offset="0.1302" style="stop-color:#8EA5C1"/>
		<stop  offset="0.2921" style="stop-color:#86ACC1"/>
		<stop  offset="0.4622" style="stop-color:#81A9C2"/>
		<stop  offset="0.6609" style="stop-color:#739EC5"/>
		<stop  offset="0.8732" style="stop-color:#5C8ECA"/>
		<stop  offset="1" style="stop-color:#4A81CE"/>
	</radialGradient>
	<circle class="st2" cx="171.4" cy="171.5" r="130.7"/>
</g>
<g>
	<path class="st3" d="M122.1,202.4c-13.4,0-26.9-2-33.8-6c-2.2-1.3-3.1-2.4-3.2-2.6c2.1-27,7.5-31.5,18.2-40.6l2.8-2.3
		c4.8,2.3,10.2,3.5,15.9,3.5c2.2,0,4.2-0.2,6.3-0.6v-12.7c-2.1,0.5-4,0.9-6.3,0.9c-14.1,0-25.5-11.5-25.5-25.5
		C96.5,102.4,108,91,122,91c14.1,0,25.5,11.5,25.5,25.5c0,2.2-0.3,3.8-0.8,5.8h12.6c0.3-1.9,0.5-3.7,0.5-5.8
		c0-20.9-16.9-37.9-37.9-37.9C101,78.6,84,95.5,84,116.5c0,10.6,4.4,20.2,11.4,27.1l-0.2,0.2c-12.8,10.8-20.1,18.5-22.6,49.5
		c0,3.8,1.6,9.3,9.3,13.7c8.7,5.1,24.9,7.6,40,7.7L122.1,202.4z"/>
	<path class="st3" d="M122.1,103.4c7.2,0,13,5.8,13,13c0,1.7,1.4,3.1,3.1,3.1s3.1-1.4,3.1-3.1c0-10.6-8.6-19.2-19.2-19.2
		c-1.7,0-3.1,1.4-3.1,3.1C119,102,120.4,103.4,122.1,103.4z"/>
	<path class="st3" d="M195.8,122.3c-0.4-1.9-0.7-3.8-0.7-5.8c0-14.1,11.5-25.5,25.5-25.5c14.1,0,25.5,11.5,25.5,25.5
		c0,14.1-11.5,25.5-25.5,25.5c-2.1,0-4.1-0.3-6.1-0.7v12.6c2,0.3,4,0.5,6.1,0.5c5.8,0,11.2-1.3,16.1-3.6l2.8,2.4
		c10.7,9.1,16.1,13.6,18.2,40.1c0,0.6-1,1.8-3.1,3.1c-7,4-20.4,6-33.9,6v12.4c15.1-0.1,31.3-2.7,40-7.7c7.7-4.4,9.3-9.9,9.3-14.2
		c-2.4-30.6-9.7-38.2-22.5-49.1l-0.3-0.3c7-6.9,11.3-16.4,11.3-27c0-20.9-16.9-37.9-37.9-37.9c-20.9,0-37.9,16.9-37.9,37.9
		c0,2,0.2,3.9,0.5,5.8L195.8,122.3z"/>
	<path class="st3" d="M240,116.4c0-10.6-8.6-19.2-19.2-19.2c-1.7,0-3.1,1.4-3.1,3.1s1.4,3.1,3.1,3.1c7.2,0,13,5.8,13,13
		c0,1.7,1.4,3.1,3.1,3.1C238.6,119.5,240,118.2,240,116.4z"/>
	<path class="st3" d="M235.5,168c9.1,4.6,9.1,19.4,9.1,24.3c0,1.7,1.4,3.1,3.1,3.1c1.7,0,3.1-1.4,3.1-3.1c0-5.8,0-23.5-12.5-29.8
		c-1.5-0.7-3.4-0.1-4.1,1.4C233.4,165.4,234,167.2,235.5,168z"/>
	<path class="st3" d="M171.4,152.7c7.2,0,13,5.8,13,13c0,1.7,1.4,3.1,3.1,3.1c1.7,0,3.1-1.4,3.1-3.1c0-10.6-8.6-19.2-19.2-19.2
		c-1.7,0-3.1,1.4-3.1,3.1C168.4,151.4,169.7,152.7,171.4,152.7z"/>
	<path class="st3" d="M188.9,211.8c-1.5-0.8-3.4-0.1-4.1,1.4c-0.8,1.5-0.1,3.4,1.4,4.1c9.1,4.6,9.1,19.4,9.1,24.3
		c0,1.7,1.4,3.1,3.1,3.1c1.7,0,3.1-1.4,3.1-3.1C201.5,235.8,201.5,218.1,188.9,211.8z"/>
	<path class="st3" d="M198.2,193.1l-0.3-0.3c7-6.9,11.3-16.4,11.3-27c0-20.9-16.9-37.9-37.9-37.9c-20.9,0-37.9,16.9-37.9,37.9
		c0,10.6,4.4,20.2,11.4,27.1l-0.2,0.2c-12.8,10.8-20.1,18.5-22.6,49.5c0,3.8,1.6,9.3,9.3,13.7c9,5.2,24.5,7.8,40,7.8s31-2.6,40-7.8
		c7.7-4.4,9.3-9.9,9.3-14.2C218.3,211.6,211,204,198.2,193.1z M196.9,165.9c0,14.1-11.5,25.5-25.5,25.5c-14.1,0-25.5-11.5-25.5-25.5
		c0-14.1,11.5-25.5,25.5-25.5S196.9,151.8,196.9,165.9z M137.6,245.7c-2.2-1.3-3.1-2.4-3.2-2.6c2.1-27,7.5-31.5,18.2-40.6l2.8-2.3
		c0.5,0.2,1,0.5,1.6,0.7l8.9,12.3L155.1,238l11.2,13.7C154.7,251.2,143.7,249.2,137.6,245.7z M205.3,245.7
		c-6.1,3.5-17.2,5.5-28.9,5.9l11.2-13.7l-10.8-24.8l8.9-12.3c0.6-0.2,1.1-0.5,1.7-0.8l2.8,2.4c10.7,9.1,16.1,13.6,18.2,40.1
		C208.4,243.3,207.5,244.5,205.3,245.7z"/>
</g>
<linearGradient id="SVGID_4_" gradientUnits="userSpaceOnUse" x1="208.8605" y1="2877.73" x2="290.9768" y2="2877.73" gradientTransform="matrix(1 0 0 1 0 -2776.3801)">
	<stop  offset="0" style="stop-color:#FFFFFF;stop-opacity:0.6"/>
	<stop  offset="1" style="stop-color:#000000;stop-opacity:0.6"/>
</linearGradient>
<path class="st4" d="M265.8,123.2c-6,7.6-23.2,3.9-38.4-8.2c-15.1-12-22.5-28-16.4-35.5c6-7.6,23.2-3.9,38.4,8.2
	C264.5,99.7,271.9,115.7,265.8,123.2z"/>
</svg>
