<?xml version="1.0" encoding="utf-8"?>
<!-- Generator: Adobe Illustrator 22.1.0, SVG Export Plug-In . SVG Version: 6.00 Build 0)  -->
<svg version="1.1" id="Capa_1" xmlns="http://www.w3.org/2000/svg" xmlns:xlink="http://www.w3.org/1999/xlink" x="0px" y="0px"
	 viewBox="0 0 343 343" style="enable-background:new 0 0 343 343;" xml:space="preserve">
<style type="text/css">
	.st0{fill:url(#SVGID_1_);}
	.st1{fill:url(#SVGID_2_);}
	.st2{fill:url(#SVGID_3_);}
	.st3{fill:#FFFFFF;stroke:#FFFFFF;stroke-width:8.1669;stroke-miterlimit:10;}
	.st4{fill:#FFFFFF;}
	.st5{opacity:0.2;fill:url(#SVGID_4_);enable-background:new    ;}
</style>
<g>
	
		<linearGradient id="SVGID_1_" gradientUnits="userSpaceOnUse" x1="5.000305e-02" y1="172.6099" x2="342.95" y2="172.6099" gradientTransform="matrix(1 0 0 -1 0 344.1099)">
		<stop  offset="0" style="stop-color:#3DA3C1"/>
		<stop  offset="1" style="stop-color:#0C8AA7"/>
	</linearGradient>
	<path class="st0" d="M343,171.5c0,26.6-6.1,51.8-16.9,74.3c-16.4,34.1-43.7,61.9-77.4,78.9c-7.9,4-16.2,7.4-24.7,10.1
		c-16.5,5.3-34.1,8.1-52.4,8.1c-61.3,0-115.1-32.2-145.4-80.6C9.6,235.9,0.1,204.8,0.1,171.5c0-0.8,0-1.7,0-2.6
		c1.1-73,47.6-134.8,112.6-158.5C130.9,3.6,150.8,0,171.4,0C266.2,0,343,76.8,343,171.5z"/>
	<linearGradient id="SVGID_2_" gradientUnits="userSpaceOnUse" x1="183.9737" y1="277.2176" x2="154.9737" y2="30.2176">
		<stop  offset="0" style="stop-color:#83A3C1"/>
		<stop  offset="1" style="stop-color:#0C8AA7"/>
	</linearGradient>
	<circle class="st1" cx="171.4" cy="170.5" r="144.5"/>
	<radialGradient id="SVGID_3_" cx="171.45" cy="171.55" r="172.6004" gradientUnits="userSpaceOnUse">
		<stop  offset="0" style="stop-color:#989CC1"/>
		<stop  offset="0.1302" style="stop-color:#8EA5C1"/>
		<stop  offset="0.2921" style="stop-color:#86ACC1"/>
		<stop  offset="0.4622" style="stop-color:#81A9C2"/>
		<stop  offset="0.6609" style="stop-color:#739EC5"/>
		<stop  offset="0.8732" style="stop-color:#5C8ECA"/>
		<stop  offset="1" style="stop-color:#4A81CE"/>
	</radialGradient>
	<circle class="st2" cx="171.4" cy="171.5" r="130.7"/>
</g>
<g>
	<path class="st3" d="M171.5,76c-40.6,0-73.6,33-73.6,73.6c0,29,12.1,58.3,35.1,84.8c17.2,19.8,34.2,31,34.9,31.5
		c1.1,0.7,2.4,1.1,3.6,1.1c1.3,0,2.5-0.4,3.6-1.1c0.7-0.5,17.7-11.7,34.9-31.5c23-26.5,35.1-55.8,35.1-84.8
		C245.1,109,212.1,76,171.5,76L171.5,76z M171.5,252.3c-13.5-10.1-60.4-48.9-60.4-102.7c0-33.3,27.1-60.4,60.4-60.4
		s60.4,27.1,60.4,60.4C231.9,203.4,185,242.2,171.5,252.3L171.5,252.3z"/>
	<path class="st4" d="M171.5,120.4c-16.1,0-29.2,13.1-29.2,29.2s13.1,29.2,29.2,29.2s29.2-13.1,29.2-29.2S187.6,120.4,171.5,120.4
		L171.5,120.4z M171.5,165.6c-8.8,0-16-7.2-16-16s7.2-16,16-16s16,7.2,16,16C187.5,158.4,180.3,165.6,171.5,165.6L171.5,165.6z"/>
</g>
<linearGradient id="SVGID_4_" gradientUnits="userSpaceOnUse" x1="208.8605" y1="2877.73" x2="290.9768" y2="2877.73" gradientTransform="matrix(1 0 0 1 0 -2776.3801)">
	<stop  offset="0" style="stop-color:#FFFFFF;stop-opacity:0.6"/>
	<stop  offset="1" style="stop-color:#000000;stop-opacity:0.6"/>
</linearGradient>
<path class="st5" d="M265.8,123.2c-6,7.6-23.2,3.9-38.4-8.2c-15.1-12-22.5-28-16.4-35.5c6-7.6,23.2-3.9,38.4,8.2
	C264.5,99.7,271.9,115.7,265.8,123.2z"/>
</svg>
