<?xml version="1.0" encoding="utf-8"?>
<!-- Generator: Adobe Illustrator 22.1.0, SVG Export Plug-In . SVG Version: 6.00 Build 0)  -->
<svg version="1.1" id="Capa_1" xmlns="http://www.w3.org/2000/svg" xmlns:xlink="http://www.w3.org/1999/xlink" x="0px" y="0px"
	 viewBox="0 0 342.9 342.9" style="enable-background:new 0 0 342.9 342.9;" xml:space="preserve">
<style type="text/css">
	.st0{fill:url(#SVGID_1_);}
	.st1{fill:url(#SVGID_2_);}
	.st2{fill:url(#SVGID_3_);}
	.st3{opacity:0.2;fill:url(#SVGID_4_);enable-background:new    ;}
	.st4{fill:#FFFFFF;}
</style>
<linearGradient id="SVGID_1_" gradientUnits="userSpaceOnUse" x1="0" y1="172.66" x2="342.9" y2="172.66" gradientTransform="matrix(1 0 0 -1 0 344.1099)">
	<stop  offset="0" style="stop-color:#1C00B9"/>
	<stop  offset="5.025132e-03" style="stop-color:#3DA3C1"/>
	<stop  offset="1" style="stop-color:#0C8AA7"/>
</linearGradient>
<path class="st0" d="M342.9,171.5c0,26.6-6.1,51.8-16.9,74.3c-16.4,34.1-43.7,61.9-77.4,78.9c-7.9,4-16.2,7.4-24.7,10.1
	c-16.5,5.3-34.1,8.1-52.4,8.1c-61.3,0-115.1-32.2-145.4-80.6C9.5,235.9,0,204.8,0,171.5c0-0.8,0-1.7,0-2.6
	c1.1-73,47.6-134.8,112.6-158.5C130.9,3.6,150.7,0,171.4,0C266.1,0,342.9,76.8,342.9,171.5z"/>
<linearGradient id="SVGID_2_" gradientUnits="userSpaceOnUse" x1="183.9237" y1="277.1675" x2="154.9237" y2="30.1675">
	<stop  offset="0" style="stop-color:#83A3C1"/>
	<stop  offset="1" style="stop-color:#0C8AA7"/>
</linearGradient>
<circle class="st1" cx="171.4" cy="170.5" r="144.5"/>
<radialGradient id="SVGID_3_" cx="171.4" cy="171.4999" r="172.6004" gradientUnits="userSpaceOnUse">
	<stop  offset="0" style="stop-color:#989CC1"/>
	<stop  offset="0.1302" style="stop-color:#8EA5C1"/>
	<stop  offset="0.2921" style="stop-color:#86ACC1"/>
	<stop  offset="0.4622" style="stop-color:#81A9C2"/>
	<stop  offset="0.6609" style="stop-color:#739EC5"/>
	<stop  offset="0.8732" style="stop-color:#5C8ECA"/>
	<stop  offset="1" style="stop-color:#4A81CE"/>
</radialGradient>
<circle class="st2" cx="171.4" cy="171.5" r="130.7"/>
<linearGradient id="SVGID_4_" gradientUnits="userSpaceOnUse" x1="208.8605" y1="2877.73" x2="290.9768" y2="2877.73" gradientTransform="matrix(1 0 0 1 0 -2776.3801)">
	<stop  offset="0" style="stop-color:#FFFFFF;stop-opacity:0.6"/>
	<stop  offset="1" style="stop-color:#000000;stop-opacity:0.6"/>
</linearGradient>
<path class="st3" d="M265.8,123.2c-6,7.6-23.2,3.9-38.4-8.2c-15.1-12-22.5-28-16.4-35.5c6-7.6,23.2-3.9,38.4,8.2
	C264.5,99.7,271.9,115.7,265.8,123.2z"/>
<g>
	<path class="st4" d="M171.4,101.4c6.8,0,12.3,5.5,12.3,12.3c0,1.6,1.3,2.9,2.9,2.9c1.6,0,2.9-1.3,2.9-2.9c0-10-8.2-18.2-18.2-18.2
		c-1.6,0-2.9,1.3-2.9,2.9C168.5,100.1,169.8,101.4,171.4,101.4z"/>
	<path class="st4" d="M239.2,183.1h-15.5h-5.9c-2.5-26.4-9.4-33.6-21.1-43.4l-0.3-0.3c6.6-6.5,10.7-15.5,10.7-25.5
		c0-19.8-16.1-35.9-35.9-35.9s-35.9,16.1-35.9,35.9c0,10.1,4.1,19.1,10.8,25.6l-0.2,0.2c-11.6,9.8-18.5,16.9-21,43.4h-5.8h-15.5
		c-7.7,0-14,6.3-14,14v1.2c0,6.9,5.1,12.6,11.7,13.8v52.8H113V259v-46.7h116.8V259v5.8h11.7V212c6.6-1.1,11.7-6.8,11.7-13.8V197
		C253.2,189.4,246.9,183.1,239.2,183.1z M239.2,200.6h-9.4H113h-9.4c-1.3,0-2.3-1-2.3-2.3v-1.2c0-1.3,1-2.3,2.3-2.3h3.5h128.5h3.5
		c1.3,0,2.3,1,2.3,2.3v1.2C241.5,199.6,240.5,200.6,239.2,200.6z M206.2,183.1h-6.3c-0.2-7-1.4-20.5-11.8-25.8
		c-1.4-0.7-3.2-0.1-3.9,1.3c-0.7,1.4-0.1,3.2,1.3,3.9c7.4,3.7,8.5,14.6,8.6,20.5H186l0.8-0.9l-10.2-23.5l8.5-11.7
		c0.6-0.2,1.1-0.5,1.6-0.7l2.7,2.3C198.9,156.8,204,161.1,206.2,183.1z M171.3,89.7c13.3,0,24.2,10.8,24.2,24.2S184.7,138,171.3,138
		c-13.3,0-24.2-10.8-24.2-24.2S158,89.7,171.3,89.7z M153.6,148.6l2.6-2.2c0.5,0.2,1,0.5,1.5,0.7l8.5,11.7L156,182.2l0.8,0.9h-20
		C139,161,144,156.7,153.6,148.6z"/>
	<polygon class="st4" points="224,218.2 218.2,218.2 118.9,218.2 118.9,224 218.2,224 218.2,259 218.2,264.9 224,264.9 224,259 
		224,224 	"/>
</g>
</svg>
