<?xml version="1.0" encoding="utf-8"?>
<!-- Generator: Adobe Illustrator 22.1.0, SVG Export Plug-In . SVG Version: 6.00 Build 0)  -->
<svg version="1.1" id="Capa_1" xmlns="http://www.w3.org/2000/svg" xmlns:xlink="http://www.w3.org/1999/xlink" x="0px" y="0px"
	 viewBox="0 0 342.9 342.9" style="enable-background:new 0 0 342.9 342.9;" xml:space="preserve">
<style type="text/css">
	.st0{fill:url(#SVGID_1_);}
	.st1{fill:url(#SVGID_2_);}
	.st2{fill:url(#SVGID_3_);}
	.st3{opacity:0.2;fill:url(#SVGID_4_);enable-background:new    ;}
	.st4{fill:#FFFFFF;}
</style>
<g>
	
		<linearGradient id="SVGID_1_" gradientUnits="userSpaceOnUse" x1="5.000305e-02" y1="172.6099" x2="342.95" y2="172.6099" gradientTransform="matrix(1 0 0 -1 0 344.1099)">
		<stop  offset="0" style="stop-color:#3DA3C1"/>
		<stop  offset="1" style="stop-color:#0C8AA7"/>
	</linearGradient>
	<path class="st0" d="M343,171.5c0,26.6-6.1,51.8-16.9,74.3c-16.4,34.1-43.7,61.9-77.4,78.9c-7.9,4-16.2,7.4-24.7,10.1
		c-16.5,5.3-34.1,8.1-52.4,8.1c-61.3,0-115.1-32.2-145.4-80.6C9.6,235.9,0.1,204.8,0.1,171.5c0-0.8,0-1.7,0-2.6
		c1.1-73,47.6-134.8,112.6-158.5C130.9,3.6,150.8,0,171.4,0C266.2,0,343,76.8,343,171.5z"/>
	<linearGradient id="SVGID_2_" gradientUnits="userSpaceOnUse" x1="183.9737" y1="277.2176" x2="154.9737" y2="30.2176">
		<stop  offset="0" style="stop-color:#83A3C1"/>
		<stop  offset="1" style="stop-color:#0C8AA7"/>
	</linearGradient>
	<circle class="st1" cx="171.4" cy="170.5" r="144.5"/>
	<radialGradient id="SVGID_3_" cx="171.45" cy="171.55" r="172.6004" gradientUnits="userSpaceOnUse">
		<stop  offset="0" style="stop-color:#989CC1"/>
		<stop  offset="0.1302" style="stop-color:#8EA5C1"/>
		<stop  offset="0.2921" style="stop-color:#86ACC1"/>
		<stop  offset="0.4622" style="stop-color:#81A9C2"/>
		<stop  offset="0.6609" style="stop-color:#739EC5"/>
		<stop  offset="0.8732" style="stop-color:#5C8ECA"/>
		<stop  offset="1" style="stop-color:#4A81CE"/>
	</radialGradient>
	<circle class="st2" cx="171.4" cy="171.5" r="130.7"/>
</g>
<linearGradient id="SVGID_4_" gradientUnits="userSpaceOnUse" x1="208.8605" y1="2877.73" x2="290.9768" y2="2877.73" gradientTransform="matrix(1 0 0 1 0 -2776.3801)">
	<stop  offset="0" style="stop-color:#FFFFFF;stop-opacity:0.6"/>
	<stop  offset="1" style="stop-color:#000000;stop-opacity:0.6"/>
</linearGradient>
<path class="st3" d="M265.8,123.2c-6,7.6-23.2,3.9-38.4-8.2c-15.1-12-22.5-28-16.4-35.5c6-7.6,23.2-3.9,38.4,8.2
	C264.5,99.7,271.9,115.7,265.8,123.2z"/>
<g>
	<path class="st4" d="M171.4,163.6c-6.5,0-11.8-5.3-11.8-11.8c0-6.5,5.3-11.8,11.8-11.8c6.5,0,11.8,5.3,11.8,11.8
		S177.9,163.6,171.4,163.6L171.4,163.6z M171.4,151.8L171.4,151.8h5.9H171.4z"/>
	<path class="st4" d="M189.1,195c-3.2,0-5.9-2.6-5.9-5.9c0-3.2-2.6-5.9-5.9-5.9h-11.8c-3.2,0-5.9,2.6-5.9,5.9c0,3.2-2.6,5.9-5.9,5.9
		s-5.9-2.6-5.9-5.9c0-9.7,7.9-17.6,17.6-17.6h11.8c9.7,0,17.6,7.9,17.6,17.6C195,192.4,192.4,195,189.1,195L189.1,195z"/>
	<path class="st4" d="M171.4,108.7c-8.7,0-15.7-7-15.7-15.7s7-15.7,15.7-15.7c8.7,0,15.7,7,15.7,15.7S180.1,108.7,171.4,108.7
		L171.4,108.7z M171.4,89.1c-2.1,0-3.9,1.8-3.9,3.9s1.8,3.9,3.9,3.9c2.1,0,3.9-1.8,3.9-3.9C175.4,90.8,173.6,89.1,171.4,89.1
		L171.4,89.1z"/>
	<path class="st4" d="M171.4,132.2c-3.2,0-5.9-2.6-5.9-5.9v-21.6c0-3.2,2.6-5.9,5.9-5.9c3.2,0,5.9,2.6,5.9,5.9v21.6
		C177.3,129.6,174.7,132.2,171.4,132.2L171.4,132.2z"/>
	<path class="st4" d="M226.9,131.7c-4,0-8.1-1.5-11.1-4.6c-6.1-6.1-6.1-16,0-22.2c6.1-6.1,16-6.1,22.2,0s6.1,16,0,22.2
		C234.9,130.2,230.9,131.7,226.9,131.7L226.9,131.7z M233.8,122.9L233.8,122.9L233.8,122.9z M226.9,112.1c-1,0-2,0.4-2.8,1.2
		c-1.5,1.5-1.5,4,0,5.5c1.5,1.5,4,1.5,5.5,0s1.5-4,0-5.5C228.9,112.5,227.9,112.1,226.9,112.1L226.9,112.1z"/>
	<path class="st4" d="M203.9,144.9c-1.5,0-3-0.5-4.2-1.7c-2.3-2.3-2.3-6,0-8.3l14.7-14.7c2.3-2.3,6-2.3,8.3,0c2.3,2.3,2.3,6,0,8.3
		l-14.7,14.7C206.9,144.3,205.4,144.9,203.9,144.9L203.9,144.9z"/>
	<path class="st4" d="M249.9,187.1c-8.7,0-15.7-7-15.7-15.7s7-15.7,15.7-15.7c8.7,0,15.7,7,15.7,15.7
		C265.5,180.1,258.5,187.1,249.9,187.1L249.9,187.1z M249.9,167.5c-2.1,0-3.9,1.8-3.9,3.9s1.8,3.9,3.9,3.9c2.1,0,3.9-1.8,3.9-3.9
		C253.8,169.3,252,167.5,249.9,167.5L249.9,167.5z"/>
	<path class="st4" d="M238.1,177.3h-21.6c-3.2,0-5.9-2.6-5.9-5.9s2.6-5.9,5.9-5.9h21.6c3.2,0,5.9,2.6,5.9,5.9
		C244,174.7,241.4,177.3,238.1,177.3L238.1,177.3z"/>
	<path class="st4" d="M226.9,242.6c-4,0-8.1-1.5-11.1-4.6c-6.1-6.1-6.1-16,0-22.2c6.1-6.1,16-6.1,22.2,0s6.1,16,0,22.2
		C234.9,241.1,230.9,242.6,226.9,242.6L226.9,242.6z M224.1,229.7c1.5,1.5,4,1.5,5.5,0c1.5-1.5,1.5-4,0-5.5c-1.5-1.5-4-1.5-5.5,0
		C222.6,225.7,222.6,228.1,224.1,229.7L224.1,229.7z"/>
	<path class="st4" d="M218.6,224.5c-1.5,0-3-0.5-4.2-1.7l-14.7-14.7c-2.3-2.3-2.3-6,0-8.3s6-2.3,8.3,0l14.7,14.7
		c2.3,2.3,2.3,6,0,8.3C221.6,223.9,220.1,224.5,218.6,224.5L218.6,224.5z"/>
	<path class="st4" d="M171.4,265.5c-8.7,0-15.7-7-15.7-15.7c0-8.7,7-15.7,15.7-15.7c8.7,0,15.7,7,15.7,15.7
		C187.1,258.5,180.1,265.5,171.4,265.5L171.4,265.5z M171.4,245.9c-2.1,0-3.9,1.8-3.9,3.9s1.8,3.9,3.9,3.9c2.1,0,3.9-1.8,3.9-3.9
		S173.6,245.9,171.4,245.9L171.4,245.9z"/>
	<path class="st4" d="M171.4,244c-3.2,0-5.9-2.6-5.9-5.9v-21.6c0-3.2,2.6-5.9,5.9-5.9c3.2,0,5.9,2.6,5.9,5.9v21.6
		C177.3,241.4,174.7,244,171.4,244L171.4,244z"/>
	<path class="st4" d="M116,242.6c-4,0-8.1-1.5-11.1-4.6c-6.1-6.1-6.1-16,0-22.2c6.1-6.1,16-6.1,22.2,0c6.1,6.1,6.1,16,0,22.2
		C124,241.1,120,242.6,116,242.6L116,242.6z M113.2,224.1c-1.5,1.5-1.5,4,0,5.5c1.5,1.5,4,1.5,5.5,0c1.5-1.5,1.5-4,0-5.5
		C117.2,222.6,114.8,222.6,113.2,224.1L113.2,224.1z"/>
	<path class="st4" d="M124.3,224.5c-1.5,0-3-0.5-4.2-1.7c-2.3-2.3-2.3-6,0-8.3l14.7-14.7c2.3-2.3,6-2.3,8.3,0c2.3,2.3,2.3,6,0,8.3
		l-14.7,14.7C127.3,223.9,125.8,224.5,124.3,224.5L124.3,224.5z"/>
	<path class="st4" d="M93,187.1c-8.7,0-15.7-7-15.7-15.7s7-15.7,15.7-15.7s15.7,7,15.7,15.7S101.7,187.1,93,187.1L93,187.1z
		 M93,167.5c-2.1,0-3.9,1.8-3.9,3.9s1.8,3.9,3.9,3.9c2.1,0,3.9-1.8,3.9-3.9S95.2,167.5,93,167.5L93,167.5z"/>
	<path class="st4" d="M126.4,177.3h-21.6c-3.2,0-5.9-2.6-5.9-5.9s2.6-5.9,5.9-5.9h21.6c3.2,0,5.9,2.6,5.9,5.9
		S129.6,177.3,126.4,177.3L126.4,177.3z"/>
	<path class="st4" d="M116,131.7c-4,0-8.1-1.5-11.1-4.6c-6.1-6.1-6.1-16,0.1-22.2s16-6.1,22.2,0s6.1,16,0,22.2
		C124,130.2,120,131.7,116,131.7L116,131.7z M116,112.1c-1,0-2,0.4-2.8,1.2c-1.5,1.5-1.5,4,0,5.5c1.5,1.5,4,1.5,5.5,0s1.5-4,0-5.5
		C118,112.5,117,112.1,116,112.1L116,112.1z"/>
	<path class="st4" d="M139,144.9c-1.5,0-3-0.5-4.2-1.7l-14.7-14.7c-2.3-2.3-2.3-6,0-8.3c2.3-2.3,6-2.3,8.3,0l14.7,14.7
		c2.3,2.3,2.3,6,0,8.3C142,144.3,140.5,144.9,139,144.9L139,144.9z"/>
</g>
</svg>
