<?xml version="1.0" encoding="utf-8"?>
<!-- Generator: Adobe Illustrator 21.1.0, SVG Export Plug-In . SVG Version: 6.00 Build 0)  -->
<svg version="1.1" id="Capa_1" xmlns="http://www.w3.org/2000/svg" xmlns:xlink="http://www.w3.org/1999/xlink" x="0px" y="0px"
	 viewBox="0 0 31.3 31.3" style="enable-background:new 0 0 31.3 31.3;" xml:space="preserve">
<style type="text/css">
	.st0{fill:#FF3412;}
</style>
<g>
	<g>
		<path class="st0" d="M13.8,14c0.1,1.3,0.2,3.7-0.8,5.7c-0.1,0.2-0.2,0.3-0.2,0.5c-1.7,0.5-3.5,1.5-3.8,2.6c-0.1,0.4,0,0.9,0.3,1.2
			c0.3,0.3,0.7,0.5,1.1,0.5c1,0,2.1-1,3.3-3.1c0.4-0.1,2.9-0.4,3.4-0.4c1.4,1.5,2.6,2.2,3.5,2.2c0.6,0,1.1-0.3,1.4-0.8
			c0.2-0.4,0.2-0.8,0-1.2c-0.6-1.1-2.9-1.5-4.3-1.6c-0.1-0.1-0.2-0.3-0.4-0.4c-1.4-1.6-2-4-2.2-5.3c0-0.3-0.1-0.5-0.1-0.7
			c-0.1-0.7-0.5-0.8-0.7-0.8c-0.2,0-0.4,0.1-0.5,0.2c-0.2,0.3-0.2,0.5-0.2,0.7C13.7,13.5,13.8,13.7,13.8,14z M10.5,22.9
			c0.1-0.2,0.4-0.4,0.8-0.6C10.9,22.7,10.6,22.9,10.5,22.9z M20.7,21.6c-0.1,0-0.4-0.1-0.7-0.3C20.3,21.4,20.5,21.5,20.7,21.6z
			 M15.1,18c0.3,0.5,0.6,1,0.9,1.5c-0.2,0-1.3,0.2-1.4,0.2C14.8,19.2,15,18.6,15.1,18z"/>
		<path class="st0" d="M11.1,0L3,8.5v22.7h25.3V0H11.1z M10.4,3.6v3.8H6.8L10.4,3.6z M26.3,29.3H4.9v-20h7.4V2h14L26.3,29.3
			L26.3,29.3z"/>
	</g>
</g>
</svg>
