<?xml version="1.0" encoding="utf-8"?>
<!-- Generator: Adobe Illustrator 21.1.0, SVG Export Plug-In . SVG Version: 6.00 Build 0)  -->
<svg version="1.1" xmlns="http://www.w3.org/2000/svg" xmlns:xlink="http://www.w3.org/1999/xlink" x="0px" y="0px"
	 viewBox="0 0 180 180" style="enable-background:new 0 0 180 180;" xml:space="preserve">
<style type="text/css">
	.st0{fill:url(#SVGID_1_);}
	.st1{fill:url(#SVGID_2_);}
	.st2{fill:url(#SVGID_3_);}
	.st3{fill:#808080;}
</style>
<g id="Layer_6">
</g>
<g id="Layer_7">
</g>
<g id="Layer_1">
</g>
<g id="Layer_5">
</g>
<g id="Layer_4">
</g>
<g id="Layer_3">
	<g>
		<g>
			<g>
				<linearGradient id="SVGID_1_" gradientUnits="userSpaceOnUse" x1="90" y1="179.0007" x2="90" y2="0.9993">
					<stop  offset="0" style="stop-color:#00918A"/>
					<stop  offset="1" style="stop-color:#00D6CB"/>
				</linearGradient>
				<circle class="st0" cx="90" cy="90" r="89"/>
				<linearGradient id="SVGID_2_" gradientUnits="userSpaceOnUse" x1="90" y1="13.483" x2="90" y2="166.517">
					<stop  offset="0" style="stop-color:#00918A"/>
					<stop  offset="1" style="stop-color:#00D6CB"/>
				</linearGradient>
				<path class="st1" d="M166.5,90c0,42.3-34.3,76.5-76.5,76.5c-42.3,0-76.5-34.3-76.5-76.5c0-42.3,34.3-76.5,76.5-76.5
					C132.3,13.5,166.5,47.7,166.5,90z"/>
				<radialGradient id="SVGID_3_" cx="101.3635" cy="80.7068" r="85.6757" gradientUnits="userSpaceOnUse">
					<stop  offset="0.2545" style="stop-color:#FFFFFF"/>
					<stop  offset="0.4527" style="stop-color:#FCFDFD"/>
					<stop  offset="0.5906" style="stop-color:#F3F5F6"/>
					<stop  offset="0.7102" style="stop-color:#E4E8EB"/>
					<stop  offset="0.8193" style="stop-color:#CED6DB"/>
					<stop  offset="0.9203" style="stop-color:#B2BEC6"/>
					<stop  offset="1" style="stop-color:#96A7B2"/>
				</radialGradient>
				<path class="st2" d="M161,90c0,39.2-31.8,71-71,71c-39.2,0-71-31.8-71-71c0-39.2,31.8-71,71-71C129.2,19,161,50.8,161,90z"/>
				<g>
					<rect x="89.4" y="19.7" class="st3" width="1.2" height="7.1"/>
					
						<rect x="119.9" y="31.6" transform="matrix(0.5013 -0.8653 0.8653 0.5013 33.6779 122.8887)" class="st3" width="7.1" height="1.2"/>
					
						<rect x="144.3" y="56.1" transform="matrix(0.8664 -0.4993 0.4993 0.8664 -8.5731 81.4222)" class="st3" width="7.1" height="1.2"/>
					<polygon class="st3" points="153.2,91.1 153.2,89.9 160.3,89.9 160.3,91.1 					"/>
					<polygon class="st3" points="144.3,122.3 144.9,121.3 151.1,124.8 150.5,125.9 					"/>
					
						<rect x="122.3" y="144.5" transform="matrix(0.8674 -0.4977 0.4977 0.8674 -57.4067 80.7982)" class="st3" width="1.2" height="7.1"/>
					
						<rect x="85.7" y="156.2" transform="matrix(3.394414e-03 -1 1 3.394414e-03 -67.7421 245.545)" class="st3" width="7.1" height="1.2"/>
					
						<rect x="52.3" y="147" transform="matrix(0.5046 -0.8634 0.8634 0.5046 -99.7639 121.4102)" class="st3" width="7.1" height="1.2"/>
					<polygon class="st3" points="34.8,120.7 35.4,121.8 29.2,125.3 28.6,124.3 					"/>
					
						<rect x="22.6" y="85.7" transform="matrix(5.526023e-03 -1 1 5.526023e-03 -66.1376 112.0106)" class="st3" width="1.2" height="7.2"/>
					<polygon class="st3" points="35.9,57.1 35.3,58.1 29.1,54.5 29.8,53.4 					"/>
					
						<rect x="56.9" y="28" transform="matrix(0.8701 -0.4928 0.4928 0.8701 -8.1045 32.4453)" class="st3" width="1.2" height="7.1"/>
					
						<rect x="91" y="21.1" transform="matrix(4.325984e-02 -0.9991 0.9991 4.325984e-02 67.2784 113.7424)" class="st3" width="4" height="1.2"/>
					<polygon class="st3" points="96.4,24 95.2,23.9 95.6,19.9 96.8,20 					"/>
					
						<rect x="97" y="21.7" transform="matrix(0.1301 -0.9915 0.9915 0.1301 64.0203 117.5121)" class="st3" width="4" height="1.2"/>
					
						<rect x="99.9" y="22.1" transform="matrix(0.1735 -0.9848 0.9848 0.1735 61.8698 119.1783)" class="st3" width="4" height="1.2"/>
					
						<rect x="102.9" y="22.7" transform="matrix(0.2157 -0.9765 0.9765 0.2157 59.4838 120.6888)" class="st3" width="4" height="1.2"/>
					<polygon class="st3" points="107.8,26.1 106.7,25.8 107.7,21.9 108.9,22.2 					"/>
					
						<rect x="108.6" y="24.3" transform="matrix(0.2999 -0.954 0.954 0.2999 53.7361 122.9613)" class="st3" width="4" height="1.2"/>
					<polygon class="st3" points="113.3,27.9 112.2,27.5 113.6,23.7 114.7,24.2 					"/>
					<polygon class="st3" points="116,29 114.9,28.6 116.5,24.8 117.6,25.3 					"/>
					<polygon class="st3" points="118.7,30.2 117.6,29.7 119.3,26.1 120.4,26.6 					"/>
					<polygon class="st3" points="121.3,31.5 120.2,31 122.1,27.4 123.1,28 					"/>
					
						<rect x="124.8" y="31.9" transform="matrix(0.5406 -0.8413 0.8413 0.5406 30.962 121.6206)" class="st3" width="4" height="1.2"/>
					<polygon class="st3" points="128.7,36.1 127.7,35.4 130,32.1 131,32.8 					"/>
					<polygon class="st3" points="131,37.9 130,37.1 132.5,33.9 133.4,34.7 					"/>
					<rect x="132" y="37.2" transform="matrix(0.645 -0.7642 0.7642 0.645 18.724 115.8623)" class="st3" width="4" height="1.2"/>
					<polygon class="st3" points="135.4,41.6 134.5,40.8 137.2,37.9 138.1,38.7 					"/>
					<polygon class="st3" points="137.4,43.7 136.6,42.8 139.5,40 140.3,40.8 					"/>
					
						<rect x="138.5" y="43.4" transform="matrix(0.7405 -0.6721 0.6721 0.7405 6.898 105.8577)" class="st3" width="4" height="1.2"/>
					
						<rect x="140.5" y="45.7" transform="matrix(0.7679 -0.6406 0.6406 0.7679 3.4427 102.0019)" class="st3" width="4" height="1.2"/>
					<polygon class="st3" points="143.1,50.3 142.4,49.3 145.6,46.9 146.3,47.8 					"/>
					<polygon class="st3" points="144.8,52.6 144.1,51.7 147.4,49.4 148.1,50.3 					"/>
					<polygon class="st3" points="146.4,55.1 145.7,54.1 149.1,51.9 149.8,52.9 					"/>
					
						<rect x="148.7" y="58.1" transform="matrix(0.8868 -0.4622 0.4622 0.8868 -10.058 76.3129)" class="st3" width="4" height="1.2"/>
					<polygon class="st3" points="150.5,62.8 150,61.7 153.6,60 154.1,61.1 					"/>
					<polygon class="st3" points="151.6,65.4 151.1,64.3 154.9,62.8 155.3,63.9 					"/>
					
						<rect x="152.3" y="66.3" transform="matrix(0.9401 -0.3408 0.3408 0.9401 -13.5641 56.5973)" class="st3" width="4" height="1.2"/>
					<polygon class="st3" points="153.5,70.9 153.2,69.8 157,68.6 157.4,69.7 					"/>
					<polygon class="st3" points="154.3,73.7 154,72.6 157.9,71.5 158.2,72.7 					"/>
					<polygon class="st3" points="154.9,76.5 154.7,75.4 158.6,74.5 158.9,75.7 					"/>
					<polygon class="st3" points="155.5,79.4 155.3,78.2 159.2,77.5 159.4,78.7 					"/>
					<polygon class="st3" points="155.9,82.3 155.7,81.1 159.7,80.6 159.9,81.7 					"/>
					<polygon class="st3" points="156.1,85.1 156,84 160.1,83.6 160.2,84.8 					"/>
					<polygon class="st3" points="156.3,88 156.2,86.9 160.3,86.7 160.3,87.9 					"/>
					<polygon class="st3" points="156.2,93.8 156.3,92.7 160.3,92.9 160.2,94 					"/>
					<polygon class="st3" points="156,96.7 156.1,95.6 160.1,95.9 160,97.1 					"/>
					<polygon class="st3" points="155.6,99.6 155.8,98.4 159.8,99 159.6,100.2 					"/>
					<polygon class="st3" points="155.1,102.5 155.3,101.3 159.3,102 159.1,103.2 					"/>
					<polygon class="st3" points="154.5,105.3 154.8,104.2 158.7,105.1 158.5,106.2 					"/>
					<polygon class="st3" points="153.8,108.1 154.1,107 158,108 157.7,109.2 					"/>
					<polygon class="st3" points="153,110.9 153.3,109.8 157.1,111 156.8,112.1 					"/>
					<polygon class="st3" points="152,113.6 152.4,112.5 156.2,113.9 155.8,115 					"/>
					<polygon class="st3" points="150.9,116.3 151.3,115.2 155.1,116.8 154.6,117.9 					"/>
					<polygon class="st3" points="149.7,119 150.2,117.9 153.8,119.6 153.3,120.7 					"/>
					<polygon class="st3" points="148.4,121.5 148.9,120.5 152.5,122.4 151.9,123.4 					"/>
					<polygon class="st3" points="145.4,126.5 146,125.5 149.4,127.7 148.8,128.7 					"/>
					<polygon class="st3" points="143.7,128.9 144.4,127.9 147.7,130.3 147,131.2 					"/>
					<polygon class="st3" points="142,131.2 142.7,130.3 145.9,132.8 145.1,133.7 					"/>
					<polygon class="st3" points="140.1,133.5 140.9,132.5 144,135.2 143.2,136.1 					"/>
					<polygon class="st3" points="138.2,135.6 139,134.7 141.9,137.5 141.1,138.3 					"/>
					<polygon class="st3" points="136.1,137.7 137,136.8 139.8,139.7 139,140.5 					"/>
					<polygon class="st3" points="134,139.6 134.9,138.8 137.6,141.8 136.7,142.6 					"/>
					
						<rect x="132.9" y="140.7" transform="matrix(0.7664 -0.6423 0.6423 0.7664 -60.4653 119.1018)" class="st3" width="1.2" height="4"/>
					
						<rect x="130.6" y="142.5" transform="matrix(0.795 -0.6066 0.6066 0.795 -60.7886 109.211)" class="st3" width="1.2" height="4"/>
					
						<rect x="128.2" y="144.3" transform="matrix(0.8209 -0.571 0.571 0.8209 -60.4809 99.726)" class="st3" width="1.2" height="4"/>
					
						<rect x="125.7" y="145.9" transform="matrix(0.8452 -0.5345 0.5345 0.8452 -59.5193 90.3858)" class="st3" width="1.2" height="4"/>
					<polygon class="st3" points="119.6,149.4 120.7,148.8 122.5,152.4 121.5,152.9 					"/>
					<polygon class="st3" points="117,150.6 118.1,150.1 119.7,153.8 118.7,154.3 					"/>
					<polygon class="st3" points="114.3,151.7 115.4,151.3 116.9,155 115.8,155.5 					"/>
					<polygon class="st3" points="111.6,152.7 112.7,152.3 114.1,156.1 113,156.5 					"/>
					<polygon class="st3" points="108.8,153.6 110,153.3 111.2,157.1 110,157.5 					"/>
					<polygon class="st3" points="106,154.4 107.2,154.1 108.2,158 107.1,158.3 					"/>
					<polygon class="st3" points="103.2,155 104.4,154.8 105.2,158.7 104,159 					"/>
					<polygon class="st3" points="100.4,155.5 101.5,155.3 102.2,159.3 101,159.5 					"/>
					<polygon class="st3" points="97.5,155.9 98.7,155.8 99.2,159.8 98,159.9 					"/>
					<polygon class="st3" points="94.6,156.2 95.8,156.1 96.1,160.1 94.9,160.2 					"/>
					
						<rect x="91.8" y="156.3" transform="matrix(0.9993 -3.770487e-02 3.770487e-02 0.9993 -5.9035 3.5947)" class="st3" width="1.2" height="4"/>
					
						<rect x="84.4" y="157.7" transform="matrix(4.908362e-02 -0.9988 0.9988 4.908362e-02 -75.9332 236.7643)" class="st3" width="4" height="1.2"/>
					
						<rect x="81.4" y="157.4" transform="matrix(9.269197e-02 -0.9957 0.9957 9.269197e-02 -81.6907 226.4271)" class="st3" width="4" height="1.2"/>
					
						<rect x="78.4" y="157.1" transform="matrix(0.1363 -0.9907 0.9907 0.1363 -86.7495 215.8627)" class="st3" width="4" height="1.2"/>
					<polygon class="st3" points="77.3,155.1 78.4,155.3 77.7,159.3 76.5,159.1 					"/>
					<polygon class="st3" points="74.4,154.5 75.6,154.8 74.7,158.7 73.5,158.4 					"/>
					<polygon class="st3" points="71.6,153.8 72.8,154.1 71.7,157.9 70.5,157.6 					"/>
					<polygon class="st3" points="68.8,152.9 70,153.3 68.7,157.1 67.6,156.7 					"/>
					<polygon class="st3" points="66.1,151.9 67.2,152.3 65.8,156.1 64.7,155.7 					"/>
					<polygon class="st3" points="63.4,150.8 64.5,151.3 62.9,155 61.9,154.5 					"/>
					<polygon class="st3" points="60.8,149.6 61.9,150.1 60.1,153.7 59.1,153.2 					"/>
					
						<rect x="55.8" y="149.7" transform="matrix(0.4732 -0.8809 0.8809 0.4732 -101.954 130.0902)" class="st3" width="4" height="1.2"/>
					<polygon class="st3" points="53.3,145.2 54.3,145.9 52.1,149.3 51.1,148.6 					"/>
					<polygon class="st3" points="50.9,143.6 51.9,144.3 49.5,147.6 48.5,146.9 					"/>
					<polygon class="st3" points="48.6,141.8 49.5,142.6 47,145.7 46.1,145 					"/>
					<polygon class="st3" points="46.3,140 47.3,140.7 44.6,143.8 43.7,143 					"/>
					<polygon class="st3" points="44.2,138 45.1,138.8 42.3,141.8 41.4,140.9 					"/>
					
						<rect x="39.1" y="137.2" transform="matrix(0.7109 -0.7032 0.7032 0.7109 -85.011 68.752)" class="st3" width="4" height="1.2"/>
					<polygon class="st3" points="40.2,133.8 41,134.7 38,137.4 37.2,136.5 					"/>
					<polygon class="st3" points="38.3,131.6 39.1,132.5 36,135.1 35.2,134.2 					"/>
					<polygon class="st3" points="36.5,129.3 37.3,130.3 34,132.7 33.3,131.7 					"/>
					<polygon class="st3" points="34.9,126.9 35.6,127.9 32.2,130.2 31.6,129.2 					"/>
					<polygon class="st3" points="33.3,124.5 34,125.5 30.5,127.6 29.9,126.6 					"/>
					
						<rect x="27" y="120.2" transform="matrix(0.8907 -0.4547 0.4547 0.8907 -51.7667 26.3973)" class="st3" width="4" height="1.2"/>
					
						<rect x="25.7" y="117.5" transform="matrix(0.9096 -0.4155 0.4155 0.9096 -46.584 22.1983)" class="st3" width="4" height="1.2"/>
					<polygon class="st3" points="28.2,114.1 28.6,115.2 24.9,116.7 24.5,115.6 					"/>
					<polygon class="st3" points="27.2,111.4 27.6,112.5 23.8,113.8 23.4,112.7 					"/>
					
						<rect x="22.6" y="109.1" transform="matrix(0.9558 -0.294 0.294 0.9558 -31.1833 12.0761)" class="st3" width="4" height="1.2"/>
					<polygon class="st3" points="25.6,105.8 25.9,106.9 22,107.9 21.7,106.8 					"/>
					<polygon class="st3" points="24.9,103 25.2,104.1 21.2,104.9 21,103.8 					"/>
					<polygon class="st3" points="24.4,100.1 24.6,101.3 20.7,101.9 20.5,100.8 					"/>
					<polygon class="st3" points="24.1,97.2 24.2,98.4 20.2,98.9 20.1,97.7 					"/>
					<polygon class="st3" points="23.8,94.3 23.9,95.5 19.9,95.8 19.8,94.6 					"/>
					<polygon class="st3" points="23.7,91.4 23.7,92.6 19.7,92.7 19.7,91.6 					"/>
					<polygon class="st3" points="23.8,85.6 23.8,86.8 19.7,86.6 19.8,85.4 					"/>
					<polygon class="st3" points="24.1,82.7 23.9,83.9 19.9,83.5 20.1,82.3 					"/>
					<polygon class="st3" points="24.4,79.9 24.3,81 20.3,80.5 20.5,79.3 					"/>
					<polygon class="st3" points="24.9,77 24.7,78.2 20.8,77.4 21,76.3 					"/>
					<polygon class="st3" points="25.6,74.2 25.3,75.3 21.4,74.4 21.7,73.2 					"/>
					<polygon class="st3" points="26.3,71.4 26,72.5 22.2,71.4 22.5,70.3 					"/>
					<polygon class="st3" points="27.2,68.6 26.8,69.7 23,68.5 23.4,67.3 					"/>
					<polygon class="st3" points="28.2,65.9 27.8,67 24,65.6 24.5,64.5 					"/>
					<polygon class="st3" points="29.3,63.2 28.9,64.3 25.2,62.7 25.6,61.6 					"/>
					<polygon class="st3" points="30.6,60.6 30,61.6 26.4,59.9 26.9,58.8 					"/>
					<polygon class="st3" points="31.9,58 31.3,59.1 27.8,57.1 28.4,56.1 					"/>
					<polygon class="st3" points="34.9,53 34.3,54 30.9,51.8 31.6,50.8 					"/>
					<polygon class="st3" points="36.6,50.7 35.9,51.6 32.6,49.3 33.3,48.3 					"/>
					<polygon class="st3" points="38.4,48.4 37.6,49.3 34.5,46.8 35.2,45.9 					"/>
					<polygon class="st3" points="40.2,46.2 39.5,47.1 36.4,44.4 37.2,43.5 					"/>
					<polygon class="st3" points="42.2,44 41.4,44.9 38.5,42.1 39.3,41.3 					"/>
					<polygon class="st3" points="44.3,42 43.4,42.8 40.6,39.9 41.5,39.1 					"/>
					<polygon class="st3" points="46.4,40 45.5,40.8 42.8,37.8 43.7,37 					"/>
					<polygon class="st3" points="48.6,38.2 47.7,38.9 45.2,35.8 46.1,35 					"/>
					<polygon class="st3" points="50.9,36.4 50,37.1 47.6,33.9 48.5,33.2 					"/>
					<polygon class="st3" points="53.3,34.7 52.3,35.4 50.1,32.1 51.1,31.4 					"/>
					<polygon class="st3" points="55.8,33.2 54.8,33.8 52.7,30.4 53.7,29.8 					"/>
					<polygon class="st3" points="60.9,30.4 59.8,31 58,27.4 59.1,26.8 					"/>
					<polygon class="st3" points="63.5,29.2 62.4,29.7 60.8,26 61.9,25.5 					"/>
					<polygon class="st3" points="66.2,28.1 65.1,28.6 63.6,24.8 64.7,24.4 					"/>
					<polygon class="st3" points="68.9,27.1 67.8,27.5 66.5,23.7 67.6,23.3 					"/>
					<polygon class="st3" points="71.7,26.3 70.5,26.6 69.4,22.8 70.5,22.4 					"/>
					<polygon class="st3" points="74.5,25.5 73.3,25.8 72.4,21.9 73.5,21.6 					"/>
					<polygon class="st3" points="77.3,24.9 76.2,25.2 75.4,21.2 76.5,21 					"/>
					<polygon class="st3" points="80.2,24.4 79,24.6 78.4,20.6 79.6,20.4 					"/>
					<polygon class="st3" points="83.1,24 81.9,24.2 81.4,20.2 82.6,20.1 					"/>
					<polygon class="st3" points="85.5,23.8 84.3,24 84,19.9 85.2,19.8 					"/>
					<polygon class="st3" points="88,23.7 86.8,23.8 86.7,19.7 87.9,19.7 					"/>
				</g>
			</g>
		</g>
	</g>
</g>
</svg>
