<?xml version="1.0" encoding="utf-8"?>
<!-- Generator: Adobe Illustrator 21.1.0, SVG Export Plug-In . SVG Version: 6.00 Build 0)  -->
<svg version="1.1" id="Layer_1" xmlns="http://www.w3.org/2000/svg" xmlns:xlink="http://www.w3.org/1999/xlink" x="0px" y="0px"
	 viewBox="0 0 338.6 102.4" style="enable-background:new 0 0 338.6 102.4;" xml:space="preserve">
<style type="text/css">
	.st0{fill:#FFFFFF;}
</style>
<g>
	<path class="st0" d="M11.7,51c-1.9-3-2.4-7.1-2.4-10.3C9.3,30,18.9,21,28.8,21H60L47.9,33.2H28.6C20.9,33.2,11.5,41.1,11.7,51
		L11.7,51z M23.6,42.3c0.8-2.6,3.3-5.8,5.7-7.6c-4.5,0-9.6,2.2-13.5,7.6H23.6L23.6,42.3z M29.8,36.2c-1.8,1.6-3.7,3.9-4.7,6.1h9.4
		C33.5,40.1,31.6,37.8,29.8,36.2L29.8,36.2z M15,43.9c-1.2,2.1-1.7,4.4-1.9,6.8h8.7c0-2.4,0.4-4.7,1.2-6.8H15L15,43.9z M24.6,43.9
		c-0.8,2.1-1.1,4.4-1.4,6.8h13.2c-0.2-2.4-0.6-4.7-1.4-6.8H24.6L24.6,43.9z M43.7,42.3c-3.7-5.4-8.8-7.6-13.2-7.6
		c2.3,1.7,4.6,5,5.6,7.6H43.7L43.7,42.3z M36.7,43.9c0.8,2.1,1.2,4.4,1.2,6.8h8.7c-0.2-2.4-0.7-4.7-1.9-6.8H36.7L36.7,43.9z
		 M15.8,60.2c3.9,5.7,9,7.6,13.5,7.6c-2.4-1.8-4.9-5.1-5.7-7.6L15.8,60.2L15.8,60.2z M29.8,66.5c1.7-1.6,3.7-4.1,4.6-6.2h-9.3
		C26.1,62.4,28.1,64.9,29.8,66.5L29.8,66.5z M23,58.9c-0.8-2.4-1.2-4.7-1.2-6.8h-8.7c0.2,2.3,0.8,4.6,1.9,6.8H23L23,58.9z
		 M35.1,58.9c0.8-2.2,1.1-4.5,1.4-6.8H23.2c0.2,2.3,0.6,4.6,1.4,6.8H35.1L35.1,58.9z M36.1,60.2c-1,2.5-3.4,5.8-5.6,7.6
		c4.4,0,9.5-1.9,13.2-7.6L36.1,60.2L36.1,60.2z M44.6,58.9c1.2-2.2,1.8-4.5,1.9-6.8h-8.7c0,2.1-0.4,4.4-1.2,6.8H44.6L44.6,58.9z
		 M47.9,51.2c0.2,10.3-9.1,18.1-16.9,18.1H11.7L-0.4,81.4h31.2c9.9,0,19.5-9,19.5-19.6c0-3.2-0.4-7.2-2.4-10.3V51.2L47.9,51.2z"/>
	<path class="st0" d="M139,67.8c-8.1,0-13.9-4.8-13.9-12.5c0-7.5,6-12.5,13.9-12.5s13.9,5,13.9,12.5C153,62.9,147.1,67.8,139,67.8
		L139,67.8z M277.6,43.4v23.9h-8.1l-0.1-2.4h-0.2c-0.9,0.8-2.8,2.9-8,2.9c-5.8,0-10.9-5-10.9-12.5c0-7,4.5-12.5,11.4-12.5
		c4.7,0,6.6,2.1,7.3,2.7h0.2l0.1-2.2L277.6,43.4L277.6,43.4z M215.2,43.4v23.9h-8.1l-0.1-2.4h-0.2c-0.9,0.8-2.8,2.9-8,2.9
		c-5.8,0-10.9-5-10.9-12.5c0-7,4.5-12.5,11.4-12.5c4.7,0,6.6,2.1,7.3,2.7h0.2l0.1-2.2L215.2,43.4L215.2,43.4z M175.9,43.4h8.3v23.9
		h-8.3V43.4L175.9,43.4z M220.6,67.2V33.5h8.3v11.6h0.1c0.6-0.4,3.3-2.3,7.2-2.3c6.5,0,11.2,5.2,11.2,12.1c0,8.6-5.3,12.9-11.3,12.9
		c-4.6,0-6.8-2.1-7.4-2.7h-0.1l-0.1,2.2L220.6,67.2L220.6,67.2z M139,61.8c3.4,0,5.3-2.9,5.3-6.5s-1.9-6.5-5.3-6.5
		c-3.6,0-5.4,2.9-5.4,6.5C133.7,58.8,135.7,61.8,139,61.8L139,61.8z M171.9,60.8c-0.4,0.1-1.5,0.4-2.3,0.4c-1.7,0-3.5-0.8-3.5-3.7
		v-8.1h5.2v-6h-5.2v-7.7h-8.3v7.7h-3.6v6h3.6v9.5c0,5.2,2.4,9,8.6,9c1.8,0,3.4-0.2,4.6-0.5L171.9,60.8L171.9,60.8z M77.3,66.4
		c2.3,0.7,5.8,1.4,9.6,1.4c7.1,0,14.2-2.5,14.2-10.3c0-10.7-14.8-9.2-14.8-13.5c0-2.2,2.3-2.7,4.5-2.7c3.1,0,7,1.5,7.8,1.8l0.7-7.4
		c-2.2-0.7-5.4-1.2-8.5-1.2c-7,0-13.9,2.7-13.9,9.7c0,10.5,14.7,8.3,14.7,13.8c0,2.1-2.1,2.9-4.8,2.9c-3.7,0-7.2-1.9-8.7-2.5
		L77.3,66.4L77.3,66.4z M259.2,55.1c0,3.9,2.2,6.4,5.1,6.4c2.6,0,5.1-2.4,5.1-6.1c0-3.7-2.2-6.3-5.1-6.3
		C261.3,49.2,259.2,51.8,259.2,55.1L259.2,55.1z M196.8,55.1c0,3.9,2.2,6.4,5.1,6.4c2.6,0,5.1-2.4,5.1-6.1s-2.2-6.3-5.1-6.3
		C198.9,49.2,196.8,51.8,196.8,55.1L196.8,55.1z M123,43.7c-0.6-0.2-2.9-1-5.9-1c-7.5,0-13.1,4.7-13.1,12.5
		c0,7.1,5.1,12.5,12.8,12.5c3.3,0,5.7-0.9,6.3-1l-0.4-7c-0.6,0.3-2.3,1.2-4.2,1.2c-3.4,0-5.8-2.4-5.8-5.7c0-3.5,2.6-5.8,5.9-5.8
		c1.9,0,3.5,0.9,4.1,1.2L123,43.7L123,43.7z M313,67.3h8.3V56.2h0.1l7.4,11.1h9.2l-8.9-12.7l8.7-11.2h-9.2l-7.2,9.9h-0.1V33.6H313
		V67.3L313,67.3z M283,67.3h8.1V54.9c0-2.9,1.9-4.9,4.4-4.9c2.8,0,4.4,1.8,4.4,4.9v12.4h8.1V52.9c0-5.4-3.5-10.1-9.9-10.1
		c-4.3,0-6.5,2.3-7.5,3.2h-0.2l-0.1-2.7H283V67.3L283,67.3z M180.1,31.3c-2.6,0-4.7,2.1-4.7,4.7c0,2.6,2.1,4.7,4.7,4.7
		c2.6,0,4.7-2.1,4.7-4.7C184.8,33.4,182.6,31.3,180.1,31.3L180.1,31.3z M238.8,55.3c0-3.2-1.8-6.1-5-6.1c-2.8,0-5.1,2.4-5.1,6.1
		c0,3.5,1.9,6.1,5.1,6.1C236.7,61.4,238.8,59,238.8,55.3L238.8,55.3z"/>
</g>
</svg>
