<svg id="Capa_1" data-name="Capa 1" xmlns="http://www.w3.org/2000/svg" viewBox="0 0 47.58 47.56"><defs><style>.cls-1{fill:#81c41d;fill-rule:evenodd;}</style></defs><title>ICONOS DE CUADRADOS</title><path class="cls-1" d="M33.3,26.54l-1.85,1.12-2.84-2.74A15.72,15.72,0,1,0,25,28.6l2.64,2.54-1.08,2.14L40.82,47.56a7.18,7.18,0,0,0,5-2.11,7.28,7.28,0,0,0,1.78-4.64ZM7.21,24.37h0a12.16,12.16,0,1,1,17.2,0,12.13,12.13,0,0,1-17.2,0Zm14.58-13a7.62,7.62,0,0,1,.58,1H20a7.62,7.62,0,0,0-.53-1Zm-2.21-1.9a5.11,5.11,0,0,1,1.37,1H18.76a6.25,6.25,0,0,0-1.11-1Z"/></svg>