<?xml version="1.0" encoding="utf-8"?>
<!-- Generator: Adobe Illustrator 21.1.0, SVG Export Plug-In . SVG Version: 6.00 Build 0)  -->
<svg version="1.1" id="Layer_1" focusable="false" xmlns="http://www.w3.org/2000/svg" xmlns:xlink="http://www.w3.org/1999/xlink"
	 x="0px" y="0px" viewBox="0 0 512 512" style="enable-background:new 0 0 512 512;" xml:space="preserve">
<style type="text/css">
	.st0{fill:#FFFFFF;}
	.st1{fill:#2A68B5;}
</style>
<g>
	<ellipse class="st0" cx="256" cy="256.9" rx="253.5" ry="249.9"/>
</g>
<path class="st1" d="M401.1,217.6c2.3-1.8,5.7-0.1,5.7,2.8v120.5c0,15.6-12.7,28.3-28.3,28.3H133.5c-15.6,0-28.3-12.7-28.3-28.3
	V220.4c0-2.9,3.4-4.6,5.7-2.8c13.2,10.3,30.7,23.3,90.8,66.9c12.4,9.1,33.4,28.2,54.3,28c21,0.2,42.4-19.3,54.4-28
	C370.5,240.9,387.9,227.8,401.1,217.6z M256,293.7c13.7,0.2,33.3-17.2,43.2-24.4c78.2-56.7,84.1-61.7,102.2-75.8
	c3.4-2.7,5.4-6.8,5.4-11.1v-11.2c0-15.6-12.7-28.3-28.3-28.3H133.5c-15.6,0-28.3,12.7-28.3,28.3v11.2c0,4.4,2,8.4,5.4,11.1
	c18,14.1,24,19.1,102.2,75.8C222.7,276.5,242.3,293.9,256,293.7L256,293.7z"/>
</svg>
