<svg id="Capa_1" data-name="Capa 1" xmlns="http://www.w3.org/2000/svg" viewBox="0 0 18.49 24.85"><defs><style>.cls-1{fill:#fff;}</style></defs><title>ICONOS DE BANNER PIE</title><path class="cls-1" d="M12,24.85a60.06,60.06,0,0,1-5.44-4.23A21.21,21.21,0,0,1,0,5.5C-.06,2.54,2.53-.05,5,0,6.27,0,7.07.47,7.1,1.89a15,15,0,0,0,.23,2.89A2.6,2.6,0,0,1,5.69,8.14c-1.07.45-1.12,1.21-.83,2.23a16,16,0,0,0,4.47,7.38A1.84,1.84,0,0,0,12,18c2.24-1.47,2.28-1.41,4.29.5l1.05,1c1.65,1.59,1.53,3.44-.59,4.39a21.06,21.06,0,0,1-4.76,1"/></svg>