<?xml version="1.0" encoding="utf-8"?>
<!-- Generator: Adobe Illustrator 21.0.0, SVG Export Plug-In . SVG Version: 6.00 Build 0)  -->
<svg version="1.1" id="Capa_1" xmlns="http://www.w3.org/2000/svg" xmlns:xlink="http://www.w3.org/1999/xlink" x="0px" y="0px"
	 viewBox="0 0 57.5 57.5" style="enable-background:new 0 0 57.5 57.5;" xml:space="preserve">
<style type="text/css">
	.st0{fill:#FFFFFF;}
	.st1{fill:#6341CE;}
</style>
<g>
	<rect x="8.3" y="8.6" class="st0" width="40.5" height="36.8"/>
	<path class="st1" d="M29.5,13.9c-7.3,0-13.2,5.5-13.9,12.5c0,0.4-0.1,0.9-0.1,1.3c0,3,1,5.8,2.7,8.1L16.5,41l5.4-1.7
		c2.2,1.5,4.9,2.3,7.7,2.3c7.7,0,14-6.2,14-13.9c0-0.4,0-0.7,0-1.1C42.9,19.5,36.8,13.9,29.5,13.9z M37.7,33.5c-0.3,1-2,1.9-2.7,1.9
		c-0.7,0.1-0.7,0.6-4.9-1c-4.1-1.6-6.8-5.8-7-6.1c-0.2-0.2-1-1.4-1.5-2.8c-0.1-0.4-0.2-0.9-0.2-1.4c0-2,1.1-3,1.4-3.4
		c0.4-0.4,0.8-0.5,1.1-0.5s0.5,0,0.8,0c0.2,0,0.6-0.1,0.9,0.7c0.3,0.8,1.2,2.8,1.3,3c0.1,0.2,0.2,0.4,0,0.7
		c-0.1,0.2-0.2,0.3-0.3,0.5c0,0.1-0.1,0.1-0.1,0.2c-0.2,0.2-0.4,0.5-0.6,0.7s-0.4,0.4-0.2,0.8c0.2,0.4,1.1,1.7,2.3,2.8
		c1.6,1.4,2.9,1.8,3.3,2s0.6,0.2,0.9-0.1c0.2-0.3,1-1.2,1.3-1.6s0.5-0.3,0.9-0.2c0.4,0.1,2.4,1.1,2.8,1.3c0.4,0.2,0.7,0.3,0.8,0.5
		C38,31.7,38,32.5,37.7,33.5z"/>
	<path class="st1" d="M28.7,0C12.9,0,0,12.9,0,28.7s12.9,28.7,28.7,28.7s28.7-12.9,28.7-28.7S44.6,0,28.7,0z M29.5,44.3
		c-2.9,0-5.7-0.7-8-2.1l-9.2,2.9l3-8.9c-1.5-2.5-2.4-5.4-2.4-8.5c0-0.2,0-0.5,0-0.7c0.4-8.8,7.7-15.8,16.6-15.8
		c9.1,0,16.4,7.2,16.6,16.1c0,0.1,0,0.3,0,0.4C46.1,36.9,38.7,44.3,29.5,44.3z"/>
</g>
</svg>
