<?xml version="1.0" encoding="utf-8"?>
<!-- Generator: Adobe Illustrator 21.0.0, SVG Export Plug-In . SVG Version: 6.00 Build 0)  -->
<svg version="1.1" id="Capa_1" xmlns="http://www.w3.org/2000/svg" xmlns:xlink="http://www.w3.org/1999/xlink" x="0px" y="0px"
	 viewBox="0 0 236.7 64.7" style="enable-background:new 0 0 236.7 64.7;" xml:space="preserve">
<style type="text/css">
	.st0{fill:#070811;stroke:#FFFFFF;stroke-width:1.5316;stroke-miterlimit:10;}
	.st1{fill:#E8365D;}
	.st2{fill:#FFFFFF;}
	.st3{fill:#1C2E52;}
	.st4{fill:#74B845;}
	.st5{fill:#F6A12B;}
	.st6{fill:#F9B52B;}
	.st7{opacity:0.2;}
</style>
<g>
	<g>
		<g>
			<path class="st2" d="M70.2,5.8c0.3,0,0.6,0.3,0.6,0.6c0,0.3-0.3,0.6-0.6,0.6h-3.1v1.8h2.5c0.3,0,0.6,0.3,0.6,0.6
				c0,0.3-0.3,0.6-0.6,0.6h-2.5v2.5c0,0.3-0.3,0.6-0.6,0.6s-0.6-0.3-0.6-0.6V6.4c0-0.3,0.3-0.6,0.6-0.6H70.2z"/>
			<path class="st2" d="M76.7,12.6c0,0.3-0.3,0.6-0.6,0.6h-3.4c-0.3,0-0.6-0.3-0.6-0.6V6.4c0-0.3,0.3-0.6,0.6-0.6h3.4
				c0.3,0,0.6,0.3,0.6,0.6c0,0.3-0.3,0.6-0.6,0.6h-2.8v1.8h2.2c0.3,0,0.6,0.3,0.6,0.6c0,0.3-0.3,0.6-0.6,0.6h-2.2v1.8h2.8
				C76.4,11.9,76.7,12.2,76.7,12.6z"/>
			<path class="st2" d="M82.7,12.2c0.1,0.1,0.1,0.2,0.1,0.3c0,0.2-0.1,0.4-0.3,0.5c-0.1,0.1-0.2,0.1-0.3,0.1c-0.2,0-0.4-0.1-0.5-0.3
				l-1.4-2.2h-1v1.8c0,0.3-0.3,0.6-0.6,0.6S78,12.9,78,12.6V6.4c0-0.3,0.3-0.6,0.6-0.6h1.7c0.1,0,0.6,0,1.2,0.3
				c0.8,0.4,1.3,1.2,1.3,2.2c0,0.1,0,0.6-0.3,1.2c-0.2,0.4-0.5,0.8-0.9,1L82.7,12.2z M79.2,9.5h1.1c0.5,0,0.9-0.2,1.1-0.6
				c0.2-0.3,0.2-0.7,0.2-0.7c0-0.5-0.2-0.9-0.6-1.1C80.6,7,80.3,7,80.3,7h-1.1V9.5z"/>
			<path class="st2" d="M84,12.6V6.4c0-0.3,0.3-0.6,0.6-0.6s0.6,0.3,0.6,0.6v6.2c0,0.3-0.3,0.6-0.6,0.6S84,12.9,84,12.6z"/>
			<path class="st2" d="M92.6,12.3c0,0.1,0,0.2,0,0.2c0,0.3-0.2,0.6-0.6,0.6c-0.2,0-0.5-0.1-0.6-0.4L91,11.6h-2.9l-0.5,1.1
				c-0.1,0.2-0.3,0.4-0.6,0.4c-0.4,0-0.6-0.3-0.6-0.6c0-0.1,0-0.2,0-0.2L89,6.2c0.1-0.2,0.3-0.4,0.6-0.4c0.2,0,0.5,0.2,0.6,0.4
				L92.6,12.3z M90.5,10.4l-0.9-2.4l-0.9,2.4H90.5z"/>
			<path class="st2" d="M99.7,12.8l-2.5-6.1c0-0.1,0-0.1,0-0.2c0-0.3,0.3-0.6,0.6-0.6c0.2,0,0.5,0.1,0.6,0.4l1.9,4.7l1.9-4.7
				c0.1-0.2,0.3-0.4,0.6-0.4c0.4,0,0.6,0.3,0.6,0.6c0,0.1,0,0.2,0,0.2l-2.5,6.1c-0.1,0.2-0.3,0.4-0.6,0.4
				C100,13.2,99.8,13,99.7,12.8z"/>
			<path class="st2" d="M104.6,12.6V6.4c0-0.3,0.3-0.6,0.6-0.6s0.6,0.3,0.6,0.6v6.2c0,0.3-0.3,0.6-0.6,0.6S104.6,12.9,104.6,12.6z"
				/>
			<path class="st2" d="M111.8,12.2c0.1,0.1,0.1,0.2,0.1,0.3c0,0.2-0.1,0.4-0.3,0.5c-0.1,0.1-0.2,0.1-0.3,0.1
				c-0.2,0-0.4-0.1-0.5-0.3l-1.4-2.2h-1v1.8c0,0.3-0.3,0.6-0.6,0.6s-0.6-0.3-0.6-0.6V6.4c0-0.3,0.3-0.6,0.6-0.6h1.7
				c0.1,0,0.6,0,1.2,0.3c0.8,0.4,1.3,1.2,1.3,2.2c0,0.1,0,0.6-0.3,1.2c-0.2,0.4-0.5,0.8-0.9,1L111.8,12.2z M108.4,9.5h1.1
				c0.5,0,0.9-0.2,1.1-0.6c0.2-0.3,0.2-0.7,0.2-0.7c0-0.5-0.2-0.9-0.6-1.1C109.8,7,109.4,7,109.4,7h-1.1V9.5z"/>
			<path class="st2" d="M117.5,5.8c0.3,0,0.6,0.3,0.6,0.6c0,0.3-0.3,0.6-0.6,0.6h-1.2v5.5c0,0.3-0.3,0.6-0.6,0.6s-0.6-0.3-0.6-0.6V7
				h-1.2c-0.3,0-0.6-0.3-0.6-0.6c0-0.3,0.3-0.6,0.6-0.6H117.5z"/>
			<path class="st2" d="M119.7,11.7c-0.3-0.6-0.3-1.3-0.3-1.3v-4c0-0.3,0.3-0.6,0.6-0.6s0.6,0.3,0.6,0.6v4c0,0.2,0.1,1.5,1.4,1.5
				c1.2,0,1.4-1.3,1.4-1.5v-4c0-0.3,0.3-0.6,0.6-0.6s0.6,0.3,0.6,0.6v4c0,0.1,0,0.7-0.3,1.3c-0.4,0.9-1.3,1.4-2.3,1.4
				S120.1,12.7,119.7,11.7z"/>
			<path class="st2" d="M132,12.3c0,0.1,0,0.2,0,0.2c0,0.3-0.2,0.6-0.6,0.6c-0.2,0-0.5-0.1-0.6-0.4l-0.5-1.1h-2.9l-0.5,1.1
				c-0.1,0.2-0.3,0.4-0.6,0.4c-0.4,0-0.6-0.3-0.6-0.6c0-0.1,0-0.2,0-0.2l2.5-6.1c0.1-0.2,0.3-0.4,0.6-0.4c0.2,0,0.5,0.2,0.6,0.4
				L132,12.3z M129.9,10.4L129,8.1l-0.9,2.4H129.9z"/>
			<path class="st2" d="M133.9,13.2c-0.3,0-0.6-0.3-0.6-0.6V6.4c0-0.3,0.3-0.6,0.6-0.6c0.3,0,0.6,0.3,0.6,0.6v5.5h2.2
				c0.3,0,0.6,0.3,0.6,0.6c0,0.3-0.3,0.6-0.6,0.6H133.9z"/>
		</g>
		
			<image style="overflow:visible;opacity:0.53;enable-background:new    ;" width="161" height="161" xlink:href="A56E7B45.png"  transform="matrix(0.4018 0 0 0.4018 0 0)">
		</image>
		<g>
			<g>
				<g>
					<path class="st3" d="M78.5,37.2c0,0.9-0.8,1.7-1.7,1.7h-9.3c-1,0-1.7-0.7-1.7-1.7V20.5c0-0.9,0.8-1.7,1.7-1.7h9.3
						c1,0,1.7,0.7,1.7,1.7c0,0.9-0.8,1.7-1.7,1.7h-7.6v5h5.9c0.9,0,1.7,0.7,1.7,1.7c0,0.9-0.8,1.7-1.7,1.7h-5.9v5h7.6
						C77.7,35.5,78.5,36.3,78.5,37.2z"/>
					<path class="st3" d="M96.9,36.2c0.2,0.3,0.3,0.6,0.3,1c0,0.8-0.8,1.7-1.7,1.7c-0.6,0-1.1-0.2-1.4-0.7l-4.6-6.3L85,38.2
						c-0.3,0.4-0.8,0.7-1.4,0.7c-0.9,0-1.7-0.8-1.7-1.7c0-0.3,0.1-0.6,0.3-1l5.2-7.4l-5.2-7.4c-0.2-0.2-0.3-0.5-0.3-0.9
						c0-0.8,0.6-1.7,1.7-1.7c0.6,0,1.1,0.2,1.4,0.7l4.5,6.3l4.5-6.4c0.3-0.4,0.8-0.7,1.4-0.7c0.9,0,1.7,0.8,1.7,1.7
						c0,0.3-0.1,0.7-0.3,1l-5.2,7.4L96.9,36.2z"/>
					<path class="st3" d="M100.7,37.2V20.5c0-0.9,0.8-1.7,1.7-1.7h4.6c0.2,0,1.7,0,3.3,0.8c2.3,1.1,3.5,3.2,3.5,5.9
						c0,0.2,0,1.7-0.8,3.3c-1.1,2.2-3.3,3.4-6,3.4h-2.9v5c0,0.9-0.8,1.7-1.7,1.7C101.4,38.9,100.7,38.1,100.7,37.2z M104,28.9h2.9
						c1.5,0,2.4-0.5,2.9-1.5c0.4-0.8,0.5-1.8,0.5-1.8c0-1.4-0.5-2.3-1.6-2.9c-0.9-0.4-1.8-0.4-1.8-0.4H104V28.9z"/>
					<path class="st3" d="M117.2,28.8c0-5.5,4.3-10,9.7-10c5.4,0,9.7,4.5,9.7,10s-4.4,10-9.7,10C121.6,38.9,117.2,34.4,117.2,28.8z
						 M120.6,28.8c0,3.7,2.8,6.7,6.3,6.6c3.5,0,6.3-3,6.3-6.7s-2.8-6.7-6.3-6.6C123.4,22.2,120.6,25.2,120.6,28.8z"/>
					<path class="st3" d="M154.5,20.5v16.7c0,0.9-0.8,1.7-1.7,1.7s-1.7-0.7-1.7-1.7v-6.7h-7.6v6.7c0,0.9-0.8,1.7-1.7,1.7
						c-0.9,0-1.7-0.7-1.7-1.7V20.5c0-0.9,0.8-1.7,1.7-1.7c0.9,0,1.7,0.7,1.7,1.7v6.7h7.6v-6.7c0-0.9,0.8-1.7,1.7-1.7
						C153.7,18.9,154.5,19.6,154.5,20.5z"/>
					<path class="st3" d="M158,28.8c0-5.5,4.3-10,9.7-10c5.4,0,9.7,4.5,9.7,10s-4.4,10-9.7,10C162.3,38.8,158,34.3,158,28.8z
						 M161.4,28.8c0,3.7,2.8,6.7,6.3,6.6c3.5,0,6.3-3,6.3-6.7s-2.8-6.7-6.3-6.6C164.2,22.2,161.4,25.2,161.4,28.8z"/>
					<path class="st3" d="M183.9,35.9c-1.9-1.9-3-4.4-3-7.1s1.1-5.2,3-7.1c1.9-1.9,4.4-3,7.2-3c2.7,0,5.3,1,7.2,3
						c0.3,0.3,0.4,0.7,0.4,1.1c0,0.4-0.2,0.8-0.5,1.2c-0.4,0.3-0.8,0.5-1.2,0.5c-0.4,0-0.9-0.2-1.2-0.5c-1.3-1.3-3-1.9-4.8-1.9
						c-1.8,0-3.5,0.7-4.8,1.9c-1.3,1.3-2,3-2,4.7c0,1.8,0.7,3.4,2,4.7c1.3,1.3,3,2,4.8,2c1.5,0,3-0.5,4.3-1.5v-3.5h-4.2
						c-0.9,0-1.7-0.7-1.7-1.7c0-0.9,0.8-1.7,1.7-1.7h5.9c0.9,0,1.7,0.7,1.7,1.7v5.9c0,0.4-0.2,0.9-0.5,1.2c-2,1.9-4.6,2.9-7.2,2.9
						C188.4,38.8,185.8,37.9,183.9,35.9z"/>
					<path class="st3" d="M218.9,36.5c0.1,0.2,0.1,0.4,0.1,0.6c0,0.8-0.6,1.7-1.7,1.7c-0.6,0-1.3-0.4-1.6-1.1l-1.3-3.1h-7.8
						l-1.3,3.1c-0.2,0.6-0.9,1.1-1.6,1.1c-1,0-1.7-0.8-1.7-1.7c0-0.2,0-0.4,0.1-0.6l6.8-16.7c0.2-0.6,0.9-1.1,1.6-1.1
						c0.6,0,1.3,0.4,1.6,1.1L218.9,36.5z M213.2,31.3l-2.5-6.3l-2.6,6.4L213.2,31.3z"/>
					<path class="st3" d="M235.4,36.2c0.2,0.3,0.2,0.6,0.2,0.9c0,0.5-0.3,1.1-0.8,1.4c-0.2,0.2-0.6,0.2-0.9,0.2
						c-0.6,0-1.1-0.3-1.5-0.8l-3.7-5.9h-2.8v5c0,0.9-0.8,1.7-1.7,1.7s-1.7-0.7-1.7-1.7V20.5c0-0.9,0.8-1.7,1.7-1.7h4.6
						c0.2,0,1.7,0,3.3,0.8c2.3,1.1,3.5,3.2,3.5,5.9c0,0.2,0,1.7-0.8,3.3c-0.6,1.2-1.5,2.1-2.5,2.6L235.4,36.2z M225.9,28.8h2.9
						c1.5,0,2.4-0.5,2.9-1.5c0.4-0.8,0.5-1.8,0.5-1.8c0-1.4-0.5-2.3-1.6-2.9c-0.9-0.4-1.8-0.4-1.8-0.4h-2.9V28.8z"/>
				</g>
				<g>
					<g>
						<path class="st3" d="M115.2,49l-2.8-2.8c-0.4-0.4-1.1-0.1-1.1,0.4v5.6c0,0.6,0.7,0.8,1.1,0.4l2.8-2.8
							C115.4,49.6,115.4,49.2,115.2,49z"/>
						<path class="st3" d="M109.4,49l-2.8-2.8c-0.4-0.4-1.1-0.1-1.1,0.4v5.6c0,0.6,0.7,0.8,1.1,0.4l2.8-2.8
							C109.7,49.6,109.7,49.2,109.4,49z"/>
						<path class="st3" d="M103.7,49l-2.8-2.8c-0.4-0.4-1.1-0.1-1.1,0.4v5.6c0,0.6,0.7,0.8,1.1,0.4l2.8-2.8
							C103.9,49.6,103.9,49.2,103.7,49z"/>
					</g>
					<path class="st3" d="M231.5,57.5l-106.9,0c-2.9,0-5.3-2.3-5.3-5.3V47c0-2.9,2.3-5.3,5.3-5.3l106.9,0c2.9,0,5.3,2.3,5.3,5.3v5.3
						C236.7,55.2,234.3,57.5,231.5,57.5z"/>
				</g>
			</g>
		</g>
		<g>
			<path class="st4" d="M35.5,13.8c2,3,7.6,11.3,11.1,16.4l3.5-6.6C49.8,23.2,39.2,7.4,39.2,7.4l-16.7,0l-3.3,6.4L35.5,13.8z"/>
		</g>
		<g>
			<path class="st5" d="M51.5,34.2c-3,2-11.3,7.6-16.4,11.1l6.6,3.5c0.4-0.2,16.1-10.9,16.1-10.9l0-16.7l-6.4-3.3L51.5,34.2z"/>
		</g>
		<g>
			<g>
				<path class="st6" d="M31.1,50.2c-2-3-7.6-11.3-11.1-16.4l-3.5,6.6c0.2,0.4,10.9,16.2,10.9,16.2l16.7,0l3.3-6.4L31.1,50.2z"/>
			</g>
		</g>
		<g>
			<g>
				<path class="st3" d="M15.1,29.8c3-2,11.3-7.6,16.4-11.1l-6.6-3.5C24.5,15.5,8.7,26.1,8.7,26.1l0,16.7l6.4,3.3L15.1,29.8z"/>
			</g>
		</g>
		<g>
			<g>
				<g>
					<polygon class="st3" points="31.5,35.1 31.5,34.7 31.5,33.4 31.5,31.7 30.7,31.7 33.6,29 31.2,26.8 28,28.7 28,35.5 31.5,37.5 
											"/>
					<polygon class="st3" points="34.1,28.9 34.1,28.9 35.6,30.2 36.7,31.2 36.7,31.2 37.2,31.6 36.4,31.6 36.4,34.7 39.9,34.7 
						39.9,28.7 33.9,25.2 31.6,26.6 					"/>
					<polygon class="st3" points="31.9,35.1 31.9,37.8 33.9,39 39.9,35.5 39.9,35.1 					"/>
				</g>
				<path class="st3" d="M40.5,28.1L40.3,28l-5.9-3.4l-0.2-0.1c-0.1,0-0.1-0.1-0.2-0.1c-0.1,0-0.1,0-0.2,0.1l-0.2,0.1L27.6,28
					l-0.2,0.1c-0.1,0.1-0.2,0.2-0.2,0.3l0,0.2l0,6.9l0,0.2c0,0.1,0.1,0.3,0.2,0.3l0.2,0.1l5.9,3.4l0.2,0.1c0.1,0,0.1,0.1,0.2,0.1
					c0.1,0,0.1,0,0.2-0.1l0.2-0.1l5.9-3.4l0.2-0.1c0.1-0.1,0.2-0.2,0.2-0.3l0-0.2l0-6.9l0-0.2C40.7,28.3,40.6,28.2,40.5,28.1z
					 M40.3,28.7l0,6.9l0,0.2l-0.2,0.1l-5.9,3.4l-0.2,0.1l-0.2-0.1l-5.9-3.4l-0.2-0.1l0-0.2l0-6.9l0-0.2l0.2-0.1l5.9-3.4l0.2-0.1
					l0.2,0.1l5.9,3.4l0.2,0.1L40.3,28.7z"/>
				<g>
					<path class="st3" d="M33.8,31.6l-0.8,0c0,0-0.1,0-0.1,0.1l0,0.8c0,0,0,0.1,0.1,0.1l0.8,0c0,0,0.1,0,0.1-0.1L33.8,31.6
						C33.8,31.6,33.8,31.6,33.8,31.6z"/>
					<path class="st3" d="M34.9,32.7l-0.8,0c0,0-0.1,0-0.1,0.1l0,0.8c0,0,0,0.1,0.1,0.1l0.8,0c0,0,0.1,0,0.1-0.1L34.9,32.7
						C34.9,32.7,34.9,32.7,34.9,32.7z"/>
					<path class="st3" d="M33.8,32.7l-0.8,0c0,0-0.1,0-0.1,0.1l0,0.8c0,0,0,0.1,0.1,0.1l0.8,0c0,0,0.1,0,0.1-0.1L33.8,32.7
						C33.8,32.7,33.8,32.7,33.8,32.7z"/>
					<path class="st3" d="M34.9,31.6l-0.8,0c0,0-0.1,0-0.1,0.1l0,0.8c0,0,0,0.1,0.1,0.1l0.8,0c0,0,0.1,0,0.1-0.1L34.9,31.6
						C34.9,31.6,34.9,31.6,34.9,31.6z"/>
				</g>
				<g class="st7">
					<path class="st3" d="M33.6,29l-2.4-2.2L28,28.7l0,6.9l3.5,2l0-2.5l0-0.4l0-1.3l0-1.7l-0.8,0L33.6,29z M31.3,31.8l0,1.6l0,1.3
						l0,0.4l0,2.2l-3.2-1.8l0-6.7l3-1.8l2.2,2l-2.8,2.5c0,0-0.1,0.1,0,0.2c0,0.1,0.1,0.1,0.1,0.1L31.3,31.8z"/>
					<path class="st3" d="M33.9,25.2l-2.4,1.4l2.5,2.2c0,0,0,0,0,0l1.5,1.4l1.1,1l0,0l0.5,0.5l-0.8,0l0,3l3.5,0l0-6L33.9,25.2z
						 M39.7,34.5l-3.2,0l0-2.7l0.6,0c0.1,0,0.1,0,0.1-0.1c0-0.1,0-0.1,0-0.2l-0.5-0.4c0,0,0,0,0,0l-1.1-1l-1.5-1.4c0,0,0,0,0,0
						l-2.3-2.1l2.1-1.2l5.8,3.3L39.7,34.5z"/>
					<path class="st3" d="M31.9,37.8l2.1,1.2l5.9-3.4l0-0.5l-8,0L31.9,37.8z M32,35.2l7.7,0l0,0.2l-5.8,3.3L32,37.7L32,35.2z"/>
				</g>
			</g>
		</g>
	</g>
	<g>
		<path class="st2" d="M128.8,53v-6.8c0-0.4,0.3-0.7,0.7-0.7s0.7,0.3,0.7,0.7V53c0,0.4-0.3,0.7-0.7,0.7S128.8,53.4,128.8,53z"/>
		<path class="st2" d="M136.4,53.4l-3.5-5.1V53c0,0.4-0.3,0.7-0.7,0.7s-0.7-0.3-0.7-0.7v-6.8c0-0.4,0.3-0.7,0.7-0.7
			c0.2,0,0.4,0.1,0.6,0.3l3.5,5.1v-4.6c0-0.4,0.3-0.7,0.7-0.7s0.7,0.3,0.7,0.7V53c0,0.4-0.3,0.7-0.7,0.7
			C136.8,53.7,136.6,53.6,136.4,53.4z"/>
		<path class="st2" d="M145.2,53v-4.8l-1.8,2.5c-0.1,0.2-0.3,0.3-0.6,0.3c-0.2,0-0.4-0.1-0.6-0.3l-1.8-2.5V53c0,0.4-0.3,0.7-0.7,0.7
			c-0.4,0-0.7-0.3-0.7-0.7v-6.8c0-0.4,0.3-0.7,0.7-0.7c0.2,0,0.4,0.1,0.5,0.3l2.5,3.4l2.5-3.4c0.1-0.2,0.3-0.3,0.5-0.3
			c0.4,0,0.7,0.3,0.7,0.7V53c0,0.4-0.3,0.7-0.7,0.7C145.5,53.7,145.2,53.4,145.2,53z"/>
		<path class="st2" d="M148,49.6c0-2.3,1.7-4.1,3.9-4.1c2.2,0,3.9,1.8,3.9,4.1c0,2.3-1.8,4.1-3.9,4.1S148,51.8,148,49.6z
			 M149.3,49.6c0,1.5,1.1,2.7,2.5,2.7c1.4,0,2.5-1.2,2.5-2.7c0-1.5-1.1-2.7-2.5-2.7C150.5,46.9,149.3,48.1,149.3,49.6z"/>
		<path class="st2" d="M162.7,51.1c0,1.6-1.3,2.5-2.4,2.5h-2.4c-0.4,0-0.7-0.3-0.7-0.7v-6.8c0-0.4,0.3-0.7,0.7-0.7h1.9
			c0,0,0.6,0,1.1,0.3c0.8,0.4,1.1,1.1,1.1,1.9c0,0.5-0.1,0.9-0.4,1.3C162.3,49.5,162.7,50.2,162.7,51.1z M158.6,48.6h1
			c0.2,0,1,0,1-0.8c0-0.8-0.5-0.8-0.8-0.8c0,0-0.1,0-0.1,0h-1.2L158.6,48.6L158.6,48.6z M161.3,51.1c0-0.4-0.3-1.2-1.1-1.2h-1.6v2.4
			h1.6c0,0,0.3,0,0.6-0.2C161.3,51.9,161.3,51.4,161.3,51.1z"/>
		<path class="st2" d="M164.1,53v-6.8c0-0.4,0.3-0.7,0.7-0.7s0.7,0.3,0.7,0.7V53c0,0.4-0.3,0.7-0.7,0.7
			C164.4,53.7,164.1,53.4,164.1,53z"/>
		<path class="st2" d="M167.5,53.7c-0.4,0-0.7-0.3-0.7-0.7v-6.8c0-0.4,0.3-0.7,0.7-0.7s0.7,0.3,0.7,0.7v6.1h2.4
			c0.4,0,0.7,0.3,0.7,0.7c0,0.4-0.3,0.7-0.7,0.7L167.5,53.7z"/>
		<path class="st2" d="M172.7,53v-6.8c0-0.4,0.3-0.7,0.7-0.7c0.4,0,0.7,0.3,0.7,0.7V53c0,0.4-0.3,0.7-0.7,0.7S172.7,53.4,172.7,53z"
			/>
		<path class="st2" d="M182.2,52.7c0,0.1,0,0.2,0,0.2c0,0.4-0.3,0.7-0.7,0.7c-0.3,0-0.5-0.2-0.6-0.4l-0.5-1.3h-3.2l-0.5,1.3
			c-0.1,0.3-0.4,0.4-0.6,0.4c-0.4,0-0.7-0.3-0.7-0.7c0-0.1,0-0.2,0-0.2l2.7-6.8c0.1-0.2,0.4-0.4,0.6-0.4c0.3,0,0.5,0.2,0.6,0.4
			L182.2,52.7z M179.9,50.6l-1-2.6l-1.1,2.6H179.9z"/>
		<path class="st2" d="M188.8,52.6c0.1,0.1,0.1,0.2,0.1,0.4c0,0.2-0.1,0.4-0.3,0.6c-0.1,0.1-0.2,0.1-0.4,0.1c-0.2,0-0.4-0.1-0.6-0.3
			l-1.5-2.4h-1.1v2c0,0.4-0.3,0.7-0.7,0.7s-0.7-0.3-0.7-0.7v-6.8c0-0.4,0.3-0.7,0.7-0.7h1.9c0.1,0,0.7,0,1.3,0.3
			c0.9,0.4,1.4,1.3,1.4,2.4c0,0.1,0,0.7-0.3,1.3c-0.2,0.5-0.6,0.8-1,1.1L188.8,52.6z M185,49.6h1.2c0.6,0,1-0.2,1.2-0.6
			c0.2-0.4,0.2-0.7,0.2-0.7c0-0.6-0.2-1-0.6-1.2c-0.4-0.2-0.7-0.2-0.7-0.2H185V49.6z"/>
		<path class="st2" d="M190.3,53v-6.8c0-0.4,0.3-0.7,0.7-0.7c0.4,0,0.7,0.3,0.7,0.7V53c0,0.4-0.3,0.7-0.7,0.7
			C190.6,53.7,190.3,53.4,190.3,53z"/>
		<path class="st2" d="M199.9,52.7c0,0.1,0,0.2,0,0.2c0,0.4-0.3,0.7-0.7,0.7c-0.3,0-0.5-0.2-0.6-0.4L198,52h-3.2l-0.5,1.3
			c-0.1,0.3-0.4,0.4-0.6,0.4c-0.4,0-0.7-0.3-0.7-0.7c0-0.1,0-0.2,0-0.2l2.7-6.8c0.1-0.2,0.4-0.4,0.6-0.4c0.3,0,0.5,0.2,0.6,0.4
			L199.9,52.7z M197.5,50.6l-1-2.6l-1.1,2.6H197.5z"/>
		<path class="st2" d="M202.7,53c0,0.4-0.3,0.7-0.7,0.7s-0.7-0.3-0.7-0.7s0.3-0.7,0.7-0.7C202.3,52.3,202.7,52.6,202.7,53z"/>
		<path class="st2" d="M210.4,52.2c0.2,0.3,0,0.7-0.3,0.9c-0.6,0.3-1.3,0.5-1.9,0.5c-2.3,0-4.1-1.8-4.1-4.1c0-2.3,1.8-4.1,4.1-4.1
			c0.7,0,1.4,0.2,1.9,0.5c0.3,0.2,0.4,0.6,0.3,0.9c-0.2,0.3-0.6,0.4-0.9,0.3c-0.4-0.2-0.8-0.3-1.3-0.3c-1.5,0-2.7,1.2-2.7,2.7
			c0,1.5,1.2,2.7,2.7,2.7c0.4,0,0.9-0.1,1.3-0.3C209.8,51.8,210.2,51.9,210.4,52.2z"/>
		<path class="st2" d="M211.9,49.6c0-2.3,1.7-4.1,3.9-4.1c2.2,0,3.9,1.8,3.9,4.1c0,2.3-1.8,4.1-3.9,4.1
			C213.6,53.7,211.9,51.8,211.9,49.6z M213.2,49.6c0,1.5,1.1,2.7,2.5,2.7s2.5-1.2,2.5-2.7c0-1.5-1.1-2.7-2.5-2.7
			S213.2,48.1,213.2,49.6z"/>
		<path class="st2" d="M227.3,53v-4.8l-1.8,2.5c-0.1,0.2-0.3,0.3-0.6,0.3c-0.2,0-0.4-0.1-0.6-0.3l-1.8-2.5V53c0,0.4-0.3,0.7-0.7,0.7
			c-0.4,0-0.7-0.3-0.7-0.7v-6.8c0-0.4,0.3-0.7,0.7-0.7c0.2,0,0.4,0.1,0.5,0.3l2.5,3.4l2.5-3.4c0.1-0.2,0.3-0.3,0.5-0.3
			c0.4,0,0.7,0.3,0.7,0.7V53c0,0.4-0.3,0.7-0.7,0.7C227.6,53.7,227.3,53.4,227.3,53z"/>
	</g>
</g>
</svg>
