<?xml version="1.0" encoding="utf-8"?>
<!-- Generator: Adobe Illustrator 21.0.0, SVG Export Plug-In . SVG Version: 6.00 Build 0)  -->
<svg version="1.1" id="Capa_1" xmlns="http://www.w3.org/2000/svg" xmlns:xlink="http://www.w3.org/1999/xlink" x="0px" y="0px"
	 viewBox="0 0 57.5 57.5" style="enable-background:new 0 0 57.5 57.5;" xml:space="preserve">
<style type="text/css">
	.st0{fill:#FFFFFF;}
	.st1{fill:#6341CE;}
</style>
<rect x="7.8" y="13.8" class="st0" width="41.7" height="29"/>
<g>
	<path class="st1" d="M13.7,20.9V39h30.1V21.1C25.1,31.6,33.2,31,13.7,20.9z"/>
	<path class="st1" d="M28.7,0C12.9,0,0,12.9,0,28.7s12.9,28.7,28.7,28.7s28.7-12.9,28.7-28.7S44.6,0,28.7,0z M46.1,40.2
		c0,0.7-0.5,1.2-1.2,1.2H12.5c-0.6,0-1.1-0.5-1.1-1.2v-23c0-0.6,0.5-1.1,1.1-1.1H45c0.7,0,1.2,0.5,1.2,1.1v23H46.1z"/>
</g>
</svg>
