<?xml version="1.0" encoding="utf-8"?>
<!-- Generator: Adobe Illustrator 21.0.0, SVG Export Plug-In . SVG Version: 6.00 Build 0)  -->
<svg version="1.1" id="Capa_1" xmlns="http://www.w3.org/2000/svg" xmlns:xlink="http://www.w3.org/1999/xlink" x="0px" y="0px"
	 viewBox="0 0 57.9 57.9" style="enable-background:new 0 0 57.9 57.9;" xml:space="preserve">
<style type="text/css">
	.st0{fill:#FFFFFF;}
	.st1{fill:#6341CE;}
</style>
<rect x="11.5" y="12.5" class="st0" width="33.1" height="32.6"/>
<path class="st1" d="M29,0C13,0,0,13,0,29s13,29,29,29s29-13,29-29C57.9,13,45,0,29,0z M42.3,38.3c-0.6,1.6-3.3,3.1-4.6,3.2
	c-1.2,0.1-1.2,1-8.2-1.7c-6.9-2.7-11.3-9.8-11.6-10.2c-0.3-0.3-1.7-2.3-2.4-4.7c-0.2-0.7-0.4-1.5-0.4-2.3c0-3.3,1.8-5,2.4-5.6
	c0.6-0.7,1.4-0.8,1.8-0.8c0.5,0,0.9,0.1,1.3,0.1s1-0.2,1.5,1.1c0.6,1.4,1.9,4.7,2.1,5c0.2,0.3,0.3,0.7,0.1,1.2
	c-0.2,0.3-0.3,0.6-0.4,0.8c-0.1,0.1-0.2,0.2-0.2,0.3c-0.4,0.4-0.7,0.9-1,1.2c-0.3,0.3-0.7,0.7-0.3,1.4c0.4,0.7,1.8,2.9,3.8,4.7
	c2.6,2.3,4.8,3,5.5,3.4c0.7,0.3,1.1,0.3,1.5-0.2c0.4-0.4,1.7-2,2.2-2.6c0.5-0.7,0.9-0.6,1.5-0.3c0.6,0.2,4,1.9,4.6,2.2
	c0.7,0.3,1.1,0.5,1.3,0.8C42.9,35.4,42.9,36.7,42.3,38.3z"/>
</svg>
