<?xml version="1.0" encoding="utf-8"?>
<!-- Generator: Adobe Illustrator 21.0.0, SVG Export Plug-In . SVG Version: 6.00 Build 0)  -->
<svg version="1.1" id="Capa_1" xmlns="http://www.w3.org/2000/svg" xmlns:xlink="http://www.w3.org/1999/xlink" x="0px" y="0px"
	 viewBox="0 0 28.2 28.2" style="enable-background:new 0 0 28.2 28.2;" xml:space="preserve">
<style type="text/css">
	.st0{fill:#070811;stroke:#FFFFFF;stroke-width:1.5316;stroke-miterlimit:10;}
	.st1{fill:#E8365D;}
	.st2{fill:#FFFFFF;}
	.st3{fill:#1C2E52;}
	.st4{fill:#74B845;}
	.st5{fill:#F6A12B;}
	.st6{fill:#F9B52B;}
	.st7{opacity:0.2;}
</style>
<g>
	<defs>
		<circle id="SVGID_3_" cx="135.6" cy="-131.5" r="94.4"/>
	</defs>
	<clipPath id="SVGID_1_">
		<use xlink:href="#SVGID_3_"  style="overflow:visible;"/>
	</clipPath>
</g>
<path class="st1" d="M14.1,0C6.3,0,0,6.3,0,14.1s6.3,14.1,14.1,14.1c7.8,0,14.1-6.3,14.1-14.1S21.9,0,14.1,0z M19.7,15.9h-3.8v3.8
	c0,1-0.8,1.8-1.8,1.8s-1.8-0.8-1.8-1.8v-3.8H8.5c-1,0-1.8-0.8-1.8-1.8c0-1,0.8-1.8,1.8-1.8h3.8V8.5c0-1,0.8-1.8,1.8-1.8
	s1.8,0.8,1.8,1.8v3.8h3.8c1,0,1.8,0.8,1.8,1.8C21.5,15.1,20.7,15.9,19.7,15.9z"/>
</svg>
