<?xml version="1.0" encoding="utf-8"?>
<!-- Generator: Adobe Illustrator 22.1.0, SVG Export Plug-In . SVG Version: 6.00 Build 0)  -->
<svg version="1.1" id="Layer_1" xmlns="http://www.w3.org/2000/svg" xmlns:xlink="http://www.w3.org/1999/xlink" x="0px" y="0px"
	 viewBox="0 0 512 512" style="enable-background:new 0 0 512 512;" xml:space="preserve">
<style type="text/css">
	.st0{fill:#EDEDED;}
	.st1{fill:#3A9A48;}
	.st2{fill:#FEFEFE;}
</style>
<path class="st0" d="M104.7,407.3l20.9-75.7c-13.6-23.5-20.9-49.6-20.9-76.7c0-82.4,67.8-150.3,150.8-150.3S407.3,172.5,407.3,255
	s-68.9,152.4-151.8,152.4c-26.1,0-51.1-8.3-73.6-20.9L104.7,407.3z"/>
<path class="st1" d="M186.1,359.3l4.7,2.6c19.3,12,41.7,19.3,65.2,19.3c68.4,0,125.2-56.9,125.2-126.3s-56.9-124.2-125.7-124.2
	S130.8,186.1,130.8,255c0,24,6.8,47.5,19.3,67.3l3.1,4.7l-12,43.8L186.1,359.3z"/>
<path class="st2" d="M215.3,185l-9.9-0.5c-3.1,0-6.3,1-8.3,3.1c-4.7,4.2-12.5,12-14.6,22.4c-3.7,15.7,2.1,34.4,15.7,53.2
	s39.7,49,85.6,62.1c14.6,4.2,26.1,1.6,35.5-4.2c7.3-4.7,12-12,13.6-19.8l1.6-7.3c0.5-2.1-0.5-4.7-2.6-5.7l-32.9-15.1
	c-2.1-1-4.7-0.5-6.3,1.6l-13,16.7c-1,1-2.6,1.6-4.2,1c-8.9-3.1-38.6-15.7-54.8-47c-0.5-1.6-0.5-3.1,0.5-4.2l12.5-14.1
	c1-1.6,1.6-3.7,1-5.2l-15.1-33.9C219,186.6,217.4,185,215.3,185"/>
</svg>
