<?xml version="1.0" encoding="utf-8"?>
<!-- Generator: Adobe Illustrator 21.1.0, SVG Export Plug-In . SVG Version: 6.00 Build 0)  -->
<svg version="1.1" id="Layer_1" focusable="false" xmlns="http://www.w3.org/2000/svg" xmlns:xlink="http://www.w3.org/1999/xlink"
	 x="0px" y="0px" viewBox="0 0 512 512" style="enable-background:new 0 0 512 512;" xml:space="preserve">
<style type="text/css">
	.st0{fill:#3A9A48;}
	.st1{fill:#EDEDED;}
	.st2{fill:#FEFEFE;}
</style>
<g>
	<ellipse class="st0" cx="256" cy="256.9" rx="253.5" ry="249.9"/>
</g>
<g>
	<path class="st1" d="M77,429l25.5-92.3C85.9,308,77,276.2,77,243.2c0-100.5,82.7-183.3,183.9-183.3S446,142.7,446,243.3
		s-84,185.8-185.1,185.8c-31.8,0-62.3-10.1-89.8-25.5L77,429z"/>
	<path class="st0" d="M176.3,370.5l5.7,3.2c23.5,14.6,50.9,23.5,79.5,23.5c83.4,0,152.7-69.4,152.7-154S344.8,91.7,260.9,91.7
		s-152.1,67.6-152.1,151.6c0,29.3,8.3,57.9,23.5,82.1l3.8,5.7l-14.6,53.4L176.3,370.5z"/>
	<path class="st2" d="M203.8,153.9l-13.1-0.7c-4.1,0-8.4,1.3-11,4.1c-6.2,5.6-16.6,15.9-19.4,29.7c-4.9,20.8,2.8,45.6,20.8,70.5
		s52.6,65,113.5,82.3c19.4,5.6,34.6,2.1,47.1-5.6c9.7-6.2,15.9-15.9,18-26.3l2.1-9.7c0.7-2.8-0.7-6.2-3.4-7.6l-43.6-20
		c-2.8-1.3-6.2-0.7-8.4,2.1l-17.2,22.1c-1.3,1.3-3.4,2.1-5.6,1.3c-11.8-4.1-51.2-20.8-72.7-62.3c-0.7-2.1-0.7-4.1,0.7-5.6l16.6-18.7
		c1.3-2.1,2.1-4.9,1.3-6.9l-20-45C208.7,156,206.6,153.9,203.8,153.9"/>
</g>
</svg>
